<svg width="87.459mm" height="74.11mm" version="1.1" viewBox="0 0 87.459 74.11" xmlns="http://www.w3.org/2000/svg" xmlns:xlink="http://www.w3.org/1999/xlink"><defs><radialGradient id="a" cx="297.89" cy="388.39" r="93.364" gradientTransform="matrix(-.21007 .99352 -1.4894 -.31492 938.92 214.74)" gradientUnits="userSpaceOnUse"><stop style="stop-color:#fff" offset="0"/><stop style="stop-color:#d7d7d7" offset="1"/></radialGradient><radialGradient id="b" cx="297.89" cy="388.39" r="93.364" gradientTransform="matrix(.90945 .3716 -.40673 .99544 184.94 -108.92)" gradientUnits="userSpaceOnUse"><stop style="stop-color:#fff" offset="0"/><stop style="stop-color:#ebebeb" offset="1"/></radialGradient></defs><g transform="translate(-51.841 -22.165)"><rect x="51.841" y="22.165" width="87.459" height="74.11" style="fill:#fefefe"/></g><g transform="translate(-51.841 -22.165)" style="opacity:.43642"><g transform="matrix(.38453 0 0 -.37715 189.83 291.85)"><path transform="matrix(.68807 0 0 -.70154 -446.88 888.86)" d="m297.89 280.77 93.197 53.807v107.61l-93.197 53.807-93.197-53.807 1e-5 -107.61z" style="fill:url(#a)"/><path transform="matrix(0 -.70154 -.68807 0 25.32 825.38)" d="m297.89 280.77 93.197 53.807v107.61l-93.197 53.807-93.197-53.807 1e-5 -107.61z" style="fill:url(#b)"/></g></g><g transform="translate(-51.841 -22.165)"><g transform="matrix(.38453 0 0 -.37715 189.83 291.85)"><path d="m-246.57 615.99c1.4325 0.25578 2.0786-0.0852 3.5759 0.1433 2.3884 0.53542 0.38694 5.6452-1.018 3.2276 0.35888-2.0898 1.8351-3.6953 4.1618-3.3319 2.2966-0.26907 7.1501-0.90446 4.7045 1.303-1.9961-0.0102-2.7967-0.0395-4.8475 0.14117-1.5883-0.0579-2.342 0.34598-2.5198 2.028-2.3265 0.57511-0.85734-0.84049-0.80283-2.0055-0.6617-0.20033-2.2512 0.31997-3.8972-0.2609l0.64371-1.2451zm-33.213 63.348c0.44923 1.3629 2.9839 2.9706 0.46216 2.9769-0.38171-0.55568-3.3031-3.0555-0.46216-2.9769zm-18.616-33.278c2.1409 3.8417 5.0415 7.3252 6.6614 11.55 3.7985 6.8801 7.8937 13.588 11.128 20.757 2.151 6.2672-4.0929-2.5586-4.4607-5.1493-4.4892-7.7692-8.5874-15.764-12.924-23.598-0.72971-0.93418-3.1668-3.5733-0.40426-3.56zm-16.97-30.104c2.6355 5.5729 6.9821 11.461 9.9185 17.322 3.0329 3.9018 4.3841 9.1042 7.0626 12.824-2.3522 1.788-3.3198-3.9648-4.6134-5.6126-4.0991-7.7786-9.3892-15.504-13.237-23.145l-0.43575-0.91712 1.3049-0.47079zm-1.3295 0.1463c2.1108-5.0245 5.6059-9.8795 8.2906-14.825 2.9443-3.8896 4.3502-9.2298 7.5091-12.705 1.3396-2.7532 2.3087 0.64808 0.59232 1.4148-2.9539 4.3146-4.9482 9.8782-8.2093 14.269-2.0714 3.8434-4.4661 7.588-6.6339 11.285 0.51371-1.9109-0.11832 3.6769-1.5488 0.56207zm38.478-64.793c-2.5554 4.3837-4.4912 9.5718-7.6332 13.885-2.6271 4.9561-6.336 9.3124-8.694 14.443-1.5952 3.3701-4.0222 6.6126-5.4863 9.8129-2.5406-0.11775 0.6576-3.7417 1.339-5.3967 3.5052-5.8829 6.1768-12.272 10.643-17.545 2.4995-4.9701 5.7003-9.6172 7.8773-14.758 0.42195-0.55587 0.91877-1.9381 1.9542-0.442zm-37.063 64.366c4.8678-0.21956 9.2058-0.43525 13.532-0.0151 4.5549 0.1998 9.7502-0.30567 14.755-0.0603 7.1313 0.30526 13.304-0.0439 20.325-0.10713 7.3777 0.0688 15.573 0.28287 22.4 0.28704 4.6058-1.0023 3.8672 2.5425-0.36581 1.4053-10.594 0.28986-21.148-0.60862-31.453-0.061-4.1809 0.29162-10.281-0.22285-15.484-0.0717-4.26-0.13247-10.469 0.48735-13.764-0.2173-2.9742-0.91737-9.5464 2.1362-9.9445-1.1598zm36.954-64.534c3.3244 5.5479 5.7381 11.745 9.7307 16.935 4.1737 9.4048 11.12 17.311 15.078 26.858 2.9539 4.8213 5.8272 9.7809 7.9016 15.046 1.1662 2.1042 6.853 10.334 1.8765 5.7595-3.9648-5.511-5.7534-11.867-9.5766-17.636-3.8872-7.8235-8.4063-15.276-13.073-22.66-3.1678-5.9251-6.6985-11.594-10.023-17.455 0.30648-2.0199-4.7414-6.1412-1.9149-6.8473zm73.616-0.11408c-0.22333 3.5219-3.4378 6.3627-5.3237 10.962-4.9544 8.2422-9.6218 16.641-14.122 25.152-3.6392 5.7968-7.0637 11.797-10.671 17.684-2.346 3.087-5.9178 13.252-8.2346 11.226 4.9481-8.2007 9.5532-16.642 14.68-24.738 4.9283-8.1409 9.1194-16.71 14-24.891 3.1736-4.2985 4.9732-9.4572 8.1119-13.747 1.3943 1.3984-1.8656-2.2191 1.5601-1.6473zm36.005 65.19c-3.0539-3.0329-3.967-7.188-6.7826-10.629-2.967-5.6777-5.2418-11.67-9.3089-16.739-2.9883-5.2237-4.8935-10.964-8.5405-15.789-3.6068-6.5077-7.3136-12.969-10.998-19.413-4.2023-4.784 1.8352-2.681 2.4893 1.489 4.5873 8.16 9.0447 16.091 13.863 24.1 3.2386 8.3329 9.5114 15.323 12.679 23.801 2.7569 3.7824 4.2368 8.4771 7.2994 11.781l0.51295 0.73083-1.2148 0.66691zm1.3508 0.24524c-1.4142 4.3192-5.0293 9.0847-7.3341 13.92-3.5643 5.295-6.3931 10.818-9.4925 16.304-5.502 9.1057-10.924 18.247-15.757 27.715-1.6711 3.4723-6.0864 7.9735-3.3868 2.1834 4.4689-5.8383 7.0048-12.85 11.006-18.988 3.0021-4.9039 5.6573-10.018 8.9385-14.733 1.4768-4.9855 5.1833-8.5122 7.4208-13.21 2.36-3.5434 4.8316-9.6316 6.9929-12.012l0.24404-1.345 1.3684 0.16709zm-73.782 0.0805c1.6928 3.2361 3.6111 6.385 5.9215 9.568 1.6312 4.1481 4.2766 7.8036 6.216 11.89 3.5318 4.5341 6.4737 9.6503 8.5972 14.997 2.4578 4.81 5.7772 9.572 8.2438 14.777 2.8267 4.356 5.176 9.2571 7.6838 13.636-4.1782-0.75027-6.3266-10.559-9.771-14.671-2.8021-5.7563-6.8841-10.73-8.9272-16.96-3.5222-6.0123-7.3672-11.7-10.761-17.794-2.1958-4.8226-5.2155-9.2274-7.979-13.755l-0.47812-1.0421 1.2524-0.64741zm-37.545 64.712c3.9636 0.0363 6.5942-0.30412 10.742-0.27998 5.1702 0.11404 10.031-0.0607 14.979-0.21866 4.9465 1.0374 9.3459-2e-3 14.198 0.26163 4.2877-0.45379 8.8022-0.18336 12.371-0.22898 4.5196-0.26667 7.3704 0.69258 11.392 0.45764 3.836 0.0232 6.5432-0.16737 10.377-0.32436 1.54 2.607-5.3064 1.0433-7.6222 1.6945-2.9078 0.16776-6.5575-0.13719-10.084-0.3073-6.0328-0.31251-12.581-0.12353-18.086 0.0973-5.1076 0.13346-10.528 0.0964-16.253-0.14023-4.0438 0.29479-10.254 0.11982-14.212 0.1259-1.8754-0.77431-8.5929 2.0083-7.8024-1.1375zm0.18395-130.78c10.708 0.46161 21.436-0.83973 31.912-0.12636 4.8631 0.0176 10.325-0.55386 15.44 0.11954 4.4041-0.17644 11.31-0.0343 15.762-0.0755 2.1925-0.71145 12.933-1.2121 9.5003 1.7244-0.92046-1.6833-6.4194-0.49603-9.6309-0.29218-7.0615-0.044-14.204 0.24965-20.587-0.238-4.9836-0.0824-9.5682 0.39996-14.062 0.0417-3.3594-0.56056-8.4093 0.26184-12.758 0.17761-4.4478 0.20663-9.4311 0.18688-12.984 0.083-0.97235-0.0139-4.544 0.79666-2.5924-1.4143zm72.853 131.09c1.4196-1.3651 1.2267-5.7377 3.6516-4.3886-1.0158 1.6857-1.429 3.5357-2.3929 4.987l-1.2591-0.59824zm-36.022-65.779c3.5294 0.6435 6.4763-0.22501 9.6712-0.01 5.2663-0.37118 9.9504 0.19472 15.283 0.10147 5.9638 0.25 11.882-0.49202 18.148-0.37278 3.5281 0.33231 7.87 0.088 12.053 0.41497 2.4995-0.021 6.7814-0.35363 10.45-0.54487 2.3198-0.21975 11.399-0.0477 6.4576 1.411-2.69-0.0426-6.9569 0.10508-10.135 0.0755-3.4839 0.53932-7.0753 0.41999-10.38 0.26114-4.1524-8e-3 -8.7096-0.2181-12.616-0.25449-5.9206 0.89819-12.151 0.22732-17.67 0.46904-2.9353-0.31179-6.8427-0.40408-10.619-0.17882-3.5498-0.16904-7.1484 0.60677-10.985-0.0104l0.34255-1.3602zm0.32274 1.1008c-2.1768 5.1336-5.508 10.133-8.6095 14.998-2.7461 7.3319-7.8455 13.415-11.415 20.316-3.56 5.6751-6.0612 11.904-10.089 17.329-2.4641 3.519-5.264 12.129-8.3018 12.017 1.8775-4.0693 4.5321-7.1467 6.328-11.283 3.0559-5.3551 6.7574-10.324 9.0832-16.052 3.9664-6.7806 8.299-13.347 12.008-20.279 2.2045-4.815 5.2537-9.1265 7.8586-13.742 1.6474-0.7217 0.69716-4.5941 3.1384-3.3051zm-37.59-65.875c24.682 43.588 49.364 87.176 74.046 130.76m-111.07-65.382h148.09m-111.07 65.382c24.682-43.588 49.364-87.176 74.046-130.76"/></g><path d="m90.15 34.953c0.75794-0.43372 1.46-0.97313 2.2847-1.2808 0.74528-0.54044 1.5463-0.99628 2.3825-1.3791 0.44422-0.28919 0.85764-0.63445 1.353-0.84195 0.3864-0.04609 0.74666-0.69277 0.97102-0.18182 0.47271 0.36439 1.0869 0.47022 1.5572 0.84231 0.83954 0.54205 1.7755 0.92901 2.562 1.5554 0.6459 0.39273 1.414 0.54862 2.0151 1.0219 0.17374 0.24614 0.73018 0.09437 0.2764-0.09935-0.50698-0.32348-1.033-0.60818-1.5977-0.81677-0.70995-0.28073-1.2522-0.8437-1.9406-1.1672-0.66478-0.31873-1.2692-0.74193-1.9117-1.0994-0.54566 0.0093-0.89024-0.77484-1.3782-0.56721-0.62584 0.30003-1.2668 0.58387-1.8024 1.0347-0.62308 0.35139-1.2956 0.62445-1.8876 1.0363-0.45291 0.33158-0.94859 0.58689-1.4532 0.82518-0.43433 0.21189-0.79738 0.52961-1.2296 0.73427-0.14915 0.05957-0.43659 0.22327-0.20095 0.3836z"/><path d="m114.95 41.419c0.3932 0.24005 0.73075 0.57217 1.1742 0.73475 0.57517 0.24801 0.9839 0.77918 1.5927 0.96906 0.57794 0.17215 1.0299 0.57866 1.5422 0.87533 0.4947 0.23611 0.98782 0.46928 1.4521 0.76011 0.36579 0.23892 0.86326 0.40043 0.71844 0.92805 0.0582 0.45486 0.0723 0.92742-8e-3 1.3823-0.0697 0.70347-0.0288 1.4119-0.0414 2.1186 0.0189 0.77416 0.0376 1.5466 0.0187 2.3219 0.0731 0.24776-0.15165 1.0911 0.22386 0.83958 5e-3 -0.79786 0.0158-1.5968-2e-3 -2.3941-0.04-0.64841 5e-3 -1.3023-0.0146-1.9519-0.0393-0.64841 0.1476-1.2881 0.0913-1.9396-0.1559-0.38171 0.11041-0.92476-0.33302-1.1369-0.38572-0.25713-0.78756-0.49707-1.1863-0.7366-0.56542-0.23979-1.1081-0.52711-1.5956-0.89836-0.40043-0.2452-0.85445-0.37815-1.2593-0.61009-0.47185-0.29607-0.88033-0.68466-1.4162-0.86909-0.34279-0.04367-0.70116-0.80024-0.95854-0.39276z"/><path d="m115.32 77.368c0.44265-0.39753 1.0714-0.46021 1.5174-0.8479 0.39459-0.40756 0.99802-0.43176 1.3725-0.8809 0.44178-0.32073 0.99309-0.46267 1.4132-0.82163 0.65673-0.34898 1.3019-0.72336 1.9513-1.0791 0.14785-0.47605 0.16516-1.0608 0.13461-1.5794-0.12066-0.53802-0.0123-1.0937-0.0249-1.638 0.0824-0.73759-0.0984-1.4657-0.0738-2.2035-0.0266-0.49984-0.0781-0.99671-0.0488-1.4981-0.0168-0.16488 0.0559-0.92907-0.24022-0.62248-7e-3 0.88776 0.0348 1.7742 0.081 2.66 0.0251 0.61942 0.1195 1.2428 0.0432 1.8636 0.0103 0.53885-0.0808 1.0886 0.0716 1.6135 0.0193 0.40253-0.12259 0.79446-0.0674 1.1981-0.25598 0.24883-0.75232 0.38986-1.0898 0.6231-0.47684 0.25603-0.93602 0.54039-1.3966 0.82157-0.40453 0.19474-0.82649 0.37404-1.1533 0.69098-0.5722 0.25481-1.0575 0.634-1.5768 0.95965-0.30079 0.19399-1.0223 0.3274-0.9982 0.67369l0.0408 0.03699z"/><path d="m96.888 87.992c0.31085-0.24613 0.68575-0.29476 1.0152-0.57457 0.41795-0.30047 0.79883-0.69046 1.3244-0.79202 0.41111-0.24379 0.8385-0.46291 1.2265-0.73995 0.44939-0.36812 1.001-0.55832 1.4738-0.88914 0.50497-0.34283 1.1167-0.48788 1.605-0.85315 0.0333-0.41382-0.55918 0.14004-0.78485 0.18206-0.73586 0.30153-1.3794 0.77184-2.0807 1.1395-0.48674 0.34478-0.98261 0.67475-1.5158 0.94859-0.47521 0.10025-0.8504 0.40557-1.2117 0.71144-0.33393 0.32577-0.89811 0.42973-1.1747 0.75529l0.03703 0.05392zm-6.4654-3.7498c0.54781 0.47839 1.2012 0.8147 1.8613 1.1045 0.63983 0.42283 1.3414 0.73706 1.9747 1.1712 0.58749 0.31448 1.1511 0.67111 1.7331 0.99246 0.30064 0.10726 0.74597 0.46662 1.0019 0.3176-0.27724-0.37736-0.84197-0.38784-1.2053-0.6796-0.4845-0.25968-0.92257-0.59185-1.4218-0.82848-0.65684-0.44291-1.3839-0.76729-2.0458-1.2015-0.43733-0.19008-0.86892-0.39339-1.2608-0.66094-0.18504-0.10902-0.47555-0.59027-0.63719-0.21511z"/><path d="m72.096 66.398c-0.0019 0.7705-0.03703 1.5423 0.01226 2.3112-0.02197 0.97468 0.08395 1.9556-0.07465 2.9228-0.0449 0.62221-0.0092 1.2471-0.04438 1.8695 0.19719 0.43196 0.74804 0.61575 1.1513 0.84391 0.74615 0.40645 1.5271 0.75278 2.249 1.202 0.64846 0.48116 1.3843 0.8121 2.0909 1.1939 0.5248 0.24087 0.92874 0.67579 1.4435 0.92727 0.40737 0.01725-0.22767-0.45915-0.39757-0.52345-0.6392-0.42388-1.2999-0.81463-1.9892-1.1532-0.71496-0.36529-1.3296-0.89922-2.0726-1.212-0.54162-0.29082-1.0985-0.55054-1.6415-0.83726-0.19939-0.24574-0.74448-0.27784-0.5984-0.50531 8e-3 -0.83984-0.0088-1.683 0.11652-2.5158 0.0038-1.0977-0.0075-2.198-0.0456-3.2956-0.07707-0.3772 0.20879-1.0466-0.1219-1.2472l-0.07766 0.01919z"/><path d="m72.326 52.893c0.06127-0.55718-0.11192-1.1096-0.05993-1.6694 3.15e-4 -1.1084-0.02048-2.2178 0.05335-3.3235-0.0316-0.59585-0.12516-1.1852-0.12102-1.7844 0.0366-0.44984-0.23745-0.99809 0.34068-1.1725 0.61193-0.44604 1.3879-0.53988 2.0455-0.89929 0.73208-0.31528 1.3343-0.85457 2.0181-1.2493 0.55043-0.44315 1.2134-0.69501 1.8367-1.0122 0.22205-0.03699 0.79863-0.62033 0.28516-0.45638-0.63502 0.4715-1.4268 0.66724-2.0597 1.1461-0.62528 0.37358-1.1865 0.84187-1.823 1.1969-0.6087 0.3423-1.2776 0.54752-1.9254 0.79902-0.4094 0.26895-1.1505 0.48813-0.94155 1.1289-0.05408 0.893 0.13689 1.7766 0.11488 2.6691-0.09434 1.2188-0.03678 2.4456-0.03611 3.6678 0.23193 0.25508-0.23224 0.96079 0.27232 0.95924z"/><g transform="matrix(.38453 0 0 -.37715 189.61 291.87)"><g transform="scale(.99035 -1.0097)" style="stroke-width:.69477" aria-label="I"><path d="m-211.62-643.81h9.6617v1.5379h-0.74182q-1.0494 0-1.5198 0.28949t-0.68753 0.83228q-0.21712 0.5247-0.21712 2.0626v16.266q0 1.2303 0.23521 1.755 0.23521 0.5066 0.65135 0.74181 0.43423 0.23521 1.5379 0.23521h0.74182v1.5198h-9.6617v-1.5198h0.79609q1.0675 0 1.5017-0.23521 0.45233-0.2533 0.65135-0.70562 0.19902-0.47042 0.19902-1.7912v-16.646q0-1.3932-0.19902-1.8636-0.19902-0.48851-0.65135-0.70563-0.43423-0.23521-1.5017-0.23521h-0.79609z"/></g><g transform="scale(.99035 -1.0097)" style="stroke-width:.69477" aria-label="C"><path d="m-236.5-668.67h1.3027l2.2978 8.4133-1.6826 0.47042q-1.357-2.913-2.0626-3.9081-1.158-1.6103-2.8949-2.5511-1.7188-0.94084-3.7995-0.94084-2.4426 0-4.5052 1.3208-2.0445 1.3027-3.3291 3.8357-1.2665 2.533-1.2665 5.6993 0 3.2568 1.2846 5.8079 1.3027 2.5511 3.51 3.9262t4.7585 1.3751q2.4064 0 4.9213-1.3751t4.3604-3.8538l1.4474 0.99512q-1.1218 1.6646-2.4245 2.8225-2.0626 1.8636-4.288 2.7501-2.2254 0.88656-4.8851 0.88656-5.8802 0-9.5531-4.3604-3.0396-3.6186-3.0396-8.6123 0-3.6729 1.6826-6.6401 1.6826-2.9853 4.6318-4.7404 2.9673-1.755 6.3868-1.755 1.8274 0 3.3834 0.50661 1.5741 0.48851 3.1844 1.5922z"/></g><g transform="scale(.99035 -1.0097)" style="stroke-width:.69477" aria-label="WK"><path d="m-263.99-705.81h5.4279v0.92275h-0.57536q-0.5645 0-0.77076 0.10856-0.31482 0.17369-0.31482 0.52107 0 0.24969 0.17369 0.79248l3.1048 10.096 2.6922-8.2938-0.62964-2.0083q-0.22797-0.71649-0.69477-1.0313-0.28225-0.18455-0.98788-0.18455v-0.92275h5.3845v0.92275h-0.51022q-0.66221 0-0.89018 0.16283-0.22797 0.16284-0.22797 0.44509 0 0.23883 0.17369 0.81419l3.1156 10.161 3.1373-10.161q0.16284-0.53194 0.16284-0.80333 0-0.31482-0.21712-0.4668t-0.85761-0.15198h-0.54279v-0.92275h4.6246v0.92275q-0.58622-0.0109-0.87932 0.11941-0.28226 0.11941-0.4668 0.35824-0.18455 0.22797-0.40167 0.94446l-4.1795 12.799h-1.5741l-2.9202-9.0538-2.9311 9.0538h-1.5632l-4.1035-12.799q-0.29311-0.92275-0.72734-1.2158-0.32568-0.20626-1.0313-0.20626z"/><path d="m-241.81-705.81h5.8404v0.92275h-0.41252q-0.71648 0-1.0096 0.17369t-0.41252 0.54279q-0.0977 0.2714-0.0977 0.89018v5.721l5.6884-6.025q0.44509-0.47765 0.52108-0.61878 0.0868-0.14112 0.0868-0.2931 0-0.19541-0.19541-0.29311-0.18455-0.0977-0.81418-0.0977h-0.34739v-0.92275h5.4279v0.92275q-0.6405-0.0109-1.1616 0.14112-0.52108 0.15198-0.82505 0.37996-0.6622 0.48851-0.94445 0.78161l-4.0601 4.1578 4.6354 6.1444q0.62963 0.8359 0.99873 1.1507 0.3691 0.30397 0.75991 0.43424 0.39081 0.11941 1.2158 0.11941v0.91189h-6.4266v-0.91189h0.37995q0.64049 0 0.75991-0.0326 0.18455-0.0434 0.29311-0.17369 0.10855-0.13027 0.10855-0.27139 0-0.28226-0.74905-1.2918l-3.4196-4.6463-1.9323 1.9975v2.8985q0 0.74905 0.15198 1.0204 0.15198 0.2714 0.4668 0.40167 0.24968 0.0977 1.3136 0.0977v0.91189h-5.8404v-0.91189h0.45594q0.68392 0 0.9336-0.13027 0.24968-0.14112 0.37995-0.45594 0.14113-0.31482 0.14113-1.1182v-9.9982q0-0.79248-0.13027-1.0747-0.13027-0.29311-0.37995-0.41252-0.24969-0.11941-1.0639-0.11941h-0.33653z"/></g><g transform="scale(.99035 -1.0097)" style="stroke-width:.69477" aria-label="KR"><path d="m-342.37-663.37h5.8404v0.92274h-0.41252q-0.71648 0-1.0096 0.1737-0.29311 0.17369-0.41252 0.54279-0.0977 0.27139-0.0977 0.89017v5.721l5.6884-6.025q0.44509-0.47766 0.52108-0.61878 0.0868-0.14113 0.0868-0.29311 0-0.1954-0.19541-0.29311-0.18455-0.0977-0.81418-0.0977h-0.34739v-0.92274h5.4279v0.92274q-0.6405-0.0109-1.1616 0.14113-0.52108 0.15198-0.82504 0.37995-0.6622 0.48851-0.94445 0.78162l-4.0601 4.1578 4.6354 6.1444q0.62964 0.8359 0.99874 1.1507 0.3691 0.30396 0.75991 0.43423 0.3908 0.11942 1.2158 0.11942v0.91188h-6.4266v-0.91188h0.37995q0.64049 0 0.75991-0.0326 0.18455-0.0434 0.2931-0.17369 0.10856-0.13027 0.10856-0.2714 0-0.28225-0.74905-1.2918l-3.4196-4.6463-1.9323 1.9975v2.8985q0 0.74905 0.15198 1.0204 0.15198 0.27139 0.4668 0.40166 0.24968 0.0977 1.3136 0.0977v0.91188h-5.8404v-0.91188h0.45595q0.68391 0 0.9336-0.13027 0.24968-0.14113 0.37995-0.45595 0.14113-0.31482 0.14113-1.1182v-9.9982q0-0.79247-0.13027-1.0747-0.13027-0.29311-0.37996-0.41252-0.24968-0.11942-1.0639-0.11942h-0.33653z"/><path d="m-326.4-663.37h7.8162q2.2254 0 3.3653 0.4668 1.1399 0.45594 1.7478 1.3353 0.61878 0.86847 0.61878 2.0192 0 1.1833-0.59707 2.106-0.59707 0.91189-1.7261 1.4438-1.1182 0.52108-2.9745 0.54279l3.9949 4.8851q0.48851 0.60792 0.64049 0.74905 0.37995 0.33653 0.79247 0.51022 0.42338 0.1737 0.94446 0.1737h0.27139v0.91188h-3.4521l-5.5582-7.23h-1.9432v4.668q0 0.78162 0.0543 0.97703 0.11941 0.36909 0.37995 0.52107 0.2714 0.15199 1.0422 0.15199h0.39081v0.91188h-5.8079v-0.91188h0.52108q0.58622 0 0.78162-0.076 0.20626-0.076 0.35824-0.26054 0.16284-0.19541 0.22797-0.48852 0.0217-0.11941 0.0326-1.0964v-9.9222q0-0.65135-0.13027-0.9336t-0.3691-0.40167q-0.22797-0.13027-0.80333-0.13027h-0.61878zm3.9407 1.1833v5.6993h3.1156q1.585 0 2.2254-0.1954 0.91189-0.26054 1.433-0.95531 0.53193-0.69478 0.53193-1.7695 0-0.91189-0.37995-1.5307-0.37995-0.62964-1.0422-0.9336-0.65135-0.31482-1.954-0.31482z"/></g><g transform="scale(.99035 -1.0097)" style="stroke-width:.69477" aria-label="AU"><path d="m-300.12-694.65h1.7912l4.7006 12.658q0.34738 0.95531 0.69477 1.2701 0.35824 0.30396 0.95531 0.30396h0.23883v0.91189h-5.3953v-0.91189q0.26054-0.0217 0.51022-0.0217 0.52108 0 0.68392-0.10856 0.31482-0.20626 0.31482-0.52108 0-0.22797-0.30397-1.1182l-0.99873-2.9311h-5.493l-1.1724 3.2785q-0.18455 0.51022-0.18455 0.70563 0 0.21711 0.10856 0.37995 0.11942 0.16284 0.31482 0.24968 0.1954 0.076 0.62964 0.076 0.2931 0 0.47765 0.0109v0.91189h-4.5269v-0.91189q0.62964 0 0.90103-0.11941 0.28225-0.13027 0.48851-0.40167 0.20626-0.28225 0.54279-1.1724zm-1.8998 8.4675h4.6789l-2.3449-6.5135z"/><path d="m-290.84-694.65h5.8513v0.92275h-0.39081q-0.71648 0-1.0204 0.14112-0.23883 0.10856-0.35824 0.3691-0.11942 0.26054-0.11942 1.0422v6.8174q0 1.8238 0.43423 2.7031 0.44509 0.87932 1.4655 1.4764 1.0313 0.59707 2.258 0.59707 1.2376 0 2.3448-0.64049t1.5524-1.5198 0.44509-2.7791v-6.5569q0-0.71648-0.14112-1.0313-0.14113-0.31482-0.43424-0.4668-0.28225-0.15198-0.89017-0.15198h-0.42338v-0.92275h5.0697v0.92275h-0.34738q-0.85761 0-1.1833 0.32567-0.31481 0.32568-0.31481 1.2267v6.9803q0 1.9106-0.71649 3.1916-0.71648 1.2701-2.0843 2.0192-1.3678 0.7382-3.1808 0.7382-1.7152 0-3.1373-0.75991-1.4221-0.75991-2.0952-1.8889-0.6622-1.1399-0.6622-2.8551v-7.4254q0-0.71649-0.13027-0.99874-0.13027-0.2931-0.37995-0.42337-0.24969-0.13027-0.86847-0.13027h-0.54279z"/></g><g transform="scale(.99035 -1.0097)" style="stroke-width:.69477" aria-label="MN"><path d="m-211.45-694.32h4.7874l4.4726 11.996 4.3532-11.996h4.6246v0.92274h-0.39081q-0.70563 0-0.95531 0.11941-0.23883 0.11942-0.37996 0.42338-0.14112 0.29311-0.14112 0.97702v9.9874q0 0.94445 0.10856 1.2267 0.11941 0.28225 0.37995 0.43423 0.2714 0.14112 0.98788 0.14112h0.39081v0.91189h-5.7862v-0.91189h0.41252q0.55365 0 0.80333-0.0868 0.26054-0.0868 0.42338-0.28225 0.17369-0.20626 0.1954-0.42338 0.0543-0.44509 0.0543-0.69477v-11.149l-4.9394 13.548h-1.0747l-4.9828-13.353v10.736q0 0.81419 0.14112 1.1073 0.14113 0.28225 0.43423 0.44509 0.30397 0.15198 1.0747 0.15198h0.34739v0.91189h-5.3411v-0.91189h0.30396q0.77076 0 1.0964-0.16283 0.33653-0.16284 0.47765-0.45595 0.14113-0.30396 0.14113-1.1833v-9.8896q0-0.82504-0.11942-1.0856-0.11941-0.27139-0.40166-0.40166-0.2714-0.13027-0.97702-0.13027h-0.52108z"/><path d="m-191.09-694.32h4.6463l6.8934 11.355v-8.6412q0-0.77076-0.15198-1.1073t-0.45594-0.51023q-0.30396-0.17369-0.90103-0.17369h-0.39081v-0.92274h5.0697v0.92274h-0.27139q-0.67306 0-0.91189 0.10856-0.33653 0.15198-0.51023 0.55364-0.16283 0.40167-0.16283 1.129v12.43h-1.3136l-8.3047-13.646v10.812q0 0.90104 0.0543 1.0964 0.076 0.24969 0.27139 0.45595 0.20626 0.20626 0.47766 0.28225 0.27139 0.076 1.0964 0.0868v0.91189h-5.1348v-0.91189h0.27139q0.78162 0 1.053-0.15198 0.28225-0.15198 0.43423-0.52108 0.15198-0.36909 0.15198-1.2484v-9.5965q0-0.90103-0.0434-1.0964-0.0977-0.3691-0.37996-0.53193-0.27139-0.16284-1.0964-0.16284h-0.39081z"/></g><g transform="scale(.99035 -1.0097)" style="stroke-width:.69477" aria-label="WI"><path d="m-177.83-661.57h5.4279v0.92275h-0.57536q-0.5645 0-0.77076 0.10856-0.31482 0.17369-0.31482 0.52107 0 0.24969 0.17369 0.79248l3.1048 10.096 2.6922-8.2938-0.62964-2.0083q-0.22797-0.71648-0.69477-1.0313-0.28225-0.18455-0.98788-0.18455v-0.92275h5.3845v0.92275h-0.51022q-0.66221 0-0.89018 0.16283-0.22797 0.16284-0.22797 0.44509 0 0.23883 0.17369 0.81419l3.1156 10.161 3.1373-10.161q0.16284-0.53194 0.16284-0.80333 0-0.31482-0.21712-0.4668t-0.85761-0.15198h-0.54279v-0.92275h4.6246v0.92275q-0.58622-0.0109-0.87933 0.11941-0.28225 0.11942-0.4668 0.35824-0.18454 0.22798-0.40166 0.94446l-4.1795 12.799h-1.5741l-2.9202-9.0538-2.9311 9.0538h-1.5632l-4.1035-12.799q-0.2931-0.92274-0.72733-1.2158-0.32568-0.20626-1.0313-0.20626z"/><path d="m-155.89-661.57h5.797v0.92275h-0.44509q-0.62964 0-0.91189 0.17369t-0.41252 0.49937q-0.13027 0.31482-0.13027 1.2376v9.7594q0 0.7382 0.14113 1.053 0.14112 0.30396 0.39081 0.44509 0.26054 0.14112 0.92274 0.14112h0.44509v0.91189h-5.797v-0.91189h0.47765q0.6405 0 0.90103-0.14112 0.2714-0.15199 0.39081-0.42338 0.11942-0.28225 0.11942-1.0747v-9.9873q0-0.8359-0.11942-1.1182-0.11941-0.29311-0.39081-0.42338-0.26053-0.14112-0.90103-0.14112h-0.47765z"/></g><g transform="scale(.99035 -1.0097)" style="stroke-width:.69477" aria-label="KE"><path d="m-165.04-617.2h5.8404v0.92274h-0.41252q-0.71649 0-1.0096 0.1737-0.29311 0.17369-0.41252 0.54279-0.0977 0.27139-0.0977 0.89017v5.721l5.6884-6.025q0.44509-0.47766 0.52108-0.61878 0.0868-0.14113 0.0868-0.29311 0-0.1954-0.1954-0.29311-0.18455-0.0977-0.81419-0.0977h-0.34738v-0.92274h5.4279v0.92274q-0.64049-0.0109-1.1616 0.14113-0.52108 0.15198-0.82504 0.37995-0.6622 0.48851-0.94446 0.78162l-4.0601 4.1578 4.6354 6.1444q0.62964 0.8359 0.99874 1.1507 0.36909 0.30396 0.7599 0.43423 0.39081 0.11942 1.2158 0.11942v0.91188h-6.4266v-0.91188h0.37996q0.64049 0 0.7599-0.0326 0.18455-0.0434 0.29311-0.17369 0.10856-0.13027 0.10856-0.2714 0-0.28225-0.74905-1.2918l-3.4196-4.6463-1.9323 1.9975v2.8985q0 0.74905 0.15199 1.0204 0.15198 0.27139 0.46679 0.40166 0.24969 0.0977 1.3136 0.0977v0.91188h-5.8404v-0.91188h0.45595q0.68391 0 0.9336-0.13027 0.24968-0.14113 0.37995-0.45595 0.14112-0.31482 0.14112-1.1182v-9.9982q0-0.79247-0.13027-1.0747-0.13026-0.29311-0.37995-0.41252-0.24968-0.11942-1.0639-0.11942h-0.33653z"/><path d="m-149.08-617.2h12.31l1.4221 3.9841-0.95531 0.35824q-0.35824-0.97702-0.78161-1.5307-0.42338-0.5645-1.0204-0.95531-0.58621-0.39081-1.1941-0.52108-0.59707-0.13027-2.1712-0.13027h-3.6693v5.5473h1.8238q1.0096 0 1.5198-0.33653 0.52108-0.34738 0.71649-0.85761 0.15198-0.37995 0.15198-1.3244v-0.24968h1.0639v6.6438h-1.0639v-0.57536q0-0.75991-0.11942-1.0964-0.10855-0.33653-0.41252-0.62963-0.30396-0.30397-0.6622-0.41253-0.34739-0.10855-1.1941-0.10855h-1.8238v4.9285q0 0.77077 0.0651 0.94446 0.076 0.16284 0.23883 0.23883 0.16283 0.076 0.89017 0.076h2.2689q1.8998 0 2.9636-0.45595 1.0747-0.45594 1.8889-1.4004 0.6405-0.73819 1.2267-2.0843l0.98788 0.34739-1.6935 4.744h-12.777v-0.91188h0.43424q0.7599 0 0.94445-0.0977 0.28225-0.14112 0.43423-0.45594 0.10856-0.21712 0.10856-0.94446v-10.422q0-0.70563-0.14112-0.94446-0.14113-0.23883-0.48851-0.3691-0.18455-0.076-1.2918-0.076z"/></g><g transform="scale(.99035 -1.0097)" style="stroke-width:.69477" aria-label="MA"><path d="m-176.09-573.65h4.7874l4.4726 11.996 4.3532-11.996h4.6246v0.92274h-0.39081q-0.70562 0-0.95531 0.11942-0.23882 0.11941-0.37995 0.42337-0.14113 0.29311-0.14113 0.97703v9.9873q0 0.94446 0.10856 1.2267 0.11942 0.28225 0.37996 0.43423 0.27139 0.14113 0.98787 0.14113h0.39081v0.91188h-5.7861v-0.91188h0.41252q0.55364 0 0.80333-0.0869 0.26054-0.0869 0.42337-0.28225 0.1737-0.20626 0.19541-0.42338 0.0543-0.44509 0.0543-0.69477v-11.149l-4.9394 13.548h-1.0747l-4.9828-13.353v10.736q0 0.81419 0.14113 1.1073 0.14112 0.28225 0.43423 0.44509 0.30396 0.15198 1.0747 0.15198h0.34738v0.91188h-5.3411v-0.91188h0.30396q0.77077 0 1.0964-0.16284 0.33653-0.16284 0.47766-0.45594 0.14112-0.30397 0.14112-1.1833v-9.8896q0-0.82504-0.11941-1.0856-0.11941-0.2714-0.40167-0.40167-0.27139-0.13027-0.97702-0.13027h-0.52108z"/><path d="m-149.99-573.65h1.7912l4.7006 12.658q0.34738 0.95532 0.69477 1.2701 0.35824 0.30397 0.95531 0.30397h0.23883v0.91188h-5.3953v-0.91188q0.26054-0.0217 0.51022-0.0217 0.52108 0 0.68392-0.10856 0.31482-0.20626 0.31482-0.52108 0-0.22797-0.30397-1.1182l-0.99873-2.9311h-5.493l-1.1724 3.2785q-0.18455 0.51022-0.18455 0.70562 0 0.21712 0.10856 0.37996 0.11941 0.16283 0.31482 0.24968 0.1954 0.076 0.62964 0.076 0.2931 0 0.47765 0.0109v0.91188h-4.5269v-0.91188q0.62964 0 0.90103-0.11942 0.28225-0.13027 0.48851-0.40166 0.20626-0.28225 0.54279-1.1724zm-1.8998 8.4675h4.6789l-2.3449-6.5135z"/></g><g transform="scale(.99035 -1.0097)" style="stroke-width:.69477" aria-label="IN"><path d="m-203.76-540.57h5.797v0.92274h-0.44508q-0.62964 0-0.91189 0.1737-0.28225 0.17369-0.41252 0.49936-0.13027 0.31482-0.13027 1.2376v9.7594q0 0.7382 0.14112 1.053 0.14113 0.30397 0.39081 0.44509 0.26054 0.14113 0.92275 0.14113h0.44508v0.91189h-5.797v-0.91189h0.47766q0.64049 0 0.90103-0.14113 0.27139-0.15198 0.39081-0.42337 0.11941-0.28226 0.11941-1.0747v-9.9874q0-0.83589-0.11941-1.1181-0.11942-0.29311-0.39081-0.42338-0.26054-0.14113-0.90103-0.14113h-0.47766z"/><path d="m-196.13-540.57h4.6463l6.8934 11.355v-8.6412q0-0.77076-0.15198-1.1073t-0.45594-0.51022q-0.30397-0.1737-0.90104-0.1737h-0.3908v-0.92274h5.0697v0.92274h-0.2714q-0.67306 0-0.91188 0.10856-0.33653 0.15198-0.51023 0.55365-0.16283 0.40166-0.16283 1.129v12.43h-1.3136l-8.3047-13.646v10.812q0 0.90103 0.0543 1.0964 0.076 0.24968 0.27139 0.45594 0.20626 0.20626 0.47766 0.28225 0.27139 0.076 1.0964 0.0868v0.91189h-5.1348v-0.91189h0.27139q0.78162 0 1.053-0.15198 0.28226-0.15198 0.43424-0.52108t0.15198-1.2484v-9.5965q0-0.90103-0.0434-1.0964-0.0977-0.3691-0.37995-0.53194-0.27139-0.16284-1.0964-0.16284h-0.3908z"/></g><g transform="scale(.99035 -1.0097)" style="stroke-width:.69477" aria-label="WA"><path d="m-260.35-531.07h5.4279v0.92274h-0.57536q-0.5645 0-0.77076 0.10856-0.31482 0.17369-0.31482 0.52108 0 0.24968 0.17369 0.79247l3.1048 10.096 2.6922-8.2938-0.62964-2.0083q-0.22797-0.71648-0.69477-1.0313-0.28225-0.18455-0.98788-0.18455v-0.92274h5.3845v0.92274h-0.51022q-0.66221 0-0.89018 0.16284-0.22797 0.16283-0.22797 0.44509 0 0.23882 0.17369 0.81418l3.1156 10.161 3.1373-10.161q0.16284-0.53193 0.16284-0.80333 0-0.31482-0.21712-0.4668t-0.85761-0.15198h-0.54279v-0.92274h4.6246v0.92274q-0.58622-0.0109-0.87932 0.11941-0.28225 0.11942-0.4668 0.35825-0.18455 0.22797-0.40167 0.94445l-4.1795 12.799h-1.5741l-2.9202-9.0537-2.9311 9.0537h-1.5632l-4.1035-12.799q-0.29311-0.92274-0.72734-1.2158-0.32568-0.20626-1.0313-0.20626z"/><path d="m-232.61-531.07h1.7912l4.7006 12.658q0.34739 0.95531 0.69477 1.2701 0.35825 0.30396 0.95532 0.30396h0.23882v0.91189h-5.3953v-0.91189q0.26054-0.0217 0.51023-0.0217 0.52108 0 0.68391-0.10856 0.31482-0.20626 0.31482-0.52107 0-0.22798-0.30396-1.1182l-0.99873-2.9311h-5.493l-1.1724 3.2784q-0.18455 0.51023-0.18455 0.70563 0 0.21712 0.10856 0.37995 0.11941 0.16284 0.31482 0.24969 0.1954 0.076 0.62963 0.076 0.29311 0 0.47766 0.0109v0.91189h-4.5269v-0.91189q0.62963 0 0.90103-0.11941 0.28225-0.13027 0.48851-0.40166 0.20626-0.28226 0.54279-1.1724zm-1.8998 8.4675h4.6788l-2.3448-6.5135z"/></g><g transform="scale(.99035 -1.0097)" style="stroke-width:.69477" aria-label="RE"><path d="m-306.06-540.73h7.8162q2.2254 0 3.3653 0.4668 1.1399 0.45595 1.7478 1.3353 0.61879 0.86846 0.61879 2.0192 0 1.1833-0.59707 2.106-0.59707 0.91188-1.7261 1.4438-1.1182 0.52108-2.9745 0.54279l3.9949 4.8851q0.48851 0.60793 0.64049 0.74906 0.37995 0.33653 0.79248 0.51022 0.42337 0.17369 0.94445 0.17369h0.2714v0.91189h-3.4522l-5.5582-7.23h-1.9432v4.668q0 0.78162 0.0543 0.97702 0.11942 0.3691 0.37996 0.52108 0.27139 0.15198 1.0422 0.15198h0.39081v0.91189h-5.8079v-0.91189h0.52108q0.58622 0 0.78162-0.076 0.20626-0.076 0.35824-0.26054 0.16284-0.1954 0.22797-0.48851 0.0217-0.11941 0.0326-1.0964v-9.9222q0-0.65135-0.13027-0.9336t-0.36909-0.40166q-0.22798-0.13027-0.80333-0.13027h-0.61879zm3.9407 1.1833v5.6993h3.1156q1.585 0 2.2254-0.19541 0.91189-0.26054 1.433-0.95531 0.53193-0.69477 0.53193-1.7695 0-0.91188-0.37995-1.5307-0.37995-0.62964-1.0422-0.9336-0.65135-0.31482-1.954-0.31482z"/><path d="m-290.06-540.73h12.31l1.4221 3.9841-0.95531 0.35824q-0.35824-0.97702-0.78162-1.5307-0.42338-0.5645-1.0204-0.95531-0.58621-0.39081-1.1941-0.52108-0.59707-0.13027-2.1712-0.13027h-3.6693v5.5473h1.8238q1.0096 0 1.5198-0.33653 0.52108-0.34739 0.71648-0.85761 0.15198-0.37995 0.15198-1.3244v-0.24968h1.0639v6.6438h-1.0639v-0.57536q0-0.7599-0.11941-1.0964-0.10856-0.33653-0.41252-0.62964-0.30396-0.30396-0.66221-0.41252-0.34738-0.10856-1.1941-0.10856h-1.8238v4.9285q0 0.77076 0.0651 0.94446 0.076 0.16283 0.23883 0.23882 0.16284 0.076 0.89018 0.076h2.2689q1.8998 0 2.9636-0.45594 1.0747-0.45594 1.8889-1.4004 0.64049-0.7382 1.2267-2.0843l0.98788 0.34739-1.6935 4.744h-12.777v-0.91189h0.43423q0.75991 0 0.94446-0.0977 0.28225-0.14113 0.43423-0.45594 0.10856-0.21712 0.10856-0.94446v-10.422q0-0.70563-0.14113-0.94445-0.14112-0.23883-0.48851-0.3691-0.18455-0.076-1.2918-0.076z"/></g><g transform="scale(.99035 -1.0097)" style="stroke-width:.69477" aria-label="GW"><path d="m-347.68-617.86h0.79247l1.2376 4.668-0.97702 0.33653q-0.97702-2.2146-2.2472-3.159-1.2701-0.94446-2.8768-0.94446-2.3123 0-3.8755 1.9215-1.5632 1.9215-1.5632 4.5812 0 1.9106 0.79247 3.5064 0.80333 1.5958 2.1386 2.4317 1.3353 0.8359 2.8334 0.8359 0.96617 0 1.8346-0.34739 0.87933-0.35824 1.4221-0.84675 0.40166-0.3691 0.54279-0.81419 0.14112-0.44508 0.13027-1.2376v-0.71648q0-0.85761-0.20626-1.2158-0.19541-0.35824-0.56451-0.51023-0.28225-0.11941-1.5198-0.11941v-0.91189h6.1444v0.91189h-0.49937q-0.64049 0-0.87932 0.13027-0.22797 0.11941-0.33653 0.37995t-0.10856 1.0204v5.2434h-1.0747l-0.57536-1.3244q-0.91189 0.6622-1.9432 1.0313-1.5415 0.55365-3.0505 0.55365-3.0505 0-5.2325-2.2363-2.1712-2.2472-2.1712-5.5907 0-3.3219 2.2037-5.5799t5.2759-2.258q0.77076 0 1.5198 0.15198t1.3678 0.43423q0.4668 0.20627 1.0856 0.67306z"/><path d="m-342.62-617.86h5.4279v0.92274h-0.57536q-0.5645 0-0.77076 0.10856-0.31482 0.1737-0.31482 0.52108 0 0.24968 0.17369 0.79248l3.1048 10.096 2.6922-8.2938-0.62963-2.0083q-0.22798-0.71649-0.69478-1.0313-0.28225-0.18455-0.98787-0.18455v-0.92274h5.3845v0.92274h-0.51023q-0.6622 0-0.89017 0.16284t-0.22797 0.44509q0 0.23883 0.17369 0.81419l3.1156 10.161 3.1373-10.161q0.16283-0.53194 0.16283-0.80333 0-0.31482-0.21711-0.4668-0.21712-0.15199-0.85761-0.15199h-0.54279v-0.92274h4.6246v0.92274q-0.58621-0.0109-0.87932 0.11942-0.28225 0.11941-0.4668 0.35824-0.18455 0.22797-0.40166 0.94446l-4.1795 12.799h-1.5741l-2.9202-9.0538-2.9311 9.0538h-1.5632l-4.1035-12.799q-0.2931-0.92275-0.72734-1.2159-0.32567-0.20626-1.0313-0.20626z"/></g><g transform="scale(.99035 -1.0097)" style="stroke-width:.69477" aria-label="GS"><path d="m-329.51-573.48h0.79248l1.2376 4.668-0.97702 0.33653q-0.97703-2.2146-2.2472-3.159-1.2701-0.94445-2.8768-0.94445-2.3123 0-3.8755 1.9215-1.5632 1.9215-1.5632 4.5812 0 1.9106 0.79248 3.5064 0.80333 1.5958 2.1386 2.4317 1.3353 0.83589 2.8334 0.83589 0.96617 0 1.8346-0.34738 0.87932-0.35824 1.4221-0.84676 0.40167-0.36909 0.54279-0.81418 0.14113-0.44509 0.13027-1.2376v-0.71649q0-0.85761-0.20626-1.2158-0.1954-0.35824-0.5645-0.51022-0.28225-0.11941-1.5198-0.11941v-0.91189h6.1444v0.91189h-0.49937q-0.6405 0-0.87932 0.13026-0.22797 0.11942-0.33653 0.37996t-0.10856 1.0204v5.2434h-1.0747l-0.57535-1.3244q-0.91189 0.66221-1.9432 1.0313-1.5415 0.55365-3.0505 0.55365-3.0505 0-5.2325-2.2363-2.1712-2.2472-2.1712-5.5907 0-3.3219 2.2037-5.5799 2.2037-2.258 5.2759-2.258 0.77077 0 1.5198 0.15198t1.3678 0.43423q0.4668 0.20626 1.0856 0.67306z"/><path d="m-313.48-573.48h0.78161l1.1616 4.668-0.99874 0.30397q-0.95531-1.9649-2.5403-3.0939-1.3027-0.94446-2.8876-0.94446-0.95531 0-1.7152 0.34739-0.75991 0.33653-1.1399 0.87932-0.37996 0.54279-0.37996 1.1073 0 0.51023 0.29311 0.98788 0.29311 0.47766 0.89018 0.84676 0.59707 0.35824 1.954 0.7599l2.8334 0.8359q0.52108 0.15198 1.509 0.58621 0.99873 0.43424 1.5524 0.92275 0.55365 0.47765 0.86846 1.1833 0.31482 0.69477 0.31482 1.509 0 1.8021-1.585 3.159-1.5741 1.3461-4.0818 1.3461-1.2918 0-2.3123-0.3691-1.0204-0.37995-2.2037-1.3353l-0.49936 1.4438h-0.75991l-1.0096-5.4388 1.0096-0.20626q0.55364 1.509 1.4655 2.562 0.92275 1.053 2.03 1.5958 1.1182 0.53193 2.2689 0.53193 1.5632 0 2.7357-0.94446 0.97702-0.79247 0.97702-1.8672 0-0.98787-0.70563-1.6175-0.71648-0.62964-2.562-1.1724l-2.714-0.78162q-2.2797-0.6622-3.2133-1.6935-0.9336-1.0313-0.9336-2.3666 0-1.0422 0.60793-1.9215 0.60792-0.89018 1.8672-1.4872 1.2593-0.59707 2.7574-0.59707 1.2593 0 2.41 0.43423 0.81419 0.30396 1.4981 0.86846z"/></g><g transform="scale(.99035 -1.0097)" style="stroke-width:.69477" aria-label="B"><path d="m-255.56-577.88h11.996q4.3966 0 6.025 0.39805 2.4064 0.57898 3.7995 2.0988 1.4113 1.5198 1.4113 3.6548 0 1.5379-0.74182 2.7682-0.74181 1.2122-2.1531 2.0807-0.90465 0.56088-2.4606 0.95893 1.9721 0.36186 3.0034 0.86846 1.556 0.75991 2.4607 2.1712 0.90465 1.4113 0.90465 3.1844 0 1.7188-0.88656 3.1844-0.88656 1.4655-2.5149 2.4064-1.6103 0.94083-3.7634 1.2122-2.1531 0.2533-4.4328 0.2533h-12.647v-1.5198h0.85037q1.2303 0 1.6826-0.37995 0.65135-0.5247 0.65135-1.7369v-17.532q0-1.2303-0.19902-1.6826t-0.59707-0.65135-1.5379-0.19902h-0.85037zm6.5678 2.0083v9.2455h4.6137q3.2386 0 4.4328-0.30758 1.8636-0.48851 2.8406-1.6646 0.99512-1.176 0.99512-3.0215 0-1.556-0.90465-2.5873-0.88656-1.0494-2.3883-1.4293-0.97703-0.23521-4.0528-0.23521zm0 10.982v8.2866q0 1.2484 0.10856 1.4836 0.14474 0.32567 0.57897 0.45232 0.30758 0.0905 1.7369 0.0905h2.4606q3.6548 0 5.2108-0.39805 1.5741-0.41614 2.6778-1.7188 1.1037-1.3208 1.1037-3.1663 0-1.556-0.90465-2.7501-0.88656-1.2122-2.4787-1.7369-1.5741-0.54279-5.6088-0.54279z"/></g><g transform="scale(.99035 -1.0097)" style="stroke-width:.69477" aria-label="K"><path d="m-293.42-643.98h9.734v1.5379h-0.68754q-1.1941 0-1.6826 0.28949t-0.68753 0.90465q-0.16284 0.45233-0.16284 1.4836v9.535l9.4807-10.042q0.74182-0.79609 0.86847-1.0313 0.14474-0.23521 0.14474-0.48851 0-0.32568-0.32567-0.48851-0.30758-0.16284-1.357-0.16284h-0.57898v-1.5379h9.0465v1.5379q-1.0675-0.0181-1.936 0.23521-0.86846 0.2533-1.3751 0.63326-1.1037 0.81418-1.5741 1.3027l-6.7668 6.9296 7.7257 10.241q1.0494 1.3932 1.6646 1.9179 0.61516 0.5066 1.2665 0.72372 0.65135 0.19902 2.0264 0.19902v1.5198h-10.711v-1.5198h0.63325q1.0675 0 1.2665-0.0543 0.30758-0.0724 0.48851-0.28949 0.18093-0.21711 0.18093-0.45232 0-0.47042-1.2484-2.1531l-5.6993-7.7438-3.2206 3.3291v4.8308q0 1.2484 0.2533 1.7007 0.25331 0.45233 0.778 0.66944 0.41614 0.16284 2.1893 0.16284v1.5198h-9.734v-1.5198h0.75991q1.1399 0 1.556-0.21712 0.41614-0.23521 0.63326-0.7599 0.23521-0.5247 0.23521-1.8636v-16.664q0-1.3208-0.21712-1.7912-0.21712-0.48851-0.63326-0.68754-0.41614-0.19902-1.7731-0.19902h-0.56089z"/></g><g transform="scale(.99035 -1.0097)" style="stroke-width:.69477" aria-label="M "><path d="m-296.61-603.84h7.979l7.4543 19.993 7.2553-19.993h7.7076v1.5379h-0.65134q-1.176 0-1.5922 0.19902-0.39805 0.19902-0.63326 0.70563-0.2352 0.48851-0.2352 1.6284v16.646q0 1.5741 0.18093 2.0445 0.19902 0.47042 0.63325 0.72372 0.45233 0.23521 1.6465 0.23521h0.65134v1.5198h-9.6436v-1.5198h0.68753q0.92274 0 1.3389-0.14475 0.43424-0.14474 0.70563-0.47041 0.28949-0.34377 0.32568-0.70563 0.0905-0.74182 0.0905-1.158v-18.582l-8.2323 22.58h-1.7912l-8.3047-22.254v17.894q0 1.357 0.23521 1.8455 0.23521 0.47042 0.72372 0.74182 0.50661 0.2533 1.7912 0.2533h0.57898v1.5198h-8.9018v-1.5198h0.50661q1.2846 0 1.8274-0.2714 0.56089-0.27139 0.7961-0.7599 0.23521-0.50661 0.23521-1.9721v-16.483q0-1.3751-0.19903-1.8093-0.19902-0.45233-0.66944-0.66945-0.45232-0.21711-1.6284-0.21711h-0.86847z"/></g><g transform="scale(.99035 -1.0097)" style="stroke-width:.69477" aria-label="G"><path d="m-198.58-602.44h1.3208l2.0626 7.78-1.6284 0.56089q-1.6284-3.691-3.7452-5.2651-2.1169-1.5741-4.7946-1.5741-3.8538 0-6.4592 3.2025-2.6054 3.2025-2.6054 7.6352 0 3.1844 1.3208 5.844 1.3389 2.6597 3.5643 4.0528 2.2254 1.3932 4.7223 1.3932 1.6103 0 3.0577-0.57898 1.4655-0.59707 2.3702-1.4113 0.66944-0.61516 0.90465-1.357 0.23521-0.74182 0.21712-2.0626v-1.1941q0-1.4293-0.34377-2.0264-0.32567-0.59707-0.94083-0.85038-0.47042-0.19902-2.533-0.19902v-1.5198h10.241v1.5198h-0.83228q-1.0675 0-1.4655 0.21712-0.37996 0.19902-0.56089 0.63325-0.18093 0.43424-0.18093 1.7008v8.7389h-1.7912l-0.95893-2.2073q-1.5198 1.1037-3.2386 1.7188-2.5692 0.92275-5.0841 0.92275-5.0841 0-8.7208-3.7272-3.6186-3.7452-3.6186-9.3179 0-5.5365 3.6729-9.2998t8.7932-3.7634q1.2846 0 2.533 0.2533 1.2484 0.25331 2.2797 0.72372 0.778 0.34377 1.8093 1.1218z"/></g></g></g><g transform="translate(-51.841 -22.165)" style="display:none"><g transform="matrix(.38453 0 0 -.37715 167.7 254.52)" style="display:inline"><path transform="matrix(.68807 0 0 -.70154 -494.98 529.6)" d="m297.89 280.77 93.197 53.807v107.61l-93.197 53.807-93.197-53.807 1e-5 -107.61z" style="fill:#fff;stroke-miterlimit:2.9;stroke-opacity:.90813;stroke-width:.33333;stroke:#000"/><path transform="matrix(0 -.70154 -.68807 0 -22.776 466.11)" d="m297.89 280.77 93.197 53.807v107.61l-93.197 53.807-93.197-53.807 1e-5 -107.61z" style="fill:#fff;stroke-miterlimit:2.9;stroke-opacity:.90813;stroke-width:.33333;stroke:#000"/><path d="m-327.03 322.51 74.046-130.76" style="fill:none;stroke-width:.69477px;stroke:#000"/><path d="m-364.06 257.13h148.09" style="fill:none;stroke-width:.69477px;stroke:#000"/><path d="m-327.03 191.75 74.046 130.76" style="fill:none;stroke-width:.69477px;stroke:#000"/><text transform="scale(.99035 -1.0097)" x="-306.92551" y="-287.63504" style="fill:#000000;font-family:'Bookman Old Style';font-size:37.054px;letter-spacing:0px;line-height:1.25;stroke-width:.69477;word-spacing:0px" xml:space="preserve"><tspan x="-306.92551" y="-287.63504" style="font-family:'Bookman Old Style';font-size:37.054px;stroke-width:.69477">C</tspan></text><text transform="scale(.99035 -1.0097)" x="-312.83533" y="-334.87057" style="fill:#000000;font-family:'Bookman Old Style';font-size:22.233px;letter-spacing:0px;line-height:1.25;stroke-width:.69477;word-spacing:0px" xml:space="preserve"><tspan x="-312.83533" y="-334.87057" style="font-family:'Bookman Old Style';font-size:22.233px;stroke-width:.69477">WK</tspan></text><text transform="scale(.99035 -1.0097)" x="-392.05103" y="-292.43454" style="fill:#000000;font-family:'Bookman Old Style';font-size:22.233px;letter-spacing:0px;line-height:1.25;stroke-width:.69477;word-spacing:0px" xml:space="preserve"><tspan x="-392.05103" y="-292.43454" style="font-family:'Bookman Old Style';font-size:22.233px;stroke-width:.69477">KR</tspan></text><text transform="scale(.99035 -1.0097)" x="-355.37375" y="-323.70847" style="fill:#000000;font-family:'Bookman Old Style';font-size:22.233px;letter-spacing:0px;line-height:1.25;stroke-width:.69477;word-spacing:0px" xml:space="preserve"><tspan x="-355.37375" y="-323.70847" style="font-family:'Bookman Old Style';font-size:22.233px;stroke-width:.69477">AU</tspan></text><text transform="scale(.99035 -1.0097)" x="-261.06085" y="-323.38107" style="fill:#000000;font-family:'Bookman Old Style';font-size:22.233px;letter-spacing:0px;line-height:1.25;stroke-width:.69477;word-spacing:0px" xml:space="preserve"><tspan x="-261.06085" y="-323.38107" style="font-family:'Bookman Old Style';font-size:22.233px;stroke-width:.69477">MN</tspan></text><text transform="scale(.99035 -1.0097)" x="-226.67592" y="-290.63351" style="fill:#000000;font-family:'Bookman Old Style';font-size:22.233px;letter-spacing:0px;line-height:1.25;stroke-width:.69477;word-spacing:0px" xml:space="preserve"><tspan x="-226.67592" y="-290.63351" style="font-family:'Bookman Old Style';font-size:22.233px;stroke-width:.69477">WI</tspan></text><text transform="scale(.99035 -1.0097)" x="-214.72304" y="-246.26057" style="fill:#000000;font-family:'Bookman Old Style';font-size:22.233px;letter-spacing:0px;line-height:1.25;stroke-width:.69477;word-spacing:0px" xml:space="preserve"><tspan x="-214.72304" y="-246.26057" style="font-family:'Bookman Old Style';font-size:22.233px;stroke-width:.69477">KE</tspan></text><text transform="scale(.99035 -1.0097)" x="-225.6935" y="-202.70627" style="fill:#000000;font-family:'Bookman Old Style';font-size:22.233px;letter-spacing:0px;line-height:1.25;stroke-width:.69477;word-spacing:0px" xml:space="preserve"><tspan x="-225.6935" y="-202.70627" style="font-family:'Bookman Old Style';font-size:22.233px;stroke-width:.69477">MA</tspan></text><text transform="scale(.99035 -1.0097)" x="-253.20143" y="-169.63132" style="fill:#000000;font-family:'Bookman Old Style';font-size:22.233px;letter-spacing:0px;line-height:1.25;stroke-width:.69477;word-spacing:0px" xml:space="preserve"><tspan x="-253.20143" y="-169.63132" style="font-family:'Bookman Old Style';font-size:22.233px;stroke-width:.69477">IN</tspan></text><text transform="scale(.99035 -1.0097)" x="-309.19971" y="-160.13452" style="fill:#000000;font-family:'Bookman Old Style';font-size:22.233px;letter-spacing:0px;line-height:1.25;stroke-width:.69477;word-spacing:0px" xml:space="preserve"><tspan x="-309.19971" y="-160.13452" style="font-family:'Bookman Old Style';font-size:22.233px;stroke-width:.69477">WA</tspan></text><text transform="scale(.99035 -1.0097)" x="-355.7012" y="-169.79504" style="fill:#000000;font-family:'Bookman Old Style';font-size:22.233px;letter-spacing:0px;line-height:1.25;stroke-width:.69477;word-spacing:0px" xml:space="preserve"><tspan x="-355.7012" y="-169.79504" style="font-family:'Bookman Old Style';font-size:22.233px;stroke-width:.69477">RE</tspan></text><text transform="scale(.99035 -1.0097)" x="-409.24347" y="-246.91551" style="fill:#000000;font-family:'Bookman Old Style';font-size:22.233px;letter-spacing:0px;line-height:1.25;stroke-width:.69477;word-spacing:0px" xml:space="preserve"><tspan x="-409.24347" y="-246.91551" style="font-family:'Bookman Old Style';font-size:22.233px;stroke-width:.69477">GW</tspan></text><text transform="scale(.99035 -1.0097)" x="-391.06857" y="-202.54257" style="fill:#000000;font-family:'Bookman Old Style';font-size:22.233px;letter-spacing:0px;line-height:1.25;stroke-width:.69477;word-spacing:0px" xml:space="preserve"><tspan x="-391.06857" y="-202.54257" style="font-family:'Bookman Old Style';font-size:22.233px;stroke-width:.69477">GS</tspan></text><text transform="scale(.99035 -1.0097)" x="-305.63086" y="-196.83969" style="fill:#000000;font-family:'Bookman Old Style';font-size:37.054px;letter-spacing:0px;line-height:1.25;stroke-width:.69477;word-spacing:0px" xml:space="preserve"><tspan x="-305.63086" y="-196.83969" style="font-family:'Bookman Old Style';font-size:37.054px;stroke-width:.69477">B</tspan></text><text transform="scale(.99035 -1.0097)" x="-261.65323" y="-262.77466" style="fill:#000000;font-family:'Bookman Old Style';font-size:37.054px;letter-spacing:0px;line-height:1.25;stroke-width:.69477;word-spacing:0px" xml:space="preserve"><tspan x="-261.65323" y="-262.77466" style="font-family:'Bookman Old Style';font-size:37.054px;stroke-width:.69477">I</tspan></text><text transform="scale(.99035 -1.0097)" x="-343.84418" y="-262.94397" style="fill:#000000;font-family:'Bookman Old Style';font-size:37.054px;letter-spacing:0px;line-height:1.25;stroke-width:.69477;word-spacing:0px" xml:space="preserve"><tspan x="-343.84418" y="-262.94397" style="font-family:'Bookman Old Style';font-size:37.054px;stroke-width:.69477">K</tspan></text><text transform="scale(.99035 -1.0097)" x="-346.91254" y="-222.80617" style="fill:#000000;font-family:'Bookman Old Style';font-size:37.054px;letter-spacing:0px;line-height:1.25;stroke-width:.69477;word-spacing:0px" xml:space="preserve"><tspan x="-346.91254" y="-222.80617" style="font-family:'Bookman Old Style';font-size:37.054px;stroke-width:.69477">M</tspan><tspan x="-346.91254" y="-176.48804" style="font-family:'Bookman Old Style';font-size:37.054px;stroke-width:.69477"/></text><text transform="scale(.99035 -1.0097)" x="-268.79803" y="-221.40034" style="fill:#000000;font-family:'Bookman Old Style';font-size:37.054px;letter-spacing:0px;line-height:1.25;stroke-width:.69477;word-spacing:0px" xml:space="preserve"><tspan x="-268.79803" y="-221.40034" style="font-family:'Bookman Old Style';font-size:37.054px;stroke-width:.69477">G</tspan></text></g></g></svg>
