<svg width="17.662mm" height="27.827mm" version="1.1" viewBox="0 0 17.662 27.827" xmlns="http://www.w3.org/2000/svg"><g transform="translate(-94.52 -82.03)"><g transform="translate(73.123 -7.567)"><path d="m25.086 117.22-2.2066-0.15367-0.60401-0.70317c-0.63971-0.74474-1.1121-2.9057-0.7571-3.4632 0.1161-0.18233 0.29882-1.5817 0.40606-3.1096 0.459-6.5405 0.66337-8.4549 0.93792-8.7857 0.16028-0.19312 0.35591-1.5398 0.43475-2.9926 0.07884-1.4528 0.21625-3.5067 0.30537-4.5641l0.16203-1.9226 1.7385-1.8434 3.0115-0.05748c4.8509-0.09259 6.5495 0.04833 7.6791 0.6371 0.68559 0.35735 1.0271 0.71891 1.0397 1.1007 0.01034 0.31273 0.14053 1.6402 0.2893 2.9498 0.39663 3.4916 0.7262 8.1803 0.90199 12.832 0.08523 2.2556 0.26455 4.2142 0.39848 4.3524 0.13393 0.13825 0.23972 1.2098 0.23509 2.3812-0.0121 3.0619-0.12618 3.166-3.5908 3.2789-3.2598 0.10622-3.9393-0.0207-4.3968-0.82143-0.1861-0.3257-0.4183-1.9019-0.51599-3.5026-0.09769-1.6007-0.27628-3.982-0.39688-5.2917l-0.21926-2.3812-0.17501 3.5719c-0.37836 7.7222-0.6143 8.7916-1.9165 8.6865-0.30487-0.0246-1.5473-0.11392-2.7609-0.19844z" style="fill:#a2a2a2;stroke-width:.26458"/><path d="m22.54 116.25c-0.25191-0.38446-0.40443-0.97936-0.33892-1.322 0.0655-0.34265 0.02698-0.65691-0.08561-0.69837-0.18425-0.0679-0.08683-2.036 0.49484-9.9972 0.101-1.3824 0.30269-2.6921 0.44819-2.9104 0.1455-0.21828 0.34245-1.4684 0.43768-2.7781 0.33137-4.5576 0.53289-6.3542 0.78914-7.0356 0.45528-1.2106 1.483-1.4323 6.5784-1.419 4.7651 0.01241 5.5435 0.16488 5.9882 1.1729 0.25029 0.56737 0.82336 7.1725 1.4237 16.41 0.1466 2.2556 0.33481 4.9699 0.41825 6.0318 0.11923 1.5175 0.06069 2.0697-0.27347 2.5797l-0.42518 0.6489h-6.3509l-0.30961-0.7276c-0.33365-0.7841-0.77318-6.2774-0.83538-10.441-0.04174-2.794-0.30987-3.453-1.0653-2.6183-0.34415 0.38029-0.39746 0.63918-0.20557 0.99844 0.26529 0.49671 0.19151 5.1647-0.1582 10.01l-0.19097 2.6458-5.8814 0.149z" style="fill:#575757;stroke-width:.26458"/><path d="m25.299 116.74c-1.9101-0.0739-2.3079-0.16822-2.5857-0.61314-0.23776-0.38071-0.25152-0.6694-0.04987-1.0462 0.20387-0.38094 0.18427-0.68062-0.07315-1.1184-0.27169-0.46202-0.30533-1.2899-0.14794-3.6407 0.11204-1.6735 0.27917-4.231 0.3714-5.6832 0.09223-1.4523 0.31406-2.8495 0.49295-3.1049 0.19217-0.27436 0.28977-1.0554 0.23852-1.9089-0.04771-0.79448 0.03162-1.5177 0.17629-1.6071 0.14467-0.08941 0.26303-1.0842 0.26303-2.2107 0-2.0366 0.2704-2.7658 0.93152-2.5121 0.18583 0.07131 0.41647 0.0025 0.51254-0.15297 0.09607-0.15544-5e-3 -0.28262-0.22467-0.28262-1.0632 0-0.92313-1.9231 0.16528-2.2686 0.71316-0.22635 4.1716 0.15113 4.1716 0.45532 0 0.1421 0.3991 0.17485 0.92604 0.07599 0.55894-0.10486 0.92604-0.06839 0.92604 0.09199 0 0.5371 0.88164 0.59675 1.4302 0.09677 0.79297-0.72276 2.8793-0.98343 3.4337-0.42902 0.52942 0.52942 0.64838 1.0588 0.80118 3.565 0.31926 5.2366 0.66412 9.2851 0.92408 10.848 0.15733 0.94589 0.28696 2.6934 0.28806 3.8835s0.12677 3.0607 0.27926 4.1571c0.23963 1.7228 0.21754 2.0846-0.16272 2.665l-0.43999 0.67151h-6.2791l-0.15943-0.72761c-0.08769-0.40018-0.22561-0.9062-0.3065-1.1245-0.14986-0.40441-0.38596-6.0984-0.31267-7.5406 0.10847-2.1347 0.05426-4.5706-0.11132-5.0021-0.15075-0.39284-0.25724-0.42132-0.5785-0.15469-0.32109 0.26648-0.39374 0.24757-0.39374-0.10249 0-0.27697-0.22574-0.42927-0.63628-0.42927h-0.63628l0.13053 1.1245c0.07179 0.61847 0.21658 1.4817 0.32175 1.9182 0.10517 0.43657 0.15675 1.5677 0.11462 2.5136-0.04213 0.94588-0.08737 3.3566-0.10054 5.3571-0.01882 2.8595-0.10896 3.7223-0.42152 4.0349-0.21867 0.21867-0.5379 0.37309-0.70941 0.34317-0.17151-0.0299-1.3276-0.0937-2.5692-0.14175zm3.9772-25.468c0-0.14552-0.17859-0.26458-0.39688-0.26458-0.21828 0-0.39688 0.11906-0.39688 0.26458s0.17859 0.26458 0.39688 0.26458c0.21828 0 0.39688-0.11906 0.39688-0.26458z" style="fill:#2b2b2b;stroke-width:.26458"/><path d="m23.075 116.25c-0.24026-0.24025-0.39708-0.55606-0.3485-0.7018 0.13135-0.39404 2.5993-0.33982 3.47 0.0762 0.65629 0.3136 0.79659 0.30727 1.0583-0.0478 0.16596-0.22513 0.57732-0.55614 0.91413-0.73557l0.61238-0.32625-0.16644 2.0213-2.5515 0.0754c-2.0882 0.0617-2.6309-4e-3 -2.9884-0.36144zm8.759 0.24196c-0.09701-0.097-0.17639-0.40792-0.17639-0.69091 0-0.44679 0.12452-0.49115 0.9461-0.33702 1.0592 0.1987 1.6997-0.15735 1.6997-0.94475 0-0.53818-0.3928-0.66689-0.6694-0.21934-0.11721 0.18966-0.28958 0.17941-0.54478-0.0324-0.2684-0.22275-0.37332-0.22637-0.37332-0.0129 0 0.16334-0.35379 0.29698-0.7862 0.29698h-0.7862l0.13414-3.9026c0.11561-3.3635 0.2056-4.8029 0.37632-6.0193 0.02042-0.14552 0.14764 0.011 0.28271 0.34773 0.42184 1.0518 0.77922 0.35793 0.77922-1.513 0-1.4034-0.10566-1.8911-0.48385-2.2333-0.59429-0.53783-0.83906-0.55496-0.83906-0.0587 0 0.40704-1.4965 0.51125-1.7377 0.12102-0.07223-0.11688-0.32085-0.13977-0.55248-0.0509-0.24898 0.0955-0.52131-0.0173-0.66613-0.27614-0.13474-0.24076-0.38789-0.43788-0.56256-0.43804-0.53959-5.1e-4 -0.26909 5.5258 0.31084 6.3503 0.37836 0.53794 0.47375 1.2949 0.51078 4.0537l0.04554 3.3923-0.46008-0.0905c-0.32729-0.0644-0.46492-0.35622-0.47686-1.011-0.04016-2.2024-0.13208-2.9048-0.38009-2.9048-0.14552 0-0.27328 0.56554-0.28392 1.2568-0.01064 0.69122-0.22802 1.614-0.48308 2.0505-0.40331 0.69031-0.63538 0.80393-1.7809 0.87192-2.002 0.11883-2.2527-0.29324-2.3679-3.8925-0.05424-1.695 0.01362-2.9786 0.16231-3.0705 0.14053-0.0868 0.25712-1.3117 0.25909-2.722l0.0036-2.5641 2.3151-1.9988-0.20395-0.90427-0.20395-0.90427 0.69646-0.08071c0.5718-0.06627 0.71129-0.23462 0.77936-0.94061 0.0456-0.47294 0.16466-0.85981 0.26458-0.8597 0.09992 1.07e-4 0.16646-0.62497 0.14788-1.3891-0.02605-1.0708-0.13541-1.4095-0.47707-1.4775-0.73233-0.1458 0.05333-0.83779 0.9512-0.83779 0.98693 0 2.0527 0.92005 1.5955 1.3773-0.41363 0.41363-0.40505 1.1945 0.01469 1.3358 0.26039 0.08764 0.25626 0.20155-0.01942 0.53558l-0.35015 0.42427 1.0116 0.18242c0.55639 0.10033 1.1552 0.29621 1.3307 0.43529 0.38009 0.30116 0.87149 0.05333 0.87149-0.43952 0-0.19306 0.1758-0.68988 0.39067-1.104 0.21487-0.41416 0.46534-1.413 0.55661-2.2197 0.13754-1.2157 0.27774-1.5194 0.81934-1.775 0.35937-0.1696 0.82327-0.24317 1.0309-0.1635 0.23042 0.08842 0.37749-0.02079 0.37749-0.28033 0-0.27825 0.23085-0.42518 0.66801-0.42518 0.48226 0 0.74839 0.20232 0.9571 0.7276 0.30465 0.76678 0.65529 4.3335 0.90388 9.1943 0.08186 1.6007 0.26071 3.5574 0.39743 4.3481s0.25863 2.5766 0.27091 3.9688c0.01228 1.3921 0.10785 3.2157 0.21238 4.0524l0.19005 1.5214h-0.7636c-0.96452 0-0.83503 0.60736 0.16924 0.79375l0.71279 0.13229-0.83778 1.1906h-2.8513c-1.5682 0-2.9307-0.0794-3.0277-0.17639zm1.2788-6.2873c0-0.54721-0.0893-1.0502-0.19844-1.1177-0.10914-0.0675-0.19844-0.41339-0.19844-0.7686 0-0.35522-0.10432-0.64585-0.23182-0.64585-0.34422 0-0.54266 2.9848-0.22487 3.3822 0.4631 0.57911 0.85356 0.19022 0.85356-0.85011zm-8.599-3.8021c0-0.6985 0.14089-1.4109 0.31309-1.5831 0.1722-0.1722 0.2289-0.39728 0.12599-0.50019-0.23318-0.23318-0.90854 0.43751-0.97879 0.97203-0.02869 0.21828-0.03805 0.84336-0.02081 1.3891 0.04623 1.4633 0.56052 1.2084 0.56052-0.27782zm11.906-3.7571c0-0.29104-0.11906-0.52917-0.26458-0.52917-0.14552 0-0.26458 0.23813-0.26458 0.52917s0.11906 0.52917 0.26458 0.52917c0.14552 0 0.26458-0.23813 0.26458-0.52917zm-5.0271-2.3402c0-0.12297-0.2377-0.4387-0.52823-0.70162-0.40946-0.37055-0.46012-0.56011-0.22532-0.84303 0.67854-0.81759-1.525-1.5472-2.3081-0.76422-0.50333 0.50333-0.48172 0.96814 0.03577 0.76956 0.25241-0.09686 0.56778 0.06114 0.80875 0.40518 0.21725 0.31017 0.55227 0.56395 0.74448 0.56395s0.4977 0.17859 0.67885 0.39688c0.35967 0.43338 0.79375 0.52815 0.79375 0.1733zm-2.9104-4.5389c0-0.14552-0.24515-0.26458-0.54478-0.26458s-0.4712 0.11906-0.38126 0.26458c0.08994 0.14552 0.33509 0.26458 0.54478 0.26458 0.20969 0 0.38126-0.11906 0.38126-0.26458zm7.0972-2.9993c0.10404-0.53646-0.66985-0.88802-1.0712-0.48664-0.20828 0.20828-0.19229 0.40443 0.05749 0.7054 0.41317 0.49784 0.89492 0.39388 1.0137-0.21876zm-11.264 3.9659c-0.15935-0.34974-0.22367-1.1284-0.14292-1.7304 0.11904-0.88754 0.2152-1.0378 0.50843-0.79442 0.39226 0.32555 0.48804 2.2723 0.13887 2.8225-0.15669 0.24692-0.29286 0.16656-0.50437-0.29766zm4.9605-2.0107c0-0.12224 0.17859-0.29079 0.39688-0.37455 0.44653-0.17135 0.53777-1.1089 0.13229-1.3595-0.5368-0.33176-0.27439-1.1781 0.41927-1.3522 1.065-0.2673 1.4525 0.31373 1.265 1.8968l-0.15749 1.3297-1.028 0.04099c-0.5654 0.02255-1.028-0.05902-1.028-0.18126zm-4.4739-2.4989c-0.24306-0.29288-0.25143-0.53009-0.03308-0.93808 0.392-0.73245 2.3673-0.77328 3.0108-0.06222 0.62051 0.68565 0.57283 0.74864-0.69856 0.9229-0.62504 0.08567-1.3203 0.22634-1.5451 0.31259-0.22477 0.08625-0.55507-0.01958-0.734-0.23518z" style="fill:#0e0e0e;stroke-width:.26458"/></g></g></svg>
