<svg width="19.092mm" height="27.4mm" version="1.1" viewBox="0 0 19.092 27.4" xmlns="http://www.w3.org/2000/svg"><g transform="translate(-84.633 -130.57)"><g transform="translate(61.448 -36.526)"><path d="m27.8 193.95c-2.2905-0.82702-4.0565-1.6864-4.4569-2.1689-0.40076-0.48288 0.01422-3.5906 0.66165-4.9549 0.37467-0.78957 0.41864-1.6085 0.30333-5.6507-0.08157-2.8598-0.29127-5.3545-0.5308-6.3149-0.21778-0.87312-0.43194-2.2382-0.4759-3.0335l-0.07995-1.446 1.5347-0.74692 0.48354 0.6288c0.26594 0.34584 0.4893 0.86693 0.49636 1.158 0.0071 0.29104 0.23212 1.0054 0.50016 1.5875l0.48734 1.0583 0.1521-0.92604c0.08365-0.50932 0.30493-1.8672 0.49172-3.0176 0.45307-2.7903 1.1543-3.4561 2.3648-2.2456l0.55759 0.55759-0.14796 2.0221c-0.16848 2.3025 0.20628 1.2737 0.49261-1.3523 0.1817-1.6664 0.71248-2.2258 1.8428-1.9421 0.81046 0.20341 1.0004 1.0872 0.82759 3.8511l-0.14125 2.2591 0.37695-1.9651c0.20732-1.0808 0.54137-2.1296 0.74233-2.3305 0.54879-0.54879 1.7546-0.14723 2.0731 0.69038 0.31666 0.83289 0.03463 4.7829-0.43727 6.1241-0.18023 0.51226-0.41333 1.554-0.51799 2.315l-0.1903 1.3836 1.017-0.5168c3.1939-1.623 5.3134-2.1892 5.835-1.5588 0.49468 0.598 0.09721 1.6861-0.80554 2.2052-0.46058 0.26486-1.8494 1.5118-3.0864 2.7709s-2.755 2.7338-3.3734 3.277c-0.61846 0.54323-1.1245 1.1972-1.1245 1.4533s-0.12419 0.58978-0.27598 0.74157-0.34438 1.5151-0.42798 3.0295c-0.09447 1.7114-0.28295 2.8926-0.49801 3.1212-0.62396 0.66302-2.7376 0.6342-4.6705-0.0637z" style="fill:#9f9f9f;stroke-width:.26458"/><path d="m29.042 194.14c-1.1327-0.28634-2.9693-1.0239-4.2333-1.7001l-1.3229-0.70769 0.03117-1.6888c0.0201-1.0891 0.23149-2.1428 0.59531-2.9675 0.58818-1.3332 0.67585-2.7667 0.33526-5.4815-0.10133-0.80769-0.09101-1.8792 0.02294-2.3812 0.14538-0.64049-0.0092-1.9986-0.51818-4.5532-0.74966-3.7624-0.71083-4.4365 0.2638-4.5796 0.63065-0.0926 1.0348 0.51301 1.6432 2.4621 0.29531 0.94606 0.65558 1.7356 0.80062 1.7546 0.24459 0.032 0.92485-3.3642 0.97224-4.8539 0.02548-0.80098 0.68374-1.8584 1.1568-1.8584 0.19115 0 0.53468 0.18714 0.7634 0.41586 0.35065 0.35065 0.38913 0.88386 0.2454 3.4004-0.22459 3.9323 0.23078 4.2637 0.66974 0.48747 0.17992-1.5478 0.39345-3.1458 0.47452-3.5512 0.16197-0.80983 0.83192-1.1515 1.7109-0.87251l0.5682 0.18034-0.17196 3.0786c-0.09458 1.6932-0.24509 3.3465-0.33448 3.6739-0.09254 0.33899-0.04444 0.59532 0.11172 0.59532 0.29315 0 1.1104-3.2156 1.1104-4.3691 0-0.8997 0.44503-1.7163 0.93535-1.7163 0.21316 0 0.64158 0.25401 0.95203 0.56446l0.56446 0.56447-0.17446 2.2798c-0.09595 1.2539-0.40745 3.1728-0.69222 4.2642-0.47881 1.8351-0.66093 3.175-0.43154 3.175 0.05241 0 1.1466-0.48573 2.4316-1.0794 2.7582-1.2743 4.4382-1.4948 4.5658-0.59926 0.05789 0.40625-0.20851 0.78236-0.92604 1.3074-0.55402 0.40542-1.8439 1.5775-2.8665 2.6047-1.0225 1.0272-2.5288 2.4629-3.3473 3.1905l-1.4881 1.3229-0.27424 1.4552c-0.15083 0.80036-0.3491 2.354-0.44059 3.4524-0.09149 1.0985-0.26481 2.1565-0.38516 2.3512-0.22681 0.36699-2.3882 0.61362-3.3179 0.3786z" style="fill:#5b5b5b;stroke-width:.26458"/><path d="m29.042 193.88c-1.5066-0.31439-4.2243-1.4887-5.2238-2.2572l-0.46132-0.3547 0.27543-1.6957c0.15149-0.93264 0.5114-2.2137 0.79981-2.8468l0.52437-1.1511-0.23576-2.8143c-0.12967-1.5478-0.13704-3.2434-0.01638-3.7678 0.14698-0.63885 0.09025-1.4774-0.17191-2.541-0.93-3.7731-1.1675-5.537-0.79643-5.9142 0.42687-0.4338 1.4695-0.16795 1.4695 0.3747 0 1.1831 1.5886 4.7096 1.952 4.3331 0.09797-0.1015 0.29442-1.4219 0.54876-3.6884 0.18021-1.6059 0.47294-3.1138 0.66472-3.4241 0.12691-0.20535 0.42736-0.26707 0.77027-0.15824l0.5622 0.17844v3.554c0 4.4669 0.53668 4.7488 0.97342 0.51134 0.07499-0.7276 0.21407-2.0373 0.30907-2.9104l0.17272-1.5875h1.5875l0.13687 0.92605c0.07528 0.50932 0.05539 1.5809-0.0442 2.3812-0.31456 2.5281-0.3657 4.4812-0.1193 4.557 0.36062 0.11091 0.9157-1.7328 1.1922-3.96 0.29152-2.3481 0.67578-2.9167 1.555-2.3009l0.58676 0.41099v2.1509c0 1.2888-0.20261 2.9-0.50549 4.0199-1.0197 3.7701-0.97496 4.4201 0.25568 3.7153 0.35568-0.2037 0.82528-0.45211 1.0436-0.55203 1.9953-0.91328 2.8077-1.1943 3.876-1.3408l1.2399-0.16995-0.17674 0.46057c-0.09721 0.25331-0.17674 0.56187-0.17674 0.68568 0 0.22581-0.72088 0.536-1.161 0.4996-0.12925-0.0107-0.33187 0.1373-0.45026 0.32886-0.61923 1.0019-3.0267 3.6886-3.5301 3.9396-0.13564 0.0676-0.59813 0.42059-1.0278 0.78439-2.2374 1.8946-2.816 3.1587-2.8227 6.1672-0.0024 1.057-0.10688 1.738-0.25293 1.6477-0.14645-0.0905-0.19016 0.20821-0.10618 0.72573l0.14273 0.87956-0.88601 0.26723c-0.62881 0.18966-1.3468 0.17107-2.4735-0.064z" style="fill:#292929;stroke-width:.26458"/><path d="m28.116 193.37c-0.65484-0.18756-1.1906-0.35971-1.1906-0.38256 0-0.0228-0.21013-0.0817-0.46696-0.13075-0.25683-0.0491-1.0149-0.4103-1.6845-0.80275l-1.2176-0.71353 0.17847-1.5775c0.09816-0.86761 0.4097-1.9892 0.69232-2.4924s0.51385-1.0771 0.51385-1.2754c0-0.54626 1.5163-1.0742 1.8521-0.64485 0.07276 0.093 0.28864 7.2e-4 0.47973-0.20515 0.29576-0.31865 0.22194-0.3522-0.4964-0.22565l-0.84384 0.14866 0.14727-0.56317 0.14727-0.56318-0.46545 0.42123c-0.67982 0.61523-0.75963 0.53995-0.74553-0.70325 7e-3 -0.61846 0.0617-0.84964 0.12153-0.51372 0.08875 0.4983 0.17901 0.55247 0.49019 0.29421 0.30272-0.25124 0.50226-0.21348 0.9672 0.18299 0.45439 0.38749 0.50752 0.39828 0.23684 0.0481-0.19192-0.24829-0.28048-0.56222-0.19679-0.69762 0.08369-0.13541-0.02785-0.39559-0.24786-0.57818-0.33332-0.27663-0.37223-0.25957-0.23336 0.10231 0.09267 0.24149 0.03663 0.4343-0.12624 0.4343-0.16109 0-0.29289-0.11907-0.29289-0.26459 0-0.48838-0.04396-0.66003-0.23717-0.92604-0.2202-0.30317-0.1989-0.60096 0.08989-1.2568 0.11214-0.25466 0.1197-0.67138 0.01679-0.92604-0.16224-0.4015-0.22067-0.37564-0.43973 0.19466-0.13895 0.36173-0.20115 0.85457-0.13822 1.0952 0.06292 0.24063 0.01234 0.59952-0.11243 0.79753-0.13302 0.21113-0.20834-0.7889-0.18212-2.4181 0.03083-1.9158-0.09775-3.3201-0.4143-4.5243-0.25246-0.96038-0.48333-2.2701-0.51305-2.9104l-0.05404-1.1643 0.58068-0.0826c0.48586-0.0691 0.62884 0.10368 0.87564 1.0583 0.16223 0.62752 0.36798 1.3791 0.45722 1.6701 0.08924 0.29105 0.17445 1.0283 0.18936 1.6383 0.02712 1.1096 0.26098 1.6423 0.58063 1.3226 0.0935-0.0935 0.01939-0.35146-0.16469-0.57326-0.27318-0.32916-0.26552-0.40327 0.04167-0.40327 0.207 0 0.5082 0.13184 0.66934 0.29299 0.49755 0.49755 0.8652-0.61683 0.91964-2.7875 0.02763-1.1019 0.14569-2.0034 0.26235-2.0034 0.11666 0 0.19466-0.20836 0.17332-0.46302-0.09888-1.18 0.06196-2.3012 0.2806-1.9561 0.16116 0.25434 0.28099 0.27236 0.4111 0.0618 0.36536-0.59118 0.67625 0.0357 0.67625 1.3637 0 1.0285-0.13907 1.5044-0.57529 1.9688-0.4885 0.51998-0.50846 0.61236-0.13229 0.61236 0.58996 0 0.57928 0.99836-0.01773 1.658l-0.46072 0.5091 0.59301 0.48019c0.7104 0.57524 0.76557 1.0414 0.12999 1.0982-0.25466 0.0228-0.7727 0.0643-1.1512 0.0923-0.96646 0.0715-1.3003 0.33607-1.2698 1.0064l0.02637 0.5797 0.37656-1.3229 0.31452 0.57792c0.17298 0.31786 0.31452 1.1343 0.31452 1.8142 0 1.0086 0.07562 1.2073 0.41062 1.0788 0.22584-0.0867 0.35888-0.0696 0.29565 0.0378-0.17656 0.30009 0.2999 1.386 0.60812 1.386 0.15021 0 0.27311-0.22839 0.27311-0.50753 0-0.71865 0.27459-1.3446 0.58987-1.3446 0.16645 0 0.15444 0.13765-0.03157 0.36177-0.2272 0.27376-0.21076 0.43604 0.06758 0.66704 0.29064 0.24121 0.39716 0.19305 0.50766-0.22948 0.07691-0.29411 0.28142-0.53474 0.45446-0.53474 0.22654 0 0.27928 0.56159 0.18837 2.006l-0.12625 2.006 1.2436 1.4119 0.0084-0.59531c0.0046-0.32742 0.12742-0.59531 0.27294-0.59531s0.26458-0.2311 0.26458-0.51355c0-0.28246 0.13746-0.59851 0.30546-0.70234 0.18926-0.11697 0.23364-0.0726 0.11668 0.11668-0.10383 0.168-0.05896 0.30546 0.09972 0.30546 0.15868 0 0.3653-0.20836 0.45916-0.46302 0.09386-0.25466 0.45752-0.84483 0.80813-1.3115 0.35061-0.46666 0.57334-0.95223 0.49496-1.0791-0.07838-0.12683 0.35789-0.45036 0.96951-0.71896 0.61161-0.2686 1.7405-0.76529 2.5086-1.1038 2.2304-0.9828 3.801-0.65668 1.8739 0.38911-0.4568 0.24789-1.1414 0.79711-1.5214 1.2205-0.8325 0.92767-3.5089 3.568-5.1888 5.1188-0.67089 0.61934-1.146 1.2455-1.0558 1.3914 0.25777 0.41707-0.12861 1.319-0.56506 1.319-0.23154 0-0.31643-0.12659-0.20538-0.30626 0.12704-0.20556 0.0186-0.26163-0.32983-0.17051-0.44111 0.11535-0.5027 0.024-0.40992-0.60818 0.12184-0.83015-0.66952-2.0698-1.2069-1.8907-0.32654 0.10885-0.4566-0.38763-0.36247-1.3837 0.0384-0.40638-0.15862-0.29579-0.88412 0.49628-0.96816 1.057-1.2366 1.8461-0.53666 1.5775 0.21828-0.0838 0.39688-0.0205 0.39688 0.1406 0 0.16109 0.29347 0.29289 0.65215 0.29289 0.61061 0 1.3578 0.81223 1.0398 1.1303-0.07783 0.0778 0.0894 0.61945 0.37163 1.2036l0.51314 1.0621-0.49461 0.12935c-0.27204 0.0711-0.48521 0.28932-0.47372 0.48484 0.01571 0.26735 0.05398 0.2735 0.15434 0.0248 0.0734-0.1819 0.33189-0.32694 0.57442-0.32231l0.44097 8e-3 -0.47532 0.36048c-0.26142 0.19826-0.68239 0.30632-0.93548 0.24014-0.35438-0.0927-0.45327 0.0371-0.43018 0.56446 0.03529 0.80625 0.64295 1.5322 0.83777 1.0009 0.19556-0.53336 1.1907-0.41151 1.0804 0.13229-0.07577 0.37378-0.32172 0.44697-1.2762 0.37977l-1.1823-0.0833 0.59531 0.42898c1.2573 0.90598 0.60662 1.1275-1.5214 0.518zm-0.29995-11.976c-0.02111-0.68212-0.14503-1.3765-0.27538-1.5431-0.13034-0.16658-0.20305-0.44935-0.16156-0.62838 0.11053-0.477-0.4944-0.61519-0.6716-0.15341-0.08292 0.21609-0.04151 0.77385 0.09203 1.2395 0.13354 0.46562 0.18586 0.9387 0.11628 1.0513-0.2103 0.34027 0.38552 1.6162 0.67203 1.4391 0.14662-0.0906 0.24932-0.72286 0.2282-1.405zm1.6229-11.575c0-0.73679-0.10297-1.1426-0.26458-1.0427-0.14552 0.0899-0.26458 0.63274-0.26458 1.2062 0 0.57349 0.11906 1.0427 0.26458 1.0427 0.14552 0 0.26458-0.54281 0.26458-1.2062zm3.7001 9.4965c-0.0024-0.28248-0.08524-0.36926-0.19844-0.20779-0.41899 0.59766-1.3298 0.3625-1.6572-0.42786-0.33758-0.815-0.97159-1.1125-0.66585-0.31244 0.12757 0.33384 0.01776 0.29252-0.3936-0.14809-0.61792-0.66187-0.8715-1.8178-0.45522-2.075 0.14217-0.0879 0.36242 4e-3 0.48944 0.20487 0.1493 0.23572 0.23238-0.11088 0.235-0.98034 0.0022-0.73973 0.08602-1.4269 0.18621-1.5271 0.10019-0.10019 0.22629-1.1794 0.28023-2.3983 0.11137-2.5167 0.35105-3.6438 0.80718-3.7959 0.49823-0.16607 0.94993 1.293 0.58327 1.884-0.22423 0.36146-0.22513 0.44171-0.0034 0.30468 0.21804-0.13475 0.24309 0.0946 0.09089 0.83221-0.11556 0.56003-0.21245 1.4052-0.21531 1.8781-0.0059 0.97622-0.56892 1.1763-0.74452 0.26458-0.09831-0.51042-0.1198-0.49155-0.15069 0.1323-0.01982 0.40018 0.08825 0.7276 0.24015 0.7276s0.25686 0.14883 0.23324 0.33073c-0.09734 0.74957 0.03624 1.2778 0.28433 1.1245 0.14552-0.0899 0.26458 0.0689 0.26458 0.35295 0 0.28406 0.16158 0.57848 0.35906 0.65426 0.38406 0.14738 1.0345-2.101 1.3806-4.7727 0.09863-0.76133 0.3526-1.5948 0.56436-1.8521 0.30298-0.36816 0.35793-0.37941 0.25786-0.0528-0.08908 0.29073 0.04312 0.40958 0.44142 0.39688l0.56859-0.0181 0.0612 3.175-0.37182-2.9104-0.06993 1.3229c-0.03846 0.72761-0.04875 1.7099-0.02285 2.1828 0.04562 0.83319-0.36767 1.1995-0.59695 0.52917-0.06221-0.1819-0.0615-0.0343 0.0016 0.32808 0.06308 0.36234 0.21344 0.71984 0.33412 0.79442 0.12069 0.0746 0.15481 0.47369 0.07582 0.88688-0.10778 0.56381-0.20611 0.66267-0.3941 0.3962-0.17051-0.24169-0.19901-0.11958-0.08927 0.38246 0.08867 0.40563 0.02716 1.2354-0.1367 1.8439l-0.29793 1.1064-0.37615-0.65329c-0.28852-0.5011-0.35956-0.53641-0.30492-0.15157 0.03918 0.27594-0.0776 0.55376-0.2595 0.61736-0.18564 0.0649-0.33251-0.0971-0.33478-0.36943zm-0.22704-1.2581c0.20256 0.12519 0.24246 0.0795 0.11319-0.12971-0.11725-0.18972 0.0024-0.47182 0.28985-0.68344l0.48952-0.36038-0.48081-0.18632c-0.26444-0.10247-0.61568-0.0514-0.78052 0.1134-0.4408 0.4408-0.93288 0.36512-1.0618-0.16331-0.06212-0.25466-0.11977-0.0463-0.12811 0.46302-0.0083 0.50933 0.04926 1.158 0.12801 1.4415l0.14318 0.51546 0.4873-0.60179c0.282-0.34826 0.61911-0.52033 0.80016-0.40844zm-1.3564-0.1686c0-0.29963 0.11906-0.4712 0.26458-0.38126 0.14552 0.0899 0.26458 0.33509 0.26458 0.54478s-0.11906 0.38126-0.26458 0.38126-0.26458-0.24515-0.26458-0.54478zm-2.1167 0.80936c0-0.14552-0.15436-0.26458-0.34302-0.26458-0.48362 0-0.41209-1.3856 0.07844-1.5195 0.32268-0.0881 0.32945-0.061 0.03621 0.1444-0.2463 0.17257-0.26541 0.28445-0.06026 0.35283 0.29542 0.0985 0.69448 1.5514 0.42611 1.5514-0.07561 0-0.13747-0.11907-0.13747-0.26459z" style="fill:#131313;stroke-width:.26458"/></g></g></svg>
