<svg width="32.496mm" height="41.284mm" version="1.1" viewBox="0 0 32.496 41.284" xmlns="http://www.w3.org/2000/svg"><g transform="translate(-79.695 -69.657)"><g transform="translate(60.313 53.399)"><path d="m32.727 56.014c-3.3751-2.186-6.0653-5.2383-8.7456-8.1883-3.2467-4.7644-3.5244-10.703-4.2505-16.236-0.0943-3.6522-0.18859-7.3044-0.28289-10.957 3.3527-1.897 7.4003-1.4452 10.929-2.8305 2.2221-0.65544 4.5827-2.273 6.9264-1.1075 4.4453 1.6178 9.0929 2.6118 13.766 3.2935 1.623 2.7555 0.27176 5.973 0.42174 8.9377-0.49828 5.7002-0.69142 11.638-3.1387 16.912-2.7541 4.9342-7.3173 8.5251-11.918 11.614-1.3973 0.41042-2.664-0.66564-3.7087-1.4384z" style="fill:#969696;stroke-width:.26458"/><path d="m33.328 56.314c-4.3764-3.117-8.737-6.7634-10.962-11.781-2.5788-7.219-2.5846-14.985-2.9833-22.545 0.05256-2.0984 2.4363-2.4961 4.0989-2.5581 3.9494-0.52851 7.7872-1.7432 11.517-3.1224 1.1407-0.3327 3.5828 1.1516 1.3189 1.5344-0.44601 1.8388 3.2144 1.7384 2.4361 0.43735 0.86605 0.28852 4.0355-0.23066 3.168 1.079-0.78078 0.9287 2.2245-0.47275 2.61 0.59927 1.2358-0.17849 1.7556 0.74096 2.378 1.3196 1.1054-0.6584 1.7676-2.536 3.4079-1.3247 2.0129 1.2608 1.193 3.9972 0.92635 5.8861-1.1257 0.96013-2.1975 1.9505-1.6004 3.6031-0.39943 1.9671-0.24514 3.8387-0.29214 5.6559 0.20348 0.24657 0.79932-0.39771 0.95882 0.70742 0.36676 1.1874-1.9538 1.0058-0.42785 2.136 0.80226 1.317-0.10827 2.9622-0.32866 4.366-0.8074 2.8206-2.1659 5.5057-4.2904 7.5665-1.5627 1.4942-2.8697 3.296-4.7712 4.3805-1.4558 0.98882-2.8826 2.0232-4.2372 3.1477-1.0958 0.31867-2.1673-0.3582-2.9263-1.0872zm11.131-12.411c0.19146-1.0806 1.6835-2.2342 1.9884-3.7987 0.06954-0.54783-0.98602-1.2697 0.10634-1.8193 1.2645-0.34225 1.791-3.5456 0.33738-2.9644-0.76502 1.1759-0.02027 3.8091-2.2508 3.5002-1.6419 0.26198-1.9244 2.8539-0.56712 3.1551-0.21857 0.7726-1.6129 3.1545 0.38583 1.9272zm3.6032-9.3714c-1.7637-0.74165 1.3427-2.409 0.6131-3.8564-0.10338-1.9541 0.41024-3.8824-0.17027-5.7258 1.0789-2.1888-2.7125-3.2544-4.3245-2.385-0.78426-0.93605-2.1765 0.01246-2.5998-0.23016 0.24025-0.8382-1.0979-0.40733-1.5192-0.90393-1.0418 1.6464 1.1076 1.8973 2.2845 1.4861 0.98167 0.73558-1.7306 2.0006-1.7577 3.1633-0.40421 1.8499 0.82479 3.6393 1.3845 5.389 0.57278 0.93812 2.1126-0.33054 1.2039 0.97916 0.89687 1.1992 2.234-0.56271 2.6648-1.0315 1.3049 0.37066 0.33384 1.3942-0.54659 0.95249-0.9641 0.70385 1.531 2.2307 0.65222 0.57367 1.3388 0.2906-0.39168 2.5529 1.6474 1.8613l0.25444-0.09972 0.21321-0.17262z" style="fill:#6c6c6c;stroke-width:.26458"/><path d="m32.617 55.654c-3.8919-2.8613-7.8302-6.1266-9.8933-10.603-2.3543-5.4776-2.4195-11.548-2.9055-17.393-0.08602-1.1342 1.0723-0.03026 0.57603-1.2696-0.20286-0.85312 1.7926-2.5153 0.05057-2.1828 0.34578 1.1383-1.4161 0.27354-0.51316-0.66544 0.5855-1.072-1.1362-2.7267 1.0066-2.7705 1.5886 0.25591 0.49807-0.04833 0.48612-0.85692 2.1008-0.48187 5.6866-0.62659 6.9122-0.91693-0.4842 1.4878 2.2336 0.91715 0.90946-0.31664 1.3726-1.3768 3.395-0.99872 4.8539 0.19665 2.2581-0.21108 4.6228 0.70996 6.8764 1.267 2.4495 0.51136 4.8364 1.4559 7.35 1.648 0.95411-0.37971 3.0562-1.1924 2.0839 0.75724-1.2823 2.9466-0.77374 6.203-1.1574 9.3095-0.23282 3.2783-0.47664 6.5773-1.3922 9.7493-0.47599 1.8992 0.84507 4.0524-1.1804 5.3905-0.26476 0.45184 1.1114-0.60099 0.47268 0.42433-0.16705 1.3935-2.6939 0.65422-2.0455 1.7789 1.0858-0.21244-1.0683 2.0337-1.6794 2.5247-1.1473 0.62012-1.9191 2.3754-3.2028 2.3327-0.7081-0.85105-1.4602-2.2475-2.529-0.87547-1.5146 0.99587-0.56116 5.4005-3.4408 3.6654-0.58055-0.34977-1.0757-0.81855-1.6386-1.1935zm13.527-8.195c-0.86467-0.95427 2.1776-3.2455 0.67582-2.9935-0.55734 0.88702-2.7289 3.6244-0.50283 3.4368 0.26046-0.13604 0.03692-0.42452-0.17299-0.4433zm-1.806-1.7053c1.9299-1.8329 2.391-4.5621 3.403-6.9119 0.8372-4.1779 1.2412-8.436 1.3849-12.683 0.51844-2.2851-1.3206-4.6449-3.7109-4.2229-2.6227-0.29497-5.3248-0.60712-7.7026-1.8373-0.77872-1.9249-4.7179 0.71246-2.1229 1.3206 0.2031 1.2942-2.7691 2.6093-2.6627 1.773 1.3773-0.67093-1.3254-0.51682-0.15262-1.3061 0.60468-1.9039-1.5187 0.8594-2.653 0.22619-0.96358 0.44513 1.025 0.6036 1.0428 1.4229 1.1777-1.8642 1.9333 2.715 0.56525 1.6115 1.9981 0.51751 0.64781 2.9257 1.1181 4.4969-0.2705 2.5768 2.7234 1.5887 4.0145 0.7406 0.84648-0.6626 1.2875-0.15062 1.4807 0.4189 1.2727 0.10724 2.6773 2.0307 0.80617 2.509 1.189 0.65447 3.4063 1.2439 2.0277 2.9122 1.0187 0.36204 2.8486 2.3016 0.52927 2.0691-1.2191 0.32502-1.0209 1.6849-0.46015 1.8658-0.19352 1.1817 1.0113 2.4391-0.17074 3.4088-0.7626 1.9886 1.7803 4.6066 3.1812 2.2657l0.07541-0.0732 0.0065-0.0063zm0.63229-7.6288c-1.0162-1.0986-3.6337-3.0816-2.0634-4.5212 1.3926-0.79666 1.9377 0.76338 0.96668 1.6678 0.15449 0.89267 2.0256 1.0766 0.63448 1.8341 1.0162 0.03417 1.3069 1.1973 0.34864 1.3721l0.11363-0.35287zm-6.9635-14.142c-0.45962-0.92155-3.3929-1.705-0.97514-2.2596 0.92629-0.73563 2.0241 0.70283 1.019 1.3505 2.0444-0.92148 0.2584 2.2576-0.04391 0.90912zm-11.378-0.3065c1.4235 0.08984 1.9432-1.511 0.2467-1.2206-1.5176-0.71324-2.9074 2.0112-0.55854 1.4533l0.17429-0.09148zm8.437-5.756c1.022-1.6569-2.719 0.49531-1.2597-1.2719 1.157-1.0881 3.5311 1.4472 1.2597 1.2719z" style="fill:#4f4f4f;stroke-width:.26458"/><path d="m32.792 55.743c-1.0446-0.65262-3.549-2.699-1.4155-3.5287 1.5879 1.2181 4.026 2.092 4.3436 4.3309-0.95316 0.761-2.1846-0.18836-2.9281-0.80221zm2.0794-1.5849c-3.2482-1.8561-5.9111-4.5229-8.6384-7.0426 1.4691 0.32873 2.7561 4.1125 0.50748 3.4885-1.6581-1.8403-3.6469-3.8698-3.6981-6.4991 0.35752-2.7177 2.9742 3.1032 1.7527 0.61536-0.52314-0.92812-1.3164-3.5961-1.4434-3.4895 0.19368 2.0889-3.0033 0.09721-1.1518-0.86834 1.5072-0.68676 0.19511-0.2489-0.4859-0.70883-0.50596-1.1832 1.5844 0.06252 0.96839-0.79275-2.0751 0.21135-0.81603-1.8066-0.25446-1.8325-0.86865-0.28806-2.0428-1.6706-0.40248-0.8999 1.015-1.0652-0.33447-3.3243 0.0029-4.8638-0.18938-2.9547-0.24964-5.9182-0.16322-8.8779 1.1353-1.277 4.0723-0.01823 3.7624-2.4857 1.0273 1.5039 2.9547 0.75703 4.5854 0.52553 2.2283-0.62549 4.5489-2.0637 6.9079-1.1528-0.6557 0.60148-2.5998-0.15799-3.64 0.75081-2.0634 0.84063-4.1884 1.6767-6.4528 1.6574-1.9498-0.018-4.2209 1.2268-3.77 3.5012 0.29294 2.3705 0.20473 4.7053 0.94186 6.9978 0.0028 1.447 1.4693 4.0927 2.6297 1.8481 0.46271-1.8757 2.8902-1.8352 3.1786 0.10069 1.0518 0.90789-0.11376 2.3035 1.0758 3.0041-0.1739 1.6077-0.6569 3.1474 0.61854 4.4668 0.65828 1.8309-0.2494 3.9323 0.22467 5.9174 1.0337 1.0765 1.2138 3.4974 2.7776 3.4394 1.7079 2.2098 1.3752-1.9367 2.585-2.4848 2.0724 1.0722 4.5617 0.673 6.3267-1.0183 3.2926-2.5688 4.0198-6.9434 4.9331-10.766-0.0861 4.3457-1.8154 8.6705-4.8801 11.78-1.925 2.1513-4.3206 3.7778-6.6684 5.4238-0.61052 0.38052-1.4505 0.5895-2.1298 0.26564zm14.345-29.923c1.3051-1.3475-3.4791-2.5669-0.63698-2.3152 1.3503 0.19664 1.4968 3.2951 0.48229 2.9362 0.0373-0.21138 0.1608-0.40054 0.15468-0.62098zm-4.8592-2.5883c-2.2193-0.40933-4.4808-0.85847-6.4823-1.9488 2.4892 0.619 5.118 0.84735 7.4324 2.0313-0.32073 0.09704-0.63114-0.0762-0.95006-0.08257z" style="fill:#323232;stroke-width:.26458"/></g></g></svg>
