<svg width="13.122mm" height="69.869mm" version="1.1" viewBox="0 0 13.122 69.869" xmlns="http://www.w3.org/2000/svg"><g transform="translate(-40.842 -24.974)"><g transform="translate(-27.271 -11.461)"><path d="m74.744 106.3c-1.5115-5.181-1.3249-10.653-1.5743-15.994-0.17418-9.7477 0.0029-19.507-0.38045-29.247-0.34204-1.8372 0.22607-4.1022-0.04916-5.6579-1.7326-0.13815-6.3727-0.3758-3.9336-3.0204 2.2608-0.02463 5.0046 0.18753 4.3635-3.0629 0.30036-3.1151 0.14158-6.2638-0.34042-9.3524-2.7986-3.4308 5.4736-5.2956 4.6336-1.1842-0.62784 3.0655-0.95891 6.1628-0.71494 9.2806-0.50352 2.6496 1.3138 4.6131 3.8395 4.5885 1.9429 1.7971-0.95286 3.2981-2.5849 2.6411-1.4292 1.9179-0.0551 4.6945-0.56688 6.9705-0.04961 12.633 0.10473 25.273-0.46572 37.897-0.57858 1.713 0.28027 6.2895-2.2262 6.1405zm-0.05292-42.492c1.2777-0.91995-0.60295-5.1603-0.5401-1.8647-0.01549 0.3149 0.06549 3.8675 0.5401 1.8647z" style="fill:#e6e6e6;stroke-width:.26458"/><path d="m74.757 106.02c-1.4394-4.4693-0.98836-9.2434-1.3732-13.861-0.36148-11.28-0.1296-22.57-0.48595-33.851-0.96186-1.1543 1.0003-3.6716 0.76241-1.0342 0.60502 12.531 0.19985 25.086 0.61636 37.619 0.22301 2.4386 0.49833 4.864 0.42867 7.3175 0.41638 2.6541 0.99036-1.7776 1.0801-2.5724 0.53936-6.2512 0.33072-12.543 0.3271-18.812-0.28277-2.4114 0.57798-5.3415-1.0553-6.8904 0.1147-1.7973 0.27072-0.32609 0.89775 0.01827-0.17424-2.4538 0.14016-4.9114 0.18011-7.4085 0.07373-3.9257-0.03615-7.8519 0.01145-11.778-2.3709-0.69166-7.3681 1.8542-7.7769-1.5909 1.2042-2.0366 4.8995 0.93689 4.9418-2.4949 0.09765-3.0443-0.03456-6.1131-0.13693-9.1656 0.03527-1.8764-2.1952-4.6494 1.0022-4.7669 2.7782-0.67836 3.7604 2.0169 2.5656 4.102-0.6686 3.6086-0.45682 7.326 0.18272 10.922 1.2837 0.80162 5.6793 1.1801 3.3204 3.3473-2.8175-1.5156-3.7199 1.9428-3.0655 4.0106-0.11939 13.741 0.18934 27.504-0.57975 41.227-0.3832 1.4471 0.31833 6.0914-1.8431 5.6614zm0.22596-11.589c0.05947-2.2714 0.53452 0.85575 0.13932 0.77869l-0.06265-0.29147zm0.03497-10.85c-0.41038-1.5885 0.69431-2.6155 0.51581-0.4165 0.1363 1.4487-0.6201 3.448-0.51581 0.4165zm0.01917-5.0155c0.2246-2.8949 0.76319 2.3351 0.01436 0.57-0.0048-0.19-0.0096-0.38-0.01436-0.57zm-0.08115-8.6113c0.63746-2.0733 0.37494 2.2882 0 0zm0.12655-2.2595c-0.04629-2.5861 0.8177 1.2272 0.12837 0.38756z" style="fill:#aaa;stroke-width:.26458"/><path d="m74.831 106.02c-1.0745-5.1064-1.2854-10.357-1.4425-15.559-0.17923-11.446-0.10912-22.896-0.50514-34.338 1.8628 1.6493 0.13504 4.5373 0.84036 6.6916 0.22142 6.7258 0.07408 13.46 0.22409 20.184 0.26353 5.7417-0.23421 11.533 0.7012 17.232-0.62196 1.2158 0.48399 4.9523 0.87261 1.8084 0.96597-6.7534 0.37233-13.595 0.63334-20.387 0.04433-9.0293 0.05631-18.059 0.08962-27.088-2.4314-0.37683-6.6569 1.6684-7.8607-0.99431 0.91048-2.1053 5.5552 0.87674 4.9012-3.0054 0.16827-3.107 0.20243-6.2669-0.08628-9.3498-1.2077-2.019-0.54658-5.4724 2.4199-4.245 3.0576 1.3401-0.79023 4.9653 0.38873 7.3809 0.37686 2.582-1.3964 7.7068 2.1066 8.3865 1.419-0.70128 3.9524 1.4655 2.3178 2.0622-2.4047-0.96826-4.3303 1.2423-3.259 3.5091-0.31695 13.65 0.27969 27.33-0.55691 40.962-0.45238 2.1779 0.42363 5.1046-1.4313 6.7062z" style="fill:#6e6e6e;stroke-width:.26458"/><path d="m75.022 106.17c-0.05713-3.0868 1.2441-6.0422 0.93307-9.1512 0.62736-14.053 0.18934-28.121 0.33951-42.181-2.443-1.0213-6.4055 1.4761-7.8393-1.27 0.58916-2.3674 2.5359 0.81615 3.3482-0.48087 2.0008-0.7143 1.3717-3.6159 1.7413-5.3717 0.0087-2.2714 0.13955-4.6007-0.26336-6.8254-1.9219-2.1625 0.0138-5.183 2.6835-3.7037 2.1855 1.4857-0.67276 3.5448-0.10646 5.5692-0.06259 2.7176-0.0429 5.4465-0.12508 8.1554 0.07556 2.3696 2.7269 2.7646 4.2663 1.7954 1.9728 1.1172-0.15633 3.2739-1.6566 1.9843-2.5814 0.59471-0.52347 4.2761-1.2309 6.2014-0.20915 12.987 0.32916 26.001-0.55661 38.968-0.35411 2.0884 0.13142 4.6975-1.5336 6.3107zm0.39852-53.06c-1.9091-1.4877-2.0516 1.6141 0 0zm-0.5621-3.3728c-0.03069-3.619-1.2273 2.949-0.11558 1.564 0.10578-0.51488 0.09487-1.0419 0.11558-1.564zm-0.03685-7.4416c0.11624-1.5481-0.68053-1.422-0.47022 0.11381 0.09761 1.8553 0.73853 1.3116 0.47022-0.11381zm-0.75501 58.157c-0.38517-1.1073 0.15087-3.4072 0.27157-0.93589 0.25888 1.0881-0.19522 3.5347-0.27157 0.93589zm-0.46566-6.1997c0.01928-4.343-0.25069-8.6898 0.01458-13.03 0.55388 4.6417 0.05833 9.3329 0.3659 13.985-0.18174 2.28-0.47928-0.10016-0.38048-0.95516zm-0.2733-22.049c0.13523-2.7331-0.35056-5.5086 0.13593-8.2135 0.30265 4.2629 0.28645 8.5435 0.0803 12.811-0.30328-1.5149-0.14727-3.0653-0.21623-4.5971zm0.06677-9.7675c0.27488-1.6076-0.67547-5.381-0.09095-5.6812 0.36825 1.867 0.44161 3.8055 0.09095 5.6812z" style="fill:#333;stroke-width:.26458"/></g></g></svg>
