<svg width="12.174mm" height="45.338mm" version="1.1" viewBox="0 0 12.174 45.338" xmlns="http://www.w3.org/2000/svg"><g transform="translate(-90.914 -83.856)"><g transform="translate(38.079 -14.825)"><path d="m64.27 144c-1.7285 0.20557-1.6302-1.9137-1.8921-3.055-0.79999-1.6933-2.8098-2.2008-4.0261-3.5528-1.3999-1.0247-1.725-2.8096-2.5376-4.2448-0.79866-1.2256-0.89687-2.7164-1.9088-3.7038-0.40543-1.1739-0.12815-1.9421 0.53541-2.8264-0.10618-1.2981 0.13292-2.6731-0.52297-3.8756-0.12827-0.94793-0.94442-1.4371-0.67834-2.331-1.4102-1.3062 1.3822-3.1255 0.65923-4.8226 0.34263-1.7445-0.77691-4.0405 0.85282-5.2548 0.89203-1.694 1.5053-3.7759 3.0224-5.1644 1.041-1.8664 3.2448-2.0896 4.5887-3.5852 0.54832-1.0022-0.26782-2.6286 1.4835-2.7373 1.6065-0.87253 0.4184 1.8503 0.61975 2.7744-0.27626 1.4138-1.4511-0.61806-1.8646 0.7707-1.2989 0.87573-2.9438 1.2992-3.9375 2.6026-0.78432 1.2393-2.048 2.5514-1.6772 4.2249 0.0522 1.7014 0.26828 3.4531-0.50901 5.0349-0.72056 1.5668-0.43855 3.286-0.4921 4.9484 0.89224 0.65592 0.24148 1.1944-0.48094 1.5304 0.44509 1.4275 1.3335 2.7971 1.1335 4.3651-0.06154 1.8997 0.70394 3.7001 0.70158 5.583-0.46658 1.7742-0.12795 3.4504 0.97963 4.9095 0.75809 1.929 2.6629 2.9009 4.1057 4.2585 0.89158 1.188 1.5581 0.84262 1.2528-0.51991-0.0098-12.273-0.01953-24.546-0.0293-36.818 1.1947 0.39979 0.20606 2.7454 0.54043 3.8868 0.04367 11.73 0.08732 23.46 0.13099 35.19 0.75261 0.40228 1.0912 2.4716-0.04988 2.4124z" style="fill:#a0a0a0;stroke-width:.26458"/><path d="m64.065 143.79c-1.7717 3e-3 -0.7795-2.5057-1.8496-3.4051-1.1947-1.5196-3.1633-2.3109-4.1498-4.0323-1.1857-1.1137-1.6686-2.544-2.3511-3.9563-0.42889-1.5654-1.6203-2.5015-1.6709-4.0888 0.43243-1.3075 0.88606-2.5812 0.38695-3.9762 0.09545-1.6069-1.0485-2.7845-1.2362-4.3015-0.25056-1.8717 1.5794-3.4152 1.0479-5.4198 0.35029-0.77501-0.75535-2.086 0.01112-2.1079-0.48948-1.2265 0.19849-1.7202 1.2033-2.2332 0.33218-2.0847 1.5351-4.0944 3.033-5.6002 0.25615-0.66822 1.9849-1.6426 0.81604-0.49323-1.1381 1.1094-2.147 2.5319-2.6243 4.0122-0.08761 1.7184 0.4685 3.549-0.1986 5.1829-0.85719 1.816-0.59298 3.8623-0.83544 5.8022 1.4263 0.93081-0.9483 1.1128-0.10128 2.3474 1.1765 2.1871 0.74606 4.7665 1.372 7.1101 1.1876 1.7376-0.79651 3.6614 0.32489 5.2957 0.93073 1.8884 1.8834 4.0268 3.9089 4.9607 1.0105 0.55257 1.7067 1.9342 2.6935 2.1285 0.31472 0.54463 1.9197 2.8104 0.21953 2.7747zm-2.3505-41.01c0.0169-0.59729 1.3904-1.4312 0.90835-2.5045 0.16849-1.3307 2.4566-1.7857 1.7951 2e-3 0.05791 0.91636-0.28027 1.6921-1.2486 1.2764-0.54406 0.30355-0.79881 1.186-1.4548 1.2258z" style="fill:#565656;stroke-width:.26458"/><path d="m64.055 143.7c-1.3106 0.13433-1.1165-2.3407-0.99675-2.7861 0.92563 0.60685 2.0627 1.832 0.99675 2.7861zm-7.4694-10.987c-1.0004 0.11951-0.16351-2.8194-1.7739-2.8244-0.97024-0.2494 0.91008-1.151-0.46453-0.9135-0.56746-0.48389 1.2987-1.4055 0.73936-2.0159 1.9552 0.18245-1.0242-1.1339-0.32545-2.245 0.17449-1.1564-0.7293-2.0809-0.51791-3.0926-1.2643 0.0226 0.15896-2.1386-0.96877-2.5158 0.15266-1.1398 1.9247-2.485 1.7214-3.2444-0.76507-0.8624-0.45801-2.8358 0.87885-3.1456 0.61794-1.1476-1.8949 0.89668-0.86911-0.32317 0.90104-1.2097-0.35106-0.28136-0.89457-0.54922 1.0913-1.6425 2.2091 0.40258 2.4296 1.3981-0.60418 1.1348-0.97956 2.3648-0.89313 3.6592 0.03187 0.9943-0.12565 2.4182-0.52909 2.8281 1.9466-0.22551-0.91815 0.87199-0.30843 1.9257-0.35393 1.0441 0.66228 0.81925 0.43534-0.1062 0.95844 0.45428-0.22644 1.9448 0.70835 1.4678 0.36224 1.2036-0.4369 2.4381 0.38258 3.5439 0.35791 1.9323 0.70382 3.9067 0.48406 5.8762l-0.0881 0.15097-0.14654 0.12594zm-2.1652-11.823c0.66435-0.9677-1.3453-0.33408-0.11076 0.10514zm1.4461-10.082c-1.1085 0.25389 0.91716-1.4368 0.24329-0.0629l-0.11123 0.0584zm7.5933-9.501c-1.5258 0.30634 0.04287-2.2442 0.46476-0.71127 0.05019-0.61314-1.6191-1.1489-0.24996-1.2844 0.89943 0.01722 0.99948 2.0744-0.21481 1.9957z" style="fill:#343434;stroke-width:.26458"/></g></g></svg>
