<svg width="6.051mm" height="57.884mm" version="1.1" viewBox="0 0 6.051 57.884" xmlns="http://www.w3.org/2000/svg"><g transform="translate(-82.688 -88.165)"><g transform="translate(63.813 77.242)"><path d="m21.705 68.4c-0.17916-0.25291-0.67053-1.1933-1.0919-2.0897-0.64038-1.3622-0.7296-1.7922-0.54326-2.6184 0.12263-0.54371 0.38039-1.0858 0.57282-1.2047 0.28366-0.17526 0.364-3.7854 0.42456-19.077 0.04109-10.374 0.01572-19.103-0.05637-19.398-0.07209-0.29494-0.58195-1.0631-1.133-1.7069l-1.002-1.1707 0.01817-4.1139c0.0214-4.8445 0.20104-6.0983 0.87374-6.0983 0.5655 0 1.6241 1.0738 2.034 2.0633l0.29617 0.71483 0.2046-0.66146c0.27718-0.89612 1.4574-2.1167 2.0467-2.1167h0.47967l0.03678 2.0505c0.12787 7.1283 0.07861 8.2577-0.37503 8.597-0.24462 0.18298-0.72236 0.71232-1.0617 1.1763l-0.6169 0.84363-0.06269 19.066c-0.04327 13.159 0.02323 19.066 0.21466 19.066 0.15254 0 0.27735 0.17859 0.27735 0.39688 0 0.21828 0.16569 0.39688 0.36819 0.39688 0.57372 0 0.7516 1.2303 0.30323 2.0974-0.21898 0.42346-0.65292 1.4642-0.96433 2.3128-0.69506 1.8941-0.83129 2.0555-1.2435 1.4736z" style="fill:#949494;stroke-width:.26458"/><path d="m21.031 66.873c-1.0904-2.2654-1.2031-3.3249-0.43541-4.0926 0.29104-0.29104 0.45506-0.52917 0.36448-0.52917-0.09058 0-0.05038-0.14883 0.08933-0.33073 0.15758-0.20516 0.24092-7.4738 0.2195-19.145l-0.03451-18.814-0.41956-0.63253c-0.23076-0.34789-0.73167-0.96609-1.1132-1.3738l-0.69359-0.74124v-9.4811l0.46302 0.16184c0.25466 0.08901 0.87974 0.54018 1.3891 1.0026s1.0451 0.82836 1.1906 0.81322c0.14552-0.01514 0.69916-0.47004 1.2303-1.0109 0.53115-0.54085 1.0967-0.98337 1.2568-0.98337 0.20077 0 0.29104 1.4618 0.29104 4.713v4.713l-0.81737 0.77711c-1.6138 1.5343-1.5376 0.53451-1.5565 20.421-0.0099 10.432 0.08621 18.531 0.22424 18.889 0.13289 0.34414 0.49233 0.91182 0.79876 1.2615 0.30642 0.34969 0.55713 0.83257 0.55713 1.0731 0 0.36003-1.7469 5.0042-1.9718 5.242-0.0373 0.03944-0.50187-0.83007-1.0324-1.9322z" style="fill:#5f5f5f;stroke-width:.26458"/><path d="m21.774 67.668c-0.10093-0.43239-0.35618-1.0624-0.56722-1.4001-0.21104-0.33767-0.55804-1.1081-0.77112-1.712l-0.38741-1.098 1.2083-0.91125 0.07961-18.734c0.04379-10.304 7e-3 -19.239-0.08176-19.855-0.10683-0.74179-0.51582-1.5689-1.2102-2.4473l-1.0488-1.3268 0.06898-8.2301 0.42206 0.08128c0.23213 0.0447 0.78598 0.55841 1.2308 1.1416 0.50757 0.66547 0.98022 1.0273 1.2693 0.97158 0.25333-0.04879 0.4606-0.17644 0.4606-0.28366 0-0.32743 1.629-1.8829 1.9719-1.8829 0.23652 0 0.33607 1.1027 0.37621 4.1672l0.05459 4.1672-2.4027 3.4106 0.0074 18.8 0.0074 18.8 0.78639 1.0393c0.43251 0.57163 0.78639 1.1812 0.78639 1.3547 0 0.17347-0.46737 1.3097-1.0386 2.525l-1.0386 2.2096z" style="fill:#2a2a2a;stroke-width:.26458"/><path d="m21.767 67.399c-0.10379-0.42983-0.46934-1.3431-0.81232-2.0295-0.34298-0.68638-0.61982-1.5198-0.61519-1.8521l0.0084-0.60411 0.35148 0.46302c0.19332 0.25466 0.43053 0.46302 0.52714 0.46302 0.22185 0 0.19994 1.4507 0.32775-21.696l0.10886-19.711-1.2037-1.3753c-0.97866-1.1182-1.172-1.5015-1.0342-2.0505 0.20083-0.80019 0.29648-0.82022 1.0127-0.21218l0.54544 0.46302-0.78463-1.0127 0.57926 0.30862c0.56983 0.30359 1.1562-0.01757 0.628-0.34399-0.14112-0.08722-0.52536-0.54193-0.85387-1.0105l-0.5973-0.8519 0.51883 0.39688c0.28536 0.21828 0.6063 0.51594 0.71322 0.66146s0.19621-0.24143 0.19844-0.8599c0.0022-0.61846-0.11501-1.1245-0.26053-1.1245s-0.26276-0.44648-0.26053-0.99219c0.0029-0.70641 0.07407-0.88151 0.24712-0.60794 0.13369 0.21133 0.18946 0.471 0.12392 0.57703-0.32579 0.52714 0.43993 0.4026 1.0605-0.17248 0.38961-0.36108 0.76177-0.6565 0.82704-0.6565 0.06526 0 0.11866 0.41672 0.11866 0.92604s-0.11906 0.92604-0.26458 0.92604-0.26276 0.50602-0.26053 1.1245c0.0022 0.61846 0.09153 1.0054 0.19844 0.8599 0.10691-0.14552 0.42786-0.44318 0.71322-0.66146l0.51883-0.39688-0.5973 0.8519c-0.32851 0.46854-0.71276 0.92325-0.85387 1.0105-0.52816 0.32642 0.05818 0.64759 0.628 0.34399l0.57926-0.30862-0.78463 1.0127 0.54544-0.46302c0.75612-0.64186 0.90065-0.58579 0.90065 0.34941 0 0.56268-0.32636 1.1995-1.0616 2.0714l-1.0616 1.259 0.0066 19.691c0.0036 10.83 0.0033 20.048-7.68e-4 20.484-0.0051 0.54657-0.07817 0.68196-0.2348 0.43477-0.15828-0.2498-0.28242-0.27006-0.40815-0.06661-0.09938 0.1608-0.01036 0.53556 0.19783 0.83279l0.37852 0.54042 0.20524-0.6061c0.11287-0.33335 0.29475-0.84422 0.40417-1.1353l0.19895-0.52917 0.02637 0.57326c0.0145 0.31529 0.1752 0.62411 0.3571 0.68625 0.35746 0.12212 0.34882 0.15143-0.95072 3.2262l-0.66578 1.5753zm1.4664-3.9565c0-0.14552-0.11542-0.08599-0.25648 0.13229-0.14106 0.21828-0.25648 0.51594-0.25648 0.66146s0.11542 0.08599 0.25648-0.13229c0.14106-0.21828 0.25648-0.51594 0.25648-0.66146zm-1.844-43.496c0-0.12995-0.19543-0.31127-0.4343-0.40293-0.36313-0.13935-0.3795-0.10063-0.09989 0.23628 0.38103 0.45912 0.53419 0.5069 0.53419 0.16666zm1.8571-0.16666c0.27961-0.33691 0.26324-0.37562-0.09989-0.23628-0.23886 0.09166-0.4343 0.27298-0.4343 0.40293 0 0.34024 0.15316 0.29246 0.53419-0.16666zm-3.1895-4.4031-0.31693-0.61797 0.47818 0.45672c0.263 0.2512 0.40562 0.52928 0.31693 0.61797-0.08869 0.08869-0.30387-0.11684-0.47818-0.45672zm3.4491 0.34047c0-0.1277 0.19809-0.39559 0.44019-0.59531l0.44019-0.36313-0.31721 0.59531c-0.32806 0.61568-0.56318 0.76727-0.56318 0.36313zm-3.4343-2.5395c-0.20869-0.25146-0.22876-0.40327-0.05332-0.40327 0.31976 0 0.69257 0.50197 0.50908 0.68546-0.06659 0.0666-0.27169-0.06039-0.45577-0.28219zm3.4343 0.17391c0-0.31976 0.50197-0.69257 0.68546-0.50908 0.06659 0.0666-0.06039 0.27169-0.28219 0.45577-0.25146 0.20869-0.40327 0.22876-0.40327 0.05332z" style="fill:#0e0e0e;stroke-width:.26458"/></g></g></svg>
