<svg width="24.371mm" height="23.801mm" version="1.1" viewBox="0 0 24.371 23.801" xmlns="http://www.w3.org/2000/svg"><g transform="translate(-96.456 -46.653)"><g transform="matrix(.60616 0 0 .60616 10.456 29.306)"><path d="m162.79 67.759c-2.1087-1.2127-0.59337-3.8474-1.0463-5.6922-0.95141-1.3742-1.1948 1.8225-0.80091 2.5893 0.90426 2.5869-2.0135 3.3917-3.9655 2.8291-1.5948-0.35853-3.2315-0.60716-4.7877-1.088-2.0654-0.98771-2.5385-3.6421-1.827-5.6319 0.40606-2.7661 1.4267-5.3861 2.0829-8.0935-0.60073-2.3403-1.6384-4.5337-2.6584-6.7137-2.7254 0.07747-4.528-2.3061-6.5596-3.7353-1.5769-1.8315-1.2591-4.3956-1.2028-6.6284 0.88905-2.6934 4.3686-2.0344 6.2425-3.6085 2.225-1.4116 4.9112-1.603 7.252-2.7005 1.6562-1.1425 3.5631-0.3606 5.385-0.40115 1.8437 0.05565 3.6931-0.022 5.5221-0.26622 1.5806 1.2377 3.3836 2.715 5.3912 1.7428 2.4211 0.61073 4.2354 2.9029 6.8802 2.7614 2.5636 0.37495 4.043 3.4364 3.0905 5.7606-0.2441 3.2066-2.8046 5.8565-5.8374 6.689-2.4832 0.47779-3.3632 2.8498-3.894 5.0064-0.77106 2.2219-1.1388 4.7243-0.1365 6.939 0.7693 2.3997 1.9782 4.9321 1.2374 7.4952-1.7333 2.6287-5.2164 2.6741-8.0323 2.8664-0.77993 0.0077-1.5604-0.03139-2.3354-0.12016zm-8.0112-11.378c-0.8124-1.4316-1.6278 0.50178 0.017 0.28161 0.35098 0.18598 0.5494-0.26809-0.017-0.28161zm3.9005-1.8045c-0.24873-1.3814-0.61804 1.2522-0.0274 0.0641zm4.2307-3.0466c3.0782 0.35897 0.52808-5.1617-0.50884-1.6478-0.17854 0.50845-0.6453 2.6453 0.50884 1.6478zm-3.505-0.06615c0.52762-1.4418-0.28961-5.1522-1.8633-2.6126-0.27935 1.1291 0.45505 2.9257 1.8633 2.6126zm6.4556-4.0195c0.70353-2.6016-5.6271-0.9095-2.3812 0.25207 0.74508 0.25182 1.8623 0.57434 2.3812-0.25207zm-4.5995-1.1777c-0.89323-1.7744-1.4125 1.3619 0 0zm6.2057-1.7601c2.2679-1.162-1.893-5.1473-2.315-2.533 0.57268 0.72376 0.88362 4.2091 2.315 2.533zm-9.9787 0.07817c-0.2033-2.6962 3.8486 0.7749 3.4057-1.9448-0.91371-1.8685-3.0866-0.69016-4.6827-1.094-3.0812 0.18666-0.55709 4.7274 1.277 3.0389zm14.132-1.2423c3.28-1.1428-1.7044-5.4602-2.5442-1.9984-1.2431 1.6722 1.3096 4.3972 2.5442 1.9984zm-0.5203-2.1044c0.88842-1.0697 0.16515 1.5679 0 0zm3.7974 2.4757c1.2105 0.69373 2.2674-2.8089 0.69007-1.4846-0.73606-2.687-3.9239 0.92873-2.3153 2.1465 0.61685 0.3308 1.2548-0.20342 1.6252-0.66192zm2.1668 0.14332c1.3704 0.16749 4.1696-2.656 1.3997-2.3719-0.46174 0.22086-3.0135 2.4581-1.3997 2.3719zm-28.093-3.0691c-0.41993-2.582-4.034 1.3578-1.2331 0.97226 0.99789 0.99884 1.8383 0.23124 1.2331-0.97226zm-3.2063 1.2474c1.4462-2.053-3.6912-1.5825-1.5811-0.02991 0.46075 0.27706 1.1399 0.45371 1.5811 0.02991zm5.7073-1.1196c-0.67145-0.93522 1.2619-1.743 1.1808-0.44717 1.8594-0.90864-0.44121-5.039 2.6389-4.4674 2.2408-1.5367-1.8303-3.1149-3.1218-3.6714-1.212-0.56039-3.9748 1.3668-2.1781 1.991 1.7806-1.1223 3.7462 1.5421 1.3877 2.2681-2.2556 0.16726-3.0218 2.3201-1.7846 4.06 0.36498 0.78766 1.3443 1.0538 1.8771 0.26692zm-1.66-1.4905c-1.1279-2.4094 2.4337 0.38532 0 0zm2.4538-1.1465c0.89765-1.6373 0.33816 1.4394 0 0zm7.0115 2.4565c2.3005 0.83052 0.239-3.9917 7e-3 -1.1079-1.0702 1.1857-1.4082-1.0101-0.72614-1.5115-1.0563-2.835-5.2048 1.2928-2.5156 2.6391 0.97945 0.56697 2.2416 0.44782 3.2347-0.01967zm9.6056-1.4629c-1.089-2.8346-3.011 2.7461-0.0987 0.83566 0.17143-0.23643 0.22592-0.56588 0.0987-0.83566zm4.8142 0.46809c-1.8189-1.715-0.0524 1.8802 0 0zm6.6146 0c0.61203-0.90916-2.2886-2.2336-0.0311-2.1784 2.5651-1.1308-2.1208-3.6104-2.0884-0.80068-0.79119 1.2941 0.27554 4.6784 2.1194 2.9791zm-3.0976-0.08819c-0.52409-1.7476 2.1202-5.2016-0.87301-5.5185-1.9179 0.589-2.0477 3.0304-1.7119 4.6863 0.048 1.7104 1.519 1.3113 2.5849 0.83218zm-33.203-0.34598c1.8915 1.1785 0.94738-4.6254 1.8411-1.3379 0.76745 2.3157 4.0108 0.45572 2.947-1.5421-7e-3 -2.5225-2.8548-2.4168-4.3178-1.3976-1.5485 0.0028-2.401 2.1781-0.57746 2.629-0.35323 0.57024-1.6059 2.3621 0.10706 1.6485zm2.5347-2.7125c0.76399-1.8363 0.79768 1.6719 0 0zm18.511 2.4463c0.53327-1.5687-1.1146 1.1026 0 0zm6.9423-0.09587c3.0016-0.52703 3.1073-5.4773 0.28037-6.3511-2.6944-0.35897-2.384 3.2009-2.1503 4.9624 3.2e-4 1.0363 0.70267 2.2762 1.87 1.3887zm-9.4129-2.3009c2.1322-1.0255 4.8379-2.4384 4.9069-5.1419-1.0959-3.0607-3.6659 0.96304-5.4293 1.1264-2.0579 0.5442-3.9238-1.755-5.3146-1.9384 0.28469 2.1615 0.24608 5.0711 3.0991 5.5079 0.87296 0.16999 1.8602 0.65568 2.7379 0.44597zm-4.1027-2.1016c-1.2582-0.78828 0.86105-2.2995 0.98184-0.73961 0.7947 0.5213 3.2526-0.10864 3.0749 1.0649-1.3392-0.24742-2.98 0.94798-4.0568-0.32534zm5.312-0.03482c-1.4032-1.8903 2.4079 0.16697 0.13818 0.22844zm0.64112-1.6455c-0.0184-1.2667 2.6103-1.1396 0.98985-0.06957-0.17237 0.3472-0.90791 0.65035-0.98985 0.06957zm2.9104 3.1906c2.3605 1.9298 2.0125-3.5287-0.29285-1.5122-1.0522 0.46372-1.4798 2.5458 0.29285 1.5122z" style="fill:#b9b9b9;stroke-width:.26458"/><path d="m162.85 67.7c-2.4164-1.2093 0.11993-4.6555-1.624-5.9074-1.4537 1.5749 1.118 4.3792-1.1848 5.5188-2.2047 0.75485-4.5142-0.18693-6.6945-0.59462-1.7934-0.41201-3.5041-1.9535-3.2041-3.9334 0.0287-3.5528 1.6903-6.8272 2.2666-10.26-0.30773-2.3294-1.9318-4.2171-2.3417-6.517-2.619 0.06264-4.475-2.0895-6.4724-3.4574-1.8407-1.8793-1.9895-4.8744-1.3419-7.2853 1.3326-2.4798 4.6956-1.9335 6.7315-3.5363 1.8324-1.2133 4.0429-1.3399 5.998-2.2139 1.9363-0.82334 4.1237-1.1332 6.1503-0.47209 2.2182 0.18662 4.8626-1.1652 6.7284 0.579 1.9043 1.6495 4.9975 0.01791 6.7103 2.1335 2.084 1.4593 5.074 1.0709 6.8553 3.0394 1.1165 2.3202 0.2789 5.0996-0.70209 7.3054-1.6004 2.2573-4.3837 3.1294-6.7051 4.3755-1.8178 1.7104-1.9719 4.3967-2.6171 6.6726-0.80768 3.9847 2.832 7.4912 1.7528 11.5-0.77763 2.4349-3.6738 2.9012-5.8808 3.1039-1.4686 0.19946-2.9595 0.16445-4.4247-0.05083zm-8.0698-11.32c-0.8124-1.4316-1.6278 0.50178 0.017 0.28161 0.35098 0.18598 0.5494-0.26809-0.017-0.28161zm3.9005-1.8045c-0.24873-1.3814-0.61804 1.2522-0.0274 0.0641zm4.2307-3.0466c3.1079 0.45891 0.72019-5.4359-0.39356-1.8263-0.16788 0.48455-0.89964 2.7978 0.39356 1.8263zm-3.6357-0.54c1.9448-1.5889-1.5277-4.9077-1.8176-1.7575 0.0138 0.78885 0.81156 3.0656 1.8176 1.7575zm6.7493-3.5651c0.37406-2.0819-4.971-1.4922-3.1946-0.01005 0.92595 0.50837 2.3605 0.86638 3.1946 0.01005zm-4.7625-1.1582c-0.89323-1.7744-1.4125 1.3619 0 0zm6.2297-1.7361c2.3397-1.4122-2.1144-5.4576-2.5219-2.4183 0.17555 1.0235 1.1298 3.7974 2.5219 2.4183zm-9.9363-0.14432c0.41378-1.857 4.8474 0.42809 3.2095-2.4916-0.62188-0.40721-3.2958-0.12709-1.2273-0.65603 1.8487-0.3429 0.69951-4.0184-0.69132-1.7346-0.69477-0.74766-0.26177-3.6272-2.2447-2.1949-2.0808 0.65395-1.127 3.9139-0.34166 4.1422-2.6832-0.70286-1.72 3.506 0.27348 3.4886 0.40284-0.0037 0.80421-0.21124 1.0219-0.5537zm13.893-0.9298c3.1619-0.44612-0.0481-5.5578-1.8731-3.0226-1.7802 1.2055-0.0814 5.5628 1.8731 3.0226zm3.3186 0.4278c3.2175 0.22991 0.76525-5.2204-1.0048-2.1315-0.93703 0.82841-2.0751 4.2388 1.0048 2.1315zm2.4422-0.02717c1.2045 0.03913 4.0685-2.3367 1.5823-2.494-0.78587-0.0095-3.8206 2.8754-1.5823 2.494zm-28.367-3.6746c-2.3544-0.67854 1.2128-3.0716-0.20876-4.5877-0.99409-2.4764-4.5234-0.8581-5.7134 0.67324-0.61418 1.8564 0.1118 4.6084 1.5721 5.7922 1.8338-0.09 0.86929-1.8025 0.2453-2.5173 0.99608-0.59892-0.21411-3.149 1.1526-2.6411-3e-3 1.8997 0.16682 5.303 2.8129 5.1042 0.92634-0.23134 0.0986-1.2521 0.13925-1.8236zm-5.506-2.4769c1.0677-1.7803 1.0181 1.2883 0 0zm3.2413-0.99219c0.25892-1.3158 0.86988 1.2093 0 0zm4.8948 4.3631c0.79789-0.5833 3.3148-0.73055 1.6976-2.118-0.95726-2.2538 4.2356-3.0015 1.9975-5.0115-1.3194-1.2877-3.5603-2.0791-5.2524-1.0596-0.73634 0.62633-0.94971 2.0593 0.2529 1.1522 2.0762-0.48228 2.7143 3.0151 0.30764 2.5262-2.0827 0.69672-1.8865 4.6238 0.37502 4.7941l0.31683-0.08814zm-1.489-1.7834c-1.0389-2.1071 1.4446 0.13904 0 0zm27.277 0.18197c0.48375-1.6619 1.2663-5.7905-1.5826-5.192-1.4238 1.2902-1.4183 4.2155-0.52301 5.6885 0.59451 0.45551 2.4267 0.7969 2.1057-0.49647zm1.584 0.90249c2.2371 0.17028 3.182-3.3771 1.5515-4.6314-2.268-0.72828-3.0123 2.9409-2.004 4.3747l0.20406 0.16083zm0.58322-2.3958c0.46925-1.8868 0.71902 1.8454 0 0zm-10.522 2.1051c1.6923-2.0952-3.6567-1.4412-1.432 0.10448 0.38028 0.26704 1.2752 0.58773 1.432-0.10448zm4.658 0c-0.0532-2.3507 1.6354-5.0419-0.13559-7.1305-1.9578-1.7872-4.1068 1.0618-3.6922 2.9259-0.81535 1.9007 1.5171 3.9242 3.3412 3.3442-0.01 0.40773-0.50775 1.7439 0.48656 0.86044zm-8.5066-1.0468c0.53327-1.5687-1.1146 1.1026 0 0zm-2.4706-2.3968c2.1322-1.0253 4.8361-2.438 4.9077-5.1404-1.1045-3.073-3.6782 0.9838-5.4514 1.1362-1.9877 0.57671-4.1338-1.9849-5.2536-1.8727-0.46344 2.155 0.65308 5.1147 3.1118 5.3619 0.86582 0.17714 1.801 1.1347 2.6855 0.51497zm-1.5669-1.6229c-1.0846-1.6158 3.1693-0.36147 0.74843 0.01065-0.18024 0.19135-0.63232 0.33965-0.74843-0.01065zm2.6875-0.92294c0.0109-1.7956 1.6919 1.8146 0.0292 0.30052-0.0446-0.09525-0.0198-0.2003-0.0292-0.30052zm-5.5673 0.18176c0.34952-1.2562 0.98537 1.1859 0 0zm6.2971-1.5502c0.70855-1.9337 1.4296 0.8518 0 0zm4.973 2.7902c1e-3 -3.1981-5.0845 1.1393-1.3986 0.91878 0.57336 0.0034 1.4214-0.18267 1.3986-0.91878z" style="fill:#8c8c8c;stroke-width:.26458"/><path d="m162.98 67.698c-1.8968-1.5211-1.3885-4.7185-0.1823-6.4847 1.9166-1.2093 4.7236 0.69221 6.3327-1.2793 0.81315-2.0035-2.6076-0.17016-3.588-0.25714-1.7615-0.22062-1.2281-1.809 0.27915-0.96722 2.7957-0.0698 4.8307-2.9643 4.5823-5.6278 0.0898-2.0594 1.7642-4.096 0.75659-6.1257-1.0274-0.56694-2.4671 1.9537-3.3048 1.9654 0.59383 0.95387 0.58447 3.9389-1.1097 2.3989-1.0377 0.06464-3.9418 0.6303-2.0179-1.1033 1.2186-0.94973 3.4472-4.4402 0.32656-3.9693-1.6243 0.58239-5.6498-0.7106-3.3427-2.6456 1.5648-0.97973 3.8215 0.07788 3.0333 1.8409 2.1481 0.95982 4.1822-1.466 2.9752-3.4739-0.8561-1.6601 3.1744-2.6867 0.50014-3.769-2.0685-0.67383-1.2587 1.8908-2.1064 2.5741-1.8037-1.2126-0.59705-4.4457 1.665-3.7929 2.0777 0.45924 2.157-5.1538-0.0291-2.8884-1.8854 1.3337-3.4992 3.5677-6.0306 3.5467-1.3175-1.2819-3.2754 3.076-3.2318 0.06564-0.93323-2.5912-3.616-3.8243-5.5063-5.6028-2.4428-0.97119-4.216 1.9927-6.652 1.9592-1.8307 0.61658-4.1601 1.9846-3.7408 4.2466-0.54685 1.7404 2.7872 5.6654 2.8862 2.5474-0.73092-0.9691-0.36478-3.8707 0.23907-3.8023 0.63817 2.048 0.37481 4.4131 1.8753 6.1417 0.45203 1.2396 3.5584 2.2269 2.9139 0.22327-1.6362-1.9593-2.0908-4.577-2.1618-7.0246-0.30121-2.1079 4.2525-3.2724 3.6203-0.92495-2.2634 0.25178-3.5922 2.5537-2.667 4.6577 1.153 2.8517 3.9878 5.4975 7.2619 5.0091 0.66482-1.0383 3.5252-2.6334 2.789-0.19784-1.465 1.4887-4.7132 1.3071-5.2176 3.3838-0.96994 1.1153 0.0605 3.4226-0.0371 4.9243 0.23761 1.3338 1.6567 1.3392 0.81443-0.10061-0.78105-2.2535 2.2374-2.1647 2.0285-0.0027 3.9e-4 1.3281 1.1682 3.3575 2.3171 1.7092 1.0985 1.1971 1.1297-0.22613 2.0485-0.44969 0.5275 1.3899 1.214 2.5726 2.9298 1.7402 2.2992 0.89936-1.3619 1.6549-2.2471 1.087-2.3297-1.1603-5.1191 0.47022-7.1482-1.2916-1.1959-1.3443-2.4771-1.2014-2.3703 0.74175-0.42108 2.3402-1.0754 4.6528-1.6168 6.9472 5e-3 1.1783 2.967 2.5057 1.7096 0.61228 1.8179-1.2551 3.8718 1.387 6.0727 0.889 1.3021 0.02004 1.5991-0.75091 0.13367-0.99709-1.8868-0.62986-4.4428 0.10135-5.8255-1.6298-0.37437-1.8741 2.4583-0.58204 3.124 0.02082 1.7319 0.34213 4.2909-0.09403 5.0534 1.9433 0.77033 2.7797-2.6622 3.827-4.7572 2.9037-2.2363-0.52182-5.5755-0.79588-6.0348-3.5959-0.3326-3.7237 1.1301-7.258 2.1882-10.75-0.29536-2.52-1.7168-4.6876-2.6066-7.0142-2.294-0.32091-4.1582-1.6899-5.8013-3.1883-2.4191-1.972-2.9506-5.9025-1.1992-8.4608 1.743-1.3584 4.2344-1.1296 5.9974-2.5713 1.9032-1.6996 4.326-0.96449 6.3609-2.116 2.3329-1.7248 5.2863-0.42205 7.9304-0.74808 2.8622-1.1661 4.8301 1.7916 7.5228 1.7566 1.5244-0.66574 2.9619 0.67204 4.3091 1.2755 1.3584 0.83084 2.882 1.3443 4.4653 1.4715 2.8686 0.86458 2.6837 4.3543 2.026 6.6784-0.4973 2.7194-3.1084 4.1885-5.3322 5.3906-2.4019 0.35669-4.0447 2.1138-3.9157 4.6254-0.60044 1.8837-1.5563 3.8132-0.88634 5.8598 0.67001 2.8218 2.5085 5.5824 1.7924 8.5837-0.83998 2.5062-3.8645 3.1067-6.1903 3.2147-1.3327 0.02428-2.6808 0.12626-4.0034-0.08185zm1.3365-2.2349c2.2743-0.58311 5.1176 0.34359 6.8848-1.6257-1.5809-0.85495-3.5122 0.90588-5.3343 0.45485-1.0216-0.38073-4.1028 0.29861-2.1079 1.4421 0.21854 0.11026 0.58353 0.04593 0.55749-0.27125zm-1.1085-2.4239c2.4192 0.79207 4.7893-0.50069 7.0708-1.1546 0.53181-1.6663-2.3694 0.27905-3.2613-0.07568-1.2548 0.28968-5.3823-0.70851-4.1732 1.5116 0.17789 0.15952 0.3668-0.14092 0.36368-0.28133zm-10.944-15.721c-0.0447-2.9661-1.9245 1.4546 0 0zm2.3236-0.88154c0.11594-1.8434-3.6543-0.4431-1.2382 0.12487 0.36903 0.19544 0.99283 0.32301 1.2382-0.12487zm14.793-0.39688c0.48951-1.9916 4.3246-2.7648 3.0418-5.1176-1.0715-0.70909-0.7359-2.7807 0.59235-1.5055 1.3119-0.66023 0.93981-3.0957 1.4035-4.4749 0.064-1.8562-1.9703-4.0877-3.8045-2.7795-0.88762 2.2989-0.57632 5.1123-0.76691 7.6185-0.6628 2.1112-2.0356 4.3853-0.65955 6.5257l0.0869-0.04853zm4.7373-1.3891c2.161-0.22555 2.91-3.5069 1.1658-4.31 1.0526-0.24335 2.5591 0.111 2.1452-1.4758 0.45053-1.5836 0.90874-3.756-0.51124-4.9666-2.9099-0.8141-2.2937 3.4072-2.2969 5.1586 0.51633 2.5143-3.5595 3.9223-2.1547 6.3373 0.63519 0.22535 1.1783-0.43027 1.6519-0.74346zm4.1635-1.3229c2.6617 0.28414 0.502-3.5206 2.6263-4.1225 1.5132-1.786-0.81673-5.5366-2.5738-2.9024-1.4073 2.0501 1.8 5.2434-1.2205 6.2215-1.6556 0.72227-0.83712 2.9835 0.41663 1.0859 0.20807-0.17431 0.47395-0.29708 0.75135-0.28256zm-30.516 0.38126c-0.69098-2.2189-1.0153 1.2672 0 0zm15.082-7.0859c2.0024-1.2258 4.4461-2.3829 5.1796-4.8134-0.43073-2.4642-3.2468-1.2858-4.5336-0.22414-1.19 1.2432-3.048 1.0663-4.2905 0.01475-1.1148-1.2175-4.5732-2.5756-4.0312 0.25534 0.76525-0.11636 1.5343-0.59087 1.3136 0.71657-0.9566 2.4045 1.9793 2.9606 3.4735 3.989 0.90847 0.38379 1.9737 0.48723 2.8885 0.06183zm-1.8586-1.7738c0.23255-1.7851 1.7318 1.5179 0.054 0.10759l-0.0504-0.10045zm-2.9094-0.65605c0.62701-1.3164 0.72279 1.4212 0 0zm1.8044 27.669c-2.1607-0.70389-5.0228 0.27644-6.6019-1.7986 2.2257-1.3137 4.4059 2.1218 6.5896 0.53781 0.94581 0.02714 1.3357 2.2772 0.0123 1.2608zm1.3759-1.5133c-2.1566-1.4293-4.8671-1.036-7.2607-1.7075-1.8133-1.7519 1.9043-2.5882 2.4884-0.87274 1.7886 0.73017 4.0725 1.9043 5.6568 0.50506 1.9145 0.34118 1.3136 2.6395-0.5681 2.0836l-0.31647-0.0084zm5.5562-3.5941c0.12416-1.7253 2.9973 0.4415 0.62064 0.26523-0.22387 0.05331-0.56103 0.01818-0.62064-0.26523zm-6.7186-3.7912c-0.56506-1.6724-1.5688-5.6776 1.1243-5.5793 0.83553 0.6604 4.3082-0.02399 2.2117 1.3739-1.8207 0.75504-1.3167 3.2306-2.7012 4.344-0.2166 0.08895-0.46054-0.0063-0.63474-0.13863zm1.8505-2.9011c0.16829-1.8277-1.1829 1.0461-0.21596 0.27471zm0.54653 3.1432c-0.90125-2.9171 2.6174 0.76914 0 0zm-4.4387-0.28663c-1.2496-1.6368 2.309-0.53501 0.37956 0.23402l-0.14957-0.03506zm10.877-0.33923c-0.75633-1.301 2.1446-1.628 0.53266-0.21244-0.0425 0.19459-0.41062 0.58866-0.53266 0.21244zm-12.936-1.8733c-2.179-1.4491 2.2908-3.8919 1.5148-0.87859-0.0163 0.70103-0.8895 1.7416-1.5148 0.87859zm1.8231-2.9668c-0.10872-1.8415 2.526 0.50903 0.42765 0.34342-0.1913 2e-3 -0.42228-0.13221-0.42765-0.34342zm-3.1088-3.2762c0.30834-1.5665-3.9189-2.2234-1.917-3.4066 1.1016 0.46833 3.1178 2.143 1.917 3.4066zm9.7883-1.6654c-2e-3 -2.1944-4.4213 0.25572-3.1089-2.5729-0.0192-1.9427 3.4341-3.6767 2.4622-0.66215 0.084 1.0554 1.3835 2.2228 0.64668 3.235zm-5.6211-1.3222c0.91772 0.01803 2.2339-3.2334 1.9514-0.8966-0.26133 0.69904-1.2587 1.8507-1.9514 0.8966zm-3.6774-0.09997c0.49091-1.5545 1.9553 1.4192 0.20908 0.12894-0.0697-0.04298-0.13939-0.08596-0.20908-0.12894zm-1.3624 0.03383c-2-1.2319 2.6251-3.8132-0.12975-4.1377-0.42239-1.9278 3.2344-1.9996 2.8758 0.01646-0.60235 1.3165-1.8633 1.8847-1.788 3.5311-0.16212 0.36678-0.56017 0.60004-0.95804 0.59014z" style="fill:#606060;stroke-width:.26458"/><path d="m156.37 67.388c-1.1705-0.52268-3.2952-0.08591-3.5931-1.6994 1.0035 0.92722 2.7893-0.36108 0.80812-0.6521-1.5163-0.98375 0.0591-1.375 0.8882-0.52943 1.0833 0.18085 3.3382 0.3404 2.6437 2.009 0.73416-1.1024 4.2714-1.4358 1.6119-2.552-1.6648-0.34628-5.8405 0.46072-5.1958-2.2674 1.4225 0.63883 3.0765 1.2953 4.8161 1.1655 2.18-0.22627 3.6762 2.4349 2.2562 4.1245-1.107 1.0942-2.8904 0.77015-4.2354 0.40132zm5.6288 0.10719c0.46939-1.9963-1.3034-5.1889 1.0934-6.2786 1.8923-0.14943 3.8156-0.06555 5.5771-0.93522 1.3314 0.06756 2.1876-2.2217 0.31696-1.4191-1.0269 0.56885-3.7677 1.2607-3.7398 0.0067 2.4436 0.11467 5.2932-1.747 5.0311-4.4363-0.0572-2.6096 1.9575-5.0944 0.9707-7.6984-2.8655-0.40595-3.6089 3.0687-5.5017 4.4011-0.80837 0.65533-2.6084 5e-3 -0.9383-0.6917 0.84661-2.0887 2.5862-3.7088 4.6455-4.1971 0.56447-1.0371 2.001-3.6476 2.7288-1.2404 1.4952 1.4078 3.3212-2.1586 4.1054-1.6918-0.62077 2.172 2.7988 0.04423 3.2062-0.95413 1.3788-1.8021 2.8595-5.0546 0.87075-6.8901-2.5336-0.39834-2.8109 3.0274-2.1246 4.7809 0.29351 2.1203-2.0081 0.86916-0.99109-0.70299 0.37886-1.8029 1.4256-4.1128-0.12193-5.6338-2.5258-1.2173-2.989 2.9905-2.3887 4.6548 0.36622 2.2103-2.8103 3.4359-3.0115 0.85451 0.96891-1.1858 1.5961 1.4674 1.9036-0.27938 0.8397-2.0597 0.99537-4.5528 0.0406-6.5822-1.702-2.2502-4.5353 0.30708-3.666 2.5038-0.15422 2.3483 0.21626 4.8084-1.0952 6.8971 0.0241 2.1755-0.41903 5.1216-3.2977 4.4641-1.6189 0.11681-5.1392-0.28999-4.2659-2.5121 0.7513-1.3495 4.9556-0.29967 3.0712 0.76304-0.80305-0.21483-2.148 0.33694-0.64947 0.63537 2.338 1.3109 5.6216-1.264 3.784-3.6947 0.69112-1.6057 2.3777-2.8536 1.4878-4.7963 0.19958-1.1546 0.63363-4.6076-1.3806-2.7402-1.8866 1.6636-3.8564 3.5008-6.5265 3.5977-1.2574-0.36925-2.7339 2.0833-2.5498 0.16771-0.61268-2.3207-2.8186-3.6953-4.8321-4.7071-0.89831-2.9617-4.087-0.36358-5.7841 0.36024-1.8219 0.83744-4.2102 1.0433-5.2737 2.9748-0.16123 1.7911-0.38644 4.1169 1.2522 5.3124 2.8248 1.05 1.4021-2.5836 1.1238-3.9531 0.61261-2.1355 1.179 2.1945 1.4773 3.2085 0.3162 1.5177-0.22901 3.2974 1.9113 3.203 1.9845 1.0663 3.7061-0.78926 5.482 0.70062 1.7238 0.94507 3.3747-0.10979 4.3468-1.3615 2.477-0.01433 0.0352 3.4824-1.6697 2.726-1.2119 0.2085-3.9452-1.5191-4.084-0.45906 1.6251 1.0006 1.4597 2.547 1.0847 4.1375-0.11736 2.1381 0.30484 4.9861 2.6787 5.7191 1.5792 1.4638 4.015-1.2734 4.9568-0.50473-0.47356 2.2955-3.69 1.676-5.357 1.268-2.6271-0.81825-3.1494-3.6807-3.9623-5.9238-0.86828-2.2314-1.3714-5.2249-4.3264-5.4634-2.0214-0.79083-3.5344-2.511-4.8474-4.1997-0.85863-2.0748-1.1384-4.9182 0.57358-6.6492 2.0866-1.4518 4.8794-1.4612 6.8972-3.0699 2.2-0.9362 4.7663-0.89152 6.7767-2.2887 2.709-0.38828 5.451 0.53019 8.1424-0.05138 2.2306 0.29002 3.9092 2.7366 6.3393 1.698 2.3968 0.26858 4.0654 2.4419 6.4982 2.6626 1.7464 0.32397 3.9632 1.3545 3.7372 3.4618-0.0856 2.3724 0.0915 5.4658-2.3939 6.7274-1.8468 1.8471-4.8101 2.1157-6.3934 4.1137-0.74368 2.3979-1.6401 4.8594-1.8042 7.3775 0.18485 2.6824 1.985 4.963 2.1033 7.6767 0.19938 1.7033-0.47317 3.6165-2.1725 4.2886-2.7229 1.167-5.797 0.73813-8.6746 0.68851zm2.0075-1.0163c-1.2486-1.8255-0.90164 1.7766 0 0zm2.2856 0c-1.1958-1.7456-0.89364 1.5444 0 0zm-1.2271-0.8455c2.3636-0.44641 5.2931-0.37492 6.8184-2.5781-2.3895 0.41179-4.7602 1.7573-7.23 1.0537-2.1241-0.21145-1.5947 2.6163 0.34244 1.5406zm-0.89848-2.4507c2.499 0.2541 5.2042-0.31839 7.0959-2.0513-1.9211-0.48507-3.706 1.139-5.6851 0.70539-1.0926-0.31531-4.1356-0.20397-2.5294 1.5067 0.34827 0.19995 0.86576 0.17958 1.1186-0.16076zm-10.969-13.59c-1.1649-1.1582 0.51539 2.1702 0 0zm-0.99387-2.0718c0.574-2.9387-2.4314 0.96278 0 0zm11.771-11.37c1.4049-1.4319 4.0517-2.2799 3.9543-4.6568-0.38025-2.4792-3.0735-1.0359-4.1584 0.13013-2.0211 1.617-4.6855 0.43422-6.2333-1.253-1.9397-1.9955-3.4868 2.5737-1.2781 1.6634-0.38759 2.2263 1.6096 3.7801 3.4712 4.4518 1.3575 0.55276 3.0481 0.63794 4.2443-0.33549zm-0.74785-5.7567c-0.81413-0.74363-3.7317-0.90966-3.5073 0.08116 1.1683 0.16127 2.3374-0.1123 3.5073-0.08116zm-12.7 34.594c-0.891-3.3692 0.64447-6.6749 1.3462-9.9218 2.1455 0.59999-0.36542 3.5667-0.39621 5.0726-0.37136 1.5603 0.15887 3.5531-0.94997 4.8492zm9.499-3.1175c-2.2383-0.64229-5.15 0.17201-6.7561-1.9504 2.3795-0.60278 4.5548 1.8828 6.8854 0.94532 0.52918 0.27478 0.87306 1.2653-0.12926 1.0051zm-0.16889-2.0953c-1.6607-1.3752-4.313 0.08432-5.7692-1.6242-0.7277-2.1919 2.792-0.32937 3.6636 0.30049 1.6807 1.3509 3.781-0.0037 5.4459 0.71188 0.31101 1.6148-2.5498 1.012-3.3403 0.61186zm1.0438-2.3708c0.38912-1.3779 4.5448-1.8939 3.5279-0.25065-1.1668 0.20566-2.3743-0.06099-3.5279 0.25065zm6.0415-0.60028c0.15175-1.6858 2.5368 0.68346 0.45881 0.23742-0.16852 0.04359-0.44032-0.02634-0.45881-0.23742zm-6.8882-4.0684c-0.34346-1.5881-1.5594-4.7392 0.80971-5.1913 0.93498 1.3665 0.64802 5.1593-0.78514 5.2269l-0.0247-0.03561zm7.1671-1.2c-0.48935-2.7769 2.3798 0.45409 0 0zm-11.265-1.0244c-1.452-2.0126 2.4523-1.5881 1.425-0.01845-0.42733 0.30977-1.0511 0.58392-1.425 0.01845zm5.9454-1.2309c-1.1324-1.2475 2.1048-1.4011 0.8245-0.07443 0.15556 1.1552-1.3392 1.481-0.8245 0.07443zm1.6571-1.0357c1.0616-1.5054 0.78548 1.5921 0 0zm-5.7336-0.50494c0.59658-2.7666 2.2276 1.2579 0 0zm-3.1629-3.4711c-1.1848-1.155 0.8766-1.6756 0.58721-0.07941-0.0191 0.37214-0.45529 0.34018-0.58721 0.07941zm6.4486-1.8585c0.0695-1.5418 1.1282-5.1052 2.7583-4.2168-0.25074 1.1793 0.6146 3.9249 0.61837 3.9821-0.97768-1.5785-2.8638 0.04413-3.3052 0.49049zm11.539 0.45489c4e-3 -2.3914 2.0288 0.65788 0 0zm-22.796-0.24228c-1.1987-2.2068-1.5332-4.8217-1.1424-7.2867 1.0819 2.2845-0.0217 5.2092 1.7667 7.2222-0.0254 0.35868-0.46101 0.19338-0.62432 0.06454zm9.0793-1.0776c0.49928-1.7695 2.3528 0.48358 0.30606 0.44436-0.20189-0.01615-0.40773-0.23209-0.30606-0.44436zm-3.7064-0.22444c-2.8647-0.17886-0.65601-4.3389 0.3103-4.2291-0.94426 0.55343-2.8314-0.5312-1.0034-1.0541 2.1547-0.91542 2.5299 2.8246 0.31499 2.6382-0.64071 0.60289 2.0923 3.5117 0.37815 2.645zm11.065-0.3636c-2.4144-0.74146 0.3093-5.2189 1.2367-3.2316-0.74584 0.91464-1.0294 2.0961-1.2367 3.2316zm8.8635-0.27489c0.29154-1.993 2.4357 1.9424 0 0zm-25.532-5.2634c-1.1956-2.1024 3.9584-0.51265 1.0678-0.35946 1.2978 1.3384-1.6917 1.4062-1.0678 0.35946z" style="fill:#333;stroke-width:.26458"/></g></g></svg>
