<svg width="11.925mm" height="32.625mm" version="1.1" viewBox="0 0 11.925 32.625" xmlns="http://www.w3.org/2000/svg"><g transform="translate(-87.423 -55.115)"><g transform="translate(57.928 44.533)"><path d="m40.924 43.179c-0.89032-1.0628-0.50661-2.6614-1.3489-3.6781-0.59288-1.2195-0.89826-2.56-1.3952-3.8178-0.10628-1.3244-0.89555-2.413-1.1705-3.6829-0.42765-1.454-0.82259-2.9229-1.3203-4.3561-0.60224-1.6641-0.9959-3.4061-1.6279-5.0646-0.16904-1.2342-0.67542-3.1025-2.2984-2.0986-0.62734 0.24633-2.5182 1.3459-2.2401-0.0024 1.0243-0.62159 2.7312-0.77877 3.3598-1.6892-0.31506-1.3958-0.72575-2.7783-1.1552-4.1379-0.35553-1.1988-1.463-2.6371-0.55357-3.8274 0.98157-0.87136 2.2028 0.82089 1.9065 1.8037 0.26402 1.2365 1.0025 2.3144 1.2976 3.5506 0.20701 1.3437 1.263 2.5427 2.6595 1.7076 0.59076-0.31866 2.3463-0.60332 1.4953 0.48146-0.82923 0.80149-3.3871 6e-3 -2.9484 1.7328 0.40724 1.6996 0.86983 3.3883 1.2864 5.0833 0.97929 3.297 1.7779 6.6426 2.7889 9.9299 0.74667 1.8915 0.88737 3.9511 1.4803 5.8903 0.01185 0.46003 0.74881 2.4679-0.21597 2.1755z" style="fill:#9d9d9d;stroke-width:.09375"/><path d="m40.928 43.013c-0.75959-1.2983-0.54534-2.9536-1.4671-4.1815-0.78593-1.7564-1.2024-3.6479-1.7222-5.4898-0.74326-1.097-0.77572-2.5503-1.3647-3.8247-0.29577-1.3439-0.78858-2.6797-1.2192-3.9982-0.34688-1.5752-1.1701-3.0272-1.2891-4.6556-0.74697-1.7735-2.8245-0.02638-4.0577 0.0885-0.57271-0.69766 1.5082-0.95232 2.0409-1.1814 1.946-0.45994 0.78405-2.5781 0.4943-3.8358-0.29867-1.4116-1.0997-2.6683-1.3263-4.086-0.01428-2.0313 2.5313-0.33554 1.8458 0.93943 0.57472 1.5106 1.1822 3.0131 1.6743 4.5489 0.6068 1.6166 2.2309 0.77371 3.3976 0.48408 1.4815-0.32804-0.09447 1.1277-0.81608 0.8361-1.3603-0.15354-2.1771 1.0436-1.5049 2.2137 0.62321 2.3204 1.1869 4.6538 1.8906 6.9512 0.35693 1.4455 0.82881 2.8566 1.1526 4.3132 0.47111 2.028 1.375 3.9356 1.6918 6.0041 0.3001 1.3804 0.65998 2.7438 0.95263 4.1219 0.02906 0.18169-0.06358 1.0364-0.37314 0.75205z" style="fill:#5b5b5b;stroke-width:.09375"/><path d="m40.841 42.693c-0.47116-1.5438-0.62324-3.1986-1.4867-4.5988-0.26727-1.204 0.05506-2.5049-1.0725-3.2178-0.07027-1.4283-0.81162-2.5687-1.2331-3.8964-0.39501-1.2196-0.68619-2.4602-1.2267-3.6275 0.16959-1.3336-0.87871-2.3851-0.99998-3.7163-0.60844-1.0677-0.38233-2.8903-1.4955-3.5672-0.97483-0.60318 0.3448-2.0695-0.52176-2.939-0.47178-1.6684-1.0557-3.3047-1.5967-4.948-0.15618-1.7127 1.9841-0.67178 1.5394 0.62313 0.1988 0.99897 0.84255 1.8516 1.045 2.8726 0.33813 0.90093 0.56208 1.9716 1.3114 2.6158 0.44194 0.14198 1.4794 0.40391 0.44504 0.65214-0.94753 1.2417 0.21412 2.7061 0.4507 3.9981 0.42149 1.84 1.1277 3.5888 1.5096 5.4401 0.33032 1.2971 0.76219 2.5693 1.0823 3.8767 0.26671 1.4671 0.92545 2.831 1.3085 4.2622 0.30861 1.7157 0.80225 3.3953 1.1628 5.0949 0.19468 0.24202 0.27659 1.7058-0.22165 1.0752zm-4.3984-15.75c-0.14464-1.5371-0.48866 0.91062 0 0zm1.2202-8.692c0.71456-0.60282 0.80446 0.33238 0 0z" style="fill:#2f2f2f;stroke-width:.09375"/><path d="m40.31 39.576c0.04999-0.69177 0.05869 0.6802 0 0zm-6.0383-18.68c-0.50643-0.60076-1.6117-1.544-0.1093-1.66 0.94002-0.63294-1.5627 0.03838-0.54446-0.53378 0.58971-0.02793 1.8037-0.71662 1.6113 0.49466-0.42107 0.31836-0.02899 2.932-0.95756 1.6991zm-0.89842-2.4375c-0.50877-1.4694-0.89181-2.9824-1.4282-4.4371-0.37045-0.72734 0.20145-1.522 0.77171-0.57766 0.71821 1.1927 0.75102 2.6753 1.4979 3.8719 0.56908 0.68507-0.03819 1.7088-0.84139 1.1429zm-1.83-6.0668c0.21696-0.75276 1.2245-0.54388 0.49007 0.09482-0.13666 0.15444-0.43561 0.11114-0.49007-0.09482z" style="fill:#0c0c0c;stroke-width:.09375"/></g></g></svg>
