<svg width="19.963mm" height="27.277mm" version="1.1" viewBox="0 0 19.963 27.277" xmlns="http://www.w3.org/2000/svg"><g transform="translate(-87.902 -109.38)"><g transform="matrix(.43007 0 0 .43007 77.404 103)"><path d="m27.423 78.184c-0.47566-0.13398-0.86761-0.86282-1.9003-3.5336-0.84611-2.1883-1.3363-5.7898-1.0153-7.459 0.33647-1.7495 2.3624-4.8581 5.0229-7.7074 3.5273-3.7775 5.1671-6.111 14.768-21.015 2.4821-3.8532 2.8751-4.4421 3.0482-4.5671 0.34854-0.2519 0.57417-3.3548 0.25815-3.5501-0.58084-0.35898-0.27533-1.1182 0.91697-2.2787 0.66652-0.64876 1.3975-1.5368 1.6243-1.9733 0.4394-0.84552 1.2889-1.7231 2.6595-2.7477 0.46428-0.34704 1.0783-1.0019 1.3646-1.4552 1.0934-1.7318 2.3158-3.3501 3.5908-4.754 0.7276-0.80114 1.4764-1.6437 1.6641-1.8723 0.88484-1.0781 2.6205-0.04013 2.7506 1.6449l0.08319 1.0773 1.2734-1.1721c1.4527-1.3371 2.0521-1.4425 2.972-0.52264 0.93505 0.93505 0.81762 1.729-0.47505 3.2118-0.9193 1.0545-0.97964 1.1803-0.33073 0.68969 1.6973-1.2834 1.9663-1.4173 2.5035-1.2468 0.55658 0.17665 1.333 1.3888 1.333 2.0811 0 0.21139-0.44648 0.74929-0.99219 1.1953l-0.99219 0.81097 0.84124-0.3071c1.2469-0.4552 2.1211 0.02345 2.359 1.2917 0.17516 0.93367 0.1176 1.0521-0.97791 2.0115-0.64022 0.56071-1.8331 1.4953-2.6508 2.0769-1.0366 0.73728-1.6092 1.3692-1.8912 2.0871-0.29678 0.75552-0.6111 1.0864-1.1804 1.2427-0.42674 0.11715-1.1701 0.66457-1.6518 1.2165-0.76818 0.88004-0.83967 1.0831-0.58112 1.6505 0.16214 0.35587 0.22515 0.82855 0.14002 1.0504-0.08514 0.22186-7e-3 0.58152 0.17374 0.79924 0.26927 0.32445 0.19455 0.5892-0.41422 1.4677-0.87284 1.2595-1.3798 1.5747-2.1041 1.3081-0.29104-0.1071-0.67951-0.13835-0.86326-0.06945-0.18376 0.0689-0.5092-0.02005-0.72322-0.19766-0.32219-0.26739-0.4366-0.19284-0.66513 0.43342-0.33079 0.90648-1.5669 3.3004-1.8864 3.6534-0.13619 0.15046 0.10732 0.36274 0.60701 0.52917 0.45893 0.15285 0.9649 0.49109 1.1244 0.75164 0.24489 0.40009 0.08432 0.65555-1.033 1.6435-0.92771 0.8203-1.5617 1.1728-2.1222 1.1799-0.67972 0.0087-0.8974 0.19694-1.4552 1.2587-0.36076 0.68671-0.98335 1.823-1.3835 2.5252-0.40018 0.70214-0.7276 1.316-0.7276 1.3642 0 0.04816 0.36078 0.15973 0.80173 0.24792 1.1341 0.22681 2.1544 1.4029 2.0554 2.369-0.06107 0.5959-0.31909 0.89453-1.1373 1.3164-0.58208 0.30011-1.2369 0.64431-1.4552 0.76489-1.1752 0.64918-1.7253 0.7693-2.3078 0.50391-0.56878-0.25915-0.67161-0.13806-1.8134 2.1355-0.87014 1.7325-1.1647 2.5928-1.0475 3.0596 0.25097 0.99996-0.06842 1.7157-0.67913 1.5219-0.42619-0.13527-0.62992 0.09899-1.1984 1.378-1.9816 4.4581-3.6502 7.71-4.4686 8.7087-1.2993 1.5856-3.341 3.005-5.1 3.5456-1.4914 0.45832-5.8596 0.86539-6.7115 0.62544zm25.024-23.547c0.18358-0.47842-0.48566-1.6825-0.93516-1.6825-0.40383 0-1.8207 0.86739-1.8207 1.1146 0 0.24829 1.5421 0.95006 2.1545 0.98046 0.23909 0.01188 0.50968-0.17379 0.60132-0.41257zm0.05457-17.456c0.49115-0.83808 0.61669-1.2778 0.42077-1.4737-0.19592-0.19592-0.48278 0.12244-0.96145 1.067-1.1443 2.2582-0.72792 2.5713 0.54068 0.40664zm5.9209-8.334c0-0.12855 0.28492-0.23372 0.63315-0.23372 0.34823 0 0.70467-0.18638 0.79209-0.41418 0.11953-0.3115 0.0363-0.37525-0.33577-0.25716-0.36128 0.11467-0.54068-0.0055-0.66518-0.44572-0.16964-0.59977-0.17369-0.59884-0.82524 0.19102-0.81408 0.98689-0.87606 1.7274-0.12822 1.5319 0.29104-0.07611 0.52917-0.24356 0.52917-0.3721z" style="fill:#a0a0a0;stroke-width:.26458"/><path d="m27.77 78.146c-1.5234-0.24501-3.7533-7.5594-3.2437-10.64 0.33744-2.0395 2.3254-5.0609 5.7609-8.7555 3.2203-3.4632 5.198-6.2775 12.998-18.497 1.8114-2.8377 3.5772-5.5384 3.9239-6.0016 0.49686-0.66378 0.63045-1.1712 0.63045-2.3945 0-0.85373-0.13009-1.6823-0.2891-1.8413-0.3796-0.3796 0.0438-1.1827 0.92951-1.763 0.36404-0.23853 1.1292-1.1219 1.7004-1.963 0.57119-0.84111 1.6067-1.9719 2.3011-2.5129s1.4809-1.3116 1.7478-1.7125c0.26692-0.40088 0.81365-1.2233 1.215-1.8276 0.40131-0.60428 1.3845-1.8414 2.1849-2.749 2.7123-3.076 2.6622-3.0502 3.8835-1.9998 0.7074 0.60848 0.72528 0.68241 0.43135 1.7836-0.16865 0.63185-0.26182 1.1936-0.20705 1.2484 0.05477 0.05477 0.8008-0.56926 1.6578-1.3867s1.7196-1.4863 1.9167-1.4863c0.52408 0 1.8426 1.3458 1.8426 1.8807 0 0.53474-2.0412 2.6492-3.4704 3.595-0.95283 0.63056-1.4552 1.3285-1.165 1.6187 0.07676 0.07676 0.40698-0.09509 0.73383-0.38189 0.32685-0.2868 1.0844-0.84808 1.6835-1.2473s1.3639-1.0183 1.6998-1.3758c1.0174-1.083 2.2767-0.69631 2.7448 0.84283 0.1446 0.47551-0.1559 0.81727-1.8672 2.1235-1.1217 0.85622-2.0881 1.7025-2.1475 1.8807-0.21134 0.63401 0.62635 0.30816 1.888-0.73442 1.8603-1.5372 3.0203-1.4297 3.4376 0.31857 0.19958 0.83617 0.08123 0.96627-2.9606 3.2547-1.4725 1.1078-2.2753 1.9253-2.662 2.7106-0.3689 0.74919-0.72588 1.1245-1.0696 1.1245-0.28377 0-0.9369 0.44619-1.4514 0.99154-0.83568 0.88578-0.92751 1.125-0.86094 2.2425 0.04099 0.68804 0.15679 1.3333 0.25734 1.4338 0.37536 0.37536 0.15864 1.0617-0.64191 2.0329-0.72962 0.88516-0.91932 0.97977-1.645 0.82039-0.45113-0.09908-1.0228-0.30668-1.2705-0.46132-0.55168-0.34453-1.2869 0.16728-1.2869 0.89584 0 0.26543-0.41672 1.1936-0.92604 2.0626s-0.92604 1.7009-0.92604 1.8487c0 0.14775 0.31541 0.30631 0.70092 0.35236 0.3855 0.04604 0.83199 0.2969 0.99219 0.55745 0.24637 0.4007 0.08734 0.65288-1.0316 1.6359-0.77222 0.67841-1.6442 1.1971-2.0948 1.2461-0.67504 0.07334-0.94464 0.39924-2.1488 2.5974-1.343 2.4518-1.5139 3.0218-0.82675 2.7581 0.52783-0.20255 2.1249 1.0151 2.4156 1.8417 0.23028 0.65478 0.17202 0.82495-0.47209 1.379-0.40413 0.34762-1.0565 0.7084-1.4498 0.80175-0.39328 0.09334-0.92037 0.34802-1.1713 0.56595-0.31921 0.27721-0.75911 0.34781-1.4644 0.23502l-1.0082-0.16121-1.2915 2.5166c-0.98353 1.9165-1.2179 2.5901-0.98297 2.8251 0.16967 0.16968 0.30471 0.49304 0.30008 0.7186-0.0069 0.3344-0.07688 0.31974-0.37927-0.07941-0.2136-0.28194-0.50578-0.40613-0.68904-0.29287-0.22451 0.13876-0.13234 0.34791 0.31312 0.71048 0.62345 0.50744 0.62402 0.51225 0.04572 0.38633-0.75952-0.16538-0.89794 0.02614-2.0676 2.8606-3.5641 8.6368-6.3958 11.19-12.825 11.565-0.94588 0.05518-2 0.05525-2.3425 1.72e-4zm24.783-23.527c0.11746-0.8217-0.40473-1.6646-1.0312-1.6646-0.84441 0-2.094 0.75094-1.9358 1.1633 0.159 0.41434 1.8859 1.1963 2.4874 1.1264 0.21828-0.02537 0.43412-0.30667 0.47963-0.62509zm-2.4512-13.049c0.34123-0.18262 1.1493-1.2422 1.7956-2.3546 0.64637-1.1124 1.3468-2.165 1.5565-2.3391 0.53574-0.44463 0.29257-1.8299-0.35076-1.9981-0.49142-0.12851-1.2919 0.65415-1.2964 1.2675-0.0011 0.14952-0.53686 1.2083-1.1906 2.3528-0.65376 1.1445-1.1887 2.3054-1.1887 2.5797 0 0.2743-0.11906 0.49872-0.26458 0.49872s-0.25652 0.32742-0.24668 0.7276c0.01701 0.69153 0.03147 0.69959 0.29149 0.1626 0.15047-0.31075 0.55278-0.71442 0.89401-0.89705zm7.689-10.023c0.24571 0.20392 0.45774 0.08136 0.81194-0.46932 0.26366-0.40992 0.74788-0.96231 1.076-1.2275 0.32816-0.26522 0.59665-0.63142 0.59665-0.81378s0.29766-0.61118 0.66146-0.95296c0.3638-0.34178 0.66146-0.79589 0.66146-1.0091 0-0.21325 0.19794-0.53247 0.43986-0.70937 0.68893-0.50376 0.26604-1.0672-1.5729-2.0956-1.7319-0.96853-2.3973-1.1979-1.8303-0.63094 0.46286 0.46286 0.3893 0.74083-0.19605 0.74083-0.7312 0-0.88932 0.41142-0.36112 0.93962 0.42776 0.42776 0.42082 0.44286-0.12403 0.26993-0.46515-0.14763-0.68076-0.01322-1.1111 0.6927-0.2937 0.48173-0.53445 1.0591-0.535 1.283-5.29e-4 0.22389-0.23061 0.85747-0.51126 1.408-0.49602 0.9729-0.49663 1.0145-0.02204 1.4891 0.26852 0.26852 0.40885 0.57665 0.31184 0.68472-0.09701 0.10807 0.03197 0.12173 0.28663 0.03035 0.32236-0.11567 0.46302-0.03203 0.46302 0.27534 0 0.33842 0.07265 0.36883 0.31121 0.13028 0.21814-0.21814 0.41065-0.22867 0.64376-0.03521z" style="fill:#595959;stroke-width:.26458"/><path d="m27.225 77.721c-0.19092-0.23004-0.27801-0.59837-0.19353-0.8185 0.08892-0.23171 0.0077-0.40024-0.19292-0.40024-0.95224 0-2.4982-6.467-2.1505-8.9956 0.24533-1.7838 2.2806-4.9958 5.0347-7.9458 3.5944-3.8501 6.5866-8.0907 14.28-20.238 1.1642-1.8381 2.4957-3.8513 2.959-4.4738 0.63369-0.85134 0.88698-1.5261 1.0225-2.7237 0.12067-1.0665 0.08279-1.6521-0.11476-1.7742-0.57733-0.35681-0.27456-1.0311 1.2265-2.7315 2.8496-3.228 4.3621-4.6247 4.6008-4.2483 0.23664 0.37313 0.2398 0.3685 0.3365-0.49314 0.03549-0.31629 0.26497-0.85207 0.50994-1.1906 0.24497-0.33855 0.74558-1.0657 1.1125-1.6158 0.7323-1.0981 3.9623-4.7052 4.4907-5.015 0.18804-0.11026 0.64176 0.04949 1.0479 0.36893 0.59656 0.46926 0.69724 0.72276 0.6026 1.5174-0.06249 0.52469-0.20516 1.1623-0.31704 1.417-0.37262 0.84816 0.32452 0.48865 1.924-0.99219 0.86449-0.80036 1.7642-1.4552 1.9995-1.4552 0.63241 0 1.486 0.96708 1.486 1.6836 0 0.68629-1.8139 2.5344-3.5057 3.5719-0.5457 0.33465-0.99401 0.68804-0.99624 0.78532-0.0021 0.09727-0.11222 0.3478-0.24442 0.55672-0.20548 0.32474-0.31049 0.32667-0.72355 0.0133-0.53586-0.40652 1.6641 2.0376 2.2945 2.5491 0.21805 0.17694 0.45273 0.26545 0.5215 0.19667 0.06877-0.06878 0.0094-0.20787-0.13188-0.3091-0.14131-0.10123-0.25692-0.33288-0.25692-0.51478s-0.0768-0.30096-0.17066-0.26458c-0.09386 0.03638-0.41829-0.15796-0.72095-0.43186l-0.55029-0.49801 1.2168-0.9572c0.66926-0.52646 1.8013-1.4632 2.5157-2.0817 1.6351-1.4155 2.1485-1.4427 2.8291-0.14969 0.51117 0.97115 0.35892 1.2808-1.136 2.3104-1.9141 1.3183-2.7932 2.1561-2.7932 2.6621 0 0.36906 0.08264 0.37357 0.72823 0.03972 0.40053-0.20712 0.96579-0.63909 1.2561-0.95992 1.2721-1.4057 3.086-1.6539 3.4044-0.46592 0.3219 1.2013 0.12274 1.488-2.3454 3.3758-1.6379 1.2529-2.7218 2.3015-3.1128 3.0118-0.35549 0.64572-0.82416 1.122-1.1503 1.1689-0.67715 0.09742-2.3585 1.8107-2.6163 2.6659-0.12966 0.43024-0.09701 0.57135 0.10353 0.44741 0.19198-0.11865 0.29293 0.12525 0.29293 0.7077 0 0.48881 0.12956 1.0183 0.28792 1.1767 0.2075 0.2075 0.0905 0.58623-0.41889 1.356-0.38874 0.58743-0.85196 1.1238-1.0294 1.1918-0.43512 0.16697-2.0146-0.51602-2.0146-0.87114 0-0.16157-0.28444-0.09708-0.66146 0.14995-0.3638 0.23837-0.66313 0.62807-0.66518 0.866-0.0021 0.23792-0.47944 1.3053-1.0609 2.372-0.58143 1.0667-0.98945 2.0489-0.9067 2.1828 0.08275 0.13388 0.02437 0.24343-0.12975 0.24343-0.15411 0-0.2802 0.17859-0.2802 0.39688 0 0.25189 0.25348 0.39688 0.69385 0.39688 0.59165 0 0.64456-0.0594 0.35917-0.40327-0.45111-0.54355-0.16786-0.76636 0.51181-0.40261 0.77592 0.41526 0.68708 0.98922-0.28094 1.8151-1.1527 0.98351-1.5817 1.2109-2.3138 1.2263-0.51969 0.01098-0.88492 0.46334-2.0401 2.5269-0.77392 1.3824-1.4118 2.6624-1.4175 2.8443-0.0058 0.18387 0.31271 0.33658 0.71722 0.34392 0.67225 0.0122 0.64206 0.05468-0.39688 0.55853-0.61846 0.29994-1.1245 0.65601-1.1245 0.79128 0 0.35554 1.1159 1.812 1.3883 1.812 0.12674 0 0.17223-0.09418 0.10109-0.20929-0.07114-0.11511 0.29292-0.15999 0.80903-0.09974l0.93838 0.10955-0.1023-1.0728c-0.08054-0.84451-0.03082-1.0134 0.23369-0.79391 0.85575 0.71021-0.24785 2.5953-1.5194 2.5953-0.2536 0-0.59961 0.16691-0.76892 0.37092-0.43439 0.5234-1.5297 0.74849-2.1159 0.4348-0.61602-0.32968-0.705-0.22555-2.1103 2.4699-1.1603 2.2255-1.2789 2.7501-0.75631 3.3452 0.1819 0.20714 0.06532 0.15522-0.25907-0.11539-0.54435-0.4541-0.60297-0.45768-0.76079-0.04642-0.10557 0.2751 0.0086 0.57694 0.29844 0.78886 0.43372 0.31714 0.42306 0.34134-0.14012 0.31802-0.53601-0.0222-0.80608 0.42171-2.2383 3.6789-2.5886 5.8872-3.1836 6.8155-5.4222 8.4588-1.7746 1.3027-3.67 1.8941-6.7845 2.117-2.2448 0.16067-2.6979 0.126-2.9925-0.22892zm13.206-9.5287c0-0.45178 0.62654-1.7397 0.84751-1.7422 0.10233-0.0011 0.42698-0.50808 0.72144-1.1265 0.60378-1.2681 1.2566-2.4022 1.9376-3.3662 0.2542-0.3598 0.46218-0.80628 0.46218-0.99219 0-0.64018-0.46981-0.33602-0.90831 0.58804-0.24169 0.50932-0.53902 0.92604-0.66075 0.92604s-0.28672 0.2501-0.36665 0.55579c-0.09072 0.3469-0.26438 0.48222-0.46206 0.36004-0.20214-0.12493-0.26958-0.06278-0.1864 0.17182 0.14978 0.42248-0.50121 1.828-1.0281 2.2196-0.19576 0.14552-0.5142 0.87808-0.70766 1.6279-0.29238 1.1333-0.29243 1.3406-2.91e-4 1.2285 0.19329-0.07417 0.35144-0.27698 0.35144-0.45068zm-2.3812-6.2695c0-0.11547 0.29634-0.5297 0.65854-0.92052 0.3622-0.39082 0.9975-1.3889 1.4118-2.2179s1.1105-2.0335 1.5471-2.6765c0.43664-0.64302 1.1408-1.8223 1.5648-2.6206 0.42399-0.79829 1.2767-2.227 1.8948-3.175 0.61817-0.94796 1.1242-1.8044 1.1245-1.9033 2.91e-4 -0.09885 0.44995-0.87275 0.99925-1.7198 0.54929-0.84704 1.3395-2.2725 1.756-3.1678 0.88184-1.8953 1.8531-2.5963 2.1206-1.5305 0.17934 0.71456 0.61788 0.85208 0.84337 0.26447 0.08149-0.21236 0.3406-0.31813 0.58701-0.23962 0.36798 0.11724 0.37706 0.09521 0.05477-0.13284-0.33684-0.23835-0.33316-0.3348 0.02868-0.75256 0.50321-0.58098 0.97906-1.9481 0.82927-2.3825-0.14106-0.40912-0.86847-0.1332-0.86847 0.32942 0 0.1946-0.31174 0.68787-0.69276 1.0962-0.62098 0.66544-0.64812 0.67383-0.26191 0.0809 0.23696-0.3638 0.55664-0.95912 0.71038-1.3229 0.36885-0.87279 1.3196-1.8728 1.61-1.6934 0.12674 0.07833 0.16194 0.25326 0.07822 0.38872-0.08372 0.13547-0.02613 0.2463 0.12798 0.2463 0.15411 0 0.2802-0.17859 0.2802-0.39688 0-0.21828-0.10418-0.39688-0.23151-0.39688-0.12733 0-0.23151-0.29388-0.23151-0.65307 0-0.58052 0.06245-0.62083 0.56224-0.36288 0.30923 0.1596 0.7706 0.47194 1.0253 0.69408 0.33579 0.2929 0.46302 0.31213 0.46302 0.06998 0-0.1881 0.1733-0.2674 0.39688-0.1816 0.28219 0.10829 0.39084-0.01734 0.37599-0.43471-0.01148-0.32286-0.08094-0.43818-0.15434-0.25628-0.17833 0.44194-0.56968 0.41736-1.0532-0.06615-0.21828-0.21828-0.32181-0.39688-0.23007-0.39688 0.09174 0 0.08965-0.12484-0.0047-0.27743-0.11689-0.18913-0.29222-0.17722-0.55084 0.03742-0.30789 0.25552-0.34797 0.23302-0.21272-0.11944 0.11191-0.29164 0.02699-0.4343-0.25853-0.4343-0.23385 0-0.42518-0.1168-0.42518-0.25954s-0.29766-0.33425-0.66146-0.42556c-0.3638-0.09131-0.66146-0.27217-0.66146-0.40192 0-0.12974-0.20836-0.23852-0.46302-0.24171-0.25466-0.0032-0.96904-0.2355-1.5875-0.51623-0.61846-0.28073-1.1227-0.42694-1.1204-0.32492 0.0085 0.38739 0.41443 0.78238 0.98814 0.96142 0.32742 0.10218 0.59531 0.29682 0.59531 0.43254 0 0.13572 0.2311 0.24675 0.51355 0.24675 0.82642 0 0.84755 0.37795 0.11302 2.0221-0.59772 1.3379-0.72457 1.4775-0.92773 1.0206-0.19488-0.4382-0.21785-0.40187-0.1336 0.21138 0.0649 0.47236-0.08454 0.95146-0.41263 1.3229l-0.51437 0.58237 0.15155-0.89216c0.1393-0.82002 0.11412-0.86281-0.31131-0.52917-0.25457 0.19965-0.6079 0.54158-0.78518 0.75987-0.2062 0.25391-0.32534 0.28336-0.33073 0.08176-0.0046-0.17331 0.11065-0.3887 0.25617-0.47864 0.14552-0.08994 0.26458-0.41307 0.26458-0.71808 0-0.5378-0.01598-0.54009-0.52917-0.07567-0.29104 0.26339-0.52917 0.68398-0.52917 0.93465 0 0.25067-0.17859 0.60398-0.39688 0.78514-0.42481 0.35256-0.56316 1.4569-0.15057 1.2019 0.13546-0.08372 0.32229-0.02928 0.41516 0.12099 0.09287 0.15027 0.30946 0.18532 0.4813 0.0779 1.023-0.63945 1.3077 0.07571 0.45952 1.154-0.28565 0.36314-0.44214 0.84221-0.35191 1.0773 0.10794 0.2813 0.05858 0.35918-0.14708 0.23208-0.20591-0.12726-0.30955 0.03815-0.30955 0.49407 0 0.37696-0.17536 0.75266-0.38968 0.83491-0.21432 0.08224-0.4657 0.55475-0.55861 1.05-0.09584 0.51088-0.32791 0.9005-0.53636 0.9005-0.22603 0-0.36743 0.28509-0.36743 0.74083 0 0.85685-0.4327 1.3962-0.95828 1.1946-0.20055-0.07696-0.36463-0.0011-0.36463 0.16858 0 0.16968 0.11906 0.23492 0.26458 0.14498 0.44676-0.27612 0.29387 0.40635-0.26774 1.1951-0.47892 0.67258-1.4662 2.4313-2.5967 4.6258-0.2249 0.43656-0.80716 1.4188-1.2939 2.1828-0.87413 1.372-1.3979 1.7496-1.3979 1.0078 0-0.57657-0.39393-0.70201-0.94322-0.30036-0.38168 0.27909-0.42395 0.44178-0.18849 0.72549 0.4295 0.51752 0.24265 2.1381-0.36622 3.1763-0.28415 0.48449-0.60426 1.1123-0.71136 1.3952-0.18992 0.50163-0.18138 0.50226 0.34582 0.02514 0.2973-0.26905 0.54055-0.58367 0.54055-0.69914zm-0.6831-1.7207c0.47158-0.18096 0.54002-0.83259 0.14988-1.4269-0.23158-0.35278-0.28948-0.35278-0.52106 0-0.25587 0.38977-0.37506 1.5875-0.15798 1.5875 0.06086 0 0.29898-0.07227 0.52917-0.1606zm7.5623-0.23628c0-0.21828 0.20997-0.60684 0.4666-0.86347 0.77831-0.77831 1.7173-2.2002 1.5581-2.3594-0.08236-0.08236-0.36324-0.05602-0.62418 0.05853-0.26094 0.11455-0.54247 0.21856-0.62562 0.23112-0.08315 0.01257-0.36287 0.23453-0.62159 0.49325-0.37098 0.37098-0.40407 0.55031-0.15658 0.84853 0.24551 0.29582 0.22243 0.50861-0.10602 0.97754-0.48322 0.6899-0.53252 1.0108-0.15526 1.0108 0.14552 0 0.26458-0.17859 0.26458-0.39688zm2.3443-3.8365c1.0737 0 1.0898-0.57322 0.03716-1.3228-1.3677-0.97392-2.6054 0.04775-1.8248 1.5063 0.30517 0.57021 0.38494 0.59871 0.65232 0.23306 0.16755-0.22913 0.67846-0.4166 1.1354-0.4166zm5.9102-11.212c0.20972 0.12961 0.23825 0.03186 0.09331-0.31973-0.26589-0.64499-0.27173-0.88461-0.04134-1.697 0.17705-0.62435 0.16526-0.63362-0.21029-0.16525-0.21882 0.27291-0.5722 0.4293-0.78528 0.34754-0.57626-0.22113-1.3811 1.5604-0.94326 2.088 0.28175 0.33949 0.39989 0.33623 0.9532-0.02633 0.34737-0.22761 0.76752-0.32982 0.93366-0.22714zm4.9762-9.9543c0.11744 0 0.16179 0.26789 0.09854 0.59531-0.10465 0.54183-0.08695 0.53589 0.19708-0.06615 0.17164-0.3638 0.29176-0.84005 0.26694-1.0583-0.02482-0.21828 0.21125-0.55668 0.52461-0.75199 0.47665-0.2971 0.6065-0.2971 0.7948 0 0.16499 0.26033 0.22615 0.20585 0.22912-0.20407 0.0073-1.0073-1.8075-0.28995-1.8689 0.73873-0.01675 0.28046-0.04802 0.28202-0.15802 0.0079-0.10228-0.25489-0.22748-0.26679-0.49255-0.0468-0.19548 0.16223-0.29023 0.46486-0.21055 0.6725s0.01307 0.37753-0.14802 0.37753c-0.16109 0-0.29289-0.11906-0.29289-0.26458s-0.0893-0.24536-0.19844-0.22186c-0.33268 0.07163-1.669-0.54945-2.0917-0.97216-0.78953-0.78953-0.20519-0.94141 1.0514-0.27327 1.5385 0.81802 1.5033 0.8165 1.5033 0.06499 0-0.3347 0.14883-0.76599 0.33073-0.95843 0.2733-0.28913 0.22379-0.2948-0.2851-0.03263-0.35398 0.18236-0.55626 0.47251-0.47572 0.68238 0.11371 0.29632 0.01786 0.30943-0.50864 0.06953-0.35682-0.16258-0.64876-0.40405-0.64876-0.53661 0-0.38626-0.71191-0.98957-0.92741-0.78593-0.10816 0.10221-0.10958-0.09696-0.0031-0.44261 0.12616-0.40973 0.09792-0.56937-0.08114-0.4587-0.15106 0.09336-0.34963 0.04841-0.44128-0.09987-0.11286-0.1826-0.33222-0.18099-0.67974 5e-3 -0.58859 0.31501-0.65239 0.06461-0.15153-0.5947 0.24126-0.31759 0.42833-0.37024 0.62318-0.17538 0.19162 0.19162 0.3313 0.19289 0.448 0.0041 0.09326-0.1509-0.07189-0.40359-0.36701-0.56153-0.36133-0.19338-0.53658-0.19771-0.53658-0.01328 0 0.15064-0.11906 0.27389-0.26458 0.27389-0.14552 0-0.26458-0.16586-0.26458-0.36857s-0.17859-0.4371-0.39688-0.52086c-0.23303-0.08942-0.39688-0.0036-0.39688 0.20797 0 0.19814 0.18614 0.43169 0.41364 0.51899 0.5331 0.20457 0.23666 0.69163-0.42095 0.69163-0.34041 0-0.45556-0.12948-0.35295-0.39687 0.08376-0.21828 0.037-0.39688-0.1039-0.39688-0.14091 0-0.20197-0.2837-0.13568-0.63044 0.06629-0.34674-0.0098-0.71096-0.16898-0.80936-0.18551-0.11465-0.2895 0.1118-0.2895 0.63044 0 0.44515-0.1318 0.80936-0.29289 0.80936-0.16109 0-0.22582 0.17478-0.14385 0.3884 0.08197 0.21362 0.02826 0.46305-0.11936 0.55428-0.36058 0.22285 1.3003 1.0911 2.5277 1.3213 0.93572 0.17554 0.97721 0.22651 0.82873 1.018-0.17308 0.92262-0.05268 1.0525 1.9622 2.117 0.79416 0.41956 1.2264 0.8368 1.2981 1.253 0.09094 0.5278 0.14599 0.47104 0.35701-0.36816 0.13722-0.5457 0.34558-0.99219 0.46302-0.99219zm-4.366-1.854c0.09057-0.14655-0.05123-0.33789-0.31512-0.4252-0.26388-0.08731-0.83698-0.31204-1.2735-0.49939-0.43656-0.18735-1.2105-0.41791-1.7198-0.51235-0.82403-0.15279-0.86775-0.13409-0.39688 0.16978 0.589 0.3801 3.0722 1.5064 3.3578 1.523 0.10055 0.0058 0.25693-0.10928 0.3475-0.25583zm5.1199-0.74387c-0.05685-0.54195 0.15428-0.99384 0.77258-1.6536 0.46794-0.49935 0.85136-1.1071 0.85203-1.3506 7.94e-4 -0.2435 0.29888-0.79646 0.66268-1.2288 0.3638-0.43235 0.66146-0.8786 0.66146-0.99165 0-0.11306 0.19503-0.42106 0.43339-0.68445 0.54928-0.60695 0.24628-1.0203-1.624-2.2156-1.9493-1.2457-2.43-1.3419-3.0413-0.60848-0.28213 0.33852-0.51693 0.70975-0.52177 0.82496-0.0048 0.11521-0.37229 1.0082-0.81656 1.9844-1.805 3.9661-1.7956 3.8456-0.37553 4.8227 0.74955 0.5157 1.2126 0.69076 1.329 0.50244 0.12014-0.1944 0.26602-0.20162 0.44558-0.02206 0.14683 0.14683 0.44887 0.19716 0.6712 0.11184 0.32381-0.12426 0.36903-0.01486 0.2273 0.54984-0.11091 0.44191-0.06888 0.70496 0.11263 0.70496 0.15971 0 0.25449-0.33443 0.21134-0.74574z" style="fill:#111;stroke-width:.26458"/></g></g></svg>
