<svg width="15.874mm" height="70.341mm" version="1.1" viewBox="0 0 15.874 70.341" xmlns="http://www.w3.org/2000/svg"><g transform="translate(-59.787 -27.263)"><g transform="translate(6.5866 -22.267)"><path d="m59.689 119.26c-0.65195-0.64963-0.57203-1.7638 0.19304-2.2877 0.4845-0.68297 0.08297-1.7066 0.21387-2.5252-0.0054-2.9381-0.01081-5.8763-0.01621-8.8144-0.72611-0.95507-1.9818-0.49847-3.0127-0.64099-1.2333-0.0309-2.4666-0.0618-3.6999-0.0927-0.70318-1.1269 1.0167-0.50495 1.6581-0.66145h3.9561c0.53362-0.96765 0.16834-2.2042 0.32592-3.2843 0.38465-13.901 0.81896-27.802 1.0719-41.706 0.28132-3.0235 0.45605-6.0715 0.80338-9.0799 0.05942-1.136 1.1896-0.58908 1.0497 0.31911 0.467 2.1958 0.21147 4.4818 0.36953 6.7161 0.24739 10.33 0.15619 20.665 0.25897 30.996 0.0617 4.991-0.01437 10.008 0.13337 14.983 0.09689 0.96059 1.0872 1.2168 1.898 1.3206h4.1746c0.1425 1.041-1.4845 0.31258-2.1664 0.52917h-4.7127c-0.08594 4.0354-0.38309 8.0619-0.60784 12.091 0.95502 0.26483 0.6067 1.5059 0.50572 2.1928-0.41862 0.76402-1.2664 0.49197-1.9845 0.53287-0.13726-0.196-0.27453-0.392-0.4118-0.588zm0.95177-36.652c0.03052-1.2567 0.06104-2.5134 0.09156-3.7702 1.3578 0.37027-0.18821-0.95864 0.3441-1.35-1.093 0.09212-0.4662 1.4698-0.67525 2.2226-0.02775 2.1736-0.23185 4.3827-0.15071 6.5344 0.53074 0.63775 0.24459-1.4003 0.34784-1.8881 0.01415-0.58292 0.02831-1.1658 0.04246-1.7488z" style="fill:#9c9c9c;stroke-width:.26458"/><path d="m59.973 119.51c-0.74736-0.3433-0.52604-1.585-0.3905-2.1687 1.0389-0.32932 0.41959-1.5697 0.56796-2.3884-0.04082-3.2912-0.08164-6.5824-0.12246-9.8737 1.5083-0.24634 0.433-0.23683-0.4985-0.24156-2.0243-0.0405-4.0489-0.0629-6.0733-0.0951-0.11757-1.0077 1.4934-0.28689 2.1664-0.50399h3.6443c0.10046-0.44514 0.49334-2.4715 0.51386-1.5512-0.08543 0.69901-5.48e-4 2.4236 0.33402 0.88453 0.29923-1.5036 0.25569 2.0298 0.37236 0.0799 0.53377-4.2756 0.1762-8.5891 0.23276-12.885-0.0089-1.2861-0.01781-2.5722-0.02671-3.8584 0.10119 2.3812 0.20238 4.7625 0.30357 7.1438 0.27455-4.9322 0.48812-9.8659 0.4219-14.807-0.0029-6.9369-0.01757-13.874-0.02501-20.811-0.90876 0.36636-0.33088 1.5662-0.49617 2.3494 0.27271 0.82925-0.52059 2.2178-0.32031 0.65236 0.12095-3.8409 0.28052-7.6792 0.76755-11.494 0.76219-1.1826 0.65748 0.59814 0.90093 1.1887 0.28708 5.0198 0.45143 10.044 0.39277 15.073 0.03382 12.209 0.06764 24.418 0.10147 36.627 0.23562 0.78684 0.19924 1.8752 1.3178 1.6832 1.6789 0.145 0.0042 0.25187-0.75655 0.36912-1.1142-0.0767-1.6658 0.33814-1.3782 1.4863 0.03557 3.4501-0.3936 6.8841-0.57499 10.327 0.45797 0.69073 1.0509 1.3412 0.83958 2.2317-0.0022 0.71391-1.1085 0.99693-1.7509 0.92038-0.15452-0.11301-0.30911-0.22596-0.46357-0.33903zm1.3494-18.785c-0.11669-1.6793-0.10737-0.58328-0.09989 0.47222 6.66e-4 1.0579 0.0013 2.1159 2e-3 3.1738 0.06702-1.2171 0.29648-2.4305 0.09789-3.646zm0.76429 0.51513c-0.08562-1.0862 0.3361-2.3011-0.41237-3.2191-0.0053 2.0138-0.01067 4.0276-0.016 6.0413 0.77711-0.63469 0.25607-1.817 0.42688-2.7075zm-0.76588-5.7941c-0.15825-1.7098-0.09779 0.17616-0.11001 0.86729-0.02588 1.1887-0.0041 1.7538 0.17236 0.29183 0.10441-0.384-0.04196-0.77281-0.06235-1.1591zm0.535-12.837c-0.02793-1.0363-0.05586-2.0726-0.08379-3.1089v12.435c0.06869-3.1096 0.24321-6.2168 0.08379-9.3266zm4.8295 22.221c0.24831-0.37233 1.7746-0.31529 2.1167-0.11399-0.11393 0.69726-1.4901 0.13231-2.1167 0.31691v-0.14443zm-7.0681-9.4544c-0.02841-1.2475 0.01408-1.5345 0.17896-0.16326 0.08882 0.71126-0.32124 2.1885-0.18021 0.61961 4.17e-4 -0.15212 8.33e-4 -0.30423 0.0012-0.45635zm0.27786-7.5406c0.01841-0.5492-0.05371-2.834 0.07513-1.2662 0.21433 1.0835 0.04491 2.167-0.07513 3.2505v-1.9844zm0.48056-20.889c0.11151-0.52975-0.37818-2.6166 0.36824-1.502-0.04163 1.1363-0.22997 2.319-0.3279 3.4731-0.01345-0.65705-0.02689-1.3141-0.04034-1.9711z" style="fill:#626262;stroke-width:.26458"/><path d="m60.129 119.44c-0.81026-0.27329-0.74305-1.497-0.38382-2.0678 0.86183-0.58268 0.27589-1.7514 0.4226-2.6235-0.05178-3.2378-0.10356-6.4756-0.15534-9.7134 0.48979-0.0871 2.5517 0.16829 1.1778-0.32485-0.78542-0.85528-1.5629 0.87611-2.3043 0.11479-0.21114-0.65563 1.4182-0.61998 2.0562-0.57998 1.2247 0.32461 1.4259-0.37046 1.2434-1.4479-0.05564-2.3852 0.10346-4.8015-0.08756-7.1672-0.34081-1.6106-0.35986-0.48017-0.39178 0.54068-0.06985 1.3232-0.1397 2.6465-0.20955 3.9697v-12.435c0.10733 1.8521 0.21467 3.7042 0.322 5.5563 0.21179-5.8643 0.28367-11.732 0.42982-17.599-0.82088-0.60269-0.74864-1.5245-0.69591-2.4394 0.02498-7.3715 0.14553-14.742 0.23738-22.113-0.71266 0.62295-0.45563-1.2564-0.0059-1.5803 0.22131 0.25334 0.3165 1.5434 0.39268 2.2158 0.29174 7.8177 0.32382 15.64 0.33421 23.462 0.03977 9.5813 0.07955 19.163 0.11932 28.744 1.2148 1.023 0.0067 0.69005-0.66649 0.96302-0.40854 3.9157-0.43768 7.855-0.62027 11.785 0.13806 0.73605 1.1842 1.5344 0.64594 2.2241-0.27445 0.78314-1.0704 1.3424-1.7454 0.59715zm0.83494-21.813v-3.0427c0.19936 2.0285 0.19935 4.0569 0 6.0854v-3.0427zm0.52808-12.832c3.67e-4 -0.97014 7.33e-4 -1.9403 0.0011-2.9104 0.17989 1.941 0.21984 3.8814-0.0022 5.8208 3.47e-4 -0.97013 7.73e-4 -1.9403 0.0011-2.9104z" style="fill:#141414;stroke-width:.26458"/></g></g></svg>
