<svg width="19.33mm" height="23.261mm" version="1.1" viewBox="0 0 19.33 23.261" xmlns="http://www.w3.org/2000/svg"><g transform="translate(-144.83 -178.14)"><g transform="translate(118.65 46.253)"><path d="m31.26 155.01c-2.2556-0.088-4.2455-0.25367-4.422-0.36807-0.94716-0.61386-0.85713-3.5144 0.16879-5.4382 0.8049-1.5094 1.2763-3.5105 1.0374-4.4038-0.12247-0.45792-0.10258-0.89257 0.04771-1.0429 0.44136-0.44136 0.28536-0.61294-0.43252-0.47571l-0.69022 0.13194 0.32573-0.63165c0.26942-0.52247 0.26525-0.57449-0.02416-0.30093-0.19244 0.18191-0.50467 0.33073-0.69385 0.33073-0.46756 0-0.43489-0.65349 0.05292-1.0583 0.21828-0.18116 0.39688-0.67199 0.39688-1.0907s0.11104-0.76135 0.24675-0.76135c0.45972 0 0.63223-1.1814 0.5882-4.0279l-0.0439-2.8373 0.61385-0.40221c0.33762-0.22122 1.1828-0.4802 1.8782-0.57552l1.2644-0.1733 0.61885 0.76697c0.53105 0.65816 0.68706 0.72052 1.0997 0.4396 1.5307-1.0422 1.8409-1.1218 3.0298-0.77757 0.74942 0.21697 1.1854 0.50562 1.247 0.82562 0.1168 0.60647-0.63448 4.8963-1.3141 7.5035-0.27706 1.0629-0.4882 2.2535-0.4692 2.6458 0.019 0.39232-0.04165 1.2481-0.13478 1.9018-0.19012 1.3344 0.18455 2.5214 1.0236 3.2431 0.29594 0.25453 1.3862 0.93914 2.4227 1.5214l1.8847 1.0586h3.7591l0.4222 0.64435c0.23221 0.3544 0.38378 0.97922 0.33683 1.3885l-0.08537 0.74413-1.7198 0.63421c-1.9577 0.72195-5.1209 0.87085-12.435 0.58534z" style="fill:#9f9f9f;stroke-width:.26458"/><path d="m31.468 154.73c-3.512-0.12517-4.2318-0.22167-4.6302-0.62069-0.62872-0.62971-0.61815-2.6751 0.02013-3.8932 0.26689-0.50933 0.70348-1.5453 0.97019-2.3022 0.56312-1.598 0.77014-4.8913 0.31696-5.0423-0.20817-0.0694-0.21973-0.3031-0.03855-0.77962 0.36012-0.94719 0.15217-1.0205-0.64202-0.22629-0.78118 0.78118-1.5632 0.95427-0.87484 0.19364 0.24084-0.26612 0.43788-0.73562 0.43788-1.0433 0-0.30772 0.26789-0.74727 0.59531-0.97679l0.59531-0.41732v-3.1284c0-3.6105 0.12916-3.8922 1.9064-4.1588l1.2017-0.1802 1.5823 1.6931 0.56522-0.51395c1.0227-0.92996 1.6038-1.1086 2.6588-0.81729 0.53814 0.14859 1.0397 0.42983 1.1146 0.62498 0.07489 0.19516-0.0671 1.4677-0.31553 2.8278-0.24843 1.3601-0.50416 2.8897-0.56829 3.399-0.06413 0.50932-0.29618 1.3229-0.51568 1.8079-0.29927 0.6613-0.37682 1.6106-0.3101 3.7959l0.08897 2.9141 0.79375 0.65039c0.73462 0.60193 1.5456 1.1015 3.6727 2.2623 0.52385 0.28587 1.4532 0.45643 2.545 0.46707 0.94588 9e-3 1.8567 0.10424 2.024 0.21115s0.3459 0.60929 0.39688 1.1164l0.09267 0.92201-0.79375 0.38304c-2.1943 1.0589-3.7305 1.158-12.89 0.83158z" style="fill:#515151;stroke-width:.26458"/><path d="m30.049 154.42c-0.57091-0.0935-1.128-0.11577-1.238-0.0496-0.10999 0.0662-0.60916-0.0276-1.1093-0.20845-1.3694-0.49517-1.5024-1.7527-0.43046-4.0687 0.44752-0.96688 0.81368-2.0403 0.81368-2.3853s0.12588-0.70518 0.27972-0.80026c0.15832-0.0978 0.248-0.82232 0.20662-1.6693-0.0402-0.82301 0.01446-1.637 0.12147-1.8088 0.10701-0.17185 0.07356-0.38723-0.07433-0.47864-0.45386-0.2805-0.29872-0.66412 0.26857-0.66412 0.29561 0 0.60797-0.18373 0.69414-0.40829 0.22075-0.57527-0.0856-0.78761-0.56376-0.39077-0.27578 0.22888-0.40327 0.2408-0.40327 0.0377 0-0.16334 0.11906-0.29698 0.26458-0.29698 0.41564 0 0.30925-1.0996-0.15614-1.6138-0.26229-0.28983-0.35475-0.67274-0.24553-1.0169 0.24062-0.75813 0.66626-0.41976 0.66626 0.52966 0 0.42798 0.11906 0.77814 0.26458 0.77814 0.26533 0 0.38212-0.52398 0.30962-1.3891-0.04332-0.51689 0.48873-0.61717 0.93051-0.17538 0.20108 0.20109 0.33969 0.20342 0.46061 8e-3 0.09756-0.15786-0.12011-0.35344-0.4993-0.44861-0.62032-0.15569-0.9784-0.90512-0.43247-0.90512 0.1319 0 0.17754-0.23812 0.10143-0.52917-0.07611-0.29104-0.01932-0.52916 0.1262-0.52916 0.38208 0 0.57455-0.954 0.40422-2.0036-0.11946-0.73614-0.26515-0.90684-0.774-0.90684-0.34476 0-0.62684 0.10932-0.62684 0.24294s-0.07414 0.43615-0.16475 0.67228c-0.10708 0.27906-0.03982 0.4024 0.19216 0.35237 0.19875-0.0429 0.39716 0.18684 0.44774 0.51835 0.10782 0.70667-0.33636 0.78845-0.71853 0.13229-0.21664-0.37194-0.27127-0.25917-0.27773 0.57326-0.01133 1.4596-0.22277 1.0752-0.38743-0.70444l-0.13881-1.5002 0.58255-0.40803c0.3204-0.22442 1.0636-0.40804 1.6516-0.40804 0.85381 0 1.1216 0.11954 1.3302 0.59377 0.37179 0.84523 1.0689 0.87577 2.0053 0.0879 0.87349-0.735 1.4108-0.82707 2.472-0.42359 0.58849 0.22374 0.67868 0.41484 0.67868 1.438 0 0.64897-0.11927 1.4937-0.26504 1.8771-0.14578 0.38342-0.3949 1.534-0.55361 2.557-0.15871 1.0229-0.44252 2.235-0.63068 2.6935-0.44475 1.0838-0.48966 5.1967-0.06768 6.1993 0.39498 0.93838 1.3906 1.7862 3.5014 2.9815 1.3269 0.75139 1.935 0.92189 3.7042 1.0385l2.1167 0.13948 0.07966 0.81628c0.09598 0.98358-0.155 1.1935-2.1506 1.7987-1.2967 0.39328-2.3511 0.45391-6.6349 0.3815-2.8012-0.0474-5.5603-0.16257-6.1312-0.25604zm-1.6496-1.031c-0.31848-0.29671-0.57906-0.71343-0.57906-0.92604 0-0.4625-0.31048-0.49943-0.72382-0.0861-0.32534 0.32535 0.15527 1.0224 0.70492 1.0224 0.15592 0 0.28348 0.11906 0.28348 0.26458s0.20104 0.26458 0.44676 0.26458c0.37604 0 0.3551-0.0854-0.13229-0.53947zm0.93182-0.95046c0.10876-0.32628-1.1755-1.0503-1.4234-0.80245-0.2195 0.2195 0.74396 1.2255 1.0866 1.1345 0.13642-0.0362 0.28798-0.18566 0.33679-0.33209zm3.2516-0.0976c0-0.14552-0.17859-0.26458-0.39688-0.26458s-0.39688 0.11906-0.39688 0.26458c0 0.14553 0.17859 0.26459 0.39688 0.26459s0.39688-0.11906 0.39688-0.26459zm-1.5875-0.76544c0-0.23632-0.62216-0.55747-1.08-0.55747-0.43236 0-0.25718 0.48664 0.22008 0.61136 0.76219 0.19919 0.8599 0.19306 0.8599-0.0539zm5.2917-1.7481c-0.187-0.22531-0.39952-0.35013-0.47228-0.27737-0.07276 0.0728 0.0207 0.31664 0.2077 0.54196 0.187 0.22531 0.39952 0.35013 0.47228 0.27737 0.07276-0.0728-0.0207-0.31664-0.2077-0.54196zm-5.0575-0.95043c-0.57014-0.36107-0.76335-0.28557-0.76335 0.29828 0 0.46785 0.0741 0.49882 0.56491 0.23615 0.45134-0.24155 0.49124-0.34899 0.19844-0.53443zm-1.3625-2.886c0.0394-0.3638 0.07384-1.1675 0.07654-1.7859l0.0049-1.1245h0.65573c0.40649 0 0.65573-0.15086 0.65573-0.39688 0-0.50626-0.97425-0.51875-1.4741-0.0189-0.20789 0.20789-0.37798 0.62461-0.37798 0.92605 0 0.30143-0.11114 0.54806-0.24699 0.54806-0.1925 0-0.22606 2.8189-0.04096 3.4396 0.08694 0.29151 0.68013-0.96892 0.74712-1.5875zm-2.5175-5.0271c0.05095-0.45585 0.25897-0.68774 0.66924-0.74601 0.32742-0.0465 0.59531 0.0428 0.59531 0.19844s-0.1357 0.28299-0.30156 0.28299c-0.16586 0-0.46702 0.20836-0.66924 0.46302l-0.36768 0.46302z" style="fill:#2e2e2e;stroke-width:.26458"/><path d="m39.51 154.21c0.41858-0.67025 0.81819-0.72287 0.69664-0.0917-0.04872 0.25299-0.30292 0.50126-0.56489 0.55171l-0.4763 0.0917zm1.143 0.24155c-0.22057-0.35689 0.99424-0.79515 1.6956-0.61174 0.4135 0.10814 0.52313 0.0469 0.41594-0.23247-0.08006-0.20862 0.09677-0.59861 0.39294-0.86665 0.33105-0.2996 0.5385-0.36359 0.5385-0.16612 0 0.17666 0.12222 0.24566 0.2716 0.15334 0.14938-0.0923 0.23948-0.30771 0.20023-0.47863-0.03925-0.17093 0.04689-0.37031 0.19142-0.44307 0.14453-0.0728 0.30101 0.26691 0.34773 0.75483 0.05558 0.5805-0.01301 0.82659-0.19844 0.71199-0.15586-0.0963-0.28338 2e-5 -0.28338 0.2141 0 0.40605-1.8772 0.87954-2.3438 0.59117-0.13561-0.0838-0.31484 0.0255-0.39828 0.24297-0.17405 0.45356-0.58994 0.51883-0.83008 0.13028zm3.043-1.3728c0-0.34777-0.60134-0.13-0.73318 0.26551-0.06445 0.19334 0.05651 0.25247 0.31419 0.15359 0.23044-0.0884 0.41898-0.27702 0.41898-0.4191zm-4.9609 1.0532c0.23084-0.60156-0.39346-1.0927-0.8464-0.66584-0.27462 0.25879-0.31977 0.24414-0.22313-0.0724 0.06663-0.21828 0.33045-0.43746 0.58627-0.48705 0.44106-0.0855 1.4754-0.94973 1.4754-1.2327 0-0.26423-0.96066-0.12413-1.27 0.1852-0.24694 0.24695-0.3175 0.22219-0.3175-0.1114 0-0.62787-2.3192-2.8591-2.7857-2.6801-0.48662 0.18673-0.28403 0.52356 0.99633 1.6565 0.56083 0.49627 0.96143 1.0541 0.89022 1.2397-0.0712 0.18556 0.01268 0.39987 0.1864 0.47626 0.17373 0.0764-0.01156 0.0712-0.41174-0.0116-0.55454-0.11468-0.7276-0.0493-0.7276 0.27509 0 0.23405 0.17859 0.42555 0.39688 0.42555 0.21828 0 0.39688 0.11907 0.39688 0.26459s-0.47625 0.26458-1.0583 0.26458c-0.58208 0-1.0583-0.11906-1.0583-0.26458s0.20411-0.26459 0.45357-0.26459h0.45357l-0.93239-0.92604-0.49845 0.65751c-0.27415 0.36163-0.58596 0.56999-0.69293 0.46302-0.10697-0.10697-0.06504-0.19449 0.09317-0.19449 0.52054 0 0.6944-1.6008 0.22486-2.0703l-0.42432-0.42432v0.44505c0 0.35038-0.12663 0.39821-0.59531 0.22486-0.67625-0.25011-0.84894-1.4494-0.27705-1.924 0.18876-0.15666 0.34319-0.51952 0.34319-0.80637 0-0.30084 0.22629-0.58072 0.53474-0.66138 0.42016-0.10987 0.46991-0.21796 0.23219-0.50439-0.16641-0.20051-0.41554-0.36456-0.55364-0.36456-0.1381 0-0.41905-0.16797-0.62434-0.37325-0.20529-0.20529-0.52421-0.42712-0.70871-0.49295-0.1845-0.0658-0.24598-0.21555-0.13662-0.3327 0.10936-0.11716 0.49872-0.0525 0.86524 0.14364 0.53217 0.28481 0.73195 0.29018 0.99179 0.0267 0.44442-0.45067-0.521-1.219-1.0158-0.80838-0.24971 0.20724-0.31686 0.0356-0.28629-0.73209l0.03993-1.0028 0.86431-0.0265c1.0344-0.0317 1.1668-0.13123 0.85212-0.64045-0.19048-0.30821-0.30606-0.32011-0.5677-0.0585-0.39611 0.39611-0.75185 0.42636-0.75185 0.0639 0-0.14552 0.16946-0.26458 0.37658-0.26458s0.74602-0.31087 1.1976-0.69081l0.82098-0.69082-0.06672 2.9061c-0.05656 2.4636 0.01211 3.0525 0.45093 3.8673 0.28471 0.52867 0.71733 1.0246 0.96138 1.102 0.24405 0.0775 0.51053 0.3149 0.59216 0.52764 0.08164 0.21274 0.34215 0.3868 0.57891 0.3868 0.23676 0 0.76073 0.23516 1.1644 0.52258 0.40364 0.28742 1.0769 0.66586 1.4961 0.84099l0.76216 0.3184-0.62594 0.10748c-0.34427 0.0591-0.68558 0.33551-0.75846 0.61422-0.07288 0.27871-0.29723 0.50675-0.49854 0.50675-0.40272 0-0.50876 0.69687-0.1275 0.83785 0.13118 0.0485 0.04899 0.26289-0.18266 0.4764l-0.42117 0.38821zm2.9878-2.0429c-0.26169-0.42342 0.45107-0.54894 1.7085-0.30086 0.07276 0.0144-0.0463 0.14152-0.26458 0.28258-0.50638 0.32725-1.2472 0.33663-1.4439 0.0183zm-10.9-5.1891c-0.08617-0.22455-0.08243-0.48252 0.0083-0.57326 0.09074-0.0907 0.16498 0.0247 0.16498 0.25659 0 0.23187 0.20836 0.47603 0.46302 0.54258l0.46302 0.121-0.47132 0.0307c-0.25923 0.0169-0.54183-0.15304-0.628-0.3776zm1.1062-5.1368c-0.09667-0.15642-0.2866-0.21589-0.42206-0.13217-0.13546 0.0837-0.2463 0.0332-0.2463-0.11236 0-0.14552 0.1195-0.33844 0.26556-0.42871 0.14606-0.0903 0.20028-0.42471 0.12049-0.74322-0.07978-0.3185 0.02064-0.80545 0.22316-1.0821l0.36822-0.50301 0.87369 0.30457c1.4588 0.50856 1.5221 0.33591 0.18465-0.50388-1.0101-0.63425-1.2376-0.90541-1.1063-1.3189 0.09087-0.2863 0.20837-0.84749 0.26111-1.2471 0.05275-0.39961 0.11782-0.78609 0.1446-0.85885 0.02678-0.0728 0.0275-0.34065 0.0016-0.59532-0.02622-0.25772 0.13041-0.46302 0.35326-0.46302 0.2202 0 0.49557-0.15168 0.61194-0.33708 0.11637-0.18539 0.52457-0.53587 0.90711-0.77883 0.57823-0.36725 0.85923-0.3915 1.6663-0.14381l0.97076 0.29793-0.13697 1.2301c-0.07533 0.67655-0.25207 1.518-0.39274 1.87l-0.25576 0.63987-0.01677-0.69521c-0.0092-0.38236-0.18346-0.83354-0.38719-1.0026-0.30631-0.25422-0.37042-0.13559-0.37042 0.68538 0 0.57441 0.16623 1.1144 0.39444 1.2812 0.30327 0.22176 0.35146 0.57506 0.20849 1.5285-0.1125 0.75017-0.29402 1.1733-0.45949 1.071-0.17722-0.10953-0.21159 0.0778-0.09761 0.53187 0.13377 0.53298 0.07739 0.70092-0.2353 0.70092-0.22617 0-0.67493 0.16691-0.99723 0.3709-0.8358 0.52901-2.2198 0.77608-2.4312 0.43403zm3.7577-7.8654c0.10203-0.30608-0.94346-0.67028-1.297-0.4518-0.36762 0.22721-0.24418 0.58771 0.24435 0.71364 0.61607 0.1588 0.93919 0.0784 1.0526-0.26184z" style="fill:#121212;stroke-width:.26458"/></g></g></svg>
