<svg width="20.092mm" height="19.894mm" version="1.1" viewBox="0 0 20.092 19.894" xmlns="http://www.w3.org/2000/svg"><g transform="translate(-94.61 -90.077)"><g transform="translate(-.49774 .27652)"><path d="m100.79 109.03c-0.8927-0.36921-2.1142-0.52961-1.7194-1.8014 0.03889-1.7735 0.51075-3.5256 1.2106-5.1466-0.0788-1.0346-0.96764-1.8712-1.0448-2.9537-0.43902-0.78116-1.7457-0.27292-2.034-1.2745-0.7664-0.57424-1.9148-1.0161-1.9997-2.1257-0.12328-1.0165-0.20092-2.1044 0.16128-3.0793 0.72926-0.66696 1.8254-0.44424 2.6148-0.95896 0.90489-0.54845 1.8741-1.0429 2.9447-1.1204 0.84789-0.59103 1.8082-0.90171 2.8665-0.7728 1.3722 0.06132 2.7841-0.05611 4.1221 0.29582 0.69318 0.88799 1.945 0.11981 2.8281 0.79598 0.85745 0.51097 1.9009 0.65417 2.7498 1.0812 0.86548 0.23118 1.8472 0.6392 1.6996 1.7812 0.0111 0.984-0.0466 1.9938-0.33031 2.9399-0.75608 0.83659-1.9379 1.2506-2.7671 2.061-1.1173 0.03321-1.3966 1.2405-1.6828 2.1131-0.24531 1.0114-0.86452 2.1478-0.2309 3.1422 0.70416 1.4222 0.73509 3.035 0.86678 4.5853-1.0043 0.52889-2.0376 1.095-3.2115 1.061-1.8814 0.0239-3.7883 0.14722-5.6524-0.16433-0.47918-0.10108-0.93984-0.27244-1.3914-0.45904z" style="fill:#999;stroke-width:.26458"/><path d="m104.89 109.43c-1.6922-0.11911-3.4899-0.10284-5.0339-0.89492-1.099-0.57433-0.61971-1.936-0.44738-2.8811 0.27325-1.351 0.83555-2.6542 0.90782-4.0382-0.46798-0.89992-0.706-1.9544-1.0917-2.8462-1.1046 0.04734-1.4674-1.0851-2.3847-1.3566-0.89591-0.39976-1.5773-1.2439-1.4972-2.2645 0.04219-0.81608-0.40747-2.0111 0.50253-2.4861 1.5254-0.60133 2.975-1.3984 4.5407-1.8941 1.1049 0.10034 1.7389-0.97291 2.8014-0.89792 1.5343 0.05452 3.1014 0.02824 4.5998 0.39252 0.70152 0.90684 1.8958 0.23166 2.8357 0.7765 0.98458 0.45889 1.855 1.0585 2.9713 1.1363 1.0288 0.3038 1.7075 1.3079 1.4561 2.3714-0.11626 0.88942-0.2577 1.8848-0.90505 2.555-1.1297 0.46934-1.9107 1.5037-3.0711 1.9288-0.75654 0.80044-0.87058 1.9822-1.2188 2.9873-0.48735 1.0105 0.12513 1.9047 0.53619 2.78 0.26891 1.2806 0.14899 2.5982 0.18669 3.8977-1.1205 0.43532-2.2765 0.84641-3.4996 0.78296-0.72992 8e-3 -1.4598-0.0195-2.1889-0.0487z" style="fill:#565656;stroke-width:.26458"/><path d="m104.63 108.91c-0.13552-1.0314-0.55748-0.1365-0.73295 0.24903-0.4959-0.24077-0.81906-0.54946-1.2631-0.13355-0.39345-0.25979-1.0249-1.3158-0.68111-0.23406-0.66882 8e-3 -1.8655-0.14044-2.2924-0.78429-0.32292-0.99658 0.28284-1.9089 0.32552-2.7875 0.23995-1.4047 0.9141-2.8778 0.31341-4.2941-0.6587-0.88102-0.39274-2.1545-1.4508-2.7592-0.72976 0.04794-1.3533-0.57368-1.9496-1.0865-0.93487-0.37314-1.4275-1.2059-1.4117-2.208-0.20997-0.84165-0.27058-2.1484 0.98437-1.8571 0.72683-0.50794 1.6164-0.82485 2.5073-1.1549 0.49298-0.07409 1.6105-1.0997 1.7664-0.51393 0.011 0.798 1.2529-0.60875 1.4594-0.9228 1.096 0.22306 1.8638 1.4516 3.1049 1.2803 1.0206-0.15664 0.12105-0.72886-0.4597-0.52295-0.55219 0.19313-2.2247-0.50886-1.1547-0.95228 1.0654-0.21818 2.2109-0.13877 3.2008 0.32067 0.46704-0.04598 1.0087-0.60446 1.0909 0.23705 0.25593 0.718 1.543-0.29716 1.3312 0.55591 1.1255-0.16162 2.0025 0.85876 3.1053 0.93334 0.72741 0.38725 1.3769 0.65427 2.1039 0.82366 0.81788 0.71222 0.17215 1.9034 4e-3 2.779-0.42944 1.3553-2.0164 1.6791-2.9627 2.5649-1.4851 1.1323-2.0996 3.0166-2.1739 4.8208 0.10248 0.51502-0.858 1.7426-2e-3 1.4728 0.29147-0.5448 1.0426-0.0849 0.39841 0.37195-0.30974 0.34-0.60947 1.0836 0.16373 0.70274 0.72951 0.61541 0.57694 2.0365-0.14992 2.6473-0.36511 0.50991-1.384 0.36733-0.53021-0.18756 0.93106-0.61006-1.361-0.19968-0.9612 0.59892-0.27727 0.95565-1.1626-1.1908-1.1756 0.0859-0.66526 0.41925-1.323-0.0922-1.8167-0.27887-0.1286 0.29695-0.39411 1.209-0.67014 0.43872l-0.0209-0.20546zm-3.175-0.64583c-0.53927-0.94273-0.84504 0.45577 0 0zm4.3656-0.67706c-1.2791-1.0312-0.0503 0.99537 0 0zm-3.6358-0.41673c-0.40535-0.15054-1.3591-0.59227-1.4678-0.52 0.24165 0.44513 1.1113 0.94909 1.4678 0.52zm7.6154-0.13004c0.55225-0.99948-2.1021 0.53638-0.63412 0.26889 0.2261-0.0254 0.48572-0.079 0.63412-0.26889zm-0.67234-1.0324c-0.35391-0.49718-1.2798 0.49896-0.24277 0.23606 0.10905-0.0297 0.2394-0.10646 0.24277-0.23606zm-5.1594-12.174c-0.38537-0.186-1.5872-1.182-1.5356-0.89169 0.48396 0.4252 1.5441 1.5888 1.9796 1.2595-0.12262-0.14979-0.28565-0.2598-0.44401-0.36783zm2.8921-0.50851c-0.53095 0.03424-1.2962 1.158-0.34214 0.40389 0.12001-0.10614 0.36809-0.21406 0.34214-0.40389z" style="fill:#0b0b0b;stroke-width:.26458"/></g></g></svg>
