<svg width="16.739mm" height="19.094mm" version="1.1" viewBox="0 0 16.739 19.094" xmlns="http://www.w3.org/2000/svg"><g transform="translate(-117.91 -54.65)"><g transform="matrix(.91348 0 0 .91348 98.121 41.078)"><path d="m27.204 35.692c0-0.03734 0.10934-0.44914 0.24298-0.91511l0.24298-0.84721-0.706 0.13229c-0.56337 0.10557-0.91981-0.0811-1.7643-0.924-0.58208-0.58096-1.1645-1.0621-1.2943-1.0693-0.30666-0.01687-1.6177-1.391-1.9889-2.0846-0.78137-1.46 0.24845-7.7179 1.2701-7.7179 0.11947 0 0.70394-0.9914 1.2988-2.2031 1.1933-2.4308 2.3106-3.7811 3.8383-4.6394 0.79319-0.44558 1.4524-0.56587 3.1013-0.56587 3.1958 0 4.6268 0.75051 6.8716 3.604 1.0343 1.3147 1.7341 3.772 1.6651 5.8471-0.05299 1.5951-1.1991 5.4745-1.7108 5.7907-0.13013 0.08042 0.07162 0.38867 0.44834 0.685 0.83178 0.65428 0.82833 1.8429-0.0057 1.9764-0.29104 0.04659-1.3031 0.19496-2.249 0.32972-2.1362 0.30435-2.7942 0.51605-5.3273 1.7139-1.1602 0.54864-2.4272 0.95525-2.9766 0.95525-0.52611 0-0.95656-0.03055-0.95656-0.06789zm-2.6458-5.6206c-0.18116-0.21828-0.49809-0.39688-0.70429-0.39688-0.3081 0-0.31412 0.06893-0.03375 0.38681 0.48107 0.54544 1.1904 0.55511 0.73804 0.01006zm3.354-6.1269c-0.25792-0.25792-0.36095-0.07561-0.5468 0.96749l-0.16499 0.92604 0.44541-0.85725c0.24498-0.47148 0.36485-0.93781 0.26638-1.0363zm-2.0311 0.68729c0-0.29963-0.11906-0.4712-0.26458-0.38126-0.14552 0.08994-0.26458 0.33509-0.26458 0.54478s0.11906 0.38126 0.26458 0.38126 0.26458-0.24515 0.26458-0.54478z" style="fill:#9b9b9b;stroke-width:.26458"/><path d="m27.733 35.289c0-0.25866 0.18598-0.73582 0.41328-1.0603l0.41328-0.59004-0.39261-0.15066c-0.21594-0.08286-0.62995-0.02363-0.92004 0.13162-0.44983 0.24074-0.83244 0.03825-2.6004-1.3762-1.583-1.2665-2.1567-1.9068-2.4274-2.7093-0.54779-1.6239-0.0656-5.5379 0.82213-6.6732 0.18683-0.23895 1.384-0.33073 4.3141-0.33073h4.0555l0.26968 0.46302c0.23056 0.39585 0.27085 0.35746 0.27773-0.26458l8e-3 -0.7276h-3.9688c-2.1828 0-3.9688-0.09258-3.9688-0.20573 0-0.36479 1.6124-3.3385 2.3066-4.2539 0.37025-0.48825 1.2231-1.2404 1.8953-1.6714l1.2221-0.78363 2.249 0.09387c2.9368 0.12258 4.263 0.7376 5.8332 2.7052 0.79652 0.99813 1.3696 2.097 1.7686 3.3913 0.73159 2.3731 0.7338 2.6691 0.03875 5.1788-0.96068 3.4687-0.9966 3.5164-3.3228 4.4089-1.4792 0.56755-1.894 0.81851-1.4555 0.88064 0.33724 0.04779 1.1396-0.16057 1.7831-0.46302 1.5169-0.71303 1.8176-0.69406 2.487 0.15688 0.68908 0.87602 0.49716 1.0792-1.179 1.2483-2.7111 0.27353-4.1942 0.69494-6.5731 1.8677-2.6556 1.3091-3.3488 1.4611-3.3488 0.73396zm1.5098-3.1677c0.45643-0.5457 1.2654-1.449 1.7978-2.0074s0.91154-1.0716 0.84261-1.1405c-0.14788-0.14788-3.8856 3.6389-3.8856 3.9366 0 0.44423 0.45504 0.156 1.2452-0.78874zm-2.1592 0.17885c0.36429-0.58944-3.2656-3.5988-4.0007-3.3167-0.5864 0.22502-0.23441 0.68523 1.7168 2.2446 1.7879 1.4289 2.0014 1.5291 2.2838 1.0721zm1.6926-1.6341c-0.03479-0.76367-3.6891-2.9473-3.6891-2.2045 0 0.36525 0.3618 0.94768 0.58869 0.94768 0.14712 0 0.67431 0.35719 1.1715 0.79375 0.92285 0.81028 1.956 1.0583 1.9289 0.46302zm1.0691-1.794c-0.29831-0.55739-1.6542-1.5795-2.0954-1.5795-0.164 0-0.36749 0.1806-0.4522 0.40133-0.2446 0.63741 1.7375 2.0632 2.4809 1.7846 0.23031-0.08631 0.24987-0.26416 0.06668-0.60644zm-6.0742-2.9685c0.7651-2.2922 0.7763-2.4167 0.22708-2.5225-0.29842-0.05747-0.47972 0.1791-0.60066 0.78378-0.09527 0.47635-0.41798 1.3717-0.71714 1.9897-0.29915 0.61797-0.46832 1.2459-0.37592 1.3954 0.40698 0.65851 0.87125 0.13734 1.4666-1.6464zm1.8238 0.26458c0.78056-1.7194 0.95206-2.8443 0.43361-2.8443-0.4211 0-0.60141 0.3285-1.1721 2.1355-0.6406 2.0282-0.09721 2.5497 0.73852 0.70882zm7.1651 0.04173c0-0.15895-0.2274-0.57808-0.50533-0.93142-0.63471-0.80691-0.92508-0.23507-0.31319 0.61678 0.45687 0.63605 0.81852 0.77506 0.81852 0.31463zm-4.9016-0.7562c0.56306-1.0888 0.53749-2.1944-0.04814-2.0816-0.46409 0.08938-1.2501 2.1985-0.98133 2.6333 0.2631 0.42571 0.62404 0.23226 1.0295-0.55174zm7.0831-0.18215c0.439-0.9635-0.11139-1.9477-1.0892-1.9477-0.45908 0-0.8361 0.16935-0.93171 0.41851-0.70684 1.842 1.2156 3.2966 2.0209 1.5291zm-1.3806-0.48377c-0.36575-0.4407-0.15155-0.93472 0.40529-0.93472 0.41305 0 0.53006 0.93514 0.14666 1.1721-0.12903 0.07975-0.37741-0.02707-0.55194-0.23738z" style="fill:#5d5d5d;stroke-width:.26458"/><path d="m27.912 35.561c-0.2895-0.49167 0.35856-1.3891 1.0031-1.3891 0.36849 0 0.66998-0.11906 0.66998-0.26458 0-0.14552 0.33338-0.26458 0.74083-0.26458 0.40746 0 0.85394-0.10227 0.99219-0.22726s1.2039-0.55197 2.368-0.94883c1.1642-0.39686 2.2992-0.81523 2.5222-0.92972 1.0794-0.554 2.0068-0.56116 2.4973-0.01926 0.26918 0.29745 0.43691 0.59333 0.37273 0.65751-0.06419 0.06419-0.70838 0.17998-1.4315 0.25732-2.5001 0.26739-3.7042 0.58144-5.6805 1.4817-1.0914 0.49715-2.0439 0.9693-2.1167 1.0492-0.13608 0.14947-1.5304 0.796-1.7166 0.796-0.05733 0-0.15681-0.0893-0.22107-0.19844zm-2.0311-2.5797c-0.34177-0.3638-0.72671-0.66146-0.85541-0.66146-0.44031 0-2.5842-2.2021-2.5535-2.6227 0.02471-0.33813 0.05427-0.32974 0.15169 0.04304 0.06655 0.25466 0.2267 0.46302 0.35589 0.46302s0.90167 0.5431 1.7166 1.2069c0.93658 0.76285 1.6872 1.1766 2.0401 1.1245 0.87007-0.12843 0.84482-0.65118-0.07046-1.4591-0.46111-0.407-1.0645-0.94837-1.3408-1.203-0.27635-0.25466-0.57049-0.46302-0.65365-0.46302-0.08315 0-0.34008-0.18889-0.57095-0.41976l-0.41976-0.41976 0.76931-0.61343c0.50819-0.40521 0.83022-0.51487 0.94876-0.32307 0.0987 0.1597 3e-3 0.41942-0.21276 0.57715-0.38838 0.28399-0.25938 1.1989 0.16903 1.1989 0.11618 0 0.71002 0.41672 1.3196 0.92604s1.3225 0.92604 1.5842 0.92604c0.6145 0 0.93917-0.82682 0.46479-1.1836-1.3617-1.0242-1.8425-1.4923-1.6898-1.645 0.09649-0.09649 0.50814 0.1433 0.91477 0.53287 0.89327 0.85581 2.1656 0.97488 2.1656 0.20267 0-0.27811-0.38695-0.83076-0.8599-1.2281-1.4738-1.2382-1.6322-1.5994-1.1485-2.6186 0.2315-0.48785 0.42091-1.1964 0.42091-1.5746 0-0.55707-0.12558-0.68762-0.66146-0.68762-0.47836 0-0.66146 0.14215-0.66146 0.51355 0 0.28245-0.11906 0.58714-0.26458 0.67707-0.15006 0.09274-0.26458-0.12954-0.26458-0.51355 0-0.99515-1.1589-0.95658-1.5185 0.05053-0.62756 1.7577-0.86276 2.6645-0.86276 3.3261 0 0.45367-0.14286 0.70882-0.39688 0.70882-0.5314 0-0.50009-0.51652 0.13216-2.18 0.7231-1.9025 0.70457-2.6443-0.06331-2.5348-0.35077 0.05005-0.62627 0.3005-0.6751 0.61372-0.04537 0.29104-0.18928 0.76729-0.31979 1.0583s-0.28916 0.76729-0.35254 1.0583c-0.06338 0.29104-0.1286 0.05292-0.14494-0.52917-0.04763-1.6972 1.3493-3.4898 1.9554-2.5092 0.0914 0.14789 0.30056 0.18585 0.46479 0.08435 0.53289-0.32935 6.3665-0.11045 6.5938 0.24742 0.5623 0.88517-0.16518 2.3097-1.1795 2.3097-0.23462 0-0.50016 0.11906-0.59009 0.26458-0.08994 0.14552-0.38759 0.26458-0.66146 0.26458-0.27386 0-0.56316 0.10553-0.64287 0.2345-0.25822 0.41782 0.8532 0.51136 1.5822 0.13316 1.1152-0.57857 1.7879-0.45382 2.2875 0.42419l0.44867 0.78851-2.0362 2.0766c-1.1199 1.1421-2.413 2.513-2.8735 3.0463-0.46052 0.53332-0.94579 0.96966-1.0784 0.96966-0.13257 0-0.52067-0.29766-0.86245-0.66146zm3.175-0.14122c0-0.15043 0.9525-1.2847 2.1167-2.5207 2.072-2.1997 2.2228-2.4353 2.1342-3.3355-0.02485-0.25266 0.21645-0.52034 0.56484-0.62661 1.4993-0.45732 2.0382-1.9661 1.0285-2.8799-0.75554-0.68376-1.984-0.4636-2.0963 0.3757-0.183 1.367-0.57291 1.151-0.57291-0.31732v-1.4815l-3.2971-0.19017c-1.8134-0.10459-3.5817-0.11875-3.9295-0.03146-0.3478 0.08729-0.69668 0.09439-0.77529 0.01578-0.19136-0.19136 1.7971-3.7858 2.5279-4.5697 1.1778-1.2632 2.0674-1.6995 3.8469-1.8866 2.839-0.29852 4.7224 0.39084 6.6162 2.4216 0.88765 0.95187 1.3668 1.7708 1.7266 2.9508 0.77608 2.5455 0.81024 3.659 0.1779 5.7982-0.92258 3.1211-0.9722 3.2003-2.3346 3.73-0.68839 0.26764-1.4897 0.58346-1.7808 0.70181-0.29104 0.11835-1.2435 0.47439-2.1167 0.79119-0.87312 0.3168-1.9785 0.74513-2.4564 0.95184-1.0322 0.44647-1.3801 0.47226-1.3801 0.10232zm-2.9963-4.6631c-0.09575-0.09575-0.04149-0.33388 0.12059-0.52917 0.22593-0.27223 0.19453-0.35507-0.13459-0.35507-0.46993 0-0.58809-0.66437-0.16469-0.92604 0.14552-0.08994 0.26458-0.44712 0.26458-0.79375 0-0.34662 0.13643-0.71454 0.30317-0.8176 0.21107-0.13045 0.25306 0.01229 0.13822 0.46983-0.09072 0.36146-0.05491 1.0409 0.07958 1.5098 0.33188 1.1572-0.03054 2.0183-0.60688 1.442z" style="fill:#2f2f2f;stroke-width:.26458"/><path d="m27.998 35.301c0-0.42584 0.631-0.8645 1.2435-0.8645 0.3347 0 0.60854-0.11906 0.60854-0.26458s0.17859-0.26458 0.39688-0.26458c0.21828 0 0.39688 0.11906 0.39688 0.26458s-0.13945 0.26458-0.3099 0.26458c-0.17044 0-0.49786 0.16451-0.7276 0.36558-0.53279 0.4663-1.6083 0.79994-1.6083 0.49892zm3.4396-1.7905c0.18116-0.21828 0.64222-0.39614 1.0246-0.39524l0.69521 0.0016-0.75785 0.39524c-0.9736 0.50776-1.3841 0.50706-0.96194-0.0016zm-1.6816-1.3904c2.1141-2.0396 4.0831-4.3929 4.0048-4.7864-0.05242-0.26322 0.31106-0.7286 0.9115-1.1671 0.74268-0.54233 0.99642-0.91535 0.98988-1.4552-0.01252-1.0321-0.83723-1.9166-1.7871-1.9166-0.87881 0-1.2637 0.34765-1.4646 1.3229-0.0793 0.38491-0.13035 0.16367-0.12211-0.52917 0.0078-0.65484-0.0018-1.3395-0.02138-1.5214-0.02668-0.24831-1.0251-0.33073-4.0065-0.33073h-3.971l0.84711-1.5214c1.0551-1.8948 2.3324-3.4299 3.3881-4.072 1.2977-0.78919 4.6454-0.68939 6.5131 0.19418l1.4506 0.68626-0.34254 0.42161c-0.29451 0.36249-0.27413 0.39594 0.14537 0.23854 0.63485-0.23821 2.2726 1.5244 2.2906 2.4652 7e-3 0.3638 0.24744 1.3633 0.53442 2.2212 0.52696 1.5752 0.44224 2.779-0.29498 4.1913-0.1319 0.25269-0.23982 0.81121-0.23982 1.2412s-0.11906 0.85531-0.26458 0.94525c-0.14552 0.08994-0.26458 0.39462-0.26458 0.67707 0 0.39422-0.18443 0.51355-0.79375 0.51355-0.43656 0-0.79375 0.11906-0.79375 0.26458s-0.29063 0.26458-0.64584 0.26458-0.71943 0.11906-0.80936 0.26458c-0.08994 0.14552-0.39881 0.26458-0.68638 0.26458s-0.81541 0.19168-1.173 0.42597c-0.35756 0.23428-0.81977 0.36086-1.0271 0.28129-0.20736-0.07957-0.44741 0.03875-0.53344 0.26294-0.08603 0.22419-0.32244 0.34391-0.52535 0.26605-0.20291-0.07786-0.58886 0.02506-0.85766 0.22872-0.88287 0.6689-1.2273 0.40755-0.45057-0.34186zm4.0629 0.53825c0.3638-0.06527 0.77457-0.22764 0.91281-0.36084 0.13824-0.1332 0.50138-0.24218 0.80698-0.24218s0.66873-0.10652 0.80698-0.23671c0.44475-0.41884 1.9063-0.61146 2.1121-0.27837 0.27176 0.43971-0.37488 0.77088-1.5144 0.77561-0.53712 0.0022-1.0502 0.12311-1.1401 0.26864-0.08994 0.14552-0.72204 0.24837-1.4047 0.22855-0.71528-0.02077-0.9609-0.08631-0.5797-0.1547zm-6.2177-0.86761c-0.08994-0.14552 0.08866-0.26458 0.39688-0.26458 0.30822 0 0.48681 0.11906 0.39688 0.26458-0.08994 0.14552-0.26853 0.26458-0.39688 0.26458s-0.30694-0.11906-0.39688-0.26458zm2.0327-3.6415c-0.60868-0.63082-1.1067-1.2006-1.1067-1.2663 0-0.06562 0.40969-0.11932 0.91043-0.11932 0.50074 0 0.98401-0.11906 1.0739-0.26458 0.30908-0.50011 1.3158-0.27587 1.6097 0.35856 0.24724 0.53367 0.17182 0.74446-0.54696 1.5288l-0.83374 0.90977zm-1.3876-2.6266c0.14982-0.26334 0.37154-0.89552 0.4927-1.4048l0.22029-0.92604h2.3461l0.07952 0.68411c0.09435 0.81169-0.37184 1.2634-1.4267 1.3823-0.42321 0.04771-1.0428 0.23447-1.3769 0.41502l-0.60741 0.32827z" style="fill:#050505;stroke-width:.26458"/></g></g></svg>
