<svg width="10.948mm" height="11.965mm" version="1.1" viewBox="0 0 10.948 11.965" xmlns="http://www.w3.org/2000/svg"><g transform="translate(-112.45 -97.373)"><g transform="translate(74.819,36.894)"><path d="m43.087 72.391c-1.6643-0.94374-3.3204-1.9018-4.9645-2.8804-0.16516-2.9321 0.04904-1.5833-0.08365-5.2391-0.13069-0.6301 0.13209-1.0907 0.76624-1.3015 1.4984-0.80685 2.9305-1.7337 4.4562-2.4906 1.7574 0.91691 3.4804 1.9284 5.1758 2.9382 0.11512 1.3111 0.02798 2.6538 0.05517 3.9787v2.0091c-1.6753 1.0903-3.4382 2.0436-5.179 3.0254-0.08017 0.0111-0.15268-0.01117-0.22638-0.03981zm0.37616-0.65872c0.70514-0.92205 2.0434-2.133 2.3067-2.9172-1.4947-0.05379-2.9906-0.02145-4.4859-0.03032-0.80851 0.98855 1.0389 1.7167 1.4291 2.5941 0.24768 0.14696 0.47717 0.85893 0.75012 0.35338zm2.5471-3.3838c-0.36079-0.61649-0.94838-1.9001-1.2333-2.0589 0.25606 1.2342-0.79801 1.9715-1.9349 1.5865-0.67644 0.24922-1.3348-0.74254-1.4184 0.39087 0.59847 0.3079 1.5503 0.03763 2.2777 0.14022 0.76994 0.0044 1.5407-0.0028 2.3089-0.05873zm0.4228-0.36319c0.52873-1.41 1.0962-2.8065 1.5643-4.2385-1.422-0.20662-2.87-0.22156-4.3056-0.29654 0.82608 1.5635 1.7395 3.0934 2.6353 4.6084l0.06464 0.0056 0.04139-0.07904zm-7.8213-0.06267c-0.21419-0.2182-0.2232 0.20039 0 0zm3.4064-0.89202c0.51341-0.16954-0.33206-0.84435-0.32163-0.78618-0.53814 0.39338-0.36256 1.382 0.32163 0.78618zm-1.6516-0.01193c1.0479-0.14674 1.1569-1.6283 1.8228-2.3473 0.26821-0.5296 1.1522-1.562-0.05842-1.2567-1.2066 0.11501-2.4187 0.16873-3.6238 0.30229 0.50302 1.0552 0.58598 2.7753 1.5206 3.3398l0.16582 0.0029 0.17304-0.04106zm3.09-1.432c0.42568-0.22028 1.4002 0.23186 0.66756-0.55763-0.33819-0.68642-0.94416-1.9317-1.3444-0.64277-0.1621 0.47413-1.1815 1.4644-0.15572 1.1102 0.27542 0.02976 0.55341 0.18022 0.83254 0.09017z" style="fill:#e1e1e1;stroke-width:.047732"/><path d="m43.087 72.391c-1.6643-0.94374-3.3535-1.8024-4.9976-2.781 0.01851-2.0375-0.94095-0.43998-0.13203-3.0315 0.56529-0.38109 0.10532-1.6483 0.08151-2.307-0.13069-0.6301 0.13209-1.0907 0.76624-1.3015 1.4984-0.80685 2.9305-1.7337 4.4562-2.4906 1.7574 0.91691 3.4804 1.9284 5.1758 2.9382 0.11512 1.3111 0.02798 2.6538 0.05517 3.9787v2.0091c-1.6753 1.0903-3.4382 2.0436-5.179 3.0254-0.08017 0.0111-0.15268-0.01117-0.22638-0.03981zm0.37616-0.65872c0.70514-0.92205 2.0434-2.133 2.3067-2.9172-1.4947-0.05379-2.9906-0.02145-4.4859-0.03032-0.80851 0.98855 1.0389 1.7167 1.4291 2.5941 0.24768 0.14696 0.47717 0.85893 0.75012 0.35338zm-3.3674-3.3771c0.33013-1.444 0.6226 1.4442 0.87417 0.03208 0.3696-0.39373 0.29517-1.5616 0.02791-0.55876-0.04546 1.1013-0.35548-0.0057-0.62749-0.36228-0.22094 0.32005-0.4807 1.4423-0.61222 0.40598 0.1762-0.77149-0.63282-0.47753-0.16596 0.10973 0.0363 0.47168 0.24816 1.3261 0.50358 0.37326zm5.9145-0.0067c-0.36079-0.61649-0.94838-1.9001-1.2333-2.0589 0.25606 1.2342-0.79801 1.9715-1.9349 1.5865-0.67644 0.24922-1.3348-0.74254-1.4184 0.39087 0.59847 0.3079 1.5503 0.03763 2.2777 0.14022 0.76994 0.0044 1.5407-0.0028 2.3089-0.05873zm0.4228-0.36319c0.52873-1.41 1.0962-2.8065 1.5643-4.2385-1.422-0.20662-2.87-0.22156-4.3056-0.29654 0.82608 1.5635 1.7395 3.0934 2.6353 4.6084l0.06464 0.0056 0.04139-0.07904zm-8.4402-0.96928c-0.07894 0.6897 0.83132 0.69056 0.55429 0.85853-0.40203-0.1559-0.10824-0.82088-0.19781-1.2054-0.14131-0.59515 0.48026-0.96805-0.39976-0.75763 0.04085 0.56762 0.07696 0.77962 0.04328 1.1045zm5.2491 0.39649c-0.31509-0.2118-1.165-0.0033-0.39127-0.53009 1.0922-0.61209-0.76314-1.5877-0.57357-0.55591 0.68676-0.78672 0.75773 0.7309 0.0368 0.91601-0.58996 0.4589 0.91626 0.32316 0.92804 0.16999zm0.92091 0.03505c0.98249-0.85436-0.63721-2.494-0.84708-0.82861-0.08531 0.4796 0.3023 1.1825 0.84708 0.82861zm-0.4739-0.12179c-0.4528-0.49275 0.22471-2.0699 0.4712-0.83132 0.03053 0.29506 0.05764 1.2196-0.4712 0.83132zm-1.6706-0.29516c0.51341-0.16954-0.33206-0.84435-0.32163-0.78618-0.53814 0.39338-0.36256 1.382 0.32163 0.78618zm-1.6516-0.01193c1.0479-0.14674 1.1569-1.6283 1.8228-2.3473 0.26821-0.5296 1.1522-1.562-0.05842-1.2567-1.2066 0.11501-2.4187 0.16873-3.6238 0.30229 0.50302 1.0552 0.58598 2.7753 1.5206 3.3398l0.16582 0.0029 0.17304-0.04106zm3.0899-1.432c0.42568-0.22028 1.4002 0.23186 0.66756-0.55763-0.33819-0.68642-0.94416-1.9317-1.3444-0.64277-0.1621 0.47412-1.1815 1.4644-0.15572 1.1102 0.27542 0.02976 0.55342 0.18021 0.83254 0.09017z" style="fill:#cecece;stroke-width:.047732"/><path d="m40.624 70.962c-0.79122-0.68061-2.3424-0.8913-2.5828-1.9396-0.03846-1.8987-0.19948-5.7288 0.85044-6.0372 1.3922-0.86204 2.8313-1.6442 4.2551-2.4519 1.1167 0.32805 2.0324 1.1142 3.0738 1.6159 1.1288 0.66456 2.7649 1.1635 2.2695 2.7825-3.8e-4 1.4924 0.02982 2.9859-0.04736 4.477-1.3328 0.95092-2.8227 1.6628-4.223 2.5097-1.1042 1.0451-2.2128-0.31759-3.2695-0.77151l-0.16286-0.09291-0.16323-0.09201zm2.9352 0.76639c0.7219-0.96748 2.0173-2.0441 2.3088-3.0176-1.5247-0.0041-3.0531-0.01615-4.5793-0.02276-0.98139 0.90605 0.7098 1.6572 1.1615 2.5002 0.33623 0.21597 0.69707 1.223 1.109 0.54016zm-1.3205-0.30681c-0.79581-0.6604-1.4095-2.3725-2.3868-2.2017-0.62296-0.41241-1.6003 0.33775-0.47898 0.6129 0.95624 0.50384 1.906 1.1948 2.8657 1.5888zm4.084-1.1735c0.61044-0.33984 2.0093-0.95948 0.65594-1.2511-1.1492-0.19744-1.5874 1.3735-2.3913 2.0074-0.59864 0.81036 1.253-0.56269 1.7354-0.75635zm-7.3768-1.3917c0.94288-0.25194-0.37129-1.5025 0.27041-2.1102-0.37383-1.3586-0.87319 0.44438-0.39209 0.96039 0.4129 0.61216-1.0654 0.69363-0.32278 1.3245 0.15547-0.04052 0.28973-0.13286 0.44446-0.17466zm9.2124-1.9614c-0.05449-0.53467 0.12013-2.1625-0.14976-1.9345-0.27873 1.1636-1.4919 2.6265-1.0022 3.661 0.69182 0.59584 1.4 0.45463 1.152-0.46057l-1e-6 -1.266zm-8.0514 1.4479c0.29845-1.3741 0.6803 1.499 0.89943 0.01408 0.31227-0.3446 0.20619-1.4895 0.0328-0.5377-0.23568 1.1882-0.35128-0.24535-0.73051-0.34282-0.10958 0.41357-0.51202 1.3672-0.53415 0.3434 0.13118-0.67441-0.68507-0.47164-0.22291 0.09287 0.08082 0.44093 0.29404 1.4266 0.55534 0.43017zm5.9234 0.12616c-0.37373-1.2659-1.2909-2.3374-1.8714-3.534-0.3838-0.64722-0.92247-2.0569-1.3927-0.68135-0.14247 0.54751-1.4968 1.9417-0.15932 1.2407 0.8027 0.24259 2.3246-0.3692 2.1365 1.0739 0.30222 1.2879-1.1239 1.4657-2.0518 1.3172-0.66607 0.1023-1.2319-0.63673-1.3049 0.4502 0.92627 0.38 2.7009 0.06077 3.947 0.15198 0.23225-0.0044 0.46449-0.01034 0.69662-0.01858zm0.81818-1.3553c0.26471-1.1149 1.247-2.4811 1.0206-3.4504-1.4037-0.17766-2.8356-0.22515-4.2547-0.29083 0.56498 1.3327 1.4232 2.5327 2.1111 3.8099 0.2217 0.51307 0.78347 1.456 0.95411 0.37904 0.05007-0.15091 0.08264-0.31138 0.16894-0.44772zm-8.8292 0.39086c0.65642-0.22925 0.10106 0.72204 0.46215 0.34833-0.39181-0.4075-0.02569-1.7943-0.04171-1.9667-0.4824 0.69228-0.348 1.0654-0.42044 1.6184zm5.222-0.09257c-0.25387-0.22926-1.1619 0.02255-0.42-0.48451 1.043-0.53386-0.60811-1.7307-0.58729-0.64553 1.2486-0.66846 0.14354 0.93905 0.0373 1.2253 0.27209-0.05938 0.82979 0.17505 0.97-0.09525zm0.89657 0.05677c0.97606-0.76276-0.48537-2.5438-0.81359-0.92798-0.12959 0.48823 0.22709 1.2456 0.81359 0.92798zm-0.45146-0.14634c-0.50214-0.5713 0.35271-2.0742 0.48007-0.73065 0.02736 0.26388-0.0063 1.1495-0.48007 0.73065zm-1.6302-0.32174c0.59316-0.37436-0.68381-0.51017-0.21641-1.0947-0.44513 0.46-0.84021 1.4791 0.09966 1.2617zm-1.6962 0.02953c1.0634 0.03897 1.1127-1.4195 1.7255-2.0511 0.33765-0.65137 1.505-2.0114-0.02603-1.6255-1.1925 0.11661-2.3928 0.15162-3.5835 0.29465 0.15425 1.0399 0.6709 1.9882 0.99763 2.9859 0.04616 0.48147 0.48041 0.49975 0.88647 0.39614zm-1.7444-1.8378c-0.63007-1.275 0.0607 1.2296 0 0zm8.8166-1.9499c-1.2849-0.80849-2.6027-1.565-3.9507-2.2634 0.02061 0.89172-0.49921 2.4526 0.9418 2.1203 0.99337 0.06011 2.0444 0.19321 3.0089 0.14315zm-6.2434-0.11641c0.83153-0.06769 2.2019 0.14219 1.8851-1.1718 0.24408-0.84305-0.2407-1.1519-0.84406-0.56094-1.0504 0.59462-2.1023 1.1879-3.1244 1.8304 0.69642 0.04265 1.3887-0.07164 2.0833-0.09768z" style="fill:#aeaeae;stroke-width:.047732"/><path d="m40.664 70.981c-0.79006-0.69665-2.439-0.91827-2.5959-2.0204-0.06536-1.8369-0.10218-2.566-0.02734-3.5575 0.02154-0.99913-0.16628-2.2713 1.133-2.5508 1.3295-0.76727 2.66-1.5337 3.9881-2.3038 1.052 0.34692 1.938 1.0839 2.9314 1.5806 0.77477 0.44226 1.5518 0.88058 2.3307 1.3154 0.04806 1.9932 0.01669 3.9871 0.02181 5.9806-1.6703 1.0824-3.4226 2.0391-5.1804 2.9714-0.91643-0.37637-1.7361-0.94112-2.6015-1.4156zm2.9421 0.75132c0.66049-0.95712 2.2606-2.1566 2.2515-3.0215-1.0586-0.16284-2.1445-0.01349-3.2147-0.06914-0.82542-0.08957-1.5549-0.03586-1.8164 0.75658 0.85298 0.82267 1.4904 1.9425 2.4371 2.6233 0.1492-0.05339 0.21582-0.20565 0.34244-0.28917zm-1.1101-0.1432c-0.75525-0.74556-1.5725-2.1827-2.3183-2.4702-0.41768 0.19994-1.5233-0.36242-1.4736 0.401 1.2458 0.6981 2.5158 1.4716 3.7394 2.1411l0.06191-0.0247-0.0095-0.04714zm1.7853-0.10305c1.2091-0.69245 2.4395-1.3514 3.6027-2.1206-0.89988-0.83464-1.9188-0.4558-2.4617 0.53729-0.36211 0.47129-1.3249 1.3798-1.2745 1.6511zm3.9129-4.7186c-0.04265-0.66809 0.09904-2.0162-0.09584-2.2537-0.51863 1.1469-0.89952 2.3529-1.37 3.519-0.39706 0.85095 1.9579 1.6483 1.4578 0.27959l0.0081-1.5449zm-9.2526 2.1783c1.0641-0.30197-0.52809-1.5515 0.37511-2.008 0.13818-0.90743-0.9058-1.0624-0.65755-0.04336 0.01444 0.60897 0.5908 1.453-0.37386 1.5081-0.16416 0.49968 0.12345 0.9597 0.6563 0.54324zm1.1567-0.56666c0.29052-1.3858 0.65149 1.339 0.9041 0.03328 0.14867-0.30795 0.44317-1.401 0.04697-0.85159 0.10706 0.70712-0.4456 1.024-0.47444 0.14963-0.38218-0.90529-0.62982 1.5336-0.82396 0.11651 0.22818-0.83077-0.64225-0.27769-0.17716 0.27159 0.14236 0.46284 0.27485 1.1589 0.52448 0.28058zm5.9793 0.13809c-0.33991-1.3048-1.2977-2.4031-1.8919-3.624-0.40403-0.60874-0.90996-2.1135-1.4131-0.75172-0.51248 0.96884-1.1108 1.8897-1.6114 2.8654 0.40609 0.42443 1.1974 0.15511 1.0238-0.35782-1.0204-0.39744 0.39885-1.7015 1.0939-1.0106 1.1198-0.66057 1.8627 0.77202 1.3672 1.6897-0.47895 0.89598-1.7891 0.54394-2.6298 0.47236-0.58952-0.71155-1.0437 1.2945 0.03707 0.73487 1.3413 0.01389 2.6832 0.02406 4.0242-0.01825zm0.39615-0.31709c0.56217-1.4565 1.1554-2.9031 1.6241-4.3935-0.78673-0.57291-1.8935-0.18399-2.8138-0.40872-0.74771-0.0243-2.3546-0.41108-1.357 0.77625 0.8251 1.3369 1.5139 2.7573 2.3845 4.0681l0.08795 0.01113 0.07423-0.05326zm-8.4919-1.2723c-0.02493 0.68142-0.38022 1.402 0.56729 0.95271-0.3591-0.0875-0.5428-1.3215-0.56729-0.95271zm5.2599 0.49659c-0.22587-0.25231-1.1368 0.01382-0.40424-0.5031 1.1918-0.77986-0.977-1.4529-0.50771-0.68567 1.0462-0.51874 0.20174 0.94891-0.14705 1.2222 0.22116 0.1158 0.94198 0.20598 1.059-0.03344zm0.96681-0.01193c0.81958-0.69749-0.40771-2.4037-0.85862-1.031-0.18974 0.52808 0.16887 1.5479 0.85862 1.031zm-0.46095-0.03795c-0.54579-0.45957 0.16905-2.1536 0.38884-0.85792 0.01346 0.27026 0.12074 1.0417-0.38884 0.85792zm-3.4114-0.34012c1.2803 0.13042 1.3799-1.8881 2.1489-2.6394 0.3773-0.51214 0.93395-1.4446-0.19228-1.1051-1.2343 0.22215-2.8335-0.0889-3.8329 0.50908 0.09299 0.96226 0.70145 1.7999 0.91609 2.7458 0.11337 0.4416 0.54379 0.66894 0.96022 0.48965zm-1.6333-1.8415c-0.04844-0.47783-0.56967-1.0871-0.41191-0.18265-0.39751 0.54004 0.92516 0.83788 0.41191 0.18265zm8.9542-1.8881c-1.3523-0.86578-2.7416-1.6733-4.1571-2.4312-0.19628 0.77628-0.59734 2.677 0.91367 2.3054 1.0662 0.0419 2.2209 0.24352 3.2434 0.12578zm-6.4591-0.09802c0.94484-0.01842 2.376 0.01561 1.9492-1.3897 0.07122-0.64377 0.05179-1.2573-0.66598-0.66114-1.2051 0.71226-2.4447 1.368-3.6198 2.1306 0.77656 0.12677 1.5579-0.07135 2.3366-0.07975z" style="fill:#8e8e8e;stroke-width:.047732"/><path d="m40.736 71.001c-4.0963-2.5159-1.0763-0.88279 1.2461 0.4603 0.98734 0.986 2.0942 0.24815 3.0415-0.32824 1.0821-0.67028 2.24-1.2242 3.2541-2.0001-9e-3 -1.6238 0.07566-3.2495-0.03234-4.8716-0.10081-0.45053-0.54146-1.3828 0.21335-0.6847-0.05975 1.9341 0.05151 3.9305-0.07361 5.8869-1.6304 1.0091-3.3063 1.9416-4.9678 2.8981-0.94078-0.143-1.642-0.8916-2.5-1.2558l-0.18134-0.10481zm1.4762-4.3457c-1.0357-0.33266 0.31643-1.733 0.99504-0.98631 1.3879-0.84088 2.1454 1.3625 1.0776 2.1115-0.86086 0.20913-2.0133 0.13592-2.6509-0.13029-0.32013 0.21131 0.53074-0.61427 0.57826-0.9949zm1.0298 0.76962c-0.22569-0.25237-1.1368 0.0139-0.40436-0.50297 0.99616-0.53506-0.3475-1.6354-0.63239-0.7102 0.29579-0.24897 0.94852 0.10305 0.4867 0.67646-0.73973 0.34983-0.53268 0.89687 0.26571 0.66732 0.06559 0.0214 0.31612 0.0175 0.28434-0.13061zm0.9105 0.05815c0.94897-0.70151-0.41495-2.5721-0.81772-1.0198-0.14832 0.52757 0.15689 1.3184 0.81772 1.0198zm-0.40583-0.10922c-0.50978-0.42472 0.13826-2.0692 0.37254-0.88394 0.0039 0.26126 0.14044 1.0799-0.37254 0.88394zm2.2795 1.6456c-0.15597-0.75398 1.0163-0.60088 0.23313-0.16939-0.04458 0.01799-0.3551 0.3737-0.23313 0.16939zm-7.8158-4.9046c-0.42782-0.6112 0.78402-1.1646 0.15913-0.36877 0.0142-0.0019-0.01001 0.50321-0.15913 0.36877zm5.0789-0.71233c-0.91951-0.53014 0.81687-0.27645 0 0zm-0.13906-2.6315c-0.13631-0.44344 0.61259 0.21382 0-1e-5z" style="fill:#616161;stroke-width:.047732"/><path d="m43.134 72.426c-0.33422-0.45396 0.98406-0.30975 1.2338-0.76793 1.3261-0.71296 2.614-1.4989 3.9108-2.2582-0.26488 0.5457-1.5742 0.99032-2.2439 1.4803-0.93471 0.51777-1.8424 1.118-2.8057 1.5642l-0.06232-0.01204-0.03268-0.0063zm-1.1596-4.5651c-0.64302-0.47597 0.86312-1.1568-0.12395-1.439-0.08985-1.3584 1.4831-0.53188 2.2092-0.84582 1.1212 0.29347 0.86873 2.4554-0.34895 2.3427-0.56931-0.11252-1.1613 0.03009-1.7363-0.05786zm2.1257-0.29904c0.98203-0.62667-0.18412-2.6358-0.79728-1.1305-0.16366 0.47886 0.13123 1.4796 0.79728 1.1305zm-0.34775-0.16028c-0.46072-0.39597 0.0541-2.0464 0.36688-0.9161-0.0055 0.26818 0.13792 1.1078-0.36688 0.9161zm-0.47859 0.05605c-0.16368-0.31406-1.2146 0.1264-0.48848-0.43723 1.214-0.54364-0.72256-1.8148-0.5363-0.64686 0.90699-0.73727 0.54182 0.73728-0.02672 0.98038-0.29219 0.37592 1.0921 0.31114 1.0515 0.1037z" style="fill:#050505;stroke-width:.047732"/></g></g></svg>
