<svg width="17.524mm" height="11.954mm" version="1.1" viewBox="0 0 17.524 11.954" xmlns="http://www.w3.org/2000/svg"><g transform="translate(-105.88 -97.373)"><g transform="translate(74.819 36.894)"><path d="m43.087 72.391c-1.6643-0.94374-3.3204-1.9018-4.9645-2.8804-0.17538-0.63215 0.16527-1.5213-0.83749-1.2068-1.0355 0.05902-2.0586-0.12437-3.0929 0.01328-0.97982-0.02395-1.9648 0.05027-2.9413-0.05282-0.39314-0.47385 0.26401-1.1561 0.05785-1.806-0.86859-0.93476 1.0939-1.4736 1.2559-0.28929 0.36829 1.0871 0.50621-1.2108 1.4766-0.67943 0.6225-0.03246 0.27431 0.96457 1.0888 0.64575 0.7403 0.42022 0.15882-1.0219 1.1479-0.65358 0.81742-0.06647 0.83824 1.9312 1.2654 0.45083 0.56529-0.38109 0.5194-1.0023 0.49559-1.661-0.13069-0.6301 0.13209-1.0907 0.76624-1.3015 1.4984-0.80685 2.9305-1.7337 4.4562-2.4906 1.7574 0.91691 3.4804 1.9284 5.1758 2.9382 0.11512 1.3111 0.02798 2.6538 0.05517 3.9787v2.0091c-1.6753 1.0903-3.4382 2.0436-5.179 3.0254-0.08017 0.0111-0.15268-0.01117-0.22638-0.03981zm0.37616-0.65872c0.70514-0.92205 2.0434-2.133 2.3067-2.9172-1.4947-0.05379-2.9906-0.02145-4.4859-0.03032-0.80851 0.98855 1.0389 1.7167 1.4291 2.5941 0.24768 0.14696 0.47717 0.85893 0.75012 0.35338zm2.5471-3.3838c-0.36079-0.61649-0.94838-1.9001-1.2333-2.0589 0.25606 1.2342-0.79801 1.9715-1.9349 1.5865-0.67644 0.24922-1.3348-0.74254-1.4184 0.39087 0.59847 0.3079 1.5503 0.03763 2.2777 0.14022 0.76994 0.0044 1.5407-0.0028 2.3089-0.05873zm0.4228-0.36319c0.52873-1.41 1.0962-2.8065 1.5643-4.2385-1.422-0.20662-2.87-0.22156-4.3056-0.29654 0.82608 1.5635 1.7395 3.0934 2.6353 4.6084l0.06464 0.0056 0.04139-0.07904zm-14.838-0.05967c-0.19743-0.2083-0.25889 0.20467 0 0zm0.57279 0.01016c-0.21501-0.21639-0.22451 0.19836 0 0zm1.2649-0.01016c-0.12959-0.20613-0.25664 0.1998 0 0zm3.1742 0c-0.19743-0.20829-0.2589 0.20467 0 0zm2.0048-3e-3c-0.21419-0.2182-0.2232 0.20039 0 0zm-3.4177-0.04134c-0.41538-0.12242-0.45671 0.1595 0 0zm-0.01906-0.67168c-0.21762-0.7248-0.18524 0.7972 0 0zm6.8432-0.179c0.51341-0.16954-0.33206-0.84435-0.32163-0.78618-0.53814 0.39338-0.36256 1.382 0.32163 0.78618zm-1.6516-0.01193c1.0479-0.14674 1.1569-1.6283 1.8228-2.3473 0.26821-0.5296 1.1522-1.562-0.05842-1.2567-1.2066 0.11501-2.4187 0.16873-3.6238 0.30229 0.50302 1.0552 0.58598 2.7753 1.5206 3.3398l0.16582 0.0029 0.17304-0.04106zm-5.2465-0.4719c-0.31464-0.19003-0.45829 0.19555 0 0zm-0.94752-0.61578c-0.21499-0.21639-0.22453 0.19838 0 0zm9.284-0.34428c0.42568-0.22028 1.4002 0.23186 0.66756-0.55763-0.33819-0.68642-0.94416-1.9317-1.3444-0.64277-0.1621 0.47413-1.1815 1.4644-0.15572 1.1102 0.27542 0.02976 0.55341 0.18022 0.83254 0.09017z" style="fill:#e1e1e1;stroke-width:.047732"/><path d="m43.087 72.391c-1.6643-0.94374-3.3204-1.9018-4.9645-2.8804-0.17538-0.63215 0.16527-1.5213-0.83749-1.2068-1.0355 0.05902-2.0586-0.12437-3.0929 0.01328-0.97982-0.02395-1.9648 0.05027-2.9413-0.05282-0.39314-0.47385 0.26401-1.1561 0.05785-1.806-0.86859-0.93476 1.0939-1.4736 1.2559-0.28929 0.36829 1.0871 0.50621-1.2108 1.4766-0.67943 0.6225-0.03246 0.27431 0.96457 1.0888 0.64575 0.7403 0.42022 0.15882-1.0219 1.1479-0.65358 0.81742-0.06647 0.83824 1.9312 1.2654 0.45083 0.56529-0.38109 0.5194-1.0023 0.49559-1.661-0.13069-0.6301 0.13209-1.0907 0.76624-1.3015 1.4984-0.80685 2.9305-1.7337 4.4562-2.4906 1.7574 0.91691 3.4804 1.9284 5.1758 2.9382 0.11512 1.3111 0.02798 2.6538 0.05517 3.9787v2.0091c-1.6753 1.0903-3.4382 2.0436-5.179 3.0254-0.08017 0.0111-0.15268-0.01117-0.22638-0.03981zm0.37616-0.65872c0.70514-0.92205 2.0434-2.133 2.3067-2.9172-1.4947-0.05379-2.9906-0.02145-4.4859-0.03032-0.80851 0.98855 1.0389 1.7167 1.4291 2.5941 0.24768 0.14696 0.47717 0.85893 0.75012 0.35338zm-3.3674-3.3771c0.33013-1.444 0.6226 1.4442 0.87417 0.03208 0.3696-0.39373 0.29517-1.5616 0.02791-0.55876-0.04546 1.1013-0.35548-0.0057-0.62749-0.36228-0.22094 0.32005-0.4807 1.4423-0.61222 0.40598 0.1762-0.77149-0.63282-0.47753-0.16596 0.10973 0.0363 0.47168 0.24816 1.3261 0.50358 0.37326zm5.9145-0.0067c-0.36079-0.61649-0.94838-1.9001-1.2333-2.0589 0.25606 1.2342-0.79801 1.9715-1.9349 1.5865-0.67644 0.24922-1.3348-0.74254-1.4184 0.39087 0.59847 0.3079 1.5503 0.03763 2.2777 0.14022 0.76994 0.0044 1.5407-0.0028 2.3089-0.05873zm0.4228-0.36319c0.52873-1.41 1.0962-2.8065 1.5643-4.2385-1.422-0.20662-2.87-0.22156-4.3056-0.29654 0.82608 1.5635 1.7395 3.0934 2.6353 4.6084l0.06464 0.0056 0.04139-0.07904zm-14.265-0.065c-0.61922-0.0862-0.27079-2.3226 0.01082-0.91122 0.22165 0.59877 0.64465 1.3343 0.88068 0.32849 0.12548-0.42926 0.61001-1.2964 0.49424-0.32155-0.07894 0.6897-0.3043 1.2281 0.55429 0.85853-0.40203-0.15591-0.10824-0.82088-0.1978-1.2054-0.1413-0.59516 0.48025-0.96806-0.39979-0.75763-0.30648 0.45366-0.64957 2.1484-1.0308 0.92551-0.24571-0.41031-0.38282-1.2942-1.0212-0.89457 0.51242 0.40644 0.09552 1.8134 0.1344 2.0022 0.19167 0.01944 0.38568 0.0084 0.57519-0.02438zm4.4391 0c-0.61922-0.0862-0.27079-2.3226 0.01082-0.91122 0.22165 0.59877 0.64465 1.3343 0.88068 0.32849 0.12548-0.42926 0.61001-1.2964 0.49424-0.32155-0.07894 0.6897-0.3043 1.2281 0.55429 0.85853-0.40203-0.1559-0.10824-0.82088-0.19781-1.2054-0.14131-0.59515 0.48026-0.96805-0.39976-0.75763-0.30648 0.45366-0.64957 2.1484-1.0308 0.92551-0.24572-0.41031-0.38285-1.2942-1.0212-0.89456 0.51242 0.40644 0.09553 1.8134 0.1344 2.0022 0.19167 0.01944 0.38568 0.0084 0.57519-0.02439zm-1.2398-0.09077c0.98028-0.60309-0.18265-1.8002-0.99937-1.3155 0.16149 0.75395-0.36906 1.9256 0.99937 1.3155zm-0.63371 0.01691c-0.33426-0.57825-0.06175-1.9064 0.73305-0.97534 0.20282 0.46446-0.17463 1.1422-0.73305 0.97534zm0.44152-0.63679c-0.21762-0.7248-0.18524 0.7972 0 0zm8.0668 0.20286c-0.31509-0.2118-1.165-0.0033-0.39127-0.53009 1.0922-0.61209-0.76314-1.5877-0.57357-0.55591 0.68676-0.78672 0.75773 0.7309 0.0368 0.91601-0.58996 0.4589 0.91626 0.32316 0.92804 0.16999zm0.92091 0.03505c0.98249-0.85436-0.63721-2.494-0.84708-0.82861-0.08531 0.4796 0.3023 1.1825 0.84708 0.82861zm-0.4739-0.12179c-0.4528-0.49275 0.22471-2.0699 0.4712-0.83132 0.03053 0.29506 0.05764 1.2196-0.4712 0.83132zm-1.6706-0.29516c0.51341-0.16954-0.33206-0.84435-0.32163-0.78618-0.53814 0.39338-0.36256 1.382 0.32163 0.78618zm-1.6516-0.01193c1.0479-0.14674 1.1569-1.6283 1.8228-2.3473 0.26821-0.5296 1.1522-1.562-0.05842-1.2567-1.2066 0.11501-2.4187 0.16873-3.6238 0.30229 0.50302 1.0552 0.58598 2.7753 1.5206 3.3398l0.16582 0.0029 0.17304-0.04106zm3.0899-1.432c0.42568-0.22028 1.4002 0.23186 0.66756-0.55763-0.33819-0.68642-0.94416-1.9317-1.3444-0.64277-0.1621 0.47412-1.1815 1.4644-0.15572 1.1102 0.27542 0.02976 0.55342 0.18021 0.83254 0.09017z" style="fill:#cecece;stroke-width:.047732"/><path d="m40.624 70.962c-0.79122-0.68061-2.3424-0.8913-2.5828-1.9396 0.25278-1.4141-1.8331-0.40452-2.6655-0.7859-1.4071-0.05832-3.1056 0.39582-4.3189-0.22602 0.28125-0.53302 0.2742-1.1011 0.25185-1.7028-0.91222-0.90208 1.3755-1.2258 1.2809-0.06385 0.41607 0.82307 0.53616-1.2942 1.4337-0.77721 0.53856 0.3769 0.67544 0.81872 1.4777 0.75306 0.09969 0.06173-0.12018-0.84582 0.55119-0.74339 0.9484-0.35698 1.0634 1.962 1.4993 0.42783 1.0918-0.64394-0.21191-2.5481 1.3402-2.9189 1.3922-0.86204 2.8313-1.6442 4.2551-2.4519 1.1167 0.32805 2.0324 1.1142 3.0738 1.6159 1.1288 0.66456 2.7649 1.1635 2.2695 2.7825-3.8e-4 1.4924 0.02982 2.9859-0.04736 4.477-1.3328 0.95092-2.8227 1.6628-4.223 2.5097-1.1042 1.0451-2.2128-0.31759-3.2695-0.77151l-0.16286-0.09291-0.16323-0.09201zm2.9352 0.76639c0.7219-0.96748 2.0173-2.0441 2.3088-3.0176-1.5247-0.0041-3.0531-0.01615-4.5793-0.02276-0.98139 0.90605 0.7098 1.6572 1.1615 2.5002 0.33623 0.21597 0.69707 1.223 1.109 0.54016zm-1.3205-0.30681c-0.79581-0.6604-1.4095-2.3725-2.3868-2.2017-0.62296-0.41241-1.6003 0.33775-0.47898 0.6129 0.95624 0.50384 1.906 1.1948 2.8657 1.5888zm4.084-1.1735c0.61044-0.33984 2.0093-0.95948 0.65594-1.2511-1.1492-0.19744-1.5874 1.3735-2.3913 2.0074-0.59864 0.81036 1.253-0.56269 1.7354-0.75635zm-7.3768-1.3917c0.94288-0.25194-0.37129-1.5025 0.27041-2.1102-0.37383-1.3586-0.87319 0.44438-0.39209 0.96039 0.4129 0.61216-1.0654 0.69363-0.32278 1.3245 0.15547-0.04052 0.28973-0.13286 0.44446-0.17466zm9.2124-1.9614c-0.05449-0.53467 0.12013-2.1625-0.14976-1.9345-0.27873 1.1636-1.4919 2.6265-1.0022 3.661 0.69182 0.59584 1.4 0.45463 1.152-0.46057 0-0.42199-1e-6 -0.84398-1e-6 -1.266zm-8.0514 1.4479c0.29845-1.3741 0.6803 1.499 0.89943 0.01408 0.31227-0.3446 0.20619-1.4895 0.0328-0.5377-0.23568 1.1882-0.35128-0.24535-0.73051-0.34282-0.10958 0.41357-0.51202 1.3672-0.53415 0.3434 0.13118-0.67441-0.68507-0.47164-0.22291 0.09287 0.08082 0.44093 0.29404 1.4266 0.55534 0.43017zm5.9234 0.12616c-0.37373-1.2659-1.2909-2.3374-1.8714-3.534-0.3838-0.64722-0.92247-2.0569-1.3927-0.68135-0.14247 0.54751-1.4968 1.9417-0.15932 1.2407 0.8027 0.24259 2.3246-0.3692 2.1365 1.0739 0.30222 1.2879-1.1239 1.4657-2.0518 1.3172-0.66607 0.1023-1.2319-0.63673-1.3049 0.4502 0.92627 0.38 2.7009 0.06077 3.947 0.15198 0.23225-0.0044 0.46449-0.01034 0.69662-0.01858zm0.81818-1.3553c0.26471-1.1149 1.247-2.4811 1.0206-3.4504-1.4037-0.17766-2.8356-0.22515-4.2547-0.29083 0.56498 1.3327 1.4232 2.5327 2.1111 3.8099 0.2217 0.51307 0.78347 1.456 0.95411 0.37904 0.05007-0.15091 0.08264-0.31138 0.16894-0.44772zm-14.681 0.80863c-0.57312-0.15198-0.16755-1.0053-0.27823-1.4655 0.28832 0.30956 0.75414 2.2515 1.1527 0.92924 0.16072-0.56652 0.67857-1.3417 0.52168-0.26245-0.38796 0.6229 0.11762 1.103 0.47871 0.72929-0.39181-0.4075-0.02568-1.7943-0.04171-1.9667-0.9821-0.42434-0.92042 2.4404-1.519 0.94845-0.24289-0.4161-0.38103-1.2927-1.0238-0.8933 0.85053 0.38659-0.62495 2.4811 0.7096 1.981zm4.4391 0c-0.57312-0.15198-0.16755-1.0053-0.27823-1.4655 0.28832 0.30956 0.75414 2.2515 1.1527 0.92924 0.16072-0.56653 0.67858-1.3417 0.52169-0.26245-0.38796 0.6229 0.11762 1.103 0.47871 0.72929-0.39181-0.4075-0.02569-1.7943-0.04171-1.9667-0.9821-0.42434-0.92042 2.4404-1.519 0.94845-0.24289-0.4161-0.38103-1.2927-1.0238-0.8933 0.85053 0.38658-0.62494 2.481 0.70959 1.981zm-1.2593-0.07466c1.2701-0.61246-0.71409-2.1313-0.95691-1.0472-0.01503 0.87631-0.17724 1.4603 0.95691 1.0472zm-0.61425-0.0033c-0.5799-0.80152 0.36897-1.9578 0.7835-0.71981 0.05102 0.44689-0.3351 0.82856-0.7835 0.71981zm0.44152-0.64044c-0.15167-0.65366-0.18095 0.7413-2.2e-5 5e-6zm8.0668 0.20808c-0.25387-0.22926-1.1619 0.02255-0.42-0.48451 1.043-0.53386-0.60811-1.7307-0.58729-0.64553 1.2486-0.66846 0.14354 0.93905 0.0373 1.2253 0.27209-0.05938 0.82979 0.17505 0.97-0.09525zm0.89657 0.05677c0.97606-0.76276-0.48537-2.5438-0.81359-0.92798-0.12959 0.48823 0.22709 1.2456 0.81359 0.92798zm-0.45146-0.14634c-0.50214-0.5713 0.35271-2.0742 0.48007-0.73065 0.02736 0.26388-0.0063 1.1495-0.48007 0.73065zm-1.6302-0.32174c0.59316-0.37436-0.68381-0.51017-0.21641-1.0947-0.44513 0.46-0.84021 1.4791 0.09966 1.2617l0.11675-0.167zm-1.6962 0.02953c1.0634 0.03897 1.1127-1.4195 1.7255-2.0511 0.33765-0.65137 1.505-2.0114-0.02603-1.6255-1.1925 0.11661-2.3928 0.15162-3.5835 0.29465 0.15425 1.0399 0.6709 1.9882 0.99763 2.9859 0.04616 0.48147 0.48041 0.49975 0.88647 0.39614zm-1.7444-1.8378c-0.63007-1.275 0.0607 1.2296 0 0zm8.8166-1.9499c-1.2849-0.80849-2.6027-1.565-3.9507-2.2634 0.02061 0.89172-0.49921 2.4526 0.9418 2.1203 0.99337 0.06011 2.0444 0.19321 3.0089 0.14315zm-6.2434-0.11641c0.83153-0.06769 2.2019 0.14219 1.8851-1.1718 0.24408-0.84305-0.2407-1.1519-0.84406-0.56094-1.0504 0.59462-2.1023 1.1879-3.1244 1.8304 0.69642 0.04265 1.3887-0.07164 2.0833-0.09768z" style="fill:#aeaeae;stroke-width:.047732"/><path d="m40.664 70.981c-0.79006-0.69665-2.439-0.91827-2.5959-2.0204 0.23253-1.3054-1.7741-0.35623-2.5054-0.74791-1.3238 0.17601-2.6589 0.02973-3.9854 0.09122-1.1614-0.2035 0.36404-1.6261-0.50228-2.2811 0.29867-1.153 1.6598-0.25796 1.7059 0.6381-0.05599-0.97716 1.6476-1.8 1.7259-0.51835 0.45233-0.16067 1.411 0.45161 0.99697-0.32029 0.54786-0.72116 1.4372-0.23183 1.565 0.52095 0.31813 0.81963 0.39145-1.0047 0.97197-0.94008 0.02154-0.99913-0.16628-2.2713 1.133-2.5508 1.3295-0.76727 2.66-1.5337 3.9881-2.3038 1.052 0.34692 1.938 1.0839 2.9314 1.5806 0.77477 0.44226 1.5518 0.88058 2.3307 1.3154 0.04806 1.9932 0.01669 3.9871 0.02181 5.9806-1.6703 1.0824-3.4226 2.0391-5.1804 2.9714-0.91643-0.37637-1.7361-0.94112-2.6015-1.4156zm2.9421 0.75132c0.66049-0.95712 2.2606-2.1566 2.2515-3.0215-1.0586-0.16284-2.1445-0.01349-3.2147-0.06914-0.82542-0.08957-1.5549-0.03586-1.8164 0.75658 0.85298 0.82267 1.4904 1.9425 2.4371 2.6233 0.1492-0.05339 0.21582-0.20565 0.34244-0.28917zm-1.1101-0.1432c-0.75525-0.74556-1.5725-2.1827-2.3183-2.4702-0.41768 0.19994-1.5233-0.36242-1.4736 0.401 1.2458 0.6981 2.5158 1.4716 3.7394 2.1411l0.06191-0.0247-0.0095-0.04714zm1.7853-0.10305c1.2091-0.69245 2.4395-1.3514 3.6027-2.1206-0.89988-0.83464-1.9188-0.4558-2.4617 0.53729-0.36211 0.47129-1.3249 1.3798-1.2745 1.6511zm3.9129-4.7186c-0.04265-0.66809 0.09904-2.0162-0.09584-2.2537-0.51863 1.1469-0.89952 2.3529-1.37 3.519-0.39706 0.85095 1.9579 1.6483 1.4578 0.27959 0.0027-0.51496 0.0054-1.0299 0.0081-1.5449zm-9.2526 2.1783c1.0641-0.30197-0.52809-1.5515 0.37511-2.008 0.13818-0.90743-0.9058-1.0624-0.65755-0.04336 0.01444 0.60897 0.5908 1.453-0.37386 1.5081-0.16416 0.49968 0.12345 0.9597 0.6563 0.54324zm1.1567-0.56666c0.29052-1.3858 0.65149 1.339 0.9041 0.03328 0.14867-0.30795 0.44317-1.401 0.04697-0.85159 0.10706 0.70712-0.4456 1.024-0.47444 0.14963-0.38218-0.90529-0.62982 1.5336-0.82396 0.11651 0.22818-0.83077-0.64225-0.27769-0.17716 0.27159 0.14236 0.46284 0.27485 1.1589 0.52448 0.28058zm5.9793 0.13809c-0.33991-1.3048-1.2977-2.4031-1.8919-3.624-0.40403-0.60874-0.90996-2.1135-1.4131-0.75172-0.51248 0.96884-1.1108 1.8897-1.6114 2.8654 0.40609 0.42443 1.1974 0.15511 1.0238-0.35782-1.0204-0.39744 0.39885-1.7015 1.0939-1.0106 1.1198-0.66057 1.8627 0.77202 1.3672 1.6897-0.47895 0.89598-1.7891 0.54394-2.6298 0.47236-0.58952-0.71155-1.0437 1.2945 0.03707 0.73487 1.3413 0.01389 2.6832 0.02406 4.0242-0.01825zm0.39615-0.31709c0.56217-1.4565 1.1554-2.9031 1.6241-4.3935-0.78673-0.57291-1.8935-0.18399-2.8138-0.40872-0.74771-0.0243-2.3546-0.41108-1.357 0.77625 0.8251 1.3369 1.5139 2.7573 2.3845 4.0681l0.08795 0.01113 0.07423-0.05326zm-14.306-0.264c-0.57097-0.1742-0.29522-2.3146 0.0082-0.9189 0.20605 0.54138 0.62638 1.3591 0.87663 0.37083 0.20986-0.40828 0.57066-1.5095 0.4901-0.46018-0.02493 0.68142-0.38022 1.402 0.56729 0.95271-0.73225-0.52478 0.53104-2.725-0.68536-1.7978-0.21581 0.44723-0.43162 0.89446-0.64742 1.3417-0.25229-0.5171-0.50459-1.0342-0.75688-1.5513-1.1869-0.20561 0.34074 1.5317-0.5943 2.0653 0.24381 0.0488 0.49871 0.0542 0.74176-0.0023zm3.2018-0.087491c1.1871-0.69215-0.49868-1.9707-1.0065-1.1428 0.31369 0.64926-0.67084 1.6264 1.0065 1.1428zm-0.70922-0.62703c-0.18899-1.578 1.729 0.29369 0.35473 0.61066-0.51371 0.15124-0.34645-0.28932-0.35473-0.61066zm0.49627 0.10213c0.07386-0.76939-0.46232 0.17079-0.04681 0.09674zm1.4503 0.61239c-0.57097-0.1742-0.29522-2.3146 0.0082-0.9189 0.20605 0.54138 0.62638 1.3591 0.87663 0.37083 0.20986-0.40828 0.57066-1.5095 0.4901-0.46018-0.02493 0.68142-0.38022 1.402 0.56729 0.95271-0.73226-0.52478 0.53106-2.725-0.68535-1.7978-0.21581 0.44723-0.43162 0.89446-0.64742 1.3417-0.25229-0.5171-0.50459-1.0342-0.75688-1.5513-1.0366-0.22356 0.06799 0.88383-0.37535 1.4572-0.2092 0.592-0.08012 0.76872 0.5228 0.60577zm6.6348-0.51166c-0.22587-0.25231-1.1368 0.01382-0.40424-0.5031 1.1918-0.77986-0.977-1.4529-0.50771-0.68567 1.0462-0.51874 0.20174 0.94891-0.14705 1.2222 0.22116 0.1158 0.94198 0.20598 1.059-0.03344zm0.96681-0.01193c0.81958-0.69749-0.40771-2.4037-0.85862-1.031-0.18974 0.52808 0.16887 1.5479 0.85862 1.031zm-0.46095-0.03795c-0.54579-0.45957 0.16905-2.1536 0.38884-0.85792 0.01346 0.27026 0.12074 1.0417-0.38884 0.85792zm-3.4114-0.34012c1.2803 0.13042 1.3799-1.8881 2.1489-2.6394 0.3773-0.51214 0.93395-1.4446-0.19228-1.1051-1.2343 0.22215-2.8335-0.0889-3.8329 0.50908 0.09299 0.96226 0.70145 1.7999 0.91609 2.7458 0.11337 0.4416 0.54379 0.66894 0.96022 0.48965zm-1.6333-1.8415c-0.04844-0.47783-0.56967-1.0871-0.41191-0.18265-0.39751 0.54004 0.92516 0.83788 0.41191 0.18265zm8.9542-1.8881c-1.3523-0.86578-2.7416-1.6733-4.1571-2.4312-0.19628 0.77628-0.59734 2.677 0.91367 2.3054 1.0662 0.0419 2.2209 0.24352 3.2434 0.12578zm-6.4591-0.09802c0.94484-0.01842 2.376 0.01561 1.9492-1.3897 0.07122-0.64377 0.05179-1.2573-0.66598-0.66114-1.2051 0.71226-2.4447 1.368-3.6198 2.1306 0.77656 0.12677 1.5579-0.07135 2.3366-0.07975z" style="fill:#8e8e8e;stroke-width:.047732"/><path d="m40.736 71.001c-0.72743-0.61691-2.3903-0.97747-2.4973-1.7893 1.1727 0.83961 2.4846 1.5189 3.7434 2.2496 0.98734 0.986 2.0942 0.24815 3.0415-0.32824 1.0821-0.67028 2.24-1.2242 3.2541-2.0001-9e-3 -1.6238 0.07566-3.2495-0.03234-4.8716-0.10081-0.45053-0.54146-1.3828 0.21335-0.6847-0.05975 1.9341 0.05151 3.9305-0.07361 5.8869-1.6304 1.0091-3.3063 1.9416-4.9678 2.8981-0.94078-0.143-1.642-0.8916-2.5-1.2558l-0.18134-0.10481zm-1.2101-1.898c-0.31162-0.8161-0.94725-2.5065 0.58649-2.0156 0.78352-0.30238 2.0124 0.67602 2.0998-0.43214-1.0357-0.33266 0.31643-1.733 0.99504-0.98631 1.3879-0.84088 2.1454 1.3625 1.0776 2.1115-0.86086 0.20913-2.0133 0.13592-2.6509-0.13029-0.23173 0.81908-0.52822 1.9886-1.3979 1.3483-0.13998 0.24366-0.50822 0.29852-0.71014 0.10455zm0.50338-0.52062c0.12232-0.6034 0.44389-0.96078 0.53323-0.11646 0.41941 1.221 0.99351-1.7665 0.47914-0.87697 0.07832 0.72176-0.44205 0.90536-0.46513 0.09163-0.40521-0.90882-0.60197 1.559-0.80303 0.19752 0.10476-0.90043-0.59402-0.37344-0.18628 0.22865 0.04707 0.22349 0.1456 1.0968 0.44207 0.47563zm3.2127-1.1575c-0.22569-0.25237-1.1368 0.0139-0.40436-0.50297 0.99616-0.53506-0.3475-1.6354-0.63239-0.7102 0.29579-0.24897 0.94852 0.10305 0.4867 0.67646-0.73973 0.34983-0.53268 0.89687 0.26571 0.66732 0.06559 0.0214 0.31612 0.0175 0.28434-0.13061zm0.9105 0.05815c0.94897-0.70151-0.41495-2.5721-0.81772-1.0198-0.14832 0.52757 0.15689 1.3184 0.81772 1.0198zm-0.40583-0.10922c-0.50978-0.42472 0.13826-2.0692 0.37254-0.88394 0.0039 0.26126 0.14044 1.0799-0.37254 0.88394zm2.2795 1.6456c-0.15597-0.75398 1.0163-0.60088 0.23313-0.16939-0.04458 0.01799-0.3551 0.3737-0.23313 0.16939zm-14.827-0.80754c-0.1612-0.75149 0.5827-1.6046-0.12942-2.3085 0.54785-1.0117 1.5403 0.02825 1.731 0.68852-0.0013-1.0095 1.6924-1.6045 1.7672-0.43204 0.49544-0.2569 1.6444 0.6321 0.93282-0.26589 0.53495-0.98287 1.5466 0.02551 1.7493 0.69064-0.0071-0.93678 1.6324-1.683 1.628-0.46662-0.87045 0.6255 0.75711 2.1653-0.55704 2.1948-1.1459-0.01675-2.3014-0.10029-3.427-0.03965-1.2006 0.06338-2.4082-0.03403-3.6051 0.01351l-0.08972-0.07479zm0.96843-0.27534c-0.56456-0.16196-0.30927-2.3012-0.0032-0.93644 0.18758 0.54473 0.58868 1.3939 0.89749 0.42204 0.13632-0.38803 0.59179-1.4849 0.48924-0.39218-0.04855 0.67953-0.39989 1.2272 0.52474 0.86585-0.74203-0.58696 0.66926-2.6576-0.70538-1.8516-0.17077 0.44569-0.56534 1.9507-0.84201 0.8662-0.1668-0.3456-0.33361-0.69121-0.50041-1.0368-1.2007-0.21332 0.33403 1.5288-0.60226 2.0653 0.24382 0.04884 0.49872 0.0541 0.74178-0.0024zm3.1986-0.08561c1.2576-0.641-0.76701-2.1465-0.97446-1.0342 7e-3 0.57016-0.2041 1.5181 0.7385 1.1151zm-0.69577-0.08291c-0.21422-0.6928 0.16805-1.8315 0.7918-0.74107 0.21875 0.47599-0.34728 1.0056-0.7918 0.74107zm0.45492-0.36387c0.13158-0.96984-0.43155 0.07347 0 0zm1.4814 0.53238c-0.56456-0.16196-0.30927-2.3012-0.0032-0.93644 0.18758 0.54473 0.58868 1.3939 0.89749 0.42204 0.13632-0.38803 0.59179-1.4849 0.48924-0.39218-0.04855 0.67953-0.39989 1.2272 0.52474 0.86585-0.74203-0.58696 0.66926-2.6577-0.70538-1.8516-0.17077 0.44569-0.56534 1.9507-0.84201 0.8662-0.1668-0.3456-0.33361-0.69121-0.50041-1.0368-1.2007-0.21331 0.33399 1.5287-0.60231 2.0653 0.24384 0.04884 0.49875 0.05409 0.74183-0.0024zm1.6036-3.8217c-0.42782-0.6112 0.78402-1.1646 0.15913-0.36877 0.0142-0.0019-0.01001 0.50321-0.15913 0.36877zm5.0789-0.71233c-0.91951-0.53014 0.81687-0.27645 0 0zm-0.13906-2.6315c-0.13631-0.44344 0.61259 0.21382 0-1e-5z" style="fill:#616161;stroke-width:.047732"/><path d="m43.141 72.381c-0.33422-0.45396 0.98406-0.30975 1.2338-0.76793 1.3261-0.71296 2.614-1.4989 3.9108-2.2582-0.26488 0.5457-1.5742 0.99032-2.2439 1.4803-0.93471 0.51777-1.8424 1.118-2.8057 1.5642l-0.06232-0.01204-0.03268-0.0063zm-3.516-3.1984c-0.30027-0.67416-1.1231-2.499 0.31788-2.0722 0.73312-0.11454 2.3354-0.17472 1.5014 0.98605 0.0064 0.72065-0.73815 1.5067-1.1675 0.75743-0.11466 0.24172-0.3594 0.49192-0.65179 0.32873zm0.47535-0.75564c0.26527-1.3074 0.73577 1.4227 0.89837-0.01177 0.24006-0.31805 0.47893-1.4379 5e-3 -0.92806 0.15812 0.60024-0.374 1.1119-0.41679 0.18775-0.45166-0.88384-0.68282 1.7015-0.78044 0.0774 0.06991-0.92793-0.8074-0.10521-0.20067 0.40968 0.11106 0.48721 0.14376 1.2632 0.49451 0.265zm-8.8247-0.19152c-0.30233-0.71011 0.47002-1.6142-0.16893-2.4044 0.56596-0.90328 1.5338 0.1955 1.6953 0.80695-0.05397-0.964 1.6138-1.7408 1.6578-0.48725 0.55738-0.19802 1.6649 0.58472 1.0792-0.2649 0.54306-1.0141 1.5238 0.12565 1.7118 0.7408 0.02369-0.81796 1.2742-1.6923 1.6352-0.69754-0.30166 0.41377-0.22274 0.9256-0.22666 1.4327 0.72706 0.9435-0.62711 1.0629-1.3677 0.8974-1.1351 0.04641-2.2645-0.08926-3.3986 0.0133-0.87188-0.06056-1.7474 0.05926-2.6176-0.03707zm1.677-0.59606c0.24705-0.51127 0.6831-1.7271 0.55032-0.48926 0.14576 0.6068-0.56091 0.95232 0.42504 0.8239 0.33229-0.23741-0.53236-1.5854 0.24454-2.0769-0.74934-0.42014-0.8636 0.48582-1.1342 0.93835-0.16943 0.539-0.33989 0.60314-0.51173 0.02793-0.16879-0.34596-0.33759-0.69192-0.50638-1.0379-0.56107-0.05379-0.66918 0.0519-0.37924 0.44997 0.11401 0.55191-0.15843 1.5115-0.11617 1.6772 1.0931 0.38883-0.03621-1.0523 0.42056-1.3701 0.25883 0.24819 0.64244 2.0923 1.0072 1.0568zm4.4391 0c0.24705-0.51127 0.6831-1.7271 0.55032-0.48926 0.14576 0.6068-0.56091 0.95232 0.42504 0.8239 0.33229-0.23741-0.53236-1.5854 0.24454-2.0769-0.74934-0.42014-0.8636 0.48582-1.1342 0.93835-0.16943 0.539-0.33989 0.60314-0.51173 0.02793-0.16879-0.34596-0.33759-0.69192-0.50638-1.0379-0.56107-0.05379-0.66918 0.0519-0.37924 0.44997 0.11401 0.55191-0.15843 1.5115-0.11617 1.6772 1.0931 0.38883-0.03621-1.0523 0.42056-1.3701 0.25883 0.24819 0.64244 2.0923 1.0072 1.0568zm-2.1071 0.26964c1.1051-0.53944 0.09043-1.9048-0.89677-1.4561-0.18829 0.23439 0.18763 0.94394-0.06056 1.4143 0.19638 0.22879 0.68792 0.07052 0.95733 0.04179zm-0.587-0.66608c-0.36423-1.275 1.4627-0.27128 0.58242 0.44854-0.50152 0.3567-0.69388 0.1055-0.58242-0.44854zm0.42005 0.19596c0.2379-0.84749-0.46701-0.18353 0 0zm6.8637 0.37702c-0.64302-0.47597 0.86312-1.1568-0.12395-1.439-0.08985-1.3584 1.4831-0.53188 2.2092-0.84582 1.1212 0.29347 0.86873 2.4554-0.34895 2.3427-0.56931-0.11252-1.1613 0.03009-1.7363-0.05786zm2.1257-0.29904c0.98203-0.62667-0.18412-2.6358-0.79728-1.1305-0.16366 0.47886 0.13123 1.4796 0.79728 1.1305zm-0.34775-0.16028c-0.46072-0.39597 0.0541-2.0464 0.36688-0.9161-0.0055 0.26818 0.13792 1.1078-0.36688 0.9161zm-0.47859 0.05605c-0.16368-0.31406-1.2146 0.1264-0.48848-0.43723 1.214-0.54364-0.72256-1.8148-0.5363-0.64686 0.90699-0.73727 0.54182 0.73728-0.02672 0.98038-0.29219 0.37592 1.0921 0.31114 1.0515 0.1037z" style="fill:#050505;stroke-width:.047732"/></g></g></svg>
