<svg width="90.428mm" height="13.89mm" version="1.1" viewBox="0 0 90.428 13.89" xmlns="http://www.w3.org/2000/svg"><g transform="translate(-53.278 -65.625)"><path d="m112.68 78.951c-1.282-1.1035-1.1707-2.6026 0.64383-1.2906 3.7017 0.54998 4.3607-4.3093 4.8607-6.9578 1.8631-2.948-2.2933-4.8111-2.6105-4.4343 4.0211-1.6343 5.028 2.6614 5.8697 5.5307 0.8603-1.4609 1.816-6.3484 5.1108-5.6483 1.2778-0.13634-3.4454 0.66855-2.388 2.7566 0.19108 4.0218 2.2649 7.8789 5.2901 10.496-2.7136 0.72146-5.1349-2.2017-5.778-4.7373-0.60252-1.5463-0.64163-6.604-1.7475-2.5661-0.35054 2.8015-1.3651 3.466-2.0631 0.42892-0.34832-1.4575-1.3954-4.334-1.378-1.1671-0.87755 2.7639-1.3269 8.2302-5.1572 8.0067l-0.33608-0.17141-0.31659-0.24563zm-58.285-0.10368c-1.1965-0.89388-1.7276-2.9601 0.22853-1.4909 3.6106 0.66509 4.4517-4.0343 4.8768-6.6418 1.071-2.385-0.51386-5.3563-2.5313-4.7287 2.2974-1.0883 4.7177 0.39922 4.9678 2.9081 0.39056 0.56469 0.68639 3.7664 1.1235 2.1707 0.79222-2.2105 1.8237-5.3239 4.5891-5.4063 0.66946 0.57282-2.4169 0.63356-2.0859 2.4157-0.11654 3.2093 1.5026 6.3315 3.201 8.9914 1.2134 1.1624 3.313 2.4693 0.44809 1.9451-3.539-1.0251-4.6361-5.3695-4.8804-8.6256-0.53105-1.854-1.2916 2.9957-1.6862 3.8459-1.0664 0.42988-1.6524-3.2719-2.2488-4.5997-0.5852-1.7132-0.51176 3.4259-1.1939 4.1398-0.7862 2.011-1.792 6.2023-4.8083 5.0764zm78.754-0.81947c-1.7279-1.0973-8e-3 -3.4-0.66937-5.2211 0.8565-1.0914 4.8712-1.3311 3.1756 0.26698 0.70322 2.2553-5.1641 1.5275-1.1657 2.5278 3.5259 0.41393 0.98083 3.3187-1.3405 2.4263zm2.2023-0.46156c1.8753-2.2595-5.0389-1.2271-1.9134 0.09548 0.63557 0.05293 1.2926 0.08368 1.9134-0.09548zm-0.37173-3.8147c0.5099-2.7539-3.69-0.80703-1.1506 0.57772 0.46779 0.21419 0.96886-0.16585 1.1506-0.57772zm-39.322 1.7104c-0.9437-3.4715 3.1154-4.136 3.9449-6.8547 2.6068-0.51918-1.2852 1.5079-0.15854 3.0483 0.42574 2.3383 0.15734 5.3566-1.3929 3.3587-0.61973 0.51601-1.9786 1.9206-2.3935 0.44766zm2.3428-1.0138c1.615-1.7355-0.56043-4.2251-1.3915-1.2913-0.47088 0.90023 0.45295 2.2764 1.3915 1.2913zm3.3926 0.99409c-2.4605-2.5372 2.8664-5.7232 3.346-2.1533-2.0284-0.25858-4.7043 0.98111-1.7042 2.5859 4.0644-2.1881-0.35372 1.8695-1.6417-0.43256zm2.6266-2.6051c-1.3697-2.6242-3.9846 1.6282 0 0zm1.9182 3.0165c1.6518-1.3266-1.3404-5.1581 1.3163-3.7145 1.207-1.2393 3.2493 0.72896 0.70736 0.13369-2.5468 1.2062 1.8346 5.2517-2.0237 3.5808zm21.431 0.11055c-1.9154-2.223 5.1414-2.2944 1.4826-3.7758-0.79313 0.8019-2.2302 1.8776-1.0426 0.01532 3.0948-1.9115 3.1727 3.2596 3.317 3.9276-1.2733-0.86963-2.3938 0.36143-3.757-0.16718zm2.5797-1.3389c-0.65099-1.9825-4.0934 1.7444-0.73287 0.95934 0.39079-0.15016 0.73765-0.5242 0.73287-0.95934zm7.2099 1.2284c1.3076-1.0761-0.94086-5.4645 0.97703-3.0953-0.55796 1.968 1.8408 4.389-0.97703 3.0953zm3.3036-0.04495c-2.9204-2.3785 1.8822-6.4757 3.2448-2.544-1.0269 0.78494-4.4514-0.76565-3.1463 1.4728 0.35603 2.4894 5.033-0.78114 1.6444 1.3308-0.5849 0.10986-1.2313 0.09096-1.743-0.25955zm2.3056-2.8229c-0.67575-3.0008-4.4944 1.3533 0 0zm-73.214 2.706c-3.5754-1.793 1.5167-7.1427 2.7115-2.9258-0.90166 0.76377-4.9548 0.19694-2.2927 2.3716 0.82712 0.84246 3.3418-1.188 1.3431 0.51718-0.55048 0.26919-1.194 0.18659-1.7619 0.03696zm1.8728-3.4549c-1.0607-1.7046-3.6612 1.3805-0.52878 0.44524 0.22126 0.04094 0.67394-0.12614 0.52878-0.44524zm1.9011 3.3955c1.6787-0.86126-0.6145-5.8177 1.2839-3.4674-0.41704 1.3071 0.59376 3.1649 0.52184 3.6322-0.57723 0.08581-1.2975 0.1943-1.8058-0.16481zm3.9295 0.05563c-1.929-1.1395-0.26-1.7362 0.84259-0.29528 4.0133-0.81369-3.9-1.998-1.0083-4.0365 1.9729-1.3873 3.795 2.906 1.4102 0.47571-3.159-0.13343 0.33128 1.6116 1.399 2.1518 0.83898 1.7397-1.4988 2.1121-2.6436 1.7042zm4.8546-0.13059c0.04171-2.3007-1.7194-4.2743 0.22433-5.6278-0.16739 1.9723 3.0293 1.332 0.23154 2.0431-0.24409 1.3139-0.17631 3.7943 1.2388 3.5926-0.42672 0.46189-1.2442 0.3596-1.6947-8e-3zm3.2424-0.33193c-2.9852-2.6837 3.2883-6.0768 3.1002-2.0825-1.7769-0.48427-4.404 0.78098-1.9211 2.2181 1.2648-0.03222 3.062-0.93822 0.95405 0.38791-0.73702 0.26633-1.5945 0.03573-2.1332-0.52353zm2.5256-2.6362c-0.38204-2.4414-4.056 0.73506-0.73402 0.10192l0.38154-0.02377zm1.8521 3.0211c1.6221-1.2275-1.2077-5.5474 1.4502-3.823 1.2799-1.4003 3.1414 0.77658 0.65998 0.18661-2.3366 1.245 1.5756 5.2155-2.1102 3.6364zm22.846-2.2733c-1.443-2.1207-0.26628-6.3785 1.8359-6.5199-3.1831 1.6565-1.1525 5.2309-0.74181 7.1707-0.47418 0.136-0.86296-0.31653-1.0941-0.6508zm-58.275 0.0545c-2.0364-1.9913-0.73885-6.4575 1.3016-6.8203-2.9679 1.6304-0.67133 5.4368-0.69116 7.0119l-0.34349-0.03244-0.26691-0.15918zm83.176-2.8259c2e-3 -1.5968 1.71 0.97854 0 0zm-63.621-0.89283c0.66452-1.8893 1.5502 1.5595 0 0z" style="stroke-width:.26458"/></g></svg>
