<svg width="210mm" height="297mm" version="1.1" viewBox="0 0 210 297" xmlns="http://www.w3.org/2000/svg"><defs><clipPath id="a"><path d="m0 785.2h538.58v-785.2h-538.58z"/></clipPath></defs><g transform="matrix(.38453 0 0 -.37715 1.2868 297.01)" clip-path="url(#a)"><g transform="translate(490.32 13.696)"><rect transform="scale(1,-1)" x="-470.27" y="-749.88" width="502.35" height="740.76" style="fill:none;stroke-miterlimit:2.9;stroke-opacity:.90813;stroke-width:.23159;stroke:#000"/><path d="m-470.94 750.08c-7e-3 -0.29428-0.0165-0.58409-0.0202-0.88282-0.0148-1.1354-0.0183-3.1029-0.0182-4.1526 3.1e-4 -3.237 0.0245-6.4535 0.0509-9.6789 0.0445-3.7423 0.0912-7.4893 0.10113-11.257 1e-3 -0.95498-5.6e-4 -3.5363-1e-3 -4.5215-0.0133-3.9572-7e-3 -7.9144 0.0131-11.869 1e-3 -0.63929 5e-3 -1.2784 5e-3 -1.9178 2.6e-4 -1.429-5e-3 -2.8576-7e-3 -4.2864-1e-3 -2.1941-5.6e-4 -4.3794 7e-3 -6.5722 0.01-2.5207 0.0471-5.0127 0.0518-7.5349-1e-3 -2.5739 8e-3 -5.1476 0.0174-7.72-2.3e-4 -2.0461 0.0165-4.0857 0.033-6.1241 7e-3 -0.76915 0.0263-3.3099 0.0357-4.1171 7e-3 -0.54103 0.0165-1.0783 0.0239-1.6175 1e-3 -0.42578 0.64854-0.27496 0.64739 0.15096 5e-3 0.58587 0.012 1.1704 0.0133 1.7576 7e-3 3.4838-0.0576 6.9414-0.12175 10.359-0.0354 2.4279-0.0527 4.8694-0.0812 7.3043 1e-3 0.69156 1e-3 1.1278 8e-3 1.8211 0.0177 1.8972 0.0549 3.7789 0.0606 5.6866 0.012 2.2346 0.0148 4.4534 7e-3 6.6903-8e-3 2.6861-0.01 1.7687-0.025 4.3836-4e-3 0.64289-7e-3 1.2864-0.01 1.9296-4e-3 1.2365-0.012 2.4722-0.0133 3.7091-4e-3 1.882 7e-3 3.7539 0.0204 5.63 7e-3 0.70447 0.012 1.4084 0.0177 2.1127 0.0429 5.5262 0.0687 11.076 0.0218 16.609-0.0605 5.0366-0.12455 10.159-0.32845 14.901-7e-3 0.33511-0.51554-0.458-0.5095-0.7931z"/><path d="m-470.6 669.9c-0.0134-0.31532-0.0303-0.61925-0.0419-0.9458-0.14491-4.0618-0.14947-8.4973-0.16123-12.795-7e-3 -4.3438 0.0503-8.6431 0.0984-12.94 0.0212-2.55 0.0104-5.1165 0.0166-7.6741-1e-3 -0.3773-3e-3 -0.75518-6e-3 -1.1316-9e-3 -1.1459-0.0175-1.5888-0.0331-2.7475-0.0236-1.7437-0.0454-3.4904-0.0686-5.2347-0.0422-3.1989-0.0683-6.4304-0.0701-9.6646-1e-3 -1.945 6e-3 -2.9088 0.0163-4.827 4e-3 -0.70749 0.0104-1.4148 0.0153-2.1225 0.0104-1.5976 0.0171-2.3017 0.0163-3.9009-3e-3 -5.6942-0.0104 1.7839-9e-3 -4.3233 1.9e-4 -0.75445 3e-3 -1.5086 4e-3 -2.2629 6e-3 -0.7288 9e-3 -1.4598 0.0171-2.1864 7e-3 -0.67112 0.0169-1.3385 0.0272-2.0047 0.022-1.4308 0.0476-2.8674 0.10288-4.1949 0.0104-0.23255 0.0224-0.44813 0.0336-0.67219 7e-3 -0.49456 0.643 0.63459 0.63574 1.1292 0.019 0.90845 0.0229 1.777 0.0242 2.712 3e-3 1.8142 1e-3 3.6292 1e-4 5.4435-3e-3 0.7433-4e-3 1.4871-7e-3 2.23-9e-3 1.9666-0.0172 2.3249-0.0239 4.2764-6e-3 1.606-3e-3 2.2963 1e-3 3.8994 1e-3 0.6886 6e-3 1.3767 7e-3 2.0651 0.0148 4.6164 0.0119 9.2251 0.0104 13.843-5e-5 0.62005-1e-3 1.2403-1.4e-4 1.8601 3e-3 1.3796 0.0148 2.0504 0.0181 3.4282 1e-3 0.80327-1e-3 2.1584-3.7e-4 2.9865 3.7e-4 0.44679 3e-3 0.89323 3e-3 1.3398 6e-3 1.2798 7e-3 2.5598 9e-3 3.8411 7.3e-4 0.89961-3e-3 1.7994-1e-3 2.6988 7.3e-4 0.45015 4e-3 0.89947 6e-3 1.3492 0.0295 4.1943 0.0714 8.3811 0.0806 12.59 6e-3 4.2476 0.0269 8.5872-0.0668 12.751-9e-3 0.4026-0.0232 0.78938-0.0347 1.1841 0 0.48228-0.61998 0.48228-0.61998 0z"/><path d="m-470.51 594.06c-0.0366-1.219-0.0666-2.1371-0.0922-3.4731-0.0596-3.1241-0.0857-6.5044-0.0958-9.7568-3e-3 -1.204-2e-3 -2.4108-3e-3 -3.6162 9e-3 -4.006 0.0233-8.0328 0.0634-11.994 0.0131-1.258 0.0302-2.502 0.0449-3.7543 0.0283-1.979 9e-3 -3.9699 8.7e-4 -5.9603-3e-3 -1.2644-9e-3 -2.5312-0.0131-3.7967-0.0196-3.5244-0.0408-7.0485-0.047-10.587-1.5e-4 -0.0871-3e-3 -6.128-3e-3 -6.1834-0.0131-6.1463-0.0196-12.295-0.0292-18.443-7e-3 -3.7192-7e-3 -7.4876 0.0519-11.108 3e-3 -0.2138 9e-3 -0.42793 0.0131-0.64156 8.7e-4 -0.55216 0.48268-0.37922 0.48192 0.17307 3e-3 0.10243 9e-3 0.20517 0.0131 0.30755 0.0829 3.4394 0.10992 7.1557 0.12323 10.817 0.0274 6.299 0.0569 12.606 0.0458 18.927-1e-3 2.0502-1e-3 4.1011-3e-3 6.1505-7e-3 3.4809-0.0279 6.9487-0.0394 10.425-1e-3 1.2722-1e-3 2.5451-3e-3 3.8169-3e-3 2.175-0.0175 4.3525-2e-3 6.527 7e-3 1.2708 0.0154 2.5394 0.0175 3.8123 0.0114 3.7723 3e-3 7.559 0.0239 11.328 3e-3 2.7304 9e-3 4.1818 8.4e-4 6.9136-2e-3 1.067-9e-3 2.132-0.0131 3.1961-7e-3 1.4163-0.0154 3.1706-0.0421 4.5709-3e-3 0.28139-0.0175 0.51955-0.0255 0.77933 7e-3 0.53121-0.45683 2.0994-0.46369 1.5682z"/><path d="m-470.84 507.03c-0.0106-0.34811-0.0234-0.68537-0.0308-1.0444-0.0326-1.5888-0.0396-2.7532-0.0431-4.4297-8e-3 -3.2702 0.022-6.4541 0.0513-9.6964 0.0276-3.2449 0.0797-6.4449 0.13174-9.64 0.0293-1.7924 0.0543-3.1038 0.0733-4.8975 8e-3 -0.69507 0.0106-1.3956 0.0161-2.0935 0.0137-3.9839 9e-3 -7.9714 0.0215-11.956 0.0155-2.5847-0.0241-5.1369-0.0477-7.693-9e-3 -0.94563-0.0308-3.6443-0.0384-4.5817-0.0193-2.3318-0.0348-4.6696-0.0601-6.9936-3e-3 -0.21534-0.0634-5.2174-0.0641-5.2824-0.0121-0.9967-0.0218-1.9954-0.0328-2.993-0.0345-3.1125-0.0508-6.2632-0.0247-9.3963 6e-3 -0.78957 0.0158-1.5786 0.0307-2.351 0.0106-0.55077 0.0302-1.0691 0.0454-1.6036 8e-4 -0.51571 0.59573-0.31009 0.59454 0.20573 0.0121 0.47183 0.0282 0.93228 0.0372 1.4155 0.0136 0.71711 0.022 1.447 0.0297 2.1764 0.0314 2.9441 0.0372 5.9152 0.0401 8.8802 9e-3 2.742 0.0155 5.4874 0.0317 8.2246 0.0121 2.0942 0.0193 2.6081 0.0379 4.6892 8e-3 0.78953 0.0137 1.5793 0.0209 2.369 0.0121 1.7763 0.0232 3.0292 0.0278 4.8115 8e-3 2.6878-0.0162 5.3712-2e-3 8.0576 0.0193 4.0914 0.0243 8.1887 0.0282 12.286 5e-3 5.883-0.0121 11.781-0.0987 17.584-0.0423 2.7816-0.0548 3.7471-0.10502 6.4701-0.0475 2.5688-0.0982 5.1713-0.20519 7.4824 0 0.40421-0.46608 0.40421-0.46608 0z"/><path d="m-470.52 423.92c-9e-3 -0.28882-0.0196-0.57041-0.0274-0.86627-0.03-1.1432-0.0487-2.2154-0.0651-3.4185-0.0259-1.9215-0.0383-3.4854-0.048-5.4534-5e-3 -1.0959-7e-3 -2.1944-0.0102-3.2916 3e-3 -3.1121-1e-3 -3.6317 0.0242-6.7019 0.0153-1.9748 0.0395-3.543 0.0635-5.4853 0.0272-2.203 0.0267-2.2217 0.0497-4.3454 0.0259-1.6834 0.0392-3.4015 0.04-5.1201 7.4e-4 -1.4325-7e-3 -2.4995-0.0119-3.9483-3e-3 -0.79257-7e-3 -1.5854-9e-3 -2.3782-5e-3 -2.2454 9e-3 -4.4855 0.0252-6.7163 5e-3 -0.57582 0.0102-1.1492 0.0136-1.7257 9e-3 -1.2572 9e-3 -1.8113 0.0102-3.061-5e-3 -1.669-0.0136-3.3377-0.0274-4.9974-5e-3 -0.64745-0.0136-1.2917-0.0192-1.9385-0.0102-1.0131-0.0278-3.1536-0.0363-4.1559-0.0347-4.1871-0.0727-8.3695-0.10014-12.567-5e-3 -0.65308-0.0119-1.305-0.0153-1.9593-7e-3 -1.0309-0.0153-2.989-0.0186-4.015-3e-3 -1.2886-7e-3 -2.8866-3e-3 -4.1768 2e-3 -0.64 9e-3 -1.2768 0.0119-1.9153 0.0226-1.9261 9e-3 -1.0347 0.039-2.6806 3.5e-4 -0.46034 0.48615-0.36575 0.48565 0.0946 0.0257 1.7301 0.0153 0.79922 0.0296 2.798 1e-3 0.60351 3e-3 1.2069 3e-3 1.8105-3.6e-4 1.8565-7e-3 1.9626-5e-3 3.8045 7.4e-4 1.4787 5e-3 2.1066 0.0153 3.5751 5e-3 0.61598 0.0102 1.2302 0.017 1.8453 3e-3 0.2097 0.0506 3.8652 0.0516 3.955 0.0334 2.9144 0.0526 5.8572 0.0732 8.791 0.0102 1.5801 0.0181 2.7687 0.022 4.3516 5e-3 2.4375 2e-3 4.8809-3e-3 7.318 5e-3 1.3109 5e-3 1.8087 0.0136 3.1315 3e-3 0.59231 0.0102 1.1818 0.0136 1.7742 0.0153 2.2714 0.0232 4.5554 0.0102 6.833-7e-3 0.79597-0.0119 1.5925-0.0181 2.3879-5e-3 0.69893-0.0136 1.3951-0.0181 2.095-0.017 2.4201-0.0153 4.8618-0.0136 7.2891-3.7e-4 0.45444-3e-3 4.0055-3e-3 4.3878 7.4e-4 1.9517 7e-3 3.428 5e-3 5.4016-3e-3 2.5313-0.0119 3.8846-0.0247 6.4229-0.0102 1.5683-0.0298 4.3609-0.0436 5.9686-0.017 1.9164-0.0337 3.8555-0.0736 5.7155-5e-3 0.25719-0.0136 0.50406-0.0201 0.75605 2e-3 0.38056-0.3993 0.79119-0.40146 0.41065z"/><path d="m-470.67 336.38c-6e-3 -0.0349-0.012-0.0664-0.0168-0.10467-0.0411-0.32692-0.0623-0.78126-0.0705-1.1707-3e-3 -0.13253-3e-3 -0.26624-5e-3 -0.39937-5.4e-4 -0.34959 9e-3 -0.69357 0.0224-1.0342 3e-3 -0.0866 7e-3 -0.17236 0.0106-0.25907 8e-3 -0.22293 9e-3 -0.2726 0.0147-0.49682 6e-3 -0.21417 8e-3 -0.43064 0.0114-0.6464 1e-3 -0.0633 2e-3 -0.12627 3e-3 -0.18952 3e-3 -0.16763 2e-3 -0.18904 4e-3 -0.3562-2.6e-4 -0.0615-5.2e-4 -0.12292-1e-3 -0.18431-2e-3 -0.2108-5e-3 -0.42164-7e-3 -0.6324-5.4e-4 -0.0777-1e-3 -0.15556-2e-3 -0.23306-1e-3 -0.0857-4e-3 -0.17089-6e-3 -0.25633-5e-3 -0.29166-6e-3 -0.58659-2e-3 -0.87887 1e-3 -0.0923 4e-3 -0.18376 5e-3 -0.27589 3e-3 -0.16768 5e-3 -0.33582 7e-3 -0.50358 1e-3 -0.077 3e-3 -0.15382 3e-3 -0.23091 2e-3 -0.14849 2e-3 -0.29728 3e-3 -0.44578 5.1e-4 -0.056 4e-3 -0.35776 4e-3 -0.41661 2.6e-4 -0.0685 1.4e-4 -0.13718 1.8e-4 -0.20577-2e-3 -0.21791-6e-3 -0.43531-7e-3 -0.6534-2.6e-4 -0.0704 2.6e-4 -0.14092 9e-5 -0.21133-5.4e-4 -0.14627-4e-3 -0.31577-6e-3 -0.46098-6e-3 -0.30788-3e-3 -0.61837-5e-3 -0.92741-2e-3 -0.21514-4e-3 -0.29934-8e-3 -0.51677-7e-3 -0.39073-0.0122-0.78463-0.01-1.1778 5.4e-4 -0.11584 6e-3 -0.40811 7e-3 -0.52699 2.6e-4 -0.0838 2e-3 -0.16761 1e-3 -0.25144-5.4e-4 -0.18289-7e-3 -0.36452-7e-3 -0.54744-2.6e-4 -0.18152 3e-3 -0.41785 8e-3 -0.59847 3e-3 -0.0898 7e-3 -0.17811 0.0101-0.26716 0.0121-0.18719 0.0179-0.3891 0.0382-0.55708 4e-3 -0.0342 0.01-0.0621 0.0147-0.0932 4e-3 -0.12779 0.32947 0.16308 0.32576 0.29088 3e-3 0.0274 7e-3 0.0528 9e-3 0.0823 0.0102 0.14776 6e-3 0.30865 0.0115 0.46137 2e-3 0.21873 3e-3 0.43625 2e-3 0.65528-5.4e-4 0.10498-4e-3 0.41322-4e-3 0.5212 2.6e-4 0.084 3e-3 0.16754 4e-3 0.2513 4e-3 0.16353 0.0103 0.4007 0.012 0.56336 4e-3 0.39724-3e-3 0.7944-0.0112 1.1884-4e-3 0.19629-7e-3 0.2799-7e-3 0.47409-1.9e-4 0.30929 0.01 0.61642 7e-3 0.92592-1e-3 0.17849-2e-3 0.26534-5.1e-4 0.44337 5.1e-4 0.0751 2e-3 0.1498 3e-3 0.22491 2e-3 0.22189-2e-3 0.44269-2e-3 0.66446 5.4e-4 0.0692 1e-3 0.13849 2e-3 0.20761 7e-3 0.539 2.6e-4 -0.11706 7e-3 0.45129 3e-3 0.27497 2e-3 0.23107 3e-3 0.51133 1.5e-4 0.088 2.6e-4 0.17595 5.1e-4 0.26393-2e-3 0.71012 1e-3 -0.17281-3e-3 0.53387-5.2e-4 0.0847 3e-5 0.16957-5.2e-4 0.25424-5.4e-4 0.0835-2e-3 0.16664-3e-3 0.25001-5e-3 0.38291-2.6e-4 0.1262-7e-3 0.49469-1e-3 0.0803-3e-3 0.16044-4e-3 0.24101-5.4e-4 0.075-1.6e-4 0.1501-1.8e-4 0.22515-6e-5 0.30661 1e-3 0.61314-1e-3 0.91965-5.4e-4 0.23083-1e-3 0.46295-6e-3 0.69274-4e-3 0.18703-7e-3 0.21822-0.01 0.39775-1e-3 0.061-1e-3 0.12222-2e-3 0.18332 2.6e-4 0.0559-9e-5 0.11215 1e-3 0.16775 3e-3 0.15021 0.0108 0.29228 0.0171 0.4389 0.0141 0.33159 0.0264 0.66594 0.0281 1.008-5.2e-4 0.134-5e-5 0.26832-2e-3 0.402-6e-3 0.42196-0.0215 0.86157-0.0659 1.215-5e-3 0.0383-0.0112 0.0698-0.0168 0.10467 0 0.11916-0.30377 0.11916-0.30377 0z"/><path d="m-470.69 322.11c8e-3 -3.8939 0.0136-7.7926 0.0285-11.685 0.015-5.3226 0.0533-10.621 0.10984-15.904 0.0536-4.2501 0.0305-8.5447 0.0225-12.818-2e-3 -3.5676-6e-3 -7.1347-0.0105-10.702-7e-3 -5.4402-0.0198-10.878-0.018-16.32-1e-3 -4.6764 0.0179-9.3487 0.0269-14.023 0.0162-3.2712-0.0237-6.5216-0.0467-9.7744-0.0197-3.0194-4e-3 -6.0428 4.4e-4 -9.0642 0.012-3.268-2e-3 -6.5351 1e-3 -9.8032-2e-3 -2.8734 2e-3 -5.7466 9e-3 -8.6188 5e-3 -2.2963-2e-3 -4.5931-2e-3 -6.8898-4e-3 -3.0446-9e-3 -6.0878-5e-3 -9.1327 3e-3 -3.4791-8e-3 -6.9574-0.0131-10.436-0.011-3.8495 9e-3 -7.6959 0.0114-11.544 1e-3 -3.8132-9e-3 -7.623-0.0163-11.434-4.4e-4 -4.7566-8.7e-4 -9.5133 8.6e-4 -14.27 4e-3 -4.815-0.0217-9.6198-0.0215-14.434 0-0.4842 0.59173-0.4842 0.59173 0 1.7e-4 4.8139-0.0253 9.6188-0.0215 14.434 2e-3 4.7566 1e-3 9.5133 8.7e-4 14.27-8e-3 3.8114-0.0173 7.6211-0.0162 11.434 2e-3 3.8488 0.0224 7.6955 0.0113 11.545-5e-3 3.4772-0.0168 6.9542-0.013 10.432 5e-3 3.0481 4.3e-4 6.0948-4e-3 9.1427-8.7e-4 2.2931-9e-3 4.5857-5e-3 6.8786 7e-3 2.8655 0.0159 5.7311 0.0177 8.598 6e-3 3.3296-7e-3 6.6594-0.0158 9.9873-0.0111 2.8391-0.0103 5.6779 0.0134 8.5108 0.0213 3.3841 0.0507 6.7599 0.0448 10.158 0.0108 4.6796 0.0331 9.3567 0.0317 14.04 8.7e-4 5.4512-0.0152 10.896-0.0335 16.342-8e-3 3.5075-4e-3 7.0039 0.0235 10.501 0.0168 4.5083 0.0157 9.0233-0.0155 13.525-0.0344 5.2126-0.0745 10.416-0.11278 15.624-0.0178 4.013-0.0156 8.0779-0.094 12.015-3e-3 0.394-0.4851-0.1902-0.48153-0.58416z"/><path d="m-470.64 132.1c-3e-3 -2.5274 0.0182-5.0494 0.0541-7.564 0.0221-1.609 0.0557-3.2129 0.051-4.8314-6e-3 -1.1833-0.0168-2.3645-0.0254-3.5471-0.0201-2.589-0.0192-5.1869-9e-3 -7.7782 0.0123-2.0616 0.0101-4.1235 6e-3 -6.1857-8e-3 -2.6684-0.0124-5.3374-0.015-8.0063-2e-3 -2.2535 8e-3 -4.5105 0.0267-6.7608 0.0123-1.4841-4e-3 -2.9677-4.7e-4 -4.4527 0.0183-2.5121 0.0468-5.016 0.0523-7.5319 9e-3 -2.0502-0.0105-4.0986-3e-3 -6.1482 0.0374-2.0083 0.0574-4.0088 0.0628-6.0316-3e-4 -2.1838-0.0136-4.3654-0.0248-6.5477-6e-3 -2.2081 7.6e-4 -4.4156 0.0158-6.6215 8e-3 -1.4502 2e-3 -2.9006 0.0105-4.3507-0.0106-1.5166-8e-3 -3.0347-7e-3 -4.5526-5e-3 -2.1592-0.0263-4.3047-6e-3 -6.4634 0.0636-2.1663 0.0593-4.3478 0.0512-6.5417-0.012-2.3676 0.0129-4.7306-9e-3 -7.0951-0.0221-2.9533-6e-3 -5.9088-0.0118-8.8635 2e-3 -2.5831-4e-3 -1.2604 0.0199-3.9679 3e-3 -0.30997 0.65859-0.015223 0.65547 0.29418-0.0384 2.5065-0.0226 1.2763-0.0479 3.6905-0.01 2.9345-3e-3 5.8698-0.0192 8.8038-0.0136 2.3928 0.0452 4.7658 0.0305 7.1624-0.0124 2.2366-0.0475 4.4576-0.0693 6.6894-0.0119 2.0965-0.0175 4.1961-0.0255 6.293 2e-3 1.5127 4e-3 3.0255-5e-3 4.5374 0.0103 1.4644 5e-3 2.9292 9e-3 4.3945 9e-3 2.1807 9e-3 4.3618 0.0101 6.543-2e-3 2.2188 0.0115 4.4337 0.0137 6.6514-5e-3 2.0495-0.0375 4.0843-0.0653 6.1245-0.0214 2.0089 0.0133 4.0173 0.0179 6.028-7.6e-4 2.5733-0.0171 5.1496-0.0685 7.7022-0.0242 1.4104-0.0305 2.8347-0.0188 4.2531 0.019 2.2511 0.028 4.5091 0.0265 6.7635-3e-3 2.6664-8e-3 5.3326-0.0152 7.9986-3e-3 2.0669-3e-3 4.1331 9e-3 6.1992 8e-3 2.5912 4e-3 5.1885-0.0213 7.775-9e-3 1.1372-0.0164 2.2642 5e-3 3.3982 0.0183 1.7486 0.0241 3.5015 2e-3 5.2509-0.0252 2.5628-0.0286 5.1574-0.11349 7.6726-4e-3 0.25876-0.55112-0.12491-0.54706-0.38365z"/><path d="m-470.69 8.5273c1.5335 0.11168 3.0476 0.26221 4.6015 0.3314 0.44906 0.020082 0.90076 0.030067 1.3511 0.04509 1.9096 0.044608 3.824 0.020617 5.7287-0.040564 0.60234-0.04161 1.1893-0.074088 1.8047-0.063913 0.65319 0.01071-0.048 0.032881 0.51527 0.00857-0.031-0.00348-0.12485-0.00829-0.093-0.010433 0.16392-0.011781 1.21-0.043485 1.2832-0.045438 0.89467-0.02383 1.7835-0.029345 2.6799-0.026509 1.1578-0.00296 2.3112 0.032507 3.4667 0.052561 0.62096 0.012033 1.2072-0.0142 1.8239-0.030551 0.97745-0.039333 1.9511-0.064315 2.934-0.075241 0.24627-0.00267 0.49279 0 0.7388-0.00562 0.10691-0.00267 0.21206-0.012033 0.3189-0.014456 0.97621-0.023829 1.9557-0.023829 2.9334-0.023295 0.49201 0.00722 0.98521 0.0075 1.4771 0.015256 0.20005 0.00321 0.39133 0.017673 0.59217 0.018475 0.88066-0.015 1.7601-0.035934 2.6407-0.047367 1.8214-0.035155 3.6426-0.011529 5.4638 0.00697 0.93954 0.019815 1.878 0.026509 2.8178 0.00936 1.0586-0.019815 2.1176-0.00562 3.1765 0.00267 0.81429 0.018744 1.6138-0.04362 2.4158-0.085333 0.83138-0.043243 0.84467-0.040296 1.6862-0.070474 0.89611-0.027445 1.7965-0.030095 2.6942-0.012323 0.39581 0.00776 0.78802 0.039603 1.1816 0.056229 0.94229-0.00509 1.8827-0.016328 2.8253-0.00829 1.3541 0.02383 2.7133 0.033042 4.0634 0.081077 1.0935 0.044848 2.196 0.041449 3.2901 0.078935 0.88624 0.042922 1.7753 0.050391 2.666 0.032614 1.5701-0.037031 3.1249-0.12293 4.6784-0.21565 1.488-0.089859 2.9897-0.15289 4.4973-0.14295 0.2737 0.00456 0.54778 0.00616 0.82111 0.013384 0.11573 0.00296 0.23015 0.011252 0.34524 0.016874 0.12048 0.00321 0.24085 0.00697 0.36146 0.00936 0.47029 0.00936 0.93939 0.01071 1.4098 0.02142 1.3794 0.00776 2.7418 0.080086 4.059 0.23742 0.34758 0.044527 0.68883 0.096552 1.0197 0.15696 0.12089 0.021957 0.21374 0.047178 0.3521 0.051409 0.0816 0.00267 0.1633-0.00374 0.24496-0.00562 1.0854 0.00349 2.1714 0.041635 3.2474 0.095936 0.62852 0.027017 0.31589 0.017137 0.93782 0.029721 0.1223 0.014728-0.42254 0.67828-0.54484 0.6635-0.67399-0.019274-0.33867-0.00936-1.006-0.029689-1.1089-0.034676-2.2256-0.058717-3.3172-0.14593-0.2008-0.025437-0.39629-0.057084-0.59821-0.081265-0.37974-0.045496-0.80376-0.040966-1.1782-0.096579-1.2521-0.10137-2.5199-0.16344-3.794-0.20692-0.67388-0.027177-1.3546-0.064126-2.0315-0.074971-0.0478 0 0.0956 0.00267 0.14333 0.00267-0.78354 0.020349-1.556 0.076874-2.3334 0.118-0.29989 0.015802-0.60117 0.027793-0.90089 0.044128-0.32217 0.017673-0.64307 0.038368-0.96462 0.057568-1.0036 0.061475-2.0162 0.12574-3.0304 0.15629-0.95768 0.028835-1.9244 0.016328-2.8832 0.013128-0.90814-0.019549-1.8162-0.03714-2.7234-0.062095-1.1173-0.00451-2.2353-0.00427-3.3473-0.055293-1.003-0.022225-2.0106-0.038824-3.0085-0.080621-1.2841 0.02249-2.573 0.023562-3.8494-0.04209-0.90215-0.019278-1.7944 0.038635-2.6971 0.044876-1.4242 0.043054-2.8468 0.11305-4.2765 0.11492-1.3635 0.0099-2.7273 0.022759-4.0908 0.00267-0.9429-0.018208-1.885-0.011781-2.8279 0.0064-0.39521 0.028065-0.14763 0.013656-0.91136 0.021426-1.1984 0.012033-2.3965 0.00427-3.5947-0.0064-1.2069-0.012033-2.4193-0.0061-3.6202-0.059526-0.22049-0.00804-0.15212-0.00857-0.34751-0.00587-0.0609 0-0.22544-0.013384-0.18255 0.0032 0.048 0.018474 0.26629-0.00533 0.2039 0.0051-0.22072 0.037087-0.50629-0.021416-0.719 0.028729-1.662 0.06426-3.3326 0.10817-5.0029 0.057194-0.57319-0.069025-1.2877-0.00883-1.8629 0.032406-0.36469 0.018208-0.62405 0.035102-0.99644 0.037064-0.6254 0.0032-1.248-0.019277-1.873-0.014184-0.83681 0.00451-1.6675 0.025167-2.5014 0.041342-1.6172 0.019541-3.2312 0.00267-4.8475-0.019274-0.11338-0.00533-0.22635-0.012033-0.34013-0.016056-0.16883-0.00566-0.33768 0.00829 0.11897-0.00533 0.0648-0.00267-0.13087-0.00267-0.19504 0.00267-0.18414 0.011781-0.49727 0.058533-0.65136 0.07939-0.18692 0.02597-0.36987 0.056788-0.56076 0.078213-2.17 0.24358-4.4893 0.18513-6.7157 0.13551-0.48354-0.024901-0.96954-0.043567-1.4506-0.074705-0.88296-0.057138-1.7063-0.13358-2.5593-0.23581-0.5796-0.069452-1.2616-0.16363-1.806-0.27579-0.18093-0.037271-0.3436-0.086325-0.5154-0.12946-0.0872-0.030898 1.0518-0.5044 1.1391-0.4735z"/><path d="m-381.85 8.904c1.2136 0.04566 2.4334 0.067322 3.657 0.080409-0.0181 0.00227-0.0729 0.00317-0.0543 0.00363 0.21222 0.00542 0.46331 0.010429 0.67986 0.01089 0.26572 0 0.53307-0.00997 0.79717-0.00227 0.10529 0.00317 0.19381 0.023423 0.29072 0.035159 0.0405 0.00227 0.0806 0.00455 0.12142 0.00522 0.33188 0.00409 0.69712-0.013836 1.0242-0.018144 0.705-0.00929 0.75876-0.00724 1.4689-0.00861 0.73448-0.00409 1.4672 0.014515 2.201 0.017025 0.8686-0.010429 1.7373-0.010214 2.6063-0.00656 0.92314 0.00613 0.70907 0.00568 1.5253-0.00227 1.0989-0.00363 2.1973-0.012481 3.2963-0.00317 0.14139 0 0.28279 0 0.42417 0.00227 0.43301 0.00227 0.8646 0 1.2976-0.00227 0.5377-0.00227 0.63534-0.00568 0.40308 0.00227 0.63791 0.00702 1.2705 0.014294 1.9082 0.00522 0.99847-0.013158 1.997-0.00682 2.9951 0.00227 0.82491-0.00724 1.5877-0.021105 2.5052-0.019052 1.2734 0.00273 2.5465 0.00748 3.8199 0.00748 0.17332 0 0.34702 0.00252 0.51993 0 0.0108-2.044e-4 -0.0185-0.00816-7e-3 -0.00861 0.21781-0.00951 0.43875-0.012481 0.65773-0.019728 0.70774-0.023206 1.4117-0.051649 2.1206-0.072402 0.88337-0.00748 1.7465-0.054029 2.6134-0.096336 1.186-0.033366 2.3622-0.087533 3.5455-0.12655 1.1838-0.037267 2.3741-0.00501 3.5618-0.00702 1.7658-0.015193 3.5268 0.032097 5.2857 0.066346 0.17535 0.0043 0.35343 0.0034 0.52604 0.012921 0.0484 0.00273-0.1907 0.00273-0.14524 0.00816 0.22787 0.026629 0.80151 0 1.037-0.00816 1.4456-0.047522 2.9053-0.038513 4.3569-0.021322 0.56742 0.014294 1.1453 0.00252 1.7122 0.017924 0.061 0.00227-0.24519 0-0.18392 0.00227 0.10493 0.00227 0.21023 2.269e-4 0.31534 0 1.2289-0.02427 2.4589-0.028739 3.6904-0.026269 1.2838 0.010647 2.5784-0.00724 3.857 0.031667 0.94023 0.050693 1.8951 0.050718 2.8483 0.048292 0.78063-0.00227 1.5665-0.00409 2.3494-0.013158 1.4169-0.012018 2.8339-0.0127 4.2513-0.01089 0.97157-0.011787 1.8083 0.015193 2.7127 0.018835 1.6436-0.029328 3.2894-0.032324 4.9361-0.032913 1.1434 0.0034 2.2847 0.023953 3.4274 0.032345-0.0413-4.55e-5 -0.16512 1.816e-4 -0.12385-1.361e-4 0.72579-0.00588 1.4524-0.00409 2.1784-0.00273 1.156 0.00227 2.3107-0.00227 3.466-0.012017 1.2494-0.015431 2.4995-0.00724 3.7491 0 0.72121 0.00929 1.4521 0.00409 2.1647 0.040557 0.50016 0.025653 1.0009 0.065396 1.4923 0.10135 0.36761 0.028736 0.71831 0.066526 1.101 0.075965 0.085 0.00227 0.18464 0.016109 0.25574 0.00317 0.0838-0.015193-0.88158 0 0.0814-0.01089 1.1022-0.038061 2.2099-0.055664 3.32-0.061582 1.4613 0.011339 2.9224 0.00816 4.3839 0.011569 0.88419 0.015431 1.7768 0.00816 2.6745 0.0077 1.0347-0.00702 2.069 0.014972 3.1034 0.0077 1.6223-0.021105 3.2342-0.063852 4.8572-0.08293 1.774-0.00613 3.5434-0.046023 5.3118-0.082406 1.1774-0.025405 2.3575-0.014753 3.5363-0.00997 1.2789 0.00542 2.561-0.018377 3.8393-0.00227 1.3047 0.013836 2.611 0.00252 3.9125 0.034388 1.1408 0.015889 2.2569 0.071901 3.3752 0.13199 1.154 0.059383 1.4626 0.041532 2.6561 0.045727 1.2566-0.0043 2.514 0.014515 3.7696-0.00409 1.3797-0.00409 2.7591 0.00568 4.1386 0.011338 1.1819 0.00929 2.3635 0.00294 3.5455 0 0.99931 0.00227 1.9971-0.00409 2.9969-0.00476 1.6974 0.012017 3.3762-0.055979 5.054-0.11557 0.99602-0.031962 1.9973-0.068615 3.0018-0.073763 0.44798-0.00227 1.0396 0.00929 1.4523 0.014972 0.35392 0.00682 0.6884 0.05369 1.0444 0.056275 0.16881 0.00227 0.33665-0.00748 0.50483-0.011569-0.0271-0.00273-0.11033-0.00724-0.0816-0.00816 0.54324-0.018593 1.1172-0.013379 1.6638-0.017025 0.14674-0.011107 0.71639 0.55874 0.56965 0.56979-0.89333 0.00359-1.7869 0.0034-2.68-0.00476-0.54546-0.014753-1.0852-0.045683-1.6351-0.045048 0.0598 4.57e-5 0.23918 0 0.17944 1.361e-4 -0.48067 0.00613-0.32063-0.00455-0.85691 0.014753-0.69909 0.025041-0.60603 0.031327-1.3617 0.069046-0.31866 0.015889-0.63926 0.028739-0.95888 0.043119-1.7744 0.067823-3.5616 0.10836-5.3542 0.085468-1.3582 0-2.7163-0.00656-4.0745-0.00409-0.83911-0.00273-1.686-0.017245-2.5248-0.00724-0.0172 2.036e-4 0.0331 0.00223 0.0497 0.0034-1.3678 0.00816-2.7346 0.027514-4.1029 0.027495-1.6459-0.0034-3.2952-0.00613-4.9367-0.042643-0.16632-0.00317-0.33344-0.00432-0.49896-0.00975-0.0353-0.00223 0.14129-0.00317 0.10577-0.0034-0.84497-0.00588-1.69-2.272e-4 -2.5217-0.050876-0.51907-0.026878-1.0398-0.062104-1.5656-0.077801-0.35548-0.010647-0.71373-0.0127-1.0698-0.021781-0.19108-0.00476-0.38161-0.011339-0.57241-0.016788-0.17294-0.00455-0.34744-0.00568-0.51882-0.013616-0.0239 0 0.092-0.00682 0.0679-0.00702-0.73695-0.00702-1.4762 0.023302-2.2127 0.023373-1.667 0.00501-3.3365 0.010214-4.9976-0.036882-0.89534-0.018377-1.1103-0.0127-2.2056 0.034522-1.7771 0.06088-3.563 0.099644-5.3474 0.14038-2.0232 0.030488-4.0492 0.041984-6.0702-0.00636-0.77078-0.00635-1.0702 0.014972-2.0517 0.00816-1.257 0.00291-2.5138 0.00291-3.7706 0.012939-1.091-0.00223-2.1806-0.020186-3.2718-0.014753-1.0864-0.00317-2.1736-0.00682-3.2577 0.017245-1.0261 0.021997-2.0228-0.00682-3.0063-0.089371-0.80168-0.058793-1.5084-0.097648-2.1623-0.078687-1.6094 0.00816-3.22 0.014515-4.829 0-0.85966-0.00816-1.7382-0.012921-2.4104-0.012242-1.0276 0.00227-2.0549-0.00227-3.0825-0.00252-1.1627 0.00838-2.3242 0.028173-3.4876 0.031507-1.2837 0-2.5651-0.014294-3.8469-0.031327-1.2621 0.0077-2.5243 0.026129-3.7873 0.017924-1.0502-0.00227-2.1044-0.00588-3.1445-0.018377-1.1517-0.00227-2.2945 0.040309-3.448 0.02636-0.98835-0.00748-1.9653-0.038968-2.9456-0.072083-0.88679-0.00748-1.7748 0.00975-2.6614 0.012242-1.2448 0.00252-2.4882-0.00227-3.731-0.02335-0.96784 0.00273-1.9352 0.00656-2.9028 0.014294-1.0773 0.0077-2.1533 0.00838-3.228-0.018593-0.20763-0.00227-0.33631-0.00455-0.53818 0.00227-0.1612 0.00455-0.39916 0.020186-0.55499 0.02294-0.50694 0.00882-1.0157 0.00724-1.5228 0.015889-1.768-0.00317-3.529-0.030872-5.2901-0.074808-1.0293-0.027015-1.4091-0.053962-2.1689-0.034205-1.1905 0.059588-2.3722 0.14716-3.5932 0.13864-0.39935 0.00522-0.81 0.00882-1.2044 0.029531-0.36762 0.019269-0.40741 0.034409-0.80188 0.057725-0.17944 0.010647-0.36207 0.016567-0.54311 0.024907-1.5215 0.070134-3.0554 0.11346-4.6013 0.10064-0.88026 4.54e-5 -1.8212 0.0077-2.7546 0.00748-1.1836 0.00291-2.3664-0.017025-3.5492-0.019054-0.71786 0.00636-1.4043 0.015431-1.9825 0.00223-0.6346-0.00861-1.2637-0.00223-1.8984 0.00542-1.0543 0.00249-2.1077-0.00317-3.1619 0-0.70967 0.00568-1.4826-0.00223-2.2586-0.00223-0.85624-0.00656-1.7132-0.00568-2.5696-0.00223-0.38615 0-0.77261 0-1.1586-0.0034-0.12145-0.00223-0.24533 0.00223-0.36406-0.00568-0.0703-0.00432 0.26755 0.010429 0.21566-0.00317-0.0568-0.014972-0.15748-0.00223-0.23621-0.00223-1.0985 0.021997-2.19 0.078188-3.299 0.053145-1.0312-0.00359-2.1218-0.00317-3.0759-0.12528 0.34013 0.049833-0.19782-0.022674 0.72734 0.00882 0.0713 0.00249-0.13287 0.015193-0.20146 0.020863-0.58056 0.049447-1.1834 0.050945-1.7885 0.050015-1.3426 2.29e-5 -2.6986-0.035453-3.9704-0.1608-0.12717-0.017245 0.7574-0.51099 0.88456-0.49382z"/><path d="m-214.88 8.8668c0.35004 0.020466 0.65903-0.046584 0.99213-0.060861 0.33912-0.01447 0.68116-0.017989 1.0217-0.027259 1.0158-0.02787 2.0296-0.053445 3.0471-0.071345 1.5833-0.01597 3.168-0.021721 4.7506 0.00572 0.82324 0.013247 1.6386 0.058537 2.4613 0.073842 0.47656 9e-3 0.98545-0.00373 1.4597 0.018478 0.81665 0.011503 1.6282-0.031811 2.4428-0.044133 0.48095-0.00724 1.1478-0.00624 1.6297-0.00698 1.5083-0.014715 3.0144-0.044784 4.523-0.057864 2.0232-0.018723 4.0476-0.022455 6.0707-0.00249 1.726 0.031132 3.4475 0.081181 5.1629 0.15679 1.3439 0.069623 2.7035 0.077011 4.0579 0.063309 2.0624-0.050949 4.1295-0.063208 6.1957-0.075314 2.127-0.037871 4.2498 0.014226 6.3722 0.052898 1.5463 0.010495 3.095-0.043212 4.6369-0.082728 2.5009-0.061984 5.0134-0.064802 7.514 0 1.2517 0.016734 2.5125 0.056266 3.7624 0.00949 0.3307-0.00349 0.66137-0.0075 0.99212-0.010243 0.83904-0.00724 1.3465-0.00624 2.1895-0.0227 1.1792-0.023219 2.3561-0.062431 3.5351-0.087848 1.8425-0.012727 3.6769-0.074689 5.5199-0.075614 1.2681 0.01649 2.5353 0.039465 3.8026 0.06136 1.824 0.038043 3.644 0.11269 5.4554 0.19896 1.2578 0.081008 2.5153 0.031095 3.7756-0.0075 1.3121-0.039193 2.6272-0.014226 3.9403-0.00249 1.2675 0.012234 0.74495 0 1.593 0.025729 0.12484 0.00398 0.24922 0.010949 0.3745 0.011957 0.63247 6e-3 1.2734-0.02221 1.904-0.031918 0.91488-0.013981 0.99653-0.010243 1.9052-9e-3 0.81602 0.020192 1.6326 0.046779 2.4507 0.052397 0.94848 0.00624 1.8941-0.01548 2.8423-0.022455 0.1412 0.015235-0.44873 0.73959-0.58993 0.72447-0.44061-0.017223-1.3902-0.046657-1.8728-0.089497-0.0222-0.00247 0.0308-0.012234 0.0461-0.018478-1.127 0.010949-2.2467 0.074243-3.3769 0.05909-0.88328 0-1.0147 0.00523-1.8992-0.011264-0.61999-0.011503-1.2455-0.043383-1.867-0.045082-0.12527 0-0.25019 0.00474-0.37528 0.00724-0.16196 0.00401-0.32393 0.00774-0.48588 0.011743-0.0526 0.00349-0.10454 0.00949-0.15802 0.010735-1.2911 0.03174-2.5878 0.0515-3.8818 0.043083-1.6517-0.021445-3.3045-0.00673-4.955-0.042586-1.8078-0.037595-3.6028-0.11146-5.3808-0.23845-0.9105-0.032061-1.8192-0.027595-2.7275 0.00249-1.7964 0.022975-3.6008 0.017223-5.3846 0.10844-2.2862 0.081156-4.5802 0.1347-6.8781 0.093015-1.587-0.016979-3.1744-0.036121-4.7623-0.024964-0.27035 0.00401-0.54098 6e-3 -0.81106 0.011957-0.15692 0.00349-0.31243 0.013981-0.46952 0.016214-1.7087 0.025147-3.4211 0.014226-5.1305 0.026646-1.0538 0.00499-2.1118 0.024474-3.1657 0.018999-2.2658-0.011957 0.91084-0.021445-1.9265-0.015235-0.20556 0-0.41099 0.00401-0.61648 6e-3 -2.14 0.031704-4.2807 0.067922-6.4228 0.024719-1.7131-0.029309-3.4288-0.013706-5.1427-0.00299-1.7572 0.027748-3.5163 0.032814-5.2639-0.051877-1.6606-0.070098-3.3216-0.13615-4.9972-0.12801-1.6863 0.00572-3.3711-0.012727-5.0553-0.033924-1.5139 0.00724-3.023 0.048631-4.5352 0.073016-0.20505 0-1.4088 0.00349-1.6084 0.00275-0.82474-0.00324-1.6524-0.026646-2.4748 9e-3 -1.6733 0.017744-3.3465 0.010735-5.0144-0.048781-0.17801-0.00673-1.3696-0.050377-1.6066-0.06196-0.037-0.00251-0.0699-0.011717-0.10718-0.011717-0.60009 0-1.1948 0.055792-1.7918 0.068727-2.0212 0.088347-4.0805 0.15632-6.1095 0.06311-0.11502-0.010735 0.30261-0.60085 0.41762-0.59011z"/><path d="m-110.69 8.9705c0.32675-0.015581 0.65226-0.037467 0.98024-0.047089 2.2095-0.064892 4.4372-0.037076 6.6501-0.044782 1.798-0.016788 3.5955-0.053563 5.3935-0.067201 1.4767 0.0051 2.9542 0.021886 4.4293 0.054222 0.81996 0.034679 0.83676 0.034737 1.8337-0.0087 1.9117-0.057698 3.8307-0.044721 5.7453-0.026976 0.55501-0.010199 1.1045 0.036117 1.6572 0.04352 0.06154 0 0.86625-0.00602 0.9102-0.00628 1.6153-0.00959 3.2261-0.059348 4.8414-0.070678 1.3312 0.025475 2.6797-0.00988 4.0079 0.053502 0.01453 0-0.02389 0.0072-0.0358 0.011092 0.07732 0.00302 0.15463 0.00538 0.23195 0.00809 0.02899 0.00302 0.05735 0.00839 0.08693 0.0078 0.12522-0.00301 0.23972-0.032041 0.36132-0.045231 0.11434-0.012296 0.23-0.02278 0.34656-0.030273 0.21084-0.013504 0.7551-0.031951 0.95354-0.039267 1.7398-0.072114 3.4854-0.11138 5.2308-0.14837 1.4128-0.030665 2.8277-0.047298 4.2422-0.039566 1.4187-0.00569 2.8367-0.026976 4.2555-0.021885 1.5868 0.03186 3.172-0.010199 4.7575-0.036508 1.7269 0 3.4532-0.021885 5.1776-0.060996 1.6487-0.096726 3.3195-0.10029 4.9776-0.057191 1.3279 0.049066 2.6505 0.11848 3.979 0.16405 1.1762 0.020074 2.3515 0.020678 3.5262 0.054852 1.7304 0.014687 3.4594 0.0066 5.1894 0.029974 1.6399 0.034709 3.2754 0.095525 4.9088 0.16647 1.6154 0.1041 3.2401 0.033989 4.8612 0.025476 1.5922 0 3.1837 0.00809 4.7759-0.00302 1.4314 0.012296 2.8626 0.011092 4.2939 0 0.95732-0.016185 1.9097 0.033931 2.8648 0.048974 1.2223 0.00898 2.4384-0.043912 3.6592-0.061413 1.2064-0.024877 2.416-0.042262 3.624-0.031681 0.18515 0.00301 0.36947 0.011378 0.55438 0.015581 0.75056 0.017683 0.95812 0.019495 1.6831 0.030573 0.66998 0.00751 1.1181 0.010484 1.825 0.030334 0.20181 0.0057 0.40189 0.020678 0.60377 0.025778 0.75015 0.019181 1.5071 0.017079 2.2583 0.028176 1.1796 0.022176 2.3596 0.014084 3.5396 0.00538 1.0346-0.00931 2.0652 0.040525 3.098 0.0048 0.22693-0.0048 0.45443-0.00628 0.6808-0.015001 0.10451-0.00388 0.20583-0.01889 0.31038-0.02278 0.83417-0.029976 1.6759-0.029372 2.5121-0.02278 0.39533 0.00751 0.79113 0.00301 1.1867 0.0036 0.08684 0 0.17569 0.012586 0.26033 0.00421 0.05081-0.0051-0.10181-0.00988-0.1527-0.015001 0.12137-0.00538 0.24274-0.010794 0.3641-0.016186 1.0158-0.082517 2.0309-0.14537 3.064-0.16437 0.65839-0.00751 1.3079-0.00628 1.9517 0.055451 0.31243 0.029974 0.6168 0.073376 0.92881 0.10428 0.76944 0.012586 0.5652 0 1.3753-0.032073 0.93821-0.025176 1.8693-0.048736 2.8102-0.026079 0.20408 0.0048 0.90155 0.048229 1.1262 0.061655 0.35923 0.029074 0.36927 0.027275 0.68516 0.061056 0.05528 0.00602 0.10908 0.014373 0.16484 0.01947 0.02679 0.00302 0.10902 0.00302 0.08171 0.00302-0.44285-0.00302-0.43077 0-0.21467-0.00839 0.65548-0.051823 1.3246-0.052004 1.9879-0.039685 0.6093 0.026676 1.2146 0.0051 1.8244 0.00302-0.50576 0.0078 0.03167-0.00751 0.12572-0.012296 0.10467-0.02249 0.83998 0.62177 0.73532 0.64443-0.43423 0.065191-0.81054 0.10392-1.2952 0.090969-0.2953-0.00299-0.58599-0.011378-0.88028-0.020992-0.05693-0.00299-0.11386-0.00418-0.17094-0.00418-0.04785 3.02e-5 -0.18922 0-0.14322 0.00449 0.07213 0.00901 0.14984 0.00388 0.22476 0.0057-0.63521 0.013504-1.2723 0.025476-1.9077 0.0072-0.60239 0.016789-1.2087-0.00418-1.8112-0.010199-0.94509-0.025176-1.8909-0.052604-2.8384-0.036179-0.85927-0.00299-1.7299 0.040257-2.5768-0.040315-0.55748-0.047507-1.1164-0.081828-1.6873-0.061356-1.0135 0.0051-2.0205 0.03288-3.0167 0.1198-1.0039 0.024275-1.2243-0.024283-1.6578 0.024579-1.4859 0.11468-3.0004 0.14981-4.5064 0.094866-0.21614-0.00931-0.56439-0.031114-0.80235-0.021572-0.04089 0.00299 0.16252 0.0048 0.12195 0.0078-0.4806 0.033254-0.98276 0.011067-1.4653 0.03017-1.5243 0.016192-3.0493 0.041881-4.5741 0.023391-0.76051-0.014363-0.82631-0.011368-1.5821-0.041759-0.69409-0.027874-1.3854-0.065731-2.0841-0.038128-2.2784 0.036032-4.5598 0.080149-6.8384 0.014084-0.73811-0.011378-1.489-0.015002-2.2229-0.056859-0.024647 0 0.097987-0.00538 0.073182-0.00628h-0.58194c-0.57044 0.011688-1.1384 0.043252-1.7093 0.050116-0.416 0.0051-0.83224 0.00538-1.2484 0.0066-0.27561 0-0.55124 2.99e-5 -0.82686 2.99e-5 -1.4254-0.015291-2.8509-0.028174-4.2768-0.030152-1.2137-0.055091-2.5384 0.072328-3.757 0.067412-2.0209 0.029971-4.0452 0.00602-6.0595-0.073076-1.591-0.072927-3.1809-0.15889-4.7839-0.15173-1.7427 0.00302-3.4883 0.00302-5.2238-0.078292-1.1633-0.031022-2.3285-0.047058-3.4896-0.091807-1.3493-0.020678-2.7028 0-4.05-0.056081-0.92846-0.019785-1.8748-0.022176-2.799-0.067591-0.60794-0.029974 0.43174-0.054433-0.59826-0.038397-0.10426 0.00301-0.20581 0.015002-0.30871 0.02249-1.7368 0.22138-3.5154 0.27417-5.3212 0.24662-1.9322-0.025476-3.863-0.052155-5.7963-0.03243-1.2035-0.0087-0.46444 0-1.6524-0.026079-0.26826-0.00628-0.98484-0.018286-1.2719-0.033931-0.01109 0-3.37e-4 -0.013189-0.01143-0.013793-0.10807-0.00388-0.21692 0-0.32539 0-1.3804 0.058119-2.7533 0.16476-4.1457 0.15463-1.7665 0.039173-3.5314 0.075234-5.301 0.063244-0.18879 0-0.3777 0.00421-0.56637 0-0.13266-0.00301-0.26466-0.00959-0.39645-0.016475-0.1008-0.00538-0.19989-0.030334-0.29999-0.023069-0.13419 0.00988-0.24075 0.063602-0.37234 0.072984-0.6204 0.085904-0.25699 0.04727-1.2877 0.08093-1.0043 0.032762-2.0113 0.037525-3.0174 0.053084-1.6422-0.011378-3.2803-0.060875-4.9227-0.06891-0.59732-0.00418-1.1984-0.013503-1.7954-0.00628-0.32688 0.00388-0.65196 0.023069-0.97858 0.029971-0.24254 0.0051-0.48538 0.00689-0.72807 0.010199-1.595 0.011688-3.192 0.019495-4.7852-0.023987-0.93025-0.031921-1.8576-0.024582-2.7891 0.00418-1.1507 0.0048-2.2995-0.020678-3.4501-0.023987-0.34155 0.00299-1.0623 0.00299-1.4009 0.013503-1.3005 0.040436-2.5849 0.17028-3.8946 0.17049-2.5958 0.053741-5.234 0.13713-7.8177-0.028178-0.31922-0.020388-0.63213-0.05644-0.9482-0.084645-0.11545-0.016788 0.42767-0.72748 0.5431-0.71076z"/><path d="m-469.76 749.95c0.69263-0.0418 1.4365-0.0328 2.1406-0.0621 0.0445-2e-3 -0.0102-0.0222 0.0355-0.0236 0.52398-0.0155 1.0579-0.0173 1.5876-0.0243 0.29163-4e-3 2.8158-0.0314 3.1444-0.035 2.6926-0.0381 5.3774-0.0945 8.0774-0.11362 0.35809-7.6e-4 0.71609-4e-3 1.0743-4e-3 0.73427 4e-4 1.4686 2e-3 2.2026 6e-3 0.14918 6.9e-4 -0.59647 4e-3 -0.44734 4e-3 1.0475-8e-3 2.0846-0.0276 3.1287-0.0446 3.6643-0.0493 7.3463-0.0415 11.018-0.0298 1.8954 7.7e-4 3.7858 0.0323 5.6415 0.10175 3.6331 0.13615-1.0609-0.0238 2.3469 0.0898 0.38736 0.0117 0.77252 0.0259 1.1621 0.0351 0.28503 7e-3 2.2368 0.0355 2.4741 0.0398 1.3174 0.0234 2.6306 0.0552 3.9453 0.083 0.3975 0.0112 0.79504 0.0224 1.1925 0.0337 0.34079 0.01 0.67978 0.0215 1.0223 0.029 1.2325 0.0268 2.491 0.0243 3.7301 0.0317 0.87099 0.011 1.7482 5e-3 2.6191 0.012 0.14462 7.6e-4 -0.57819-1.9e-4 -0.43438 3e-3 0.35335 8e-3 1.1747 3e-3 1.526 7.6e-4 1.5191-0.0103 3.0271-0.052 4.5462-0.0618 1.2781-8e-3 3.2264-0.0108 4.6243-0.0134 1.8957 4.3e-4 3.789 0.0246 5.684 0.0286 1.1788 2e-3 1.5703-4e-3 2.774-0.0114 0.0499-3e-3 0.0974-8e-3 0.14946-9e-3 2.3794-0.0193 4.7497 0.0106 7.1242 0.0314 2.8569 0.0135 5.7125-0.012 8.57-0.0109-0.0408-7.6e-4 -0.16368-3e-3 -0.12209-4e-3 2.1615-0.0289 0.41726 8e-3 2.6066-0.0316 1.5169-0.0271 3.0298-0.065 4.5422-0.0988 0.58434-9e-3 1.1683-0.0186 1.753-0.0267 1.0838-0.0151 2.4623-0.0316 3.5485-0.0361 1.9682-8e-3 3.9521 0.0134 5.9181 0.023 2.3416 0.0429 4.6986 0.0317 7.0482 0.0272 1.904 2e-3 3.9971 7e-4 6.1078-0.01 1.7637-8e-3 3.53-6e-3 5.2935 4e-3 2.3621 0.0117-0.0741 9e-3 2.0812 0.0227 0.32648 2e-3 0.65337 4.8e-4 0.98005 7e-4 -0.0842-5e-3 -0.33918-0.0103-0.25303-0.0136 0.41191-0.0159 0.83813-0.0161 1.2566-0.025 0.48253-0.0104 0.9637-0.0227 1.4464-0.0328 1.7778-0.0374 3.5509-0.063 5.3379-0.0811 3.5452 6.9e-4 7.0972 0.01 10.636 0.0504 0.44897 7e-3 0.89899 0.0125 1.3469 0.0216 1.2265 0.0248 1.2948 0.0374 2.4934 0.0583 0.80942 0.0142 1.6236 0.0183 2.4331 0.0322 0.42693 8e-3 0.85225 0.0176 1.2784 0.0263 2.2884 0.0393 4.5689 0.0901 6.8495 0.14173 2.1524 0.041 4.3086 9e-3 6.4612-0.0122 0.0646-5e-3 0.12343-0.0142 0.19346-0.0151 0.55355-7e-3 1.1092-6e-3 1.6639-8e-3 2.1847-8e-3 4.3647-4e-3 6.5487 6e-3 0.47137 3e-3 0.94258 7e-3 1.4141 9e-3 0.88753 4e-3 1.7755 3e-3 2.6629 8e-3 1.2673 7e-3 2.5287 0.0341 3.7959 0.0424 2.4373-0.0152 3.1492-0.0161 5.6596 0.0144 2.3409 0.0178 4.6804 0.0364 7.0231 0.0456 1.7659 0.0209 4.0683-0.0195 6.3234-0.0489 4.058-0.0478 8.1285-0.0356 12.186 5e-3 1.5656 0.0208 0.96838 8e-3 2.342 0.0432 0.25652 7e-3 0.51305 0.0135 0.76923 0.0206 0.18971 6e-3 0.67127-0.0122 0.56853 0.0166-8.3e-4 2.4e-4 -1.6075 0.0122-0.069 4.7e-4 2.1731-0.0463 4.3455-0.0974 6.5365-0.10848 1.1636-6e-3 2.328-6e-3 3.4919-9e-3 3.2192-5e-3 6.4385 0.0167 9.6439 0.0698 0.30347 6e-3 0.62005 4.1e-4 0.91035 0.0171 0.13952 8e-3 -0.57688 2e-3 -0.43661 0.0101 0.23612 0.013 0.49371 4e-3 0.74052 6e-3 0.65874 6e-3 1.3185 9e-3 1.9761 0.0178 0.42772 6e-3 0.84833 0.023 1.2732 0.0336 0.62617 0.017 1.2609 7e-3 1.8873-4e-3 0.33087-6e-3 0.66722-6e-3 0.99118-0.0193 0.054-2e-3 -0.19613-0.0139-0.1414-0.0154 0.44038-0.012 0.88874-0.0114 1.3331-0.0171 1.4234-0.0171 2.8538-0.022 4.278-5e-3 0.36394 4e-3 0.72534 0.0141 1.0888 0.0196 0.62776 0.01 2.9614 0.0297 3.077 0.0307 0.74461 6e-3 1.4331 0.0516 2.113 0.10168 0.13764 0.0101 0.26697 0.0243 0.41014 0.0317 0.21788 0.0111 0.39276-4e-3 0.60178-0.0132 0.21572-8e-3 0.43131-0.0152 0.64699-0.0229-0.13792-8e-3 -0.54708-0.0138-0.41347-0.0239 0.11192-9e-3 1.9735-0.0349 2.0592-0.0361 0.34938-0.021 2.0204 0.85947 1.671 0.88053-1.8108 0.03-3.6872 0.0624-5.4784-8e-3 -0.40791-0.0191-0.80848-0.0434-1.2205-0.0596-0.59411-0.0232-1.2108 7e-3 -1.8086-7e-3 0.18299 2e-3 0.72367-4e-3 0.54878 6e-3 -0.28112 0.0157-0.58833 7e-3 -0.88147 0.0121-0.33963 6e-3 -0.67628 0.0173-1.0163 0.0228-1.4172 0.0232-2.8434 0.0233-4.2642 0.0131-1.3024-0.011-2.6072-0.0121-3.9092-0.0249-1.059-0.0103-2.1021-0.0556-3.1604-0.0678-0.18622-2e-3 -0.37221-6e-3 -0.55871-7e-3 -0.18084-7.6e-4 -0.72244-6e-3 -0.54291-2e-3 0.31224 7e-3 1.5165 7.6e-4 -0.0676 0.0111-2.5932 0.0157-1.2752-4e-3 -3.0186 0.0273-3.2725 0.0516-6.5577 0.0742-9.8432 0.0688-1.3595-0.0232 0.56377 9e-3 -2.4088-0.0272-1.6444-0.0198-3.2767-0.0571-4.9152-0.0869-0.89998-6e-3 -1.1626-9e-3 -2.3094 2e-3 -0.21089 2e-3 -0.41763 0.0113-0.62681 0.0164-1.0952 0.0272-2.1923 0.0549-3.3 0.0587-3.0894 0.0243-6.1801 0.0378-9.2699 4e-3 -1.0195-9e-3 -2.038-0.0213-3.0583-0.0256-2.0674-9e-3 -4.1374 0.0275-6.2055 0.0138-1.1562-6e-3 -1.4708-6e-3 -2.6255-0.0227-1.4877-0.0221-2.964-0.0631-4.4513-0.0857-0.29198-3e-3 -0.58525-3e-3 -0.87596-9e-3 -0.14248-3e-3 0.57314-2.8e-4 0.42985-1.2e-4 -1.6525 2e-3 -3.3022 2e-3 -4.9531-0.0116-0.911 5e-3 -1.8157 0.0165-2.7253 0.0262-0.38934 4e-3 -0.78015 5e-3 -1.1683 0.0115-0.0268 4.5e-4 0.0909 7e-3 0.0649 8e-3 -0.45806 6e-3 -0.9179 6e-3 -1.3768 0.01-3.7388 0.0248-7.4808 0.0311-11.22 4e-3 -2.2214-0.0245-4.4342-0.0711-6.6613-0.0766-2.3587-0.0148-4.7037-0.0641-7.0497-0.10801-2.4445-0.0431-4.8876-0.0946-7.3468-0.10095-1.3639-9e-3 -2.7333-0.021-4.0982-0.0105-0.0188 1.4e-4 -0.0161 8e-3 -0.0354 8e-3 -0.51135 7e-3 -1.0244 9e-3 -1.5365 0.0132-0.56405 5e-3 -1.1281 0.01-1.6921 0.0149-3.584 0.0179-7.167 0.0343-10.752 0.0208-1.035 0-2.0858 4e-3 -3.117 0.021-0.0351 4.7e-4 0.13416 7e-3 0.0987 7e-3 -0.6447 4e-3 -2.0439-7e-4 -2.6852-3e-3 -2.9484-0.0102-5.894 7e-3 -8.8427 2e-3 -2.3504-0.01-4.703-0.0425-7.053-0.0191 0.49362 0.0552 0.14382 0.0113-1.3057 0.0264-1.6874 0.0176-3.376 0.0281-5.0651 0.0388-0.55055 4e-3 -1.1011 6e-3 -1.6517 0.01-3.4009 0.0275-6.7843 0.11152-10.197 0.0968-1.67 4.8e-4 -3.348 2e-3 -5.0161-0.0141-0.0619-4.7e-4 0.24738-2e-3 0.1854-2e-3 -0.35989 7.6e-4 -0.71962 4e-3 -1.0794 6e-3 -1.281 0.0118-2.5586 0.0294-3.8413 0.0348-1.6294 7e-3 -1.5425 3e-3 -3.191-2e-3 -0.9792-3e-3 -1.9584-6e-3 -2.9377-8e-3 -1.2045-9e-3 -1.5633-0.0139-2.7466-0.0119-1.9203 4e-3 -3.8393 0.0253-5.7601 0.0249-0.53994-7.6e-4 -1.0803 4.7e-4 -1.6198-4e-3 -0.0636-4.6e-4 -0.11806-0.01-0.18139-0.0104-1.5487-0.0257-3.1074-0.0382-4.6604-0.0526-3.2188 5e-3 1.6295-5e-3 -1.5504 9e-3 -1.6145 6e-3 -3.2311 6e-3 -4.8456 2e-3 -2.1216-0.0127-4.2428-0.0269-6.3594-0.057-2.6377-0.0466-5.2751-0.10188-7.863-0.20703-0.95416-0.0333-1.1917-0.0459-2.133-0.063-1.7236-0.0311-3.4574-0.01-5.1849-6e-3 -2.7335 6e-3 -5.4702 5e-3 -8.1993-0.027-0.78549-0.01-1.5699-0.0227-2.3566-0.0283-0.64437-5e-3 -2.775 4e-3 -2.9567 6e-3 -0.16046 7.6e-4 0.63747-2.4e-4 0.48054 6e-3 -0.28967 0.0111-0.59147 6e-3 -0.88717 0.01-2.6227 0.0583-5.2254 0.14134-7.8512 0.19563-0.55638 0.0122-1.1107 0.0279-1.6691 0.037-1.4783 0.0236-1.9446 0.0183-3.4149 0.0138-1.6431-5e-3 -3.2359 8e-3 -4.8221-0.0723-0.31589-0.0145 0.83112-0.81059 1.147-0.79615z"/><path d="m-206.09 749.75c6.2144 0.0481 12.434 0.0807 18.661 0.10423 1.4893 0.0314 3.023 0.0279 4.5298 0.0498 0.63177 0.01 1.1081 0.0109 0.9684 0.0424-0.0846 0.019-0.27562 0.0292-0.41326 0.0439-0.30207 0.0402-1.3321 0.14303-0.90601 0.12108 0.9817-0.0505 1.6254-0.17014 2.6438-0.21063 0.94825-0.0377 2.0102-0.01 3.0148-0.0138 1.4796-7e-3 2.9537-0.0159 4.4354-0.0204 1.7256-6e-3 3.451 7e-3 5.1765 5e-3 0.16252-2.8e-4 -0.3247-1e-3 -0.48708-4e-3 0.66776-4e-3 1.3349-0.01 2.0033-0.01 1.5488-7e-5 3.097 6e-3 4.6456 0.01 3.4672 0.0109 6.8966 0.0727 10.347 0.10678-0.41963 4.9e-4 -0.98974 0.0376-1.2589 9.1e-4 -0.253-0.0339 0.78633-7e-3 1.1791-0.0122 0.53165-6e-3 1.0623-0.0138 1.5941-0.0188 2.3051-0.0246 4.6074-0.0378 6.9206-0.0485 3.0341 3.7e-4 6.0652-4e-3 9.0909 0.0245 0.5115 5e-3 1.0227 0.01 1.5345 0.0138 0.44312 4e-3 0.95494-0.0173 1.3302 0.01 0.33827 0.024-0.80083-1e-4 -1.2013-1.2e-4 3.4346-0.0555 6.8866-0.095 10.332-0.14104 4.7911-0.0772 9.6165-0.13211 14.453-0.15533 2.7735-6e-3 5.548-0.0124 8.322-4e-3 1.406 5e-3 2.823 0.0286 4.2197 0.0464 3.1639 0.0421 6.355 0.0424 9.5268 0.0747 2.28 0.0166 4.5397 0.0622 6.8259 0.0686 0.44878 9.1e-4 0.9011 6e-3 1.3468-2.8e-4 0.21334-4e-3 -0.42647-6e-3 -0.63967-0.01 4.238-0.0467 8.497-0.0631 12.743-0.0239 1.1263 6e-3 2.2544 6e-3 3.379 0.0154 0.46274 4e-3 0.90702 0.0236 1.3694 0.0276 0.92494 7e-3 1.9486-0.0161 2.8613-0.0253 3.3434-0.0154 5.4739-0.0401 9.3678-0.0794 6.0024-0.063 12.07-0.0905 18.079-0.0247 1.4507 0.0154 2.8945 0.0531 4.3504 0.0624 2.3847 0.0154 4.8308-7e-3 7.2169-0.01 3.5752-0.0218 6.9979 0.0959 10.485 0.15532 2.7998 0.0154 5.6148 0.01 8.4221 0.0154 3.8477 0.0198 2.895 0.0224 7.5518-0.0124 2.2475-0.0205 4.4965-0.0205 6.7476-0.0122 2.1453 7e-3 4.0561 7e-3 6.1221 0.0481 0.73127 0.0367 2.8978 0.0327-0.09712 0.0138 2.8684-0.0474 5.779-0.0434 8.6708-0.0404 1.246 1e-3 2.4921 4e-3 3.7381 5e-3 0.60992 0.0176-1.6059 0.98725-2.2158 0.96961 0.23802 1e-3 0.47599 4e-3 0.71398 5e-3 -2.9452 4e-3 -5.9051 6e-3 -8.8306-0.0373-1.544-6e-3 -2.7525-0.035-4.1678 7e-3 -0.29861 6e-3 -0.59603 0.0109-0.8956 0.0138-0.43472 6e-3 -0.89679-4e-3 -1.3066 0.0138-0.19386 7e-3 0.81134 0.0122 0.60633 0.0154-2.1957 0.0355-4.4655-7e-3 -6.6671-9.1e-4 -4.1975-0.0154-8.3427 6e-3 -12.538 4e-3 -2.8254-0.0182-5.5906-0.0733-8.4018-0.0996-3.5958 1e-4 -7.1913 0.0239-10.786-1.2e-4 -0.99012-0.0124-1.9835-0.0204-2.9704-0.0353-2.7538-0.0412-5.398-0.13673-8.2007-0.0771-0.67107 5e-3 -1.3442 6e-3 -2.0132 0.0138-0.02782 3.1e-4 0.01415 0.01-0.01415 0.01-3.5593 0.0138-7.1292-7e-3 -10.688 0.0155-4.8336 0.0297-9.6746 0.064-14.512 0.0178-0.92922-0.0109-1.9421-0.037-2.8831-0.0343-0.11486 3.1e-4 -1.3223 0.0187-1.2944 0.0211 0.27737 0.0253 0.70984 0.01 1.0647 0.0138-4.1998 0.048-8.4243 0.0475-12.64 0.0297-4.3064-4e-3 -8.6302 1e-3 -12.913-0.0578-0.9438-0.0109-2.8684-0.0336-3.7972-0.0475-1.7507-0.0264-3.4773-0.076-5.2554-0.0731-3.6339 1e-3 -3.5677 7e-3 -7.1162 0.0365-4.7721 0.0536-9.5558 0.0823-14.338 0.12072-1.9173 0.0159-3.8114 0.0504-5.7251 0.0676-1.6439 0.0154-3.3083 1e-3 -4.9439 0.0316-2.2118 0.0122-4.4281 0.0204-6.6378 0.0372-0.63525 6e-3 -1.272 7e-3 -1.9053 0.0154-0.0278 3.2e-4 0.0933 6e-3 0.0647 6e-3 -0.82524 4e-3 -1.6514 1e-3 -2.4771 4e-3 -4.3884-0.0109-8.7724-0.0459-13.163-0.0331-3.5736 0.0154-7.1492-9.1e-4 -10.713-0.0333 0.96176-0.031 0.55946-0.0138-1.7472-0.0182-3.1248-6e-3 -6.2516 4e-3 -9.3747-0.0109-0.9698-7e-3 -2.1756-0.0166-3.1548-0.029-0.37805-6e-3 -1.3873 0.0138-1.1304-0.0177 0.3233-0.0396 1.0158 0.01 1.4274-0.0188 0.77613-0.052 1.2302-0.15102 1.973-0.20884 0.41626-0.0325-0.64893 0.0874-0.97338 0.13103-0.46445 0.0399-0.97377 0.0879-1.5076 0.11623-3.447 0.18413-7.654 0.13365-11.281 0.15478-6.5739-0.0138-13.333-0.0624-19.458-0.35562-0.54561-0.0285 3.04-0.89586 3.5855-0.86736z"/><path d="m31.283 751.5c-0.05822-2.4711-0.03753-4.967 0.03375-7.4298 0.01816-0.43477 0.02411-0.70839 0.0558-1.099 0.0028-0.037 0.01989-0.0489 0.01916-0.0877-0.0038-0.23273-0.02132-0.45851-0.03213-0.68762-0.0745-1.589-0.05231-3.2118-0.03149-4.8163 0.02732-1.2267 0.01152-2.4514 0.0013-3.6786-0.01065-1.5494-0.01065-3.1 8.85e-4 -4.6496 0.02924-1.4711-0.01327-2.9372-0.02441-4.4063-0.0061-1.4474 0.03243-2.889 0.03998-4.3341-0.01415-1.4842-0.03017-2.9655-0.02602-4.4513 4.05e-4 -1.1512 0.01722-2.298 0.03996-3.445-0.02132-1.3843-0.04282-2.7675-0.05258-4.1546-0.0051-1.8357 0.0077-3.6706 0.01254-5.506 0.0071-1.8079-0.01514-3.6146-0.01196-5.4223 0.0047-1.8415 0.01094-3.6828 0.0018-5.5242-0.0031-0.36123-0.0064-0.72262-0.01065-1.0838-0.01609-1.3589-0.02635-1.3863-0.01916-2.8275 0.0083-1.7581 0.05051-3.509 0.08802-5.2596 0.05089-2.8888 0.0982-5.7786 0.14578-8.6683 0.04231-1.8883 0.02538-3.7852 0.01722-5.6774-0.0038-2.2062-0.1016-4.3834-0.16386-6.5694-0.05449-1.9693-0.11377-3.9464-0.11956-5.93-0.01254-0.60681 0.02348-1.2061 0.03149-1.807 0.0031-0.26362-0.0045-0.52779-0.0061-0.79171-0.01873-1.2407-8.87e-4 -2.4835 2e-3 -3.725-0.02826-1.6176-0.03733-3.2346-0.02013-4.8544 0.02732-1.9324 0.06707-3.8616 0.08144-5.7965 0.0093-1.3018 0.0051-2.6047 0.0045-3.907-0.02858-1.6723-0.03053-3.3495-0.03232-5.0254 8.87e-4 -1.8412 0.0074-3.6823 0.01006-5.5235 0.01254-1.8066 0.08791-3.5882 0.1459-5.3759 0.02732-1.8725 0.03251-3.7483 0.05363-5.6225 0.02411-2.2063 0.0026-4.4141-7e-3 -6.6208-0.0074-2.0186 0.01533-4.0346 0.02229-6.0525 0.02411-1.7024-0.0026-3.4039-9e-3 -5.1064 2e-3 -2.0207 2e-3 -4.0404-0.0066-6.0609-0.0055-1.6963-0.02348-3.414 0.05803-5.0879 0.0336-0.52613 7e-3 -1.0478-0.0077-1.5785-0.03853-1.5197-0.02797-3.0465-0.02635-4.5708 0.0051-1.2332 0.01873-2.4655 0.0218-3.6988-0.01065-1.3922-0.0218-2.7841-0.02061-4.1774-0.01703-0.91376 0.03766-1.8155 0.04429-2.7223-0.01873-0.77616-0.01327-1.5551-0.01609-2.3334-0.0013-0.1571 8.85e-4 -0.31521-0.0031-0.47167-9e-3 -0.35558-0.03419-0.70179-0.04814-1.0548-0.03053-0.77092-0.04636-1.5476-0.0745-2.3198-0.01138-0.3017-0.02411-0.60255-0.03411-0.90504-0.03354-1.0168-0.02797-0.92116-0.03922-1.9159-0.0057-0.5124-0.0071-1.0164-0.03085-1.5207-0.04334-0.58033-0.06732-1.1731-0.08729-1.7719-0.0088-0.30501 1.0642-0.797 1.0728-0.49197 0.01628 0.47372 0.02762 0.95282 0.06451 1.4104 0.10257 1.5441 0.14959 3.1151 0.1709 4.7104 0.04051 1.4364 0.07722 2.8836 0.06805 4.3309-0.0028 0.77827 0.0026 1.5572-0.01609 2.3334 0.0064 0.90676 0.06136 1.8085 0.04428 2.7223 0.0013 1.3933-0.01006 2.7852-0.02061 4.1774 0.0031 1.2334 0.01685 2.4656 0.0218 3.6989 0.0018 1.5241 0.01196 3.0506-0.02635 4.57-0.01444 0.53178-0.04102 1.0551-0.0077 1.5823 0.081 1.6723 0.0628 3.3878 0.05777 5.0821-0.0082 2.0227-0.0064 4.0444-0.0045 6.0672-0.0074 1.7032-0.03704 3.4046-0.01722 5.1084 0.0051 2.0038 0.03672 4.0028 0.0424 6.0068 0.0013 2.2805-7e-3 4.5611-0.03489 6.8391-0.02277 1.9832-0.02762 3.9722-0.07849 5.947-0.05399 1.6181-0.13028 3.2269-0.14145 4.8636 0.0047 1.8528 0.01385 3.7057 0.0088 5.5586-7e-3 1.6389-0.01989 3.2772-0.0426 4.9134 0.01609 1.3447 0.05059 2.685 0.05975 4.0313 0.0038 2.0018-0.01797 3.9974-0.08788 5.982-0.03017 1.5191-0.01225 3.0494-0.03244 4.5721 0.01385 1.3356 0.03457 2.6798-0.01342 4.0091-0.02602 0.74537-0.05842 1.2404 4.37e-4 1.9776 0.10063 1.9437 0.13967 3.9242 0.21302 5.8858 0.06026 2.3101 0.13762 4.6209 0.12249 6.9498 0.0066 1.9576 0.0088 3.9154 0.01684 5.873-0.0018 2.9737 0.01722 5.9551-0.04833 8.92-0.06812 2.9264-0.17671 5.8398-0.18922 8.7833-0.0093 1.8413-0.0028 3.6826 0.0018 5.5241 0.0028 1.8077-0.01892 3.6144-0.01196 5.4223 0.0045 1.8355 0.01778 3.6704 0.01254 5.506-0.01006 1.387-0.03149 2.7702-0.05258 4.1545 0.02252 1.1471 0.03961 2.294 0.03996 3.4454 0.0045 1.4854-0.01196 2.9663-0.02602 4.4502 0.0077 1.4456 0.04663 2.8876 0.04034 4.3357-0.01152 1.469-0.05421 2.935-0.02571 4.4061 0.01138 1.5464 0.01254 3.0937 0.0045 4.64-9e-3 1.2423-0.02348 2.4824-0.0045 3.7252 0.01254 1.5261 0.02958 3.068-0.03241 4.5813-0.05328 0.60093 0.12694 1.5376 0.08627 2.1816 0.03459 2.448 0.0051 4.9396-0.15056 7.3198 0 0.29962-1.0537 0.29962-1.0537 0z"/><path d="m31.256 555.74c-0.0548-6.2039-0.01137-12.444 0.04147-18.632 0.01137-3.2559 0.11701-6.3771 0.11019-9.6359-0.02805-4.6365-0.04355-9.2678-0.03164-13.912 0.01705-3.1444 0.02768-6.2785 0.01483-9.4251-0.04286-5.8609-0.05663-11.734-0.08018-17.605-0.0064-3.9387-0.02323-7.8453-0.0963-11.716-0.06943-3.1684-0.07571-6.397-0.0781-9.6281-0.05235-5.4149-0.1225-10.811-0.1638-16.236-0.02323-2.5141-0.0054-5.0454-0.01409-7.5619-0.0079-2.2429-0.03102-4.5016-0.04447-6.7429-0.0131-3.9096-0.05626-7.8027-0.08903-11.699-0.09953-6.2536-0.12677-12.58-0.13532-18.907-4.65e-4 -5.2345 0.06248-10.434 0.07937-15.661 0.0023-4.7908-0.02373-9.5771-0.03403-14.366-0.0037-5.2598 0.0014-10.523 0.02076-15.78 0.03399-4.1298-0.0014-8.2589 0.0049-12.39 0.01038-5.9742 0.06431-11.911 0.13995-17.83 0.05759-4.8861 0.01483-9.8018 0.02422-14.704 0.0084-3.7232 0.06441-7.401 0.11738-11.075 0.0014-0.25038 0.0047-0.499 0.0037-0.74941-0.0032-1.2995-0.02739-2.5964-0.03453-3.8926-0.01211-2.2008-0.0064-3.025-0.0027-5.2585 0.0072-4.1664 0.08671-8.285 0.10144-12.441 0.0096-1.4437-0.0037-2.8869-0.0082-4.3295-0.0032-0.82574 1.118-1.2993 1.1212-0.47349 0.0096 1.5776 0.01631 3.1574 0.03361 4.729 0.01829 4.428 0.02711 8.8583-0.03146 13.268-0.0396 3.1678-0.08418 6.3257-0.06216 9.5326 0.01631 3.6365-0.0049 7.271-0.02348 10.903-0.0096 5.1712 0.02576 10.354-0.01903 15.52-0.03381 5.8032-0.08619 11.601-0.14583 17.381-0.03868 3.9362-0.0498 7.8831-0.02373 11.835 0.01705 5.2304 0.02076 10.466 0.02224 15.699-0.0054 4.8622-0.02101 9.7225-0.02548 14.585 9.51e-4 5.1432 0.0262 10.278 0.0304 15.421-2.2e-4 6.1307 4.65e-4 12.262 0.01928 18.391 0.0077 3.9238 0.11239 7.7359 0.11718 11.67 0.02504 4.6188 0.02897 9.2609 0.10426 13.832 0.06908 5.8769 0.11347 11.776 0.07534 17.699-0.0215 2.4911-0.01903 4.8765 0.06164 7.2745 0.08364 4.2986 0.1769 8.5885 0.21375 12.967 0.02175 2.5298 0.04387 4.5194 0.04563 7.0798 0.0027 3.7954-0.04822 7.5629-0.06488 11.348-0.01755 3.0524-0.01137 6.0859 0.02175 9.1294 0.03156 4.9163 0.03826 9.8505-0.01261 14.758-0.03737 3.1122-0.06918 6.1841-0.02398 9.3196 0.01582 6.1288-0.0019 12.359-0.15517 18.313 0 0.82781-1.1241 0.82781-1.1241 0z"/><path d="m31.582 275.1c-0.0086-0.62937-0.01938-1.2548-0.02517-1.8881-0.0275-2.9119-0.02943-5.8682-0.04199-8.7917-0.01082-2.5128-0.02285-4.6323-0.03678-7.1522-0.03678-6.1615-0.03678-12.331-0.0043-18.492 0.01172-4.9898 0.01442-9.991-7e-3 -14.979-0.0455-7.5332-0.0329-15.07-0.0043-22.606 0.03293-4.0074 0.02826-8.0341 0.04309-12.054 0.01826-4.0739-0.02285-8.1217-0.04365-12.18-0.01825-6.5391-0.01082-13.096 0.0092-19.634 0.0302-5.2871-0.0038-10.574-0.0027-15.865 0.0092-5.7174-5e-3 -11.433 0.0043-17.15 0.0014-6.5622-0.02285-13.119-0.0275-19.68-0.0097-6.5435-0.0047-13.086 0.0446-19.606 0.0077-0.68831 0.01352-1.3795 0.02285-2.0648 0.03293-2.4365 0.02285-0.8587 0.04555-3.097 0.01938-1.923 0.01826-3.8806 0.02943-5.8127 0.03953-4.3644-0.0061-8.7302-7e-3 -13.101-7.24e-4 -4.0199 0.0077-5.0454 0.02441-8.9992 0.01014-5.7283 0.06029-11.408 0.14428-17.043 0.03252-1.8604 0.02254-3.7754 0.02096-5.6641 0.0011-1.6356-0.0023-3.2497-0.02164-4.8697-0.0455-4.6973-0.04055-9.4627-0.01735-14.178 0.0047-0.52843 0.0092-1.0563 0.01397-1.5845-9.7e-5 -0.76272 0.89759-0.77983 0.89769-0.018376 0.0047 0.53333 0.0092 1.0661 0.01442 1.5991 0.02324 4.746 0.02632 9.547-0.02594 14.267-0.01893 1.4268-0.03099 2.7974-0.0081 4.2314 0.02164 2.3288 0.02439 4.6558 0.02164 6.9976 0.0027 5.5329 0.0086 11.064 0.01285 16.597-0.0077 7.6368-0.06 15.236-0.13218 22.823-0.04194 3.2916-0.12125 6.5596-0.10552 9.9174 0.04933 6.5206 0.05465 13.063 0.0446 19.606-5e-3 6.5611-0.02905 13.118-0.0275 19.68 0.0097 5.7176-5e-3 11.433 0.0043 17.151 0.0011 5.2915-0.03331 10.578-0.0034 15.866 0.01983 6.5361 0.0275 13.091 0.0097 19.629-0.02051 4.0691-0.06054 8.1271-0.04442 12.212 0.01285 3.9996 0.0059 8.0074 0.04156 11.992 0.0329 7.5581 0.05321 15.121 0.0077 22.681-0.024 5.0064-0.03525 10.026-0.04918 15.034 0.02362 5.9659 0.06912 11.916 0.09452 17.88 0.01825 6.1139 0.02749 12.286-0.05181 18.348 0 0.73385-0.8637 0.73385-0.8637 0z"/><path d="m31.973 161.42c-0.01507-0.74995-0.0112-1.5139-0.0041-2.2687 0.0062-0.24378-0.0012-0.45757-6e-3 -0.69528-0.0027-0.13538-0.0085-0.49656-0.01035-0.60822-0.0088-0.53394-0.0038-1.0726-0.0056-1.6089-7.32e-4 -0.2288-0.0026-0.45725-0.0037-0.68594-0.0058-0.53537 2.44e-4 -1.0713-0.0015-1.6069 0.0011-0.46956 9.15e-4 -0.93836 0.0052-1.4068-0.0098-0.38485-0.01679-0.77261-0.01939-1.1663-0.0043-0.6358-0.0018-1.2725-9.76e-4 -1.9088-2e-3 -0.67324 0.0017-1.3462 0.0026-2.0192 0.0019-0.55686-6.1e-4 -1.1138-0.0021-1.6707-4e-5 -0.58612 0.0012-1.1721 0.0031-1.758-3.31e-4 -0.65656-0.0043-1.3124-0.0067-1.9686-6.1e-4 -0.78154 2e-3 -1.5628 0.0026-2.3442-0.0033-0.69337-7.93e-4 -1.3873 0.0035-2.0799 0.0019-0.46042 0.0021-0.91936 6.1e-4 -1.3796-0.0074-0.70791 0.0029-1.4128 0.0083-2.1181 0.0078-0.82752 5.47e-4 -1.6564-3e-3 -2.484-0.0087-1.1564-9.15e-4 -2.3128 0.0078-3.467 0.0073-0.84184 0.01256-1.6824 0.01153-2.5265 0.0024-0.8161 0.0096-1.63 0.01-2.4467-0.0021-0.97944-0.0027-1.9581 0.0075-2.9343 0.01136-0.84875 0.0064-1.7023 0.0052-2.5539-0.0032-0.62386 0.0054-1.2452 0.0068-1.8678-0.0013-0.58759-0.0052-1.1743-0.0015-1.7614 8e-3 -0.84457 0.0082-1.6918 0.01168-2.538 0.0057-0.95422 0.01978-1.9039 0.03272-2.8525 0.0087-0.85149 9e-3 -1.7063 0.0072-2.5602 3.86e-4 -0.52361 0.01199-1.038 0.0215-1.5528 0.0027-0.098 0.0019-0.19789 0.0016-0.29745-3.3e-4 -0.11836 0.19094-0.15971 0.19127-0.0413 6.1e-4 0.15644 5.47e-4 0.31259 4.69e-4 0.46913-0.0018 0.45387-0.0071 0.9075-0.0027 1.3621 0.0062 0.93312 0.01043 1.8708-0.0036 2.8008-0.01133 0.91541-0.02456 1.83-0.03041 2.7497-6e-3 0.85313-0.0084 1.7089-0.02255 2.5562-0.0046 0.55376-0.0053 1.1095-0.0084 1.664 0.0017 0.6177 0.0148 1.2308 0.01334 1.8505 0.0012 0.88955-0.0031 1.7781-0.0068 2.667-0.0013 0.46013-0.0052 0.92075-0.0055 1.381-2.45e-4 0.50223 3e-3 1.0052-0.0011 1.5073-0.0049 0.78677-0.01333 1.5705-0.01818 2.3571 0.0044 0.88595 0.01036 1.7727 0.0054 2.6595-0.0057 1.1145-0.01685 2.2274-0.01344 3.344 2.45e-4 0.87927-5.47e-4 1.7596-0.0066 2.6375-0.0068 0.66502-0.01626 1.3285-0.01787 1.9965-0.0015 0.46016-0.0013 0.91904 6.1e-4 1.3794 0.0043 0.69263 0.0068 1.3867 0.0035 2.0802 5.47e-4 0.78116 0.0031 1.5623 0.0025 2.3436-0.0024 0.65616-0.0063 1.3121-0.0065 1.9687 2e-3 0.58712 0.0029 1.1744 0.0024 1.7618-0.0018 0.55014-0.0046 1.101-0.0011 1.651 0.0027 0.68969 0.0077 1.38 0.0027 2.0701-0.0023 0.59618-0.0064 1.1913-0.0094 1.787 3e-3 0.42173 0.01177 0.83419 0.01666 1.2545 4e-3 0.47956 0.0019 0.95801-6.1e-4 1.4379-0.0043 0.49127 0.0045 0.97694 9e-3 1.4667 0.0086 0.76435 0.01204 1.53 0.0068 2.2975-0.0014 0.47597 0.0093 0.9368 0.01484 1.4088 0.0071 0.75481 0.01094 1.5187-0.0041 2.2687 0 0.12107-0.19565 0.12107-0.19565 0z"/><path d="m31.978 106.53c-0.03837-1.0108-0.03626-2.0671-0.03399-3.106 0.0056-0.75734 0.01298-1.5128 0.01347-2.2715 0.0018-0.87082-0.0096-1.7363-0.0081-2.6076 0.0034-0.82001 8e-3 -1.6383 0.0025-2.458 0.0027-0.9976-0.0032-1.9935-0.0073-2.9903-0.0099-1.3694-0.0046-2.7408-8.96e-4 -4.1109 0.0011-0.53983 0.01383-1.0757 0.01466-1.6155 3.8e-4 -0.27552-2e-3 -0.44871-0.0045-0.73091-0.0064-1.0556-0.01004-2.1117-0.0051-3.1678 0.0067-0.67663 0.01147-1.3548 0.0092-2.0332-0.0042-1.1136-0.01726-2.2234-0.02345-3.3362-0.0017-1.5063 0.0064-3.0121 0.0051-4.5183-5e-3 -1.0197 4.83e-4 -2.0409-0.0037-3.0606-0.0094-2.3612-0.0034 0.56846-0.0073-1.854 0.0044-1.4366 0.0094-2.8738 0.01818-4.3095 0.01168-0.98104-0.0061-1.9606-0.01116-2.9405-0.0015-0.27851-0.0013-0.5573-2e-3 -0.83596-9.7e-5 -0.28146-1.4e-5 -0.56299-3.79e-4 -0.84444-3.8e-4 -0.29542-0.0024-0.59084-0.0019-0.88626 0.0018-1.1 0.01605-2.2038 0.02696-3.3005 0.0089-0.89657 0.02749-1.7887 0.06489-2.6464-0.01811-0.93179-0.0013-1.8727 0.01532-2.7986 0.02404-1.0797 0.03723-2.1746 0.07504-3.2354 0.0028-0.13028 0.25781 0.15925 0.25498 0.28946-0.01698 1.0819 0.0066-0.38409-0.0155 0.85342-0.0139 0.77794-0.01698 1.564-0.03468 2.3387-0.0056 0.25305-0.0223 1.0087-0.02896 1.2652-0.0096 0.3695-0.02717 0.7677-0.03245 1.1425-9.77e-4 0.07457-3.3e-5 0.14992-4.9e-5 0.22491 0.01181 0.9012 0.0023 1.7987-0.0042 2.7014-0.0024 0.22253-0.01496 1.3334-0.01637 1.5665-0.0066 1.1084-8.96e-4 2.2208-0.0049 3.3296-6.9e-4 0.27865-5.87e-4 0.55744-2e-3 0.83596-0.0051 0.97991-0.02284 1.9595-0.01116 2.9405 0.0087 1.4357 0.01379 2.8729 0.01818 4.3095-0.0039 2.4224 0.0023-0.50707-0.0072 1.854-0.0041 1.0197 0.0014 2.0409-0.0037 3.0606-0.0012 1.5063 0.0068 3.012 0.0051 4.5183-0.0062 1.1128-0.01922 2.2226-0.02347 3.3362-0.0023 0.67836 0.0025 1.3565 0.0092 2.0331 0.0051 1.0562 0.0013 2.1123-0.0051 3.168-0.0025 0.28205-0.0049 0.4557-0.0045 0.73112 8.07e-4 0.5396 0.01351 1.0754 0.0146 1.6151 0.0038 1.3699 0.0091 2.7412-5.86e-4 4.1105-0.0041 0.998-0.0099 1.995-0.0078 2.9938-6e-3 0.81601-0.0019 1.6307 0.0028 2.4469 0.0027 0.88063-0.0065 1.7567-0.0059 2.6369-0.0023 0.74664-0.0038 1.493 0.0015 2.2394 0.0041 0.98521 0.01479 1.9735 0.0025 2.9578 0.0015 0.1206-0.23451 0.27959-0.23607 0.15899z"/><path d="m32.021 51.028c-0.05287-0.82108-0.07966-1.6907-0.08932-2.5575 5.05e-4 -0.12759 3.78e-4 -0.25538 0.0016-0.38283 0.0022-0.23158 0.0048-0.32256 0.01357-0.53754 0.0062-0.15139 0.01347-0.27856 0.01408-0.4332-0.0022-0.52467-0.0067-1.0491-0.0085-1.5739-0.0022-0.7274-0.0075-1.4545-0.0089-2.182 0.0073-0.69467 0.0054-1.389 0.0058-2.0841-0.0022-0.75244-0.0028-1.505-0.0031-2.2575-0.0043-0.94126-0.0072-1.8824-7e-3 -2.824-0.0021-1.0137-1.26e-4 -2.0273 1e-3 -3.0411 1e-3 -1.035-0.0016-2.0693-0.0054-3.1041-0.01093-1.4455-0.01176-2.8924-0.01069-4.3389 0.0031-1.2604 0.01026-2.5198 0.01079-3.7803 0.0029-1.1757-1e-3 -2.3518-0.0038-3.5275-0.0022-1.21-6.3e-5 -2.4194 0.0074-3.6287 0.0019-0.62382 0.01924-1.2444 0.01722-1.8683 0.0042-0.77355 0.0086-1.5447 0.02585-2.3132 0.01333-0.4267 0.02626-0.87871 0.07128-1.2479 0.0098-0.080468 0.02233-0.15007 0.03351-0.22514 0.02419-0.13457 0.04156-0.28105 0.05404-0.45375 0.0011-0.015913 0.0022-0.031828 0.0034-0.047741h3.77e-4c0.0015-0.11486 0.29927 0 0.29781 0.11257-3e-3 0.22591-7.75e-4 0.11652-0.0068 0.32838-0.01875 0.4808-0.05574 0.84073-0.12405 1.1634 8.65e-4 -0.07244 0.0087-0.31876 0.0096-0.07168 0.0013 0.33702 8.64e-4 0.2259-0.0018 0.60528-0.01114 0.72034-0.02531 1.4389-0.04639 2.1528-2e-3 0.62396 0.01537 1.2445 0.01722 1.8683 0.0075 1.2093 0.0097 2.4187 0.0074 3.6287-0.0029 1.1757-0.0067 2.3518-0.0038 3.5275 5.04e-4 1.2605 0.0076 2.5199 0.01079 3.7803 1e-3 1.4466 2.58e-4 2.8934-0.01071 4.339-0.0038 1.0347-0.0065 2.0689-0.0054 3.1039 0.0011 1.0139 0.0031 2.0278 8.64e-4 3.0417 5.7e-5 0.94105-3e-3 1.8816-0.0072 2.8223-1.27e-4 0.75313-1.2e-4 1.5064-0.0022 2.2595 2.58e-4 0.69633-0.0029 1.3922 0.0029 2.0884-0.0022 0.71453-0.0079 1.429-0.0029 2.1437 0.0028 0.60029 0.0048 1.2052-0.01317 1.7999-0.0038 0.1033-0.0093 0.20515-0.01176 0.30976-0.0013 0.05328 0.0024 0.10621 0.0038 0.15914 0.01134 0.43389-0.0016-0.01661 0.01486 0.53491 0.02248 0.84274 0.04817 1.6878 0.05351 2.5398 0.0022 0.1179-0.30332 0.29267-0.30558 0.17477z"/></g></g></svg>
