<svg width="36.208mm" height="38.801mm" version="1.1" viewBox="0 0 36.208 38.801" xmlns="http://www.w3.org/2000/svg"><g transform="translate(-62.672 -95.59)"><g transform="translate(-9.5993 34.647)"><path d="m77.827 99.618c-0.65484-0.10476-1.9279-0.13332-2.8291-0.06347-2.5978 0.20137-2.4887 0.80313-2.4285-13.403 0.03462-8.1697 0.14352-12.091 0.34712-12.499 0.29549-0.59195 0.32456-0.59448 7.2999-0.63594 3.8518-0.02289 7.4976-0.12629 8.1017-0.22978 1.8098-0.31002 1.7694-0.6116 1.8062 13.47 0.02836 10.85-0.01901 12.467-0.37774 12.897-0.36934 0.44264-0.9238 0.49967-5.5695 0.5729-2.8377 0.04473-5.6952-0.0044-6.35-0.10915zm7.6731-1.0455c3.3169-0.0019 3.473-0.02646 3.6774-0.57885 0.14655-0.39616 0.08646-0.70382-0.19181-0.98208-0.36389-0.36389-0.36279-0.41338 0.01075-0.48533 0.45695-0.08802 0.84102-1.4538 0.44886-1.5961-0.13444-0.04881-0.17012-0.209-0.07928-0.35599 0.3084-0.499 0.09514-5.8781-0.2417-6.0966-0.20511-0.13301-0.22363-0.27565-0.05245-0.40403 0.3714-0.27855 0.50679-8.0976 0.1517-8.7611-0.16021-0.29936-0.17676-0.56014-0.03872-0.61024 0.13258-0.04812 0.30989-1.0102 0.39402-2.138 0.12778-1.7127 0.08772-2.0505-0.24316-2.0505-0.25075 0-0.39614-0.25379-0.39614-0.69149 0-0.64161-0.06202-0.67818-0.8599-0.50692-1.0682 0.22928-1.6127 0.24136-5.8485 0.12978-3.0905-0.08141-3.4262-0.04478-3.6757 0.40103-0.24626 0.44005-0.30598 0.44766-0.57937 0.07379-0.40119-0.54866-4.1193-0.78139-4.1184-0.25778 3.28e-4 0.18647-0.17607 0.40683-0.392 0.48969-0.57427 0.22037-0.56494 6.9765 0.0096 6.9765 0.48468 0 0.49118 0.38315 0.01459 0.85973-0.501 0.501-0.7196 7.0779-0.23525 7.0778 0.17736-3.4e-5 0.25416 0.17782 0.17071 0.39529-0.08344 0.21744-0.2583 0.32948-0.38857 0.24897-0.30625-0.18928-0.29724 0.17344 0.01664 0.66972 0.1563 0.24713 0.14066 0.51421-0.0431 0.73562-0.35588 0.42881-0.0692 5.1839 0.32041 5.3146 0.14462 0.04851 0.26294 0.38296 0.26294 0.74322 0 0.36931-0.11541 0.5837-0.26458 0.4915-0.14552-0.08994-0.26276-0.0672-0.26053 0.05053 0.01316 0.69524 0.5852 0.8057 4.3373 0.83752 2.1694 0.01839 4.0017 0.09077 4.0718 0.16082 0.07005 0.07005 0.22438 0.06741 0.34294-0.0059 0.11857-0.07328 1.7744-0.13412 3.6795-0.1352zm-7.8715-2.2962c2.0009-0.04495 5.2751-0.04495 7.276 0 2.0009 0.04495 0.3638 0.08172-3.638 0.08172s-5.6389-0.03677-3.638-0.08172zm0-0.52917c2.0009-0.04495 5.2751-0.04495 7.276 0 2.0009 0.04495 0.3638 0.08172-3.638 0.08172s-5.6389-0.03677-3.638-0.08172zm0-0.52917c2.0009-0.04495 5.2751-0.04495 7.276 0 2.0009 0.04495 0.3638 0.08173-3.638 0.08173s-5.6389-0.03678-3.638-0.08173zm0-0.52917c2.0009-0.04495 5.2751-0.04495 7.276 0 2.0009 0.04495 0.3638 0.08173-3.638 0.08173s-5.6389-0.03678-3.638-0.08173zm-3.5057-0.72825c0-0.29986 0.32338-0.39688 1.3229-0.39688 0.7276 0 1.3229 0.11906 1.3229 0.26458 0 0.14552 0.24515 0.26458 0.54478 0.26458 0.30164 0 0.47061-0.12001 0.37859-0.2689-0.0914-0.14789-0.27702-0.2004-0.41249-0.11668-0.13546 0.08372-0.2463-0.01409-0.2463-0.21737 0-0.25497 0.36924-0.38356 1.1906-0.41463 0.90469-0.03422 1.1906 0.05079 1.1906 0.35398 0 0.21946-0.12609 0.39901-0.2802 0.39901s-0.20661-0.11906-0.11668-0.26458c0.08994-0.14552 0.02751-0.26458-0.13872-0.26458-0.16624 0-0.25331 0.14883-0.19349 0.33073 0.0612 0.18612 0.62038 0.35475 1.2788 0.38566 0.64353 0.03021 1.0212-0.0095 0.83933-0.08819-0.3929-0.17003-0.44645-0.89278-0.06615-0.89278 0.14552 0 0.26458 0.11906 0.26458 0.26458s0.12609 0.26458 0.2802 0.26458 0.20661-0.11906 0.11668-0.26458c-0.08994-0.14552 0.01836-0.26458 0.24066-0.26458 0.25192 0 0.34638 0.15064 0.25074 0.39988-0.1098 0.28613-0.03218 0.35334 0.27289 0.23628 0.23448-0.08998 0.42633-0.26992 0.42633-0.39988 0-0.12995 0.17859-0.23628 0.39688-0.23628 0.22049 0 0.39688 0.23518 0.39688 0.52917 0 0.35783 0.17639 0.52917 0.54478 0.52917 0.30164 0 0.47061-0.12001 0.37859-0.2689-0.0914-0.14789-0.27702-0.2004-0.41249-0.11668-0.13547 0.08372-0.2463-0.01852-0.2463-0.2272 0-0.22943 0.26438-0.37942 0.66879-0.37942 0.53352 0 0.63694 0.10034 0.51134 0.49609-0.1193 0.37587-0.02489 0.49609 0.38954 0.49609 0.30085 0 0.547-0.11906 0.547-0.26458 0-0.14552 0.57547-0.26458 1.2788-0.26458 0.96034 0 1.2788 0.09884 1.2788 0.39688 0 0.34292-0.96524 0.39688-7.0997 0.39688-6.1344 0-7.0997-0.05396-7.0997-0.39688zm5.7252-0.52917c-0.08376-0.21828-0.03697-0.39688 0.10398-0.39688 0.14095 0 0.25628 0.17859 0.25628 0.39688 0 0.21828-0.04679 0.39688-0.10398 0.39688-0.05719 0-0.17252-0.17859-0.25628-0.39688zm-4.8616-0.32215c0.40218-0.06082 0.9975-0.05919 1.3229 0.0036 0.32542 0.0628-0.0036 0.11256-0.73124 0.11058-0.7276-0.0021-0.99386-0.05337-0.59168-0.11419zm11.377 0c0.40218-0.06082 0.9975-0.05919 1.3229 0.0036 0.32542 0.0628-0.0036 0.11256-0.73124 0.11058-0.7276-0.0021-0.99386-0.05337-0.59167-0.11419zm-8.7191-0.5372c2.0096-0.04501 5.2243-0.04489 7.1438 2.57e-4 1.9195 0.04515 0.27522 0.08197-3.6538 0.08182-3.9291-1.4e-4 -5.4995-0.03708-3.4899-0.08208zm0-0.52917c2.0096-0.04501 5.2243-0.04489 7.1438 2.57e-4 1.9195 0.04515 0.27522 0.08197-3.6538 0.08182-3.9291-1.4e-4 -5.4995-0.03708-3.4899-0.08208zm-3.4488-0.86044c-0.03895-0.51703 0.12324-0.52917 7.071-0.52917 6.9478 0 7.1099 0.01215 7.071 0.52917-0.03879 0.51489-0.22954 0.52917-7.071 0.52917-6.8415 0-7.0322-0.01429-7.071-0.52917zm12.852-1.2568c-0.12993-0.63979-0.07838-1.0153 0.16346-1.1906 0.18003-0.13052 0.15027-0.27804-0.08695-0.43099-0.3045-0.19634-0.3045-0.25144 0-0.35385 0.28454-0.09569 0.29337-0.20288 0.04181-0.50785-0.44192-0.53575-0.39018-6.3141 0.05653-6.3141 0.23388 0 0.31811 1.1808 0.32084 4.4979 2e-3 2.4739-0.0996 4.4979-0.22585 4.4979-0.12625 0-0.24768-0.0893-0.26984-0.19844zm-11.745-1.0916c-0.06661-0.06661-0.11274-0.48822-0.10252-0.93691 0.01553-0.68146 0.05365-0.72866 0.23148-0.28663 0.11708 0.29104 0.16122 0.61846 0.09808 0.7276-0.06314 0.10914 1.1356 0.19844 2.6638 0.19844h2.7786l0.08127-3.3306c0.0532-2.1804-0.01851-3.4131-0.20766-3.5696-0.15891-0.13144-0.36727-0.16064-0.46302-0.06489-0.09575 0.09575-0.17409 0.03519-0.17409-0.13459 0-0.49153 1.0085-0.35712 1.1581 0.15434 0.28683 0.98067 0.10982 6.9262-0.21421 7.1951-0.30735 0.25508-5.5993 0.29826-5.8499 0.04773zm6.7581-0.2975c0-0.14552 0.48328-0.26458 1.0739-0.26458 0.64859 0 1.0092 0.10479 0.91043 0.26458-0.08994 0.14552-0.57321 0.26458-1.0739 0.26458s-0.91043-0.11906-0.91043-0.26458zm0.10055-1.3743c-0.1694-0.2741-0.24296-0.25956 1.6854-0.33318 0.9095-0.03473 1.6536 0.03759 1.6536 0.1607 0 0.12311-0.20836 0.23561-0.46302 0.24999-2.178 0.12301-2.7618 0.10728-2.876-0.07751zm-6.9588-1.9992c-0.01149-0.9095 0.0807-1.6536 0.20486-1.6536 0.12416 0 0.17425 0.62508 0.11132 1.3891-0.16798 2.0393-0.29244 2.1434-0.31618 0.26458zm6.8583 0.51246c0-0.11833 0.53578-0.24288 1.1906-0.27678 0.6916-0.0358 1.1906 0.05437 1.1906 0.21514 0 0.15223-0.53578 0.27678-1.1906 0.27678-0.65484 0-1.1906-0.09681-1.1906-0.21514zm-5.3113-0.11855c-0.2735-0.87889-0.18886-1.1896 0.28991-1.0644 0.28792 0.07529 0.52532 0.27184 0.52755 0.43677 0.0022 0.16493 0.11947 0.12128 0.26053-0.097 0.21184-0.32779 0.25719-0.3033 0.26053 0.14073 0.0029 0.38375-0.18525 0.55327-0.65741 0.59235-0.3638 0.03011-0.67031 0.02633-0.68112-0.0084zm1.6258-0.5262c0.01342-0.4296 0.06866-0.48484 0.19844-0.19844 0.24196 0.53397 0.8413 0.62821 0.8413 0.13229 0-0.49687 0.36906-0.51172 0.76811-0.0309 0.35076 0.42264-0.1115 0.69236-1.1866 0.69236-0.49264 0-0.63554-0.13694-0.62122-0.59531zm3.6856-0.7276c0-0.14552 0.41672-0.26458 0.92604-0.26458s0.92604 0.11906 0.92604 0.26458c0 0.14552-0.41672 0.26458-0.92604 0.26458s-0.92604-0.11906-0.92604-0.26458zm-6.8395-1.9026c-0.03768-0.92818 0.3243-1.5258 0.6979-1.1522 0.09524 0.09525 0.03853 0.25638-0.12602 0.35808-0.16456 0.1017-0.35163 0.54171-0.41572 0.9778-0.10727 0.7299-0.11967 0.71531-0.15617-0.18368zm6.8395 0.5797c0-0.14552 0.35719-0.26458 0.79375-0.26458 0.43656 0 0.79375 0.11906 0.79375 0.26458s-0.35719 0.26458-0.79375 0.26458c-0.43656 0-0.79375-0.11906-0.79375-0.26458zm0-1.3406c0-0.13579 0.42374-0.24689 0.94166-0.24689s0.87934 0.10082 0.80319 0.22405c-0.19053 0.30829-1.7448 0.32863-1.7448 0.02284zm-5.7374-0.15391c0.32106-0.32106 2.5624-0.42541 2.5624-0.1193 0 0.17395-0.5496 0.2909-1.367 0.2909-0.75186 0-1.2898-0.07722-1.1954-0.17161zm-0.69382-1.6012c-0.35595-0.09225-0.45736-0.33272-0.39688-0.94112 0.04468-0.44947 0.23102-0.86638 0.41408-0.92648 0.256-0.08405 0.26992 0.05621 0.06027 0.60762-0.22255 0.58536-0.18653 0.78216 0.19634 1.0727 0.49494 0.37554 0.48328 0.38352-0.27381 0.18732zm3.5208-0.23989c0-0.26512-0.14622-0.36907-0.3884-0.27614-0.44867 0.17217-0.78169-0.22671-0.5297-0.63444 0.11721-0.18966 0.28958-0.1794 0.54478 0.0324 0.29048 0.24108 0.37422 0.22925 0.37737-0.0533 0.0034-0.30458 0.04072-0.30525 0.23151-0.0041 0.16608 0.26211 0.27844 0.27649 0.41638 0.0533 0.14257-0.23069 0.2805-0.22967 0.56224 0.0041 0.2684 0.22275 0.37332 0.22636 0.37332 0.01285 0-0.16334 0.12709-0.29698 0.28241-0.29698 0.16201 0 0.21081 0.22561 0.11446 0.52917-0.09635 0.30356-0.04755 0.52917 0.11446 0.52917 0.15533 0 0.28241 0.11906 0.28241 0.26458 0 0.14552-0.53578 0.26458-1.1906 0.26458-0.91718 0-1.1906-0.09765-1.1906-0.42518zm7.519-0.76544c0.0095-0.56055 0.14742-0.92604 0.34942-0.92604 0.20499 0 0.33371 0.35719 0.33371 0.92604 0 0.59087-0.12647 0.92604-0.34942 0.92604-0.22595 0-0.34387-0.32724-0.33371-0.92604zm-5.1021 0.41888c-0.30896-0.19095 0.01783-0.86769 0.38552-0.79838 0.52676 0.09928 0.74965-0.03805 0.41053-0.25293-0.2559-0.16215-0.17004-0.22746 0.299-0.22746 0.58095 0 0.63625 0.08131 0.47235 0.69453-0.18253 0.68295-0.94677 0.96781-1.5674 0.58424zm-4.2028-1.2627c0.25466-0.06655 0.67138-0.06655 0.92604 0s0.0463 0.121-0.46302 0.121c-0.50932 0-0.71768-0.05445-0.46302-0.121zm-1.5214-1.4051c-0.32638-0.52809 0.17457-0.8098 1.1235-0.63178 0.52246 0.09802 1.4954 0.16211 2.1622 0.14243 1.2532-0.03699 6.1498-0.07355 6.9669-0.05202 0.25466 0.0067 0.46302 0.19079 0.46302 0.40907 0 0.33951-0.76262 0.39688-5.2761 0.39688-3.232 0-5.3394-0.10251-5.4396-0.26458zm24.606 22.037c-1.6468-0.22548-2.6991-0.61985-3.267-1.2244-0.48759-0.51902-0.54166-0.743-0.32004-1.3259 0.14666-0.38575 0.38867-0.70137 0.53779-0.70137 0.44731 0 0.30583-0.48155-0.19189-0.65312-0.25466-0.08779-0.84816-0.48992-1.3189-0.89364-0.76982-0.66022-0.82971-0.81224-0.59562-1.5119 0.14314-0.42781 0.5485-1.7303 0.90079-2.8945 0.3523-1.1642 0.72236-2.325 0.82236-2.5797 0.12362-0.31479 0.05599-0.46302-0.21125-0.46302-0.40093 0-0.59133 0.38032-1.4342 2.8648-0.47951 1.4134-1.7416 3.2252-2.0422 2.9317-0.08818-0.08611 0.2574-0.95796 0.76794-1.9375 0.51054-0.97949 0.92826-2.0317 0.92826-2.3383 0-0.8722 1.0927-3.9766 1.6063-4.5635 0.2547-0.29104 0.59903-1.0413 0.76519-1.6673 0.30429-1.1463 0.8889-1.6605 1.3564-1.193 0.26308 0.26308-0.36273 1.8194-1.3968 3.4736-0.63098 1.0094-0.48336 1.2823 0.96262 1.7794 1.009 0.34688 1.3277 0.17692 1.5101-0.80524 0.07224-0.3891 0.30738-0.52917 0.88837-0.52917 0.63383 0 0.80796 0.12625 0.8803 0.63824 0.11515 0.815 0.77932 1.4784 1.4801 1.4784 0.36239 0 0.57443 0.1971 0.62964 0.58528 0.0685 0.48162 0.20907 0.56022 0.79375 0.44377 0.84617-0.16853 2.2666 0.31354 2.0337 0.69025-0.0901 0.14579-0.63306 0.26508-1.2066 0.26508-0.5735 0-1.0427 0.10919-1.0427 0.24265 0 0.55426 1.0305 2.5719 1.5517 3.0382 0.75283 0.67341 1.0908 2.0117 1.0926 4.326l1e-3 1.9182-0.85989 0.0084c-0.47294 0.0046-1.091 0.18322-1.3735 0.39688-0.4954 0.37471-2.3406 0.46178-4.2489 0.20049zm-5.049-21.866c-0.07568-0.19723-0.10171-1.12-0.05784-2.0505l0.07976-1.6919h3.9688l0.07937 1.6767c0.04774 1.0084-0.04427 1.8257-0.23083 2.0505-0.42364 0.51045-3.6443 0.52318-3.8392 0.01518zm1.0997-1.2289c0.20761 0 0.37748 0.17859 0.37748 0.39688 0 0.22428 0.23692 0.39688 0.54478 0.39688 0.31872 0 0.47236-0.11718 0.37025-0.28239-0.0961-0.1555 0.07522-0.3477 0.38126-0.42773 0.59396-0.15532 0.77818-0.5787 0.22506-0.51725-0.1819 0.02021-0.33073-0.08231-0.33073-0.22784 0-0.14552 0.14883-0.24805 0.33073-0.22784 0.1819 0.02021 0.33073-0.06908 0.33073-0.19844 0-0.12935-0.25086-0.23518-0.55748-0.23518-0.38683 0-0.51086-0.12148-0.40518-0.39688 0.1097-0.28588-0.02806-0.39688-0.49256-0.39688s-0.60226 0.111-0.49256 0.39688c0.09887 0.25765-0.0068 0.39688-0.30119 0.39688-0.2944 0-0.40006-0.13923-0.30119-0.39688 0.08376-0.21828 0.03697-0.39688-0.10398-0.39688-0.14095 0-0.24247 0.68461-0.22559 1.5214s0.08514 1.313 0.15169 1.0583c0.06655-0.25466 0.29086-0.46302 0.49847-0.46302zm-0.41628-0.66146c0-0.21828 0.17859-0.39688 0.39688-0.39688 0.21828 0 0.39688 0.17859 0.39688 0.39688s-0.17859 0.39688-0.39688 0.39688c-0.21828 0-0.39688-0.17859-0.39688-0.39688zm3.8145 1.8904c-0.07568-0.19723-0.10171-1.12-0.05784-2.0505l0.07976-1.6919h3.9688l0.0794 1.6767c0.0477 1.0084-0.0443 1.8257-0.23084 2.0505-0.42363 0.51045-3.6443 0.52318-3.8392 0.01518zm1.0997-1.2289c0.20761 0 0.37747 0.17859 0.37747 0.39688 0 0.22428 0.23693 0.39688 0.54479 0.39688 0.31871 0 0.47235-0.11718 0.37025-0.28239-0.0961-0.1555 0.0752-0.3477 0.38126-0.42773 0.59396-0.15532 0.77818-0.5787 0.22506-0.51725-0.1819 0.02021-0.33073-0.08231-0.33073-0.22784 0-0.14552 0.14883-0.24805 0.33073-0.22784 0.1819 0.02021 0.33073-0.06908 0.33073-0.19844 0-0.12935-0.25086-0.23518-0.55748-0.23518-0.38683 0-0.51085-0.12148-0.40517-0.39688 0.1097-0.28588-0.0281-0.39688-0.49256-0.39688-0.4645 0-0.60226 0.111-0.49256 0.39688 0.0989 0.25765-7e-3 0.39688-0.30119 0.39688-0.2944 0-0.40006-0.13923-0.30119-0.39688 0.0838-0.21828 0.037-0.39688-0.10399-0.39688-0.14095 0-0.24247 0.68461-0.22559 1.5214 0.0169 0.83674 0.0851 1.313 0.1517 1.0583 0.0665-0.25466 0.29086-0.46302 0.49847-0.46302zm-0.41628-0.66146c0-0.21828 0.1786-0.39688 0.39688-0.39688s0.39687 0.17859 0.39687 0.39688-0.17859 0.39688-0.39687 0.39688-0.39688-0.17859-0.39688-0.39688zm3.8145 1.8904c-0.0757-0.19723-0.10171-1.12-0.0578-2.0505l0.0798-1.6919h3.9688l0.0794 1.6767c0.0477 1.0084-0.0443 1.8257-0.23083 2.0505-0.42364 0.51045-3.6443 0.52318-3.8392 0.01518zm1.0997-1.2289c0.20761 0 0.37747 0.17859 0.37747 0.39688 0 0.22428 0.23692 0.39688 0.54478 0.39688 0.31872 0 0.47236-0.11718 0.37026-0.28239-0.0961-0.1555 0.0752-0.3477 0.38126-0.42773 0.59396-0.15532 0.77817-0.5787 0.22506-0.51725-0.18191 0.02021-0.33073-0.08231-0.33073-0.22784 0-0.14552 0.14882-0.24805 0.33073-0.22784 0.1819 0.02021 0.33072-0.06908 0.33072-0.19844 0-0.12935-0.25086-0.23518-0.55747-0.23518-0.38683 0-0.51086-0.12148-0.40518-0.39688 0.1097-0.28588-0.0281-0.39688-0.49255-0.39688-0.4645 0-0.60226 0.111-0.49256 0.39688 0.0989 0.25765-7e-3 0.39688-0.30119 0.39688-0.2944 0-0.40007-0.13923-0.3012-0.39688 0.0838-0.21828 0.037-0.39688-0.10398-0.39688-0.14096 0-0.24247 0.68461-0.22559 1.5214 0.0169 0.83674 0.0851 1.313 0.15169 1.0583 0.0665-0.25466 0.29086-0.46302 0.49848-0.46302zm-0.41628-0.66146c0-0.21828 0.17859-0.39688 0.39688-0.39688 0.21828 0 0.39687 0.17859 0.39687 0.39688s-0.17859 0.39688-0.39687 0.39688c-0.21829 0-0.39688-0.17859-0.39688-0.39688zm-9.6792-2.6076c-0.07568-0.19723-0.10171-1.12-0.05784-2.0505l0.07976-1.6919h3.9688l0.07937 1.6767c0.04774 1.0084-0.04427 1.8257-0.23083 2.0505-0.42364 0.51045-3.6443 0.52318-3.8392 0.01518zm1.0997-1.2289c0.20761 0 0.37748 0.17859 0.37748 0.39688 0 0.22428 0.23692 0.39688 0.54478 0.39688 0.31872 0 0.47236-0.11718 0.37025-0.28239-0.0961-0.1555 0.07522-0.3477 0.38126-0.42773 0.59396-0.15532 0.77818-0.5787 0.22506-0.51725-0.1819 0.02021-0.33073-0.08231-0.33073-0.22784 0-0.14552 0.14883-0.24805 0.33073-0.22784 0.1819 0.02021 0.33073-0.06909 0.33073-0.19844 0-0.12935-0.25086-0.23518-0.55748-0.23518-0.38683 0-0.51086-0.12148-0.40518-0.39688 0.1097-0.28588-0.02806-0.39688-0.49256-0.39688s-0.60226 0.111-0.49256 0.39688c0.09887 0.25765-0.0068 0.39688-0.30119 0.39688-0.2944 0-0.40006-0.13923-0.30119-0.39688 0.08376-0.21828 0.03697-0.39688-0.10398-0.39688-0.14095 0-0.24247 0.68461-0.22559 1.5214s0.08514 1.313 0.15169 1.0583c0.06655-0.25466 0.29086-0.46302 0.49847-0.46302zm-0.41628-0.66146c0-0.21828 0.17859-0.39688 0.39688-0.39688 0.21828 0 0.39688 0.17859 0.39688 0.39688s-0.17859 0.39688-0.39688 0.39688c-0.21828 0-0.39688-0.17859-0.39688-0.39688zm3.8145 1.8904c-0.07568-0.19723-0.10171-1.12-0.05784-2.0505l0.07976-1.6919h3.9688l0.0794 1.6767c0.0477 1.0084-0.0443 1.8257-0.23084 2.0505-0.42363 0.51045-3.6443 0.52318-3.8392 0.01518zm1.0997-1.2289c0.20761 0 0.37747 0.17859 0.37747 0.39688 0 0.22428 0.23693 0.39688 0.54479 0.39688 0.31871 0 0.47235-0.11718 0.37025-0.28239-0.0961-0.1555 0.0752-0.3477 0.38126-0.42773 0.59396-0.15532 0.77818-0.5787 0.22506-0.51725-0.1819 0.02021-0.33073-0.08231-0.33073-0.22784 0-0.14552 0.14883-0.24805 0.33073-0.22784 0.1819 0.02021 0.33073-0.06909 0.33073-0.19844 0-0.12935-0.25086-0.23518-0.55748-0.23518-0.38683 0-0.51085-0.12148-0.40517-0.39688 0.1097-0.28588-0.0281-0.39688-0.49256-0.39688-0.4645 0-0.60226 0.111-0.49256 0.39688 0.0989 0.25765-7e-3 0.39688-0.30119 0.39688-0.2944 0-0.40006-0.13923-0.30119-0.39688 0.0838-0.21828 0.037-0.39688-0.10399-0.39688-0.14095 0-0.24247 0.68461-0.22559 1.5214 0.0169 0.83674 0.0851 1.313 0.1517 1.0583 0.0665-0.25466 0.29086-0.46302 0.49847-0.46302zm-0.41628-0.66146c0-0.21828 0.1786-0.39688 0.39688-0.39688s0.39687 0.17859 0.39687 0.39688-0.17859 0.39688-0.39687 0.39688-0.39688-0.17859-0.39688-0.39688zm3.8145 1.8904c-0.0757-0.19723-0.10171-1.12-0.0578-2.0505l0.0798-1.6919h3.9688l0.0794 1.6767c0.0477 1.0084-0.0443 1.8257-0.23083 2.0505-0.42364 0.51045-3.6443 0.52318-3.8392 0.01518zm1.0997-1.2289c0.20761 0 0.37747 0.17859 0.37747 0.39688 0 0.22428 0.23692 0.39688 0.54478 0.39688 0.31872 0 0.47236-0.11718 0.37026-0.28239-0.0961-0.1555 0.0752-0.3477 0.38126-0.42773 0.59396-0.15532 0.77817-0.5787 0.22506-0.51725-0.18191 0.02021-0.33073-0.08231-0.33073-0.22784 0-0.14552 0.14882-0.24805 0.33073-0.22784 0.1819 0.02021 0.33072-0.06909 0.33072-0.19844 0-0.12935-0.25086-0.23518-0.55747-0.23518-0.38683 0-0.51086-0.12148-0.40518-0.39688 0.1097-0.28588-0.0281-0.39688-0.49255-0.39688-0.4645 0-0.60226 0.111-0.49256 0.39688 0.0989 0.25765-7e-3 0.39688-0.30119 0.39688-0.2944 0-0.40007-0.13923-0.3012-0.39688 0.0838-0.21828 0.037-0.39688-0.10398-0.39688-0.14096 0-0.24247 0.68461-0.22559 1.5214 0.0169 0.83674 0.0851 1.313 0.15169 1.0583 0.0665-0.25466 0.29086-0.46302 0.49848-0.46302zm-0.41628-0.66146c0-0.21828 0.17859-0.39688 0.39688-0.39688 0.21828 0 0.39687 0.17859 0.39687 0.39688s-0.17859 0.39688-0.39687 0.39688c-0.21829 0-0.39688-0.17859-0.39688-0.39688zm-31.831-0.30116c-0.36786-0.36786-0.17139-1.9046 0.32137-2.5138 0.46651-0.5767 0.73004-0.63149 3.4346-0.71405l2.9294-0.08942 0.31472 0.69073c0.2169 0.47604 0.23899 0.99725 0.07108 1.6769l-0.24364 0.9862-3.3218 0.07367c-1.827 0.04052-3.4046-0.0091-3.5057-0.11024zm10.299-0.43682c-0.64245-0.46977-0.36648-1.4072 0.84746-2.8788 0.5352-0.64877 1.2484-1.7693 1.5848-2.4901 0.72838-1.5605 1.6977-2.2232 2.8149-1.9244 1.0975 0.2935 1.9974 1.4391 1.9974 2.5427 0 1.086-1.3196 2.5736-2.5376 2.8608-0.42331 0.0998-1.1268 0.51624-1.5634 0.92541-0.70487 0.66064-1.93 1.3056-2.4802 1.3056-0.10823 0-0.40671-0.1535-0.66327-0.3411zm3.5345-5.1207c0.0032-0.31185 0.15471-0.62363 0.33661-0.69284 0.55592-0.21151 1.4645 0.26698 1.6567 0.87247 0.11942 0.37627 0.27133 0.48344 0.44254 0.31223 0.43718-0.43718 0.12105-1.4805-0.54951-1.8136-1.0266-0.50988-1.7491 0.01396-2.3736 1.7208-0.52239 1.4279-0.52374 1.4629-0.03201 0.82933 0.28236-0.3638 0.51603-0.91661 0.51926-1.2285zm1.4514 1.3133c-0.4375-0.4375-0.77415-0.44309-1.1248-0.01866-0.20863 0.25253-0.06666 0.33514 0.60047 0.34939 0.72385 0.01546 0.81378-0.04127 0.52432-0.33073zm8.2942 0.99577-1.4053-0.74979-0.15528-3.4538 3.0007-1.7168 2.8413 1.5325 8e-4 1.8631 1e-3 1.8631-2.8778 1.4114-1.4053-0.74979zm2.4973-1.7642c0.17989-0.17989-0.8208-1.9623-1.1017-1.9623-0.1042 0-0.40634 0.44648-0.67142 0.99219-0.26509 0.5457-0.53511 0.84358-0.60006 0.66195-0.06494-0.18163 0.15294-0.76876 0.4842-1.3047 0.52108-0.84312 0.53895-0.9502 0.13254-0.79424-0.25836 0.09914-0.76568 0.18026-1.1274 0.18026-0.55826 0-0.6308 0.08997-0.47998 0.59531 0.41301 1.3838 0.87882 1.7859 2.069 1.7859 0.62723 0 1.2099-0.06949 1.2948-0.15441zm0.98806-1.6315c3e-3 -0.48448-0.14207-0.59531-0.78078-0.59531h-0.78483l0.5583 0.94624c0.5902 1.0003 0.99908 0.85788 1.0073-0.35092zm2.8483 3.3123-1.2568-0.80881v-3.3246l2.9519-1.6889 3.1051 1.5178 0.0142 1.7665 0.0142 1.7665-1.4213 0.81317c-0.7817 0.44724-1.5854 0.80281-1.7859 0.79015-0.20056-0.01266-0.93021-0.38698-1.6214-0.83183zm2.9752-1.7248c-7.9e-4 -0.10914-0.27058-0.64314-0.59963-1.1867l-0.59827-0.98823-1.4336 2.3733h1.3164c0.72402 0 1.3158-0.0893 1.315-0.19844zm-2.1815-1.2563c0.32742-0.50548 0.59531-0.95364 0.59531-0.9959 0-0.04227-0.47625-0.03143-1.0583 0.02408s-1.0583 0.13019-1.0583 0.16595c0 0.31017 0.61936 1.7308 0.75349 1.7282 0.0949-0.0018 0.44044-0.41685 0.76786-0.92233zm2.9766-0.11831c0-0.62895-0.12642-0.76666-0.79375-0.8646-0.43656-0.06407-0.79375-0.08439-0.79375-0.04515s0.24978 0.49469 0.55507 1.0121c0.62332 1.0565 1.0324 1.0159 1.0324-0.10236zm-34.66-0.64757c0-0.81581 0.12477-1.2102 0.41852-1.3229 0.23018-0.08833 2.6082-0.1606 5.2846-0.1606 4.4736 0 4.9627 0.04693 6.0638 0.58189 0.65874 0.32004 1.1977 0.66752 1.1977 0.77217s-0.40101 0.43812-0.89113 0.74103c-0.82916 0.51245-1.2799 0.55075-6.4823 0.55075h-5.5912z" style="fill:#cecece;stroke-width:.26458"/><path d="m72.926 98.672c-0.46427-0.97838-0.31221-1.9331 0.30789-1.9331 0.34664 0 0.34434 0.0536-0.01783 0.41577-0.49847 0.49847-0.50397 0.63652-0.04919 1.2355 0.27908 0.36758 0.58478 0.42662 1.5129 0.29224 0.63975-0.09263 1.3418-0.14354 1.5601-0.11313 0.83647 0.11651 11.804 0.18541 12.369 0.07771 0.36759-0.07001 0.59531-0.30482 0.59531-0.61386 0-0.27526 0.14883-0.50427 0.33073-0.5089 0.19936-0.0051 0.14372-0.15029-0.14007-0.36559-0.40695-0.30873-0.41592-0.37822-0.06615-0.51245 0.4897-0.18792 0.54845-1.6573 0.07392-1.8487-0.26458-0.10676-0.26458-0.13763 0-0.15434 0.21482-0.01357 0.34378-0.50771 0.36798-1.41l0.03725-1.3891 0.19438 1.4552c0.27315 2.0448 0.0063 5.4827-0.45532 5.8658-0.2632 0.21844-2.6953 0.32186-8.2861 0.35233l-7.9135 0.04314-0.42162-0.88849zm26.757-0.22872c-2.1136-0.41987-3.0585-1.1154-2.8681-2.1112 0.06851-0.35837 0.28927-0.65158 0.49059-0.65158 0.75037 0 0.3258-0.73838-0.9091-1.5811l-1.2751-0.87014 0.3171-1.0895c0.17441-0.59922 0.59801-1.9825 0.94134-3.0739 0.34333-1.0914 0.66411-2.1332 0.71284-2.3151 0.04874-0.1819-0.09313-0.33073-0.31525-0.33073-0.42782 0-0.9234 0.95384-1.5122 2.9104-0.19705 0.65484-0.45281 1.3097-0.56835 1.4552-1.5604 1.9653-1.9175 1.885-0.76351-0.1717 0.43691-0.77869 0.93092-2.0111 1.0978-2.7387 0.16687-0.7276 0.40504-1.561 0.52926-1.8521 0.12422-0.29104 0.30849-0.82682 0.40949-1.1906 0.101-0.3638 0.3927-0.95912 0.64822-1.3229s0.61593-1.1675 0.80092-1.7859c0.31345-1.048 0.89628-1.4509 1.3878-0.95943 0.18698 0.18698-0.67325 1.9707-1.4704 3.0489-0.6722 0.9092-0.47035 1.426 0.75735 1.939 1.0994 0.45936 1.5391 0.26505 1.8059-0.79811 0.11911-0.47456 0.3427-0.65061 0.82632-0.65061 0.52504 0 0.69607 0.1652 0.82178 0.79375 0.0873 0.43656 0.25491 0.79375 0.37243 0.79375 0.11753 0 0.28386 0.22111 0.36964 0.49136 0.11619 0.36611 0.33352 0.45742 0.85255 0.3582 0.6166-0.11787 0.67866-0.06454 0.54035 0.46435-0.14176 0.54207-0.0842 0.5831 0.62059 0.44214 0.87247-0.1745 2.0996 0.19679 2.0996 0.63528 0 0.15827-0.20836 0.26657-0.46302 0.24066-1.086-0.11047-1.6536 0.03415-1.6536 0.42125 0 0.5545 0.94897 2.3742 1.6642 3.1912 0.73202 0.83615 0.91091 1.5906 0.95036 4.0082l0.0313 1.9182-0.99218 0.0084c-0.54571 0.0046-1.2233 0.18322-1.5058 0.39688-0.62528 0.47293-2.2925 0.46459-4.7509-0.02379zm-0.42403-1.2767c0-0.05579-0.23829-0.16375-0.52953-0.23991-0.29124-0.07616-0.46281-0.03052-0.38126 0.10143 0.14241 0.23043 0.91079 0.34725 0.91079 0.13848zm-21.614-1.9485c2.0096-0.04501 5.2243-0.04489 7.1438 2.57e-4 1.9195 0.04515 0.27522 0.08197-3.6538 0.08182-3.9291-1.4e-4 -5.4995-0.03708-3.4899-0.08208zm0-0.52917c2.0096-0.04501 5.2243-0.04489 7.1438 2.56e-4 1.9195 0.04515 0.27522 0.08197-3.6538 0.08182-3.9291-1.4e-4 -5.4995-0.03708-3.4899-0.08208zm-2.7892-0.52302c0.47555-0.05889 1.1899-0.05767 1.5875 0.0027s0.0085 0.10855-0.86463 0.10707c-0.87312-0.0016-1.1984-0.05088-0.72287-0.10976zm11.377 0c0.47555-0.05889 1.1899-0.05767 1.5875 0.0027 0.39758 0.06037 0.0085 0.10855-0.86464 0.10707-0.87312-0.0016-1.1984-0.05088-0.72286-0.10976zm3.3083-4.1328c0.08969-0.86904 0.04995-1.4963-0.09481-1.4963-0.13708 0-0.19084-0.33152-0.11945-0.7367 0.07138-0.40519 0.13356-2.459 0.13817-4.5641 0.01043-4.7586-0.0017-4.2142 0.15191-6.8235 0.08828-1.4996 0.04109-2.1476-0.14789-2.0309-0.15265 0.09434-0.2605 0.07339-0.23966-0.04657 0.15245-0.87761-0.06541-1.1441-0.9352-1.1441-0.50074 0-0.98401 0.11906-1.0739 0.26458-0.08994 0.14552-0.36158 0.26458-0.60365 0.26458-0.7879 0 0.49395-0.69731 1.6002-0.87048 1.7769-0.27816 1.7922-0.19191 1.724 9.7098-0.03455 5.0142-0.16385 8.7288-0.3069 8.8172-0.14875 0.09193-0.18569-0.44315-0.09277-1.3435zm-17.005-0.70257c0-0.14552 0.11906-0.26458 0.26458-0.26458s0.26458 0.11906 0.26458 0.26458-0.11906 0.26458-0.26458 0.26458-0.26458-0.11906-0.26458-0.26458zm3.638-0.7044c0.1819-0.0734 0.47956-0.0734 0.66146 0s0.03307 0.13345-0.33073 0.13345c-0.3638 0-0.51263-0.06006-0.33073-0.13345zm3.3123-0.0081c0.25743-0.06708 0.61462-0.06267 0.79375 0.0098 0.17913 0.07248-0.03149 0.12736-0.46806 0.12197-0.43656-0.0054-0.58312-0.06469-0.32569-0.13177zm1.4206-0.21352c0.08376-0.21828 0.19909-0.39688 0.25628-0.39688 0.05719 0 0.10398 0.17859 0.10398 0.39688s-0.11533 0.39688-0.25628 0.39688-0.18775-0.17859-0.10398-0.39688zm1.8847-0.05484c0.32912-0.06329 0.80537-0.06088 1.0583 0.0053 0.25296 0.06622-0.01631 0.118-0.5984 0.11507-0.58208-0.0029-0.78906-0.05712-0.45994-0.12041zm-0.0031-1.3225c0.32742-0.06307 0.8632-0.06307 1.1906 0 0.32742 0.06306 0.05953 0.11466-0.59531 0.11466-0.65484 0-0.92273-0.0516-0.59531-0.11466zm0-1.3229c0.32742-0.06307 0.8632-0.06307 1.1906 0 0.32742 0.06306 0.05953 0.11466-0.59531 0.11466-0.65484 0-0.92273-0.0516-0.59531-0.11466zm-6.0804-0.5477c-0.18271-0.6987 0.11673-0.76627 0.62406-0.14082 0.19972 0.24622 0.22447 0.36454 0.05499 0.26294-0.16947-0.1016-0.35696-0.03823-0.41665 0.14082-0.05969 0.17905-0.17777 0.06073-0.26241-0.26294zm5.882-0.90938c0-0.11455 0.23812-0.20828 0.52917-0.20828s0.52917 0.11166 0.52917 0.24814-0.23812 0.2302-0.52917 0.20828c-0.29104-0.02192-0.52917-0.13359-0.52917-0.24814zm-0.37215-1.2266c-0.07634-0.12352 0.21429-0.23462 0.64584-0.24689 0.43155-0.01227 0.78464 0.08879 0.78464 0.22458 0 0.3085-1.2416 0.32787-1.4305 0.02231zm-9.3988-0.63534c-0.01023-0.40018 0.10047-0.7276 0.24599-0.7276 0.31054 0 0.31054 0.20336 0 0.92604-0.2015 0.46891-0.22951 0.44631-0.24599-0.19844zm6.926-3.4374c0.04406-0.13218 0.19322-0.24033 0.33146-0.24033 0.13824 0 0.2874 0.10815 0.33146 0.24033 0.04406 0.13218-0.1051 0.24033-0.33146 0.24033-0.22637 0-0.37552-0.10815-0.33146-0.24033zm1.3559-0.01376c-0.10075-0.17555-0.08575-0.23091 0.03333-0.12303 0.11908 0.10788 0.3763 0.06353 0.57159-0.09854 0.22324-0.18527 0.35507-0.19493 0.35507-0.02601 0 0.41316-0.75344 0.60748-0.95999 0.24759zm5.7225-0.18688c0-0.29104 0.10792-0.52917 0.23981-0.52917 0.1319 0 0.17754 0.23812 0.10143 0.52917-0.07611 0.29104-0.18402 0.52917-0.23981 0.52917-0.05579 0-0.10143-0.23812-0.10143-0.52917zm-13.971-0.39688c0.0054-0.43656 0.06469-0.58312 0.13177-0.32569 0.06708 0.25743 0.06267 0.61462-0.0098 0.79375-0.07248 0.17913-0.12736-0.03149-0.12197-0.46806zm2.9769-1.7428c-0.29895-0.48371 0.35453-0.93316 0.88075-0.60577 0.25103 0.15618 0.66478 0.25303 0.91944 0.21522 0.25466-0.03781 0.46484 0.06955 0.46707 0.23858 0.0023 0.17471 0.11647 0.13607 0.26458-0.08956 0.21602-0.32908 0.30008-0.33555 0.49204-0.0379 0.17744 0.27513 0.27786 0.28398 0.42995 0.0379 0.15206-0.24603 0.2516-0.23718 0.4259 0.0379 0.18119 0.28596 0.22828 0.28853 0.23151 0.01263 0.0022-0.19049 0.12311-0.27276 0.26864-0.18282 0.67965 0.42005 0.10696 0.63289-1.5875 0.59001-1.3012-0.03293-1.8521-0.14732-1.8521-0.38459 0-0.18574-0.1318-0.33771-0.29289-0.33771s-0.22436 0.17859-0.1406 0.39688c0.17432 0.45427-0.23856 0.54326-0.5068 0.10924zm5.7028 0.01665c0-0.12066-0.20836-0.27383-0.46302-0.34038-0.34843-0.09105-0.31569-0.1286 0.13229-0.15169 0.32742-0.01688 0.59714 0.11814 0.59936 0.30004 0.0032 0.26364 0.04679 0.26341 0.21477-0.0012 0.24752-0.38986 1.6314-0.3401 1.6373 0.05887 0.0022 0.15016 0.12129 0.09443 0.26458-0.12385 0.23158-0.35278 0.29217-0.35278 0.54526 0 0.21439 0.29884 0.31788 0.31518 0.41892 0.06615 0.17659-0.43521 0.61927-0.42571 0.61927 0.0133 0 0.24932-0.54624 0.35147-1.9844 0.37108-1.0914 0.01488-1.9844-0.07167-1.9844-0.19233zm4.4097 0.09459c-0.09701-0.09701-0.17639-0.29942-0.17639-0.44979 0-0.16579 0.12324-0.15017 0.31309 0.03969 0.1722 0.1722 0.25158 0.37461 0.17639 0.44979-0.07519 0.07519-0.21608 0.05733-0.31309-0.03969zm9.4583-0.18397c-0.07605-0.19819-0.10208-1.0614-0.05784-1.9182l0.08044-1.5579h3.7042l0.15548 3.8365h-1.872c-1.3356 0-1.9116-0.10326-2.0103-0.36036zm3.5415-1.5579 0.07935-1.5214h-3.2014v3.2014l3.0427-0.1587zm-2.6883 1.2055c-0.29797-0.29797-0.18148-0.61017 0.22768-0.61017 0.21828 0 0.39688 0.11204 0.39688 0.24897 0 0.33363-0.41317 0.57258-0.62455 0.3612zm1.6829-0.34558c0-0.14552 0.11906-0.26458 0.26458-0.26458s0.26458 0.11906 0.26458 0.26458c0 0.14552-0.11906 0.26458-0.26458 0.26458s-0.26458-0.11906-0.26458-0.26458zm-1.8521-0.92604c0-0.24254 0.12799-0.39831 0.28443-0.34616 0.15643 0.05214 0.28443 0.20792 0.28443 0.34616s-0.12799 0.29402-0.28443 0.34616c-0.15644 0.05215-0.28443-0.10363-0.28443-0.34616zm1.8521 0c0-0.21828 0.11906-0.39688 0.26458-0.39688s0.26458 0.17859 0.26458 0.39688-0.11906 0.39688-0.26458 0.39688-0.26458-0.17859-0.26458-0.39688zm-1.8521-0.92604c0-0.14552 0.17859-0.26458 0.39688-0.26458 0.21828 0 0.39688 0.11906 0.39688 0.26458s-0.17859 0.26458-0.39688 0.26458c-0.21828 0-0.39688-0.11906-0.39688-0.26458zm1.8521 0c0-0.14552 0.11906-0.26458 0.26458-0.26458s0.26458 0.11906 0.26458 0.26458-0.11906 0.26458-0.26458 0.26458-0.26458-0.11906-0.26458-0.26458zm1.9618 2.5501c-0.07605-0.1982-0.10208-1.0614-0.05784-1.9182l0.08044-1.5579h3.7042l0.1554 3.8365h-1.872c-1.3356 0-1.9116-0.10326-2.0103-0.36036zm3.5415-1.5579 0.0793-1.5214h-3.2014v3.2014l3.0427-0.1587zm-2.6883 1.2055c-0.29797-0.29797-0.18148-0.61017 0.22768-0.61017 0.21828 0 0.39687 0.11204 0.39687 0.24897 0 0.33363-0.41317 0.57258-0.62455 0.3612zm1.6829-0.34558c0-0.14552 0.11906-0.26458 0.26458-0.26458s0.26458 0.11906 0.26458 0.26458c0 0.14552-0.11906 0.26458-0.26458 0.26458s-0.26458-0.11906-0.26458-0.26458zm-1.8521-0.92604c0-0.24254 0.128-0.39831 0.28443-0.34616 0.15644 0.05214 0.28443 0.20792 0.28443 0.34616s-0.12799 0.29402-0.28443 0.34616c-0.15643 0.05215-0.28443-0.10363-0.28443-0.34616zm1.8521 0c0-0.21828 0.11906-0.39688 0.26458-0.39688s0.26458 0.17859 0.26458 0.39688-0.11906 0.39688-0.26458 0.39688-0.26458-0.17859-0.26458-0.39688zm-1.8521-0.92604c0-0.14552 0.1786-0.26458 0.39688-0.26458s0.39687 0.11906 0.39687 0.26458-0.17859 0.26458-0.39687 0.26458-0.39688-0.11906-0.39688-0.26458zm1.8521 0c0-0.14552 0.11906-0.26458 0.26458-0.26458s0.26458 0.11906 0.26458 0.26458-0.11906 0.26458-0.26458 0.26458-0.26458-0.11906-0.26458-0.26458zm1.9618 2.5501c-0.076-0.1982-0.10208-1.0614-0.0578-1.9182l0.0804-1.5579h3.7042l0.1554 3.8365h-1.872c-1.3356 0-1.9116-0.10326-2.0103-0.36036zm3.5415-1.5579 0.0794-1.5214h-3.2014v3.2014l3.0427-0.1587zm-2.6883 1.2055c-0.29797-0.29797-0.18148-0.61017 0.22768-0.61017 0.21828 0 0.39687 0.11204 0.39687 0.24897 0 0.33363-0.41317 0.57258-0.62455 0.3612zm1.6829-0.34558c0-0.14552 0.11907-0.26458 0.26459-0.26458s0.26458 0.11906 0.26458 0.26458c0 0.14552-0.11906 0.26458-0.26458 0.26458s-0.26459-0.11906-0.26459-0.26458zm-1.8521-0.92604c0-0.24254 0.12799-0.39831 0.28443-0.34616 0.15643 0.05214 0.28443 0.20792 0.28443 0.34616s-0.128 0.29402-0.28443 0.34616c-0.15644 0.05215-0.28443-0.10363-0.28443-0.34616zm1.8521 0c0-0.21828 0.11907-0.39688 0.26459-0.39688s0.26458 0.17859 0.26458 0.39688-0.11906 0.39688-0.26458 0.39688-0.26459-0.17859-0.26459-0.39688zm-1.8521-0.92604c0-0.14552 0.17859-0.26458 0.39688-0.26458 0.21828 0 0.39687 0.11906 0.39687 0.26458s-0.17859 0.26458-0.39687 0.26458c-0.21829 0-0.39688-0.11906-0.39688-0.26458zm1.8521 0c0-0.14552 0.11907-0.26458 0.26459-0.26458s0.26458 0.11906 0.26458 0.26458-0.11906 0.26458-0.26458 0.26458-0.26459-0.11906-0.26459-0.26458zm-34.131 0.1149c0-0.58874 0.63926-1.1706 1.2661-1.1523 0.42722 0.01242 0.55747 0.08298 0.32142 0.1741-0.21828 0.08427-0.55246 0.37253-0.74261 0.64057-0.32556 0.45891-0.84489 0.66647-0.84489 0.33767zm5.0271-0.51177c0-0.21828 0.04679-0.39688 0.10398-0.39688 0.05719 0 0.17252 0.17859 0.25628 0.39688 0.08376 0.21828 0.03697 0.39688-0.10398 0.39688s-0.25628-0.17859-0.25628-0.39688zm-2.3151-0.3218c0.40018-0.06062 1.055-0.06062 1.4552 0 0.40018 0.06062 0.07276 0.11022-0.7276 0.11022s-1.1278-0.0496-0.7276-0.11022zm2.845-0.13098c-9.79e-4 -0.24646 3.9445-0.19942 4.6295 0.05519 0.29104 0.10818-0.63135 0.18236-2.0498 0.16485-1.4184-0.01752-2.5793-0.11653-2.5797-0.22004zm5.9726-0.02421c0.21858-0.12232 0.71859-0.11175 1.1142 0.02357 0.65176 0.22295 0.61535 0.24332-0.39654 0.22191-0.74791-0.01582-0.98382-0.09652-0.71764-0.24548zm11.07-1.074c-0.076055-0.1982-0.10208-1.0614-0.057842-1.9182l0.08044-1.5579h3.7042l0.15548 3.8365h-1.872c-1.3356 0-1.9116-0.10326-2.0103-0.36035zm3.5415-1.5579 0.07935-1.5214h-3.2014v3.2014l3.0427-0.1587zm-2.6883 1.2055c-0.29797-0.29797-0.18148-0.61017 0.22768-0.61017 0.21828 0 0.39688 0.11204 0.39688 0.24897 0 0.33363-0.41317 0.57258-0.62455 0.3612zm1.6829-0.34558c0-0.14552 0.11906-0.26458 0.26458-0.26458s0.26458 0.11906 0.26458 0.26458-0.11906 0.26458-0.26458 0.26458-0.26458-0.11906-0.26458-0.26458zm-1.8521-0.92604c0-0.24254 0.12799-0.39831 0.28443-0.34616 0.15643 0.05214 0.28443 0.20792 0.28443 0.34616s-0.12799 0.29402-0.28443 0.34616c-0.15644 0.05215-0.28443-0.10363-0.28443-0.34616zm1.8521 0c0-0.21828 0.11906-0.39688 0.26458-0.39688s0.26458 0.17859 0.26458 0.39688-0.11906 0.39688-0.26458 0.39688-0.26458-0.17859-0.26458-0.39688zm-1.8521-0.92604c0-0.14552 0.17859-0.26458 0.39688-0.26458 0.21828 0 0.39688 0.11906 0.39688 0.26458 0 0.14552-0.17859 0.26458-0.39688 0.26458-0.21828 0-0.39688-0.11906-0.39688-0.26458zm1.8521 0c0-0.14552 0.11906-0.26458 0.26458-0.26458s0.26458 0.11906 0.26458 0.26458c0 0.14552-0.11906 0.26458-0.26458 0.26458s-0.26458-0.11906-0.26458-0.26458zm1.9618 2.5501c-0.07605-0.1982-0.10208-1.0614-0.05784-1.9182l0.08044-1.5579h3.7042l0.1554 3.8365h-1.872c-1.3356 0-1.9116-0.10326-2.0103-0.36036zm3.5415-1.5579 0.0793-1.5214h-3.2014v3.2014l3.0427-0.1587zm-2.6883 1.2055c-0.29797-0.29797-0.18148-0.61017 0.22768-0.61017 0.21828 0 0.39687 0.11204 0.39687 0.24897 0 0.33363-0.41317 0.57258-0.62455 0.3612zm1.6829-0.34558c0-0.14552 0.11906-0.26458 0.26458-0.26458s0.26458 0.11906 0.26458 0.26458-0.11906 0.26458-0.26458 0.26458-0.26458-0.11906-0.26458-0.26458zm-1.8521-0.92604c0-0.24254 0.128-0.39831 0.28443-0.34616 0.15644 0.05214 0.28443 0.20792 0.28443 0.34616s-0.12799 0.29402-0.28443 0.34616c-0.15643 0.05215-0.28443-0.10363-0.28443-0.34616zm1.8521 0c0-0.21828 0.11906-0.39688 0.26458-0.39688s0.26458 0.17859 0.26458 0.39688-0.11906 0.39688-0.26458 0.39688-0.26458-0.17859-0.26458-0.39688zm-1.8521-0.92604c0-0.14552 0.1786-0.26458 0.39688-0.26458s0.39687 0.11906 0.39687 0.26458c0 0.14552-0.17859 0.26458-0.39687 0.26458s-0.39688-0.11906-0.39688-0.26458zm1.8521 0c0-0.14552 0.11906-0.26458 0.26458-0.26458s0.26458 0.11906 0.26458 0.26458c0 0.14552-0.11906 0.26458-0.26458 0.26458s-0.26458-0.11906-0.26458-0.26458zm1.9618 2.5501c-0.076-0.1982-0.10208-1.0614-0.0578-1.9182l0.0804-1.5579h3.7042l0.1554 3.8365h-1.872c-1.3356 0-1.9116-0.10326-2.0103-0.36036zm3.5415-1.5579 0.0794-1.5214h-3.2014v3.2014l3.0427-0.1587zm-2.6883 1.2055c-0.29797-0.29797-0.18148-0.61017 0.22768-0.61017 0.21828 0 0.39687 0.11204 0.39687 0.24897 0 0.33363-0.41317 0.57258-0.62455 0.3612zm1.6829-0.34558c0-0.14552 0.11907-0.26458 0.26459-0.26458s0.26458 0.11906 0.26458 0.26458-0.11906 0.26458-0.26458 0.26458-0.26459-0.11906-0.26459-0.26458zm-1.8521-0.92604c0-0.24254 0.12799-0.39831 0.28443-0.34616 0.15643 0.05214 0.28443 0.20792 0.28443 0.34616s-0.128 0.29402-0.28443 0.34616c-0.15644 0.05215-0.28443-0.10363-0.28443-0.34616zm1.8521 0c0-0.21828 0.11907-0.39688 0.26459-0.39688s0.26458 0.17859 0.26458 0.39688-0.11906 0.39688-0.26458 0.39688-0.26459-0.17859-0.26459-0.39688zm-1.8521-0.92604c0-0.14552 0.17859-0.26458 0.39688-0.26458 0.21828 0 0.39687 0.11906 0.39687 0.26458 0 0.14552-0.17859 0.26458-0.39687 0.26458-0.21829 0-0.39688-0.11906-0.39688-0.26458zm1.8521 0c0-0.14552 0.11907-0.26458 0.26459-0.26458s0.26458 0.11906 0.26458 0.26458c0 0.14552-0.11906 0.26458-0.26458 0.26458s-0.26459-0.11906-0.26459-0.26458zm-33.602-0.39688c0-0.57835 0.20201-1.1281 0.53803-1.4641 0.48486-0.48486 0.81823-0.53062 3.3734-0.46302l2.8354 0.07501 0.0868 0.75957c0.04774 0.41776 0.01571 1.0428-0.07119 1.3891-0.15583 0.62087-0.20322 0.62949-3.4602 0.62949h-3.3022zm10.056-0.06615c0.0018-0.76346 0.66762-1.9638 1.3965-2.5177 0.23637-0.17963 0.79405-1.0674 1.2393-1.9729 1.1521-2.343 2.1924-2.7671 3.6922-1.5051 0.67242 0.56581 0.81405 0.87942 0.81405 1.8026 0 1.2506-0.76956 2.1853-2.2927 2.7847-0.46061 0.18128-1.294 0.73595-1.8521 1.2326-0.77141 0.68657-1.2524 0.90307-2.0068 0.90323-0.90647 1.89e-4 -0.99204-0.06265-0.99044-0.7274zm4.9071-2.3963c1.011-0.50705 1.7058-1.4489 1.7058-2.3125 0-0.71764-0.97472-1.4227-1.7711-1.2811-0.98185 0.17457-1.2667 0.49933-1.8889 2.1534-0.54023 1.4362-0.40237 1.8913 0.22042 0.7276 0.1947-0.3638 0.46097-0.66146 0.59171-0.66146s0.16531-0.2281 0.07682-0.5069c-0.08849-0.2788-0.03698-0.58348 0.11446-0.67707 0.15144-0.0936 0.28371 0.04521 0.29394 0.30846 0.0166 0.42724 0.04301 0.42182 0.24599-0.05053 0.21841-0.50826 0.28366-0.44069 0.36125 0.3741 0.0196 0.20575 0.18454 0.42406 0.36654 0.48513 0.21663 0.07269 0.27826-0.05651 0.17846-0.3741-0.14286-0.4546-0.13364-0.45586 0.14643-0.02001 0.39695 0.61774 0.11127 1.0234-0.60587 0.86036-0.66707-0.15168-1.6426 0.48698-1.3837 0.90588 0.09592 0.1552 0.01742 0.28219-0.17444 0.28219-0.40691 0-1.0508 0.92465-0.81092 1.1645 0.08978 0.08978 0.4102-0.06254 0.71203-0.33849 0.30184-0.27595 1.0313-0.74374 1.6211-1.0395zm15.001 0.13589c-1.148-0.68109-1.3891-0.95252-1.3891-1.5639 0-0.40686 0.11906-0.73975 0.26458-0.73975 0.14553 0 0.26459 0.12609 0.26459 0.2802s0.10953 0.21251 0.2434 0.12977c0.13386-0.08274 0.47842 0.14836 0.76568 0.51355 0.5098 0.64811 1.9013 0.95099 1.9013 0.41383 0-0.13758 0.32466-0.40575 0.72145-0.59593 0.90553-0.43401 1.3719-1.6172 0.92166-2.3382-0.4589-0.73482-0.40368-0.81116 0.34127-0.47174 0.60082 0.27375 0.66146 0.45003 0.66146 1.923v1.6216l-1.479 0.8495c-0.81345 0.46723-1.5576 0.83887-1.6536 0.82588-0.0961-0.01299-0.79971-0.39448-1.5637-0.84775zm-6.7431-0.13684c-1.0151-0.5765-1.2537-0.84971-1.2568-1.4392-0.0021-0.40018 0.11526-0.7276 0.26078-0.7276s0.26458 0.12609 0.26458 0.2802 0.10176 0.21731 0.22612 0.14045c0.12437-0.07686 0.50231 0.15424 0.83987 0.51355 0.65983 0.70235 1.2962 0.83114 1.7692 0.35808 0.16237-0.16238 0.56912-0.43178 0.90387-0.59867 0.33475-0.16689 0.71949-0.68992 0.85496-1.1623 0.20032-0.69847 0.15258-0.96559-0.25564-1.4306-0.47548-0.54158-0.47639-0.56239-0.0173-0.39458 0.26658 0.09744 0.594 0.17716 0.72762 0.17716s0.24294 0.82326 0.24294 1.8295v1.8295l-1.2239 0.68408c-1.5019 0.8394-1.7616 0.83477-3.3363-0.05954zm-23.962-2.7489c-0.34666-0.34666-0.40808-0.99068-0.1569-1.6452 0.2498-0.65097 9.9622-0.61647 11.479 0.04078 0.58308 0.25261 1.0601 0.58628 1.0601 0.74148s-0.56555 0.4849-1.2568 0.73264c-1.0083 0.36139-2.201 0.45019-6.0325 0.44914-3.3601-9.2e-4 -4.8698-0.09542-5.0932-0.31881zm22.902-0.21167c-0.27485-0.94183-0.27503-0.9414 0.52735-1.2847 0.61158-0.2617 0.6574-0.25593 0.28733 0.03621-0.24215 0.19116-0.48108 0.69911-0.53096 1.1288-0.0903 0.77785-0.09152 0.77837-0.28372 0.11976zm6.5885-0.05238c-0.1605-0.61378 0.21616-1.276 0.71807-1.2625 0.16409 0.0044 0.10591 0.12048-0.12927 0.25791-0.28092 0.16415-0.38379 0.47906-0.29988 0.918 0.15679 0.82022-0.0786 0.89077-0.28892 0.08659zm-3.9967-0.98336c-0.08519-0.13784-0.04211-0.32032 0.09573-0.40551s0.32032-0.04211 0.40551 0.09573c0.08519 0.13784 0.04211 0.32032-0.09573 0.40551-0.13784 0.08519-0.32032 0.04211-0.40551-0.09573zm6.7064 0.12531c-0.12166-0.68009-0.0359-1.4585 0.15466-1.4047 0.29442 0.08321 0.35987 1.2509 0.0798 1.424-0.11441 0.07071-0.21993 0.06201-0.23448-0.01934zm-6.7178-1.4751c0.0914-0.14789 0.27702-0.2004 0.41249-0.11668 0.36699 0.22681 0.29856 0.38558-0.16619 0.38558-0.22687 0-0.3377-0.121-0.2463-0.2689z" style="fill:#a0a0a0;stroke-width:.26458"/><path d="m78.555 98.945c0.1819-0.0734 0.47956-0.0734 0.66146 0s0.03307 0.13345-0.33073 0.13345c-0.3638 0-0.51263-0.06005-0.33073-0.13345zm7.856-0.06452c0.08149-0.13186 0.38618-0.1775 0.67707-0.10143 0.72802 0.19038 0.66252 0.34118-0.14817 0.34118-0.37239 0-0.6104-0.10788-0.5289-0.23974zm14.567-0.28429c-1.8415-0.28467-3.5719-0.7803-3.5719-1.0231 0-0.51269 0.74768-1.173 1.1524-1.0177 0.23933 0.09184 0.43514 0.05165 0.43514-0.0893 0-0.14095-0.40557-0.25628-0.90127-0.25628-0.77101 0-0.88127 0.07648-0.76289 0.52917 0.07737 0.29586 0.0081 0.52917-0.15706 0.52917-0.16249 0-0.29544-0.35719-0.29544-0.79375 0-0.60437 0.12035-0.79375 0.5044-0.79375 0.62508 0 0.4616-0.96201-0.20223-1.1901-0.23895-0.08209-0.77496-0.42836-1.1911-0.76948-0.69218-0.56737-0.73369-0.69634-0.48702-1.5132 0.14831-0.49111 0.58537-1.9343 0.97125-3.2072 0.64653-2.1326 0.69047-2.8451 0.17546-2.8451-0.22434 0-0.84232 1.4156-1.3789 3.1587-0.19882 0.64585-0.63269 1.4669-0.96416 1.8246-0.33147 0.35766-0.60268 0.759-0.60268 0.89186 0 0.13286-0.11318 0.17162-0.2515 0.08613-0.13971-0.08635 0.02591-0.56422 0.37262-1.0751 0.59428-0.87573 0.82477-1.5258 1.8984-5.3548 0.2559-0.91263 0.67044-1.8795 0.9212-2.1487 0.25076-0.26916 0.6318-1.0107 0.84677-1.648 0.21497-0.63722 0.58182-1.1971 0.81522-1.2441 0.57461-0.11583 0.51758 0.6727-0.12101 1.673-0.27868 0.43656-0.71017 1.1837-0.95887 1.6603-0.43329 0.83035-0.43066 0.88796 0.06302 1.38 0.28335 0.2824 0.92138 0.5473 1.4178 0.58868 0.81891 0.06826 0.92392-0.0045 1.132-0.78466 0.17822-0.66806 0.3713-0.8599 0.86546-0.8599 0.68733 0 1.0638 0.68286 0.78171 1.4179-0.10882 0.28356-0.0289 0.43415 0.23027 0.43415 0.21828 0 0.45976 0.16388 0.53662 0.36417 0.0914 0.23815 0.39004 0.31632 0.86303 0.22591 0.63155-0.12073 0.70488-0.06787 0.57816 0.41673-0.13152 0.50291-0.0194 0.5624 1.195 0.63399 1.6119 0.09501 1.9652 0.60529 0.44671 0.64511-0.58865 0.01543-1.1238 0.08161-1.1893 0.14705-0.25382 0.25382 0.80077 2.5045 1.5524 3.3131 0.43523 0.46822 0.81471 1.0635 0.8433 1.3229 0.0286 0.25938 0.13416 0.66274 0.23462 0.89635 0.10045 0.23361 0.14675 1.1861 0.10288 2.1167l-0.0798 1.6919-0.92498 0.08776c-0.50874 0.04827-1.0445 0.18364-1.1906 0.30082-0.44282 0.35514-2.3032 0.49473-3.7052 0.27801zm-0.63186-1.2892c0.12478 0.19693 0.22688 0.23898 0.22688 0.09346 0-0.14552-0.11724-0.44318-0.26053-0.66146-0.21956-0.33446-0.29771-0.33917-0.49697-0.02992-0.14487 0.22484-0.50352 0.3159-0.92604 0.23513-0.37928-0.0725-0.6896-0.038-0.6896 0.07667 0 0.33381 0.8814 0.44143 1.4227 0.17372 0.34866-0.17244 0.56428-0.13894 0.72356 0.11241zm1.8225-0.17112c-0.18115-0.21828-0.43012-0.39688-0.55326-0.39688-0.12313 0-0.15535 0.17859-0.0716 0.39688 0.0838 0.21828 0.33273 0.39688 0.55326 0.39688 0.32641 0 0.33972-0.07379 0.0716-0.39688zm0.31309-0.71878c-0.18985-0.18986-0.31309-0.20548-0.31309-0.03969 0 0.35316 0.3129 0.66606 0.48948 0.48948 0.0752-0.07518-4e-3 -0.27759-0.17639-0.44979zm-13.278 1.6448c0-0.29937 0.17639-0.52917 0.40618-0.52917 0.3242 0 0.34902 0.10681 0.12298 0.52917-0.15576 0.29104-0.33854 0.52917-0.40618 0.52917-0.06764 0-0.12298-0.23812-0.12298-0.52917zm-14.218-3.894c0.40218-0.06082 0.9975-0.05919 1.3229 0.0036 0.32542 0.0628-0.0036 0.11256-0.73124 0.11058-0.7276-0.0021-0.99386-0.05337-0.59168-0.11419zm11.377 0c0.40218-0.06082 0.9975-0.05919 1.3229 0.0036 0.32542 0.0628-0.0036 0.11256-0.73124 0.11058-0.7276-0.0021-0.99386-0.05337-0.59167-0.11419zm9.1133-17.438c-0.35605-0.35605-0.205-3.1945 0.18733-3.5201 0.22091-0.18334 1.0078-0.27803 1.9182-0.23083l1.5437 0.08002v3.7042l-1.731 0.07698c-0.95205 0.04234-1.8153-0.0073-1.9182-0.11024zm3.5169-1.6865v-1.5875h-3.175v3.175h3.175zm-1.0583 0.79375c0-0.14552 0.11906-0.26458 0.26458-0.26458s0.26458 0.11906 0.26458 0.26458c0 0.14552-0.11906 0.26458-0.26458 0.26458s-0.26458-0.11906-0.26458-0.26458zm-1.7085-0.77547c-0.08372-0.13547-0.03122-0.32109 0.11668-0.41249 0.1479-0.0914 0.2689 0.01943 0.2689 0.2463 0 0.46475-0.15877 0.53318-0.38558 0.16619zm-0.14359-1.0766c0-0.14552 0.11906-0.26458 0.26458-0.26458s0.26458 0.11906 0.26458 0.26458-0.11906 0.26458-0.26458 0.26458-0.26458-0.11906-0.26458-0.26458zm1.8521 0c0-0.14552 0.11906-0.26458 0.26458-0.26458s0.26458 0.11906 0.26458 0.26458-0.11906 0.26458-0.26458 0.26458-0.26458-0.11906-0.26458-0.26458zm2.0393 2.7449c-0.35605-0.35605-0.205-3.1945 0.18733-3.5201 0.2209-0.18334 1.0078-0.27803 1.9182-0.23083l1.5437 0.08002v3.7042l-1.731 0.07698c-0.95205 0.04234-1.8153-0.0073-1.9182-0.11024zm3.5169-1.6865v-1.5875h-3.175v3.175h3.175zm-1.0583 0.79375c0-0.14552 0.11906-0.26458 0.26458-0.26458s0.26458 0.11906 0.26458 0.26458c0 0.14552-0.11906 0.26458-0.26458 0.26458s-0.26458-0.11906-0.26458-0.26458zm-1.7085-0.77547c-0.0837-0.13547-0.0312-0.32109 0.11667-0.41249 0.1479-0.0914 0.2689 0.01943 0.2689 0.2463 0 0.46475-0.15877 0.53318-0.38557 0.16619zm-0.1436-1.0766c0-0.14552 0.11907-0.26458 0.26459-0.26458s0.26458 0.11906 0.26458 0.26458-0.11906 0.26458-0.26458 0.26458-0.26459-0.11906-0.26459-0.26458zm1.8521 0c0-0.14552 0.11906-0.26458 0.26458-0.26458s0.26458 0.11906 0.26458 0.26458-0.11906 0.26458-0.26458 0.26458-0.26458-0.11906-0.26458-0.26458zm2.0393 2.7449c-0.35606-0.35605-0.20501-3.1945 0.18732-3.5201 0.22091-0.18334 1.0078-0.27803 1.9182-0.23083l1.5437 0.08002v3.7042l-1.731 0.07698c-0.95205 0.04234-1.8152-0.0073-1.9182-0.11024zm3.5169-1.6865v-1.5875h-3.175v3.175h3.175zm-1.0583 0.79375c0-0.14552 0.11907-0.26458 0.26459-0.26458s0.26458 0.11906 0.26458 0.26458c0 0.14552-0.11906 0.26458-0.26458 0.26458s-0.26459-0.11906-0.26459-0.26458zm-1.7085-0.77547c-0.0837-0.13547-0.0312-0.32109 0.11668-0.41249 0.14789-0.0914 0.2689 0.01943 0.2689 0.2463 0 0.46475-0.15877 0.53318-0.38558 0.16619zm-0.14359-1.0766c0-0.14552 0.11906-0.26458 0.26458-0.26458 0.14553 0 0.26459 0.11906 0.26459 0.26458s-0.11906 0.26458-0.26459 0.26458c-0.14552 0-0.26458-0.11906-0.26458-0.26458zm1.8521 0c0-0.14552 0.11907-0.26458 0.26459-0.26458s0.26458 0.11906 0.26458 0.26458-0.11906 0.26458-0.26458 0.26458-0.26459-0.11906-0.26459-0.26458zm-28.575 2.3812c0-0.14552 0.11906-0.26458 0.26458-0.26458s0.26458 0.11906 0.26458 0.26458-0.11906 0.26458-0.26458 0.26458-0.26458-0.11906-0.26458-0.26458zm-5.5562-2.3485c0-0.1184 0.22984-0.42328 0.51076-0.67751 0.48942-0.44292 0.50492-0.43987 0.3708 0.07298-0.13648 0.52191-0.88157 1.0328-0.88157 0.60453zm16.404-0.40753c0-0.20616-0.14883-0.43488-0.33073-0.50828-0.19758-0.07972-0.14431-0.14186 0.13229-0.15434 0.25466-0.01149 0.46302 0.0289 0.46302 0.08976s0.07227 0.29898 0.1606 0.52917c0.08833 0.23018 0.0288 0.41851-0.13229 0.41851-0.16109 0-0.29289-0.16867-0.29289-0.37483zm6.2726-1.3782c-0.35605-0.35605-0.205-3.1945 0.18733-3.5201 0.22091-0.18334 1.0078-0.27803 1.9182-0.23083l1.5437 0.08002v3.7042l-1.731 0.07698c-0.95205 0.04234-1.8153-0.0073-1.9182-0.11024zm3.5169-1.6865v-1.5875h-3.175v3.175h3.175zm-1.0583 0.79375c0-0.14552 0.11906-0.26458 0.26458-0.26458s0.26458 0.11906 0.26458 0.26458-0.11906 0.26458-0.26458 0.26458-0.26458-0.11906-0.26458-0.26458zm-1.7085-0.77547c-0.08372-0.13547-0.03122-0.32109 0.11668-0.41249 0.1479-0.0914 0.2689 0.01943 0.2689 0.2463 0 0.46475-0.15877 0.53318-0.38558 0.16619zm-0.14359-1.0766c0-0.14552 0.11906-0.26458 0.26458-0.26458s0.26458 0.11906 0.26458 0.26458c0 0.14552-0.11906 0.26458-0.26458 0.26458s-0.26458-0.11906-0.26458-0.26458zm1.8521 0c0-0.14552 0.11906-0.26458 0.26458-0.26458s0.26458 0.11906 0.26458 0.26458c0 0.14552-0.11906 0.26458-0.26458 0.26458s-0.26458-0.11906-0.26458-0.26458zm2.0393 2.7449c-0.35605-0.35605-0.205-3.1945 0.18733-3.5201 0.2209-0.18334 1.0078-0.27803 1.9182-0.23083l1.5437 0.08002v3.7042l-1.731 0.07698c-0.95205 0.04234-1.8153-0.0073-1.9182-0.11024zm3.5169-1.6865v-1.5875h-3.175v3.175h3.175zm-1.0583 0.79375c0-0.14552 0.11906-0.26458 0.26458-0.26458s0.26458 0.11906 0.26458 0.26458-0.11906 0.26458-0.26458 0.26458-0.26458-0.11906-0.26458-0.26458zm-1.7085-0.77547c-0.0837-0.13547-0.0312-0.32109 0.11667-0.41249 0.1479-0.0914 0.2689 0.01943 0.2689 0.2463 0 0.46475-0.15877 0.53318-0.38557 0.16619zm-0.1436-1.0766c0-0.14552 0.11907-0.26458 0.26459-0.26458s0.26458 0.11906 0.26458 0.26458c0 0.14552-0.11906 0.26458-0.26458 0.26458s-0.26459-0.11906-0.26459-0.26458zm1.8521 0c0-0.14552 0.11906-0.26458 0.26458-0.26458s0.26458 0.11906 0.26458 0.26458c0 0.14552-0.11906 0.26458-0.26458 0.26458s-0.26458-0.11906-0.26458-0.26458zm2.0393 2.7449c-0.35606-0.35605-0.20501-3.1945 0.18732-3.5201 0.22091-0.18334 1.0078-0.27803 1.9182-0.23083l1.5437 0.08002v3.7042l-1.731 0.07698c-0.95205 0.04234-1.8152-0.0073-1.9182-0.11024zm3.5169-1.6865v-1.5875h-3.175v3.175h3.175zm-1.0583 0.79375c0-0.14552 0.11907-0.26458 0.26459-0.26458s0.26458 0.11906 0.26458 0.26458-0.11906 0.26458-0.26458 0.26458-0.26459-0.11906-0.26459-0.26458zm-1.7085-0.77547c-0.0837-0.13547-0.0312-0.32109 0.11668-0.41249 0.14789-0.0914 0.2689 0.01943 0.2689 0.2463 0 0.46475-0.15877 0.53318-0.38558 0.16619zm-0.14359-1.0766c0-0.14552 0.11906-0.26458 0.26458-0.26458 0.14553 0 0.26459 0.11906 0.26459 0.26458 0 0.14552-0.11906 0.26458-0.26459 0.26458-0.14552 0-0.26458-0.11906-0.26458-0.26458zm1.8521 0c0-0.14552 0.11907-0.26458 0.26459-0.26458s0.26458 0.11906 0.26458 0.26458c0 0.14552-0.11906 0.26458-0.26458 0.26458s-0.26459-0.11906-0.26459-0.26458zm-33.337-0.33671c0-0.71408 0.1584-0.95118 0.90352-1.3525 0.86611-0.46643 1.6528-0.39571 1.3341 0.11994-0.25461 0.41197 0.31984 0.27466 0.68335-0.16334 0.45832-0.55224 1.4688-0.3961 1.3669 0.2112-0.10983 0.65411 0.38275 0.57831 0.55638-0.08562 0.11016-0.42127 0.31696-0.52876 0.89075-0.46302 0.58863 0.06744 0.76479 0.23732 0.82974 0.80014 0.04535 0.39299-0.04813 0.95853-0.20775 1.2568-0.26663 0.49821-0.5366 0.54225-3.3236 0.54225h-3.0334zm9.8993 0.2409c-0.21156-0.55132 0.67434-2.3054 1.3455-2.6641 0.29104-0.15555 0.61664-0.40188 0.72355-0.5474 0.12439-0.16931 0.19584-0.15716 0.19844 0.03375 0.0022 0.16408-0.17454 0.44655-0.39282 0.62771-0.44707 0.37104-0.54762 0.91815-0.12019 0.65398 0.15218-0.09405 0.73984-0.75693 1.3059-1.4731 0.56608-0.71614 1.0944-1.1966 1.1741-1.0676 0.0797 0.12896-0.27064 0.67508-0.77853 1.2136-1.2217 1.2954-1.5998 1.996-1.0771 1.996 0.21481 0 0.46555-0.12133 0.5572-0.26962 0.09165-0.14829 0.74523-0.56281 1.4524-0.92116 2.0578-1.0428 2.6911-2.4678 1.5872-3.5717-1.1881-1.1881-2.676-0.44459-3.0719 1.5352-0.09307 0.46534-0.27339 0.84606-0.40072 0.84606-0.31227 0-0.29976-0.08084 0.21411-1.3837 0.59249-1.5022 1.1999-2.0092 2.2668-1.8918 1.2104 0.13312 2.1501 1.2542 1.9384 2.3127-0.24061 1.203-0.86093 1.9919-1.9518 2.4822-0.53858 0.24205-1.396 0.82378-1.9053 1.2927-1.0951 1.0083-2.8127 1.4545-3.0653 0.79629zm1.773-0.51113c0.38708-0.29473 0.37456-0.36543-0.13229-0.74733-0.53648-0.40422-0.56213-0.3903-0.61531 0.33394-0.06054 0.82452 0.09482 0.91043 0.7476 0.41339zm18.209-2.1577c-0.79115-0.46452-1.4385-0.94537-1.4385-1.0686 0-0.33532 1.1842-0.35732 1.4002-0.02601 0.53305 0.81774 1.0607 0.98967 1.8219 0.59368 1.2243-0.63685 1.966-1.6116 2.02-2.655 0.0291-0.56144 0.18608-0.95675 0.38026-0.95744 0.2299-8.2e-4 0.32939 0.50296 0.32632 1.6525l-4e-3 1.6536-3.0674 1.6518-1.4384-0.84457zm-6.8209-0.1677c-0.77755-0.44589-1.3396-0.88478-1.2491-0.97532 0.36845-0.36845 1.0914-0.26625 1.5426 0.21808 0.7052 0.75694 1.6596 0.63547 2.7133-0.34532 0.69401-0.64602 0.93983-1.1065 0.9883-1.8516 0.10612-1.6311 0.46141-1.1218 0.46112 0.66093l-2.6e-4 1.6536-1.2955 0.7276c-0.71252 0.40018-1.397 0.72649-1.5211 0.72512-0.12407-0.0014-0.86176-0.3673-1.6393-0.81319zm-23.801-3.5442v-0.93178h9.9948l-0.06953 0.8599-0.06954 0.8599-9.8558 0.14378zm11.06-0.0057c0-0.22049 0.23518-0.39688 0.52917-0.39688 0.63083 0 0.70184 0.40629 0.11065 0.63315-0.59136 0.22693-0.63982 0.20903-0.63982-0.23628z" style="fill:#656565;stroke-width:.26458"/><path d="m99.17 98.192c-1.6648-0.45749-1.9347-0.77103-0.50677-0.58879 0.8574 0.10943 1.1245 0.05523 1.1245-0.22818 0-0.20443 0.11906-0.3717 0.26459-0.3717 0.14552 0 0.25048 0.0893 0.23325 0.19844-0.093 0.58883 0.10977 0.81135 0.83644 0.918 0.56049 0.08226 0.76748 0.02011 0.68126-0.2046-0.0834-0.21739 0.064-0.27438 0.45166-0.17454 0.50859 0.13099 0.53382 0.09738 0.21694-0.28904-0.43412-0.5294-1.8904-1.2882-1.8904-0.985 0 0.11904-0.44648 0.1036-0.99218-0.03431-1.948-0.49232-2.5409-0.40496-2.3046 0.33962 0.12009 0.37839 0.08266 0.50309-0.11446 0.38126-0.49404-0.30533-0.33474-1.2468 0.23624-1.3961 0.74932-0.19595 0.65579-0.78751-0.19844-1.2551-1.4743-0.80698-1.945-1.3757-1.6901-2.042 0.12963-0.3388 0.37406-1.2113 0.54317-1.9389 0.50929-2.1912 1.1177-3.571 1.5797-3.5825 0.26625-0.0066 0.15072-0.16048-0.3068-0.40861-0.81745-0.44334-1.2505-0.31109-1.2505 0.3819 0 0.25335-0.09836 0.57374-0.21858 0.71199-0.12022 0.13824-0.38218 0.78714-0.58214 1.442-0.36084 1.1817-1.5403 3.0389-1.7786 2.8006-0.06834-0.06834 0.10556-0.45854 0.38644-0.8671 0.61019-0.88756 1.3991-2.9419 1.3991-3.6433 0-0.90256 0.6265-2.2588 1.0453-2.2629 0.35636-0.0035 0.35889-0.03629 0.01935-0.25101-0.3336-0.21096-0.30585-0.36148 0.1904-1.0327 0.31951-0.43216 0.73202-1.2699 0.91669-1.8616 0.31051-0.9949 0.87933-1.5607 1.2233-1.2167 0.13125 0.13125-0.42015 1.3147-1.4179 3.0431-0.47188 0.81745-0.49426 1.4892-0.0589 1.7682 0.38231 0.24496 2.139 0.88022 2.211 0.79959 0.02666-0.02982 0.23069-0.49398 0.4534-1.0315 0.2959-0.71411 0.55273-0.9661 0.95385-0.93588 0.43579 0.03283 0.54891 0.22059 0.54891 0.91108 0 0.62277 0.12085 0.86974 0.42556 0.86974 0.32371 0 0.38515 0.161 0.25672 0.67271-0.16626 0.66243-0.15879 0.66612 0.48885 0.24178 0.76482-0.50113 1.4158-0.29045 0.92599 0.29969-0.25486 0.30709-0.16326 0.37919 0.51632 0.40639 0.45438 0.01818 0.94521 0.06284 1.0907 0.09922s0.53247 0.09407 0.8599 0.12821c0.3613 0.03767 0.13894 0.1517-0.56571 0.29009-0.63856 0.12542-1.2203 0.28735-1.2928 0.35984-0.22673 0.22672 1.0223 2.8928 1.6875 3.602 0.65731 0.70076 0.82889 1.3084 0.36944 1.3084-0.44768 0-0.29234 0.48502 0.18476 0.5769 0.36105 0.06953 0.46297 0.43678 0.51874 1.8691 0.0657 1.6876 0.0355 1.791-0.5666 1.9421-0.34979 0.08779-0.74833 0.0902-0.88563 0.0053-0.1373-0.08486-0.39677 0.02299-0.5766 0.23968-0.41726 0.50277-3.8057 0.49984-5.6424-0.0049zm4.4321-0.82966c0.22151-0.57723-0.0726-0.84553-0.38513-0.35134-0.31288 0.49473-0.31954 0.78609-0.018 0.78609 0.12995 0 0.31135-0.19564 0.4031-0.43474zm-0.90396-0.60797c0-0.13693-0.11906-0.32255-0.26458-0.41249-0.14552-0.08994-0.26459 0.02209-0.26459 0.24897 0 0.22687 0.11907 0.41249 0.26459 0.41249s0.26458-0.11204 0.26458-0.24897zm-4.3932-3.5112c0.138-1.1734-0.13291-1.8636-0.49897-1.2713-0.0914 0.14789-0.03591 0.2689 0.12332 0.2689 0.20374 0 0.19805 0.17088-0.01921 0.57685-0.28317 0.52911-0.33562 0.54006-0.63379 0.13229-0.4175-0.57096-0.69646-0.57346-0.47805-0.0043 0.1136 0.29604 0.06754 0.3776-0.14059 0.24897-0.17026-0.10522-0.30955-0.06148-0.30955 0.0972 0 0.15868 0.20836 0.3674 0.46302 0.46383 0.25466 0.09643 0.62602 0.33649 0.82525 0.53346 0.47005 0.46473 0.49561 0.42474 0.66858-1.046zm-1.9568-0.62109c0-0.20969-0.10632-0.38126-0.23628-0.38126-0.29204 0-0.57652 0.68651-0.37005 0.89298 0.2316 0.2316 0.60632-0.08467 0.60632-0.51172zm5.2696-0.28642c0.24898-0.2142-0.17265-0.26786-1.2332-0.15697-0.61765 0.06458-1.062 0.2162-0.98734 0.33694 0.12248 0.19817 1.9535 0.04977 2.2206-0.17997zm-3.6821-18.351c0-0.14552 0.11906-0.26458 0.26458-0.26458s0.26458 0.11906 0.26458 0.26458-0.11906 0.26458-0.26458 0.26458-0.26458-0.11906-0.26458-0.26458zm4.4979 0c0-0.14552 0.11906-0.26458 0.26458-0.26458s0.26458 0.11906 0.26458 0.26458-0.11906 0.26458-0.26458 0.26458-0.26458-0.11906-0.26458-0.26458zm4.4979 0c0-0.14552 0.11907-0.26458 0.26459-0.26458s0.26458 0.11906 0.26458 0.26458-0.11906 0.26458-0.26458 0.26458-0.26459-0.11906-0.26459-0.26458zm-33.867-0.24897c0-0.13693 0.11906-0.32255 0.26458-0.41249 0.14552-0.08994 0.26458 0.0221 0.26458 0.24897 0 0.22687-0.11906 0.41249-0.26458 0.41249-0.14552 0-0.26458-0.11204-0.26458-0.24897zm16.316 0.07258c-0.09701-0.09701-0.17639-0.29942-0.17639-0.44979 0-0.16579 0.12324-0.15017 0.31309 0.03969 0.1722 0.1722 0.25158 0.37461 0.17639 0.44979-0.07519 0.07519-0.21608 0.05733-0.31309-0.03969zm-15.408-4.2922c0.24992-0.40437 1.5059-0.59621 1.8786-0.28693 0.26106 0.21666 0.50764 0.21246 0.93438-0.01592 0.41654-0.22293 0.63014-0.22869 0.75884-0.02046 0.1226 0.19836 0.50281 0.12477 1.2051-0.23327 1.151-0.5868 1.3195-0.54851 1.0684 0.24274-0.16246 0.51188-0.37145 0.54911-3.0825 0.54911-1.6299 0-2.8443-0.10342-2.7628-0.23527zm9.9306-0.3114c-0.36276-0.67782-0.31657-1.1897 0.14166-1.57 0.46378-0.3849 0.54151 0.01412 0.09059 0.46504-0.48745 0.48745 0.24787 1.1945 1.0364 0.99658 0.36075-0.09054 0.57181-0.05424 0.48656 0.08369-0.30987 0.50138-1.4912 0.518-1.7552 0.02469zm14.032 0.28209c0-0.14552 0.11906-0.26458 0.26458-0.26458s0.26458 0.11906 0.26458 0.26458c0 0.14552-0.11906 0.26458-0.26458 0.26458s-0.26458-0.11906-0.26458-0.26458zm4.4979 0c0-0.14552 0.11906-0.26458 0.26458-0.26458s0.26458 0.11906 0.26458 0.26458c0 0.14552-0.11906 0.26458-0.26458 0.26458s-0.26458-0.11906-0.26458-0.26458zm4.4979 0c0-0.14552 0.11907-0.26458 0.26459-0.26458s0.26458 0.11906 0.26458 0.26458c0 0.14552-0.11906 0.26458-0.26458 0.26458s-0.26459-0.11906-0.26459-0.26458zm-20.894-0.99219c0.0046-0.10914 0.31486-0.42188 0.68952-0.69498l0.68121-0.49654-0.45537 0.69498c-0.43058 0.65715-0.93352 0.92997-0.91536 0.49654zm-0.70152-0.45035c-0.1728-0.4503 0.07519-0.93871 0.47664-0.93871 0.18119 0 0.16752 0.13718-0.03839 0.38528-0.17587 0.21191-0.24295 0.50956-0.14907 0.66146 0.09388 0.1519 0.10039 0.27617 0.01447 0.27617-0.08592 0-0.22256-0.17289-0.30364-0.3842zm2.5453-0.93871c0.21828-0.14106 0.57547-0.25648 0.79375-0.25648 0.35278 0 0.35278 0.0285 0 0.25648-0.21828 0.14106-0.57547 0.25648-0.79375 0.25648-0.35278 0-0.35278-0.0285 0-0.25648zm16.287-0.14071c-0.57682-0.43628-0.35987-0.52054 0.35508-0.1379 0.35864 0.19194 0.65835 0.07685 1.2811-0.49191 0.89988-0.82191 1.9224-1.2093 1.9163-0.72606-4e-3 0.287-2.4087 1.7711-2.8406 1.7528-0.10907-0.0046-0.42942-0.18322-0.71189-0.39688zm-7.0932-0.27521c-1.074-0.58266-0.88378-0.70062 0.34014-0.2109 0.98373 0.39361 1.1051 0.39344 1.5422-0.0021 0.26095-0.23615 0.62093-0.42937 0.79996-0.42937 0.17903 0 0.24056-0.13746 0.13672-0.30546-0.11268-0.18232-0.07301-0.23391 0.09839-0.12798 0.15795 0.09762 0.36197 0.05648 0.45338-0.09141 0.20607-0.33344 0.66412-0.35375 0.66412-0.02946 0 0.34022-2.2476 1.6147-2.8252 1.602-0.26513-0.0058-0.80947-0.18822-1.2097-0.40532zm-7.8629 0.0035c0.0046-0.13695 0.18322-0.48012 0.39688-0.7626 0.21365-0.28248 0.38467-0.40154 0.38005-0.26458-0.0046 0.13696-0.18322 0.48012-0.39688 0.7626s-0.38467 0.40154-0.38005 0.26458zm-2.3897-0.9105c0.31086-0.43656 0.69843-0.79375 0.86127-0.79375 0.16284 0-0.04614 0.35719-0.46439 0.79375-0.41825 0.43656-0.80582 0.79375-0.86127 0.79375-0.05544 0 0.15353-0.35719 0.46439-0.79375zm15.618 0.27492c-0.21407-0.13538-0.32033-0.31503-0.23614-0.39922 0.0842-0.08419 0.30368 0.0284 0.48775 0.2502 0.38169 0.4599 0.3085 0.50325-0.25161 0.14902zm-12.514-2.1058c-0.11509-0.44009-0.08065-0.5434 0.11569-0.34706 0.15375 0.15375 0.22749 0.43572 0.16386 0.6266-0.06605 0.19816-0.18599 0.07823-0.27955-0.27955zm-5.7497-1.0712c0-0.14095 0.17859-0.18775 0.39688-0.10398 0.21828 0.08376 0.39688 0.19909 0.39688 0.25628 0 0.05719-0.17859 0.10398-0.39688 0.10398s-0.39688-0.11532-0.39688-0.25628zm-8.7974-0.47002c1.3461-0.04802 3.5487-0.04802 4.8948 0s0.24474 0.08731-2.4474 0.08731c-2.6921 0-3.7935-0.03929-2.4474-0.08731z" style="fill:#222;stroke-width:.26458"/></g></g></svg>
