<svg width="101" height="112" version="1.1" xmlns="http://www.w3.org/2000/svg"><path d="m50.482 1.2227c-0.93208 0-1.1232 0.15011-1.4102 0.24414-0.28694 0.094033-0.53131 0.19139-0.79492 0.30273-0.52723 0.2227-1.1181 0.50246-1.8164 0.84766-1.3967 0.69039-3.2005 1.6413-5.3066 2.7832-4.2124 2.2839-9.6083 5.3255-14.975 8.4238-5.3663 3.0983-10.697 6.2478-14.781 8.7539-2.042 1.2531-3.7663 2.3427-5.0625 3.207-0.6481 0.43218-1.1861 0.80319-1.6426 1.1484-0.22824 0.17262-0.4333 0.33563-0.6582 0.53711-0.2249 0.20148-0.45194 0.29047-0.91797 1.0977-0.46602 0.80718-0.43211 1.0502-0.49414 1.3457-0.062035 0.29551-0.099387 0.55392-0.13477 0.83789-0.070756 0.56793-0.12361 1.2187-0.17383 1.9961-0.10044 1.5547-0.17998 3.5934-0.24414 5.9883-0.12832 4.7898-0.19141 10.981-0.19141 17.178 0 6.1963 0.063088 12.39 0.19141 17.18 0.064159 2.3949 0.1437 4.4336 0.24414 5.9883 0.050221 0.77734 0.10307 1.4282 0.17383 1.9961 0.035378 0.28397 0.07273 0.54238 0.13477 0.83789 0.062035 0.29551 0.028118 0.53853 0.49414 1.3457 0.46603 0.80719 0.69307 0.89618 0.91797 1.0977 0.2249 0.20148 0.42997 0.36448 0.6582 0.53711 0.45647 0.34525 0.99447 0.71626 1.6426 1.1484 1.2962 0.86436 3.0205 1.954 5.0625 3.207 4.0841 2.5061 9.4149 5.6556 14.781 8.7539 5.3663 3.0983 10.762 6.14 14.975 8.4238 2.1062 1.1419 3.91 2.0928 5.3066 2.7832 0.69833 0.34519 1.2892 0.62496 1.8164 0.84766 0.26361 0.11135 0.50798 0.2087 0.79492 0.30273 0.28694 0.094 0.47808 0.24414 1.4102 0.24414s1.1232-0.1501 1.4102-0.24414c0.28694-0.094 0.53131-0.19138 0.79492-0.30273 0.52722-0.2227 1.1181-0.50246 1.8164-0.84766 1.3966-0.69039 3.2005-1.6413 5.3066-2.7832 4.2122-2.2839 9.6066-5.3255 14.973-8.4238s10.697-6.2478 14.781-8.7539c2.0419-1.2531 3.7683-2.3427 5.0645-3.207 0.64808-0.43218 1.1842-0.80319 1.6406-1.1484 0.22823-0.17262 0.43331-0.33563 0.6582-0.53711 0.22489-0.20148 0.45197-0.29052 0.91797-1.0977 0.46602-0.80718 0.43211-1.0502 0.49414-1.3457 0.06203-0.29551 0.09939-0.55392 0.13476-0.83789 0.07076-0.56793 0.12361-1.2187 0.17383-1.9961 0.10044-1.5547 0.17998-3.5934 0.24414-5.9883 0.12832-4.7898 0.19141-10.981 0.19141-17.178 0-6.1963-0.06309-12.39-0.19141-17.18-0.06416-2.3949-0.1437-4.4336-0.24414-5.9883-0.05022-0.77734-0.10307-1.4282-0.17383-1.9961-0.03538-0.28396-0.07273-0.54238-0.13476-0.83789-0.06203-0.29551-0.02812-0.53853-0.49414-1.3457-0.466-0.80714-0.69308-0.89618-0.91797-1.0977-0.22489-0.20148-0.42998-0.36448-0.6582-0.53711-0.45645-0.34525-0.99255-0.71626-1.6406-1.1484-1.2962-0.86436-3.0225-1.954-5.0645-3.207-4.0839-2.5061-9.4152-5.6556-14.781-8.7539-5.3661-3.0983-10.76-6.1399-14.973-8.4238-2.1061-1.1419-3.91-2.0928-5.3066-2.7832-0.6983-0.3452-1.2892-0.62496-1.8164-0.84766-0.26361-0.11135-0.50798-0.2087-0.79492-0.30273s-0.47808-0.24414-1.4102-0.24414zm0 21.951c0.1882 0.08665 0.33708 0.14952 0.59961 0.2793 0.86568 0.42794 2.0817 1.0666 3.5078 1.8398 2.8522 1.5465 6.5609 3.637 10.244 5.7637 3.6832 2.1266 7.346 4.2933 10.111 5.9902 1.3827 0.84849 2.5442 1.5814 3.3477 2.1172 0.24364 0.16248 0.37383 0.25924 0.54297 0.37891 0.01909 0.20634 0.039663 0.36977 0.058593 0.66211 0.06225 0.96367 0.11671 2.3354 0.16016 3.957 0.086889 3.2433 0.12891 7.5008 0.12891 11.754 0 4.2531-0.042052 8.5086-0.12891 11.752-0.043481 1.6217-0.097895 2.9934-0.16016 3.957-0.01885 0.29234-0.039504 0.45577-0.058593 0.66211-0.16914 0.11967-0.29933 0.21643-0.54297 0.37891-0.80342 0.53577-1.965 1.2687-3.3477 2.1172-2.7653 1.697-6.4281 3.8636-10.111 5.9902-3.6832 2.1266-7.3919 4.2172-10.244 5.7637-1.4261 0.77324-2.6421 1.4119-3.5078 1.8398-0.26253 0.12978-0.41141 0.19265-0.59961 0.2793-0.18828-0.08668-0.33883-0.14942-0.60156-0.2793-0.86572-0.42794-2.0816-1.0666-3.5078-1.8398-2.8523-1.5465-6.5588-3.637-10.242-5.7637-3.6834-2.1266-7.3478-4.2933-10.113-5.9902-1.3827-0.84849-2.5442-1.5814-3.3477-2.1172-0.24366-0.16248-0.37383-0.25924-0.54297-0.37891-0.01906-0.20634-0.039704-0.36977-0.058594-0.66211-0.06226-0.96367-0.11671-2.3354-0.16016-3.957-0.08688-3.2433-0.12891-7.5008-0.12891-11.754 0-4.2531 0.042008-8.5086 0.12891-11.752 0.04344-1.6217 0.097901-2.9934 0.16016-3.957 0.01889-0.29234 0.039524-0.45577 0.058594-0.66211 0.16914-0.11967 0.29931-0.21643 0.54297-0.37891 0.80346-0.53577 1.9649-1.2687 3.3477-2.1172 2.7654-1.697 6.4299-3.8636 10.113-5.9902 3.6834-2.1266 7.3899-4.2172 10.242-5.7637 1.4262-0.77324 2.6421-1.4119 3.5078-1.8398 0.26273-0.12987 0.41328-0.19262 0.60156-0.2793z" style="-inkscape-stroke:none;color:#000000;fill:#444;stroke-linecap:round;stroke-linejoin:round;stroke-miterlimit:2.4"/><path d="m50.482 10.57c-0.77277 0-0.93124 0.12445-1.1691 0.20241-0.2379 0.07796-0.4405 0.15868-0.65906 0.25099-0.43712 0.18464-0.92698 0.41658-1.506 0.70278-1.1579 0.57239-2.6534 1.3607-4.3997 2.3075-3.4924 1.8935-7.9661 4.4153-12.415 6.9841-4.4491 2.5688-8.8689 5.1799-12.255 7.2577-1.693 1.0389-3.1226 1.9423-4.1973 2.6589-0.53733 0.35831-0.98338 0.66591-1.3618 0.95215-0.18923 0.14312-0.35925 0.27827-0.54571 0.44531-0.18646 0.16704-0.3747 0.24082-0.76108 0.91005-0.38637 0.66922-0.35825 0.8707-0.40968 1.1157-0.05144 0.245-0.08241 0.45925-0.11173 0.69468-0.05867 0.47086-0.10248 1.0104-0.14412 1.6549-0.08327 1.289-0.14922 2.9792-0.20241 4.9648-0.10639 3.9712-0.15869 9.1045-0.15869 14.242s0.05231 10.272 0.15869 14.243c0.05319 1.9856 0.11914 3.6758 0.20241 4.9648 0.04164 0.64449 0.08545 1.1841 0.14412 1.6549 0.02933 0.23543 0.0603 0.44968 0.11173 0.69468 0.05144 0.245 0.02331 0.44649 0.40968 1.1157 0.38638 0.66923 0.57461 0.74301 0.76108 0.91005 0.18646 0.16704 0.35648 0.30219 0.54571 0.44531 0.37845 0.28624 0.8245 0.59384 1.3618 0.95215 1.0747 0.71662 2.5042 1.62 4.1973 2.6589 3.386 2.0778 7.8058 4.689 12.255 7.2577 4.4492 2.5688 8.9228 5.0906 12.415 6.9841 1.7462 0.94677 3.2417 1.7351 4.3997 2.3075 0.57898 0.28619 1.0688 0.51814 1.506 0.70278 0.21856 0.0923 0.42116 0.17303 0.65906 0.25099 0.2379 0.0779 0.39637 0.20241 1.1691 0.20241 0.77278 0 0.93124-0.12444 1.1691-0.20241 0.2379-0.0779 0.44051-0.15867 0.65906-0.25099 0.43711-0.18464 0.927-0.41658 1.506-0.70278 1.1579-0.5724 2.6535-1.3608 4.3997-2.3075 3.4923-1.8935 7.9647-4.4153 12.414-6.9841 4.4489-2.5688 8.869-5.1799 12.255-7.2577 1.6929-1.0389 3.1242-1.9423 4.1989-2.6589 0.53731-0.35831 0.98178-0.66591 1.3602-0.95215 0.18921-0.14312 0.35925-0.27827 0.5457-0.44531 0.18645-0.16704 0.37472-0.24087 0.76108-0.91005 0.38637-0.66922 0.35825-0.8707 0.40968-1.1157 0.05141-0.245 0.08241-0.45925 0.11173-0.69468 0.0587-0.47086 0.10248-1.0104 0.14412-1.6549 0.08327-1.289 0.14922-2.9792 0.20241-4.9648 0.10638-3.9712 0.1587-9.1045 0.1587-14.242 0-5.1373-0.05232-10.272-0.1587-14.243-0.05322-1.9856-0.11914-3.6758-0.20241-4.9648-0.04162-0.64449-0.08545-1.1841-0.14412-1.6549-0.02935-0.23543-0.06027-0.44968-0.11173-0.69468-0.05141-0.245-0.02329-0.44649-0.40968-1.1157-0.38636-0.66919-0.57462-0.74301-0.76108-0.91005-0.18645-0.16704-0.35649-0.30219-0.5457-0.44531-0.37844-0.28624-0.82291-0.59384-1.3602-0.95215-1.0746-0.71663-2.5059-1.62-4.1989-2.6589-3.3859-2.0778-7.806-4.689-12.255-7.2577-4.449-2.5688-8.9213-5.0905-12.414-6.9841-1.7461-0.94677-3.2418-1.7351-4.3997-2.3075-0.57895-0.2862-1.0688-0.51814-1.506-0.70278-0.21856-0.092318-0.42117-0.17303-0.65906-0.25099-0.2379-0.077961-0.39636-0.20241-1.1691-0.20241zm0 18.199c0.15603 0.07184 0.27946 0.12396 0.49713 0.23156 0.71772 0.3548 1.7259 0.88431 2.9083 1.5254 2.3647 1.2822 5.4396 3.0154 8.4933 4.7786 3.0537 1.7632 6.0905 3.5595 8.3832 4.9664 1.1463 0.70347 2.1094 1.3111 2.7755 1.7553 0.20201 0.13471 0.30994 0.21493 0.45017 0.31415 0.01583 0.17108 0.03291 0.30657 0.04859 0.54894 0.05165 0.79897 0.09676 1.9362 0.13279 3.2807 0.07205 2.689 0.10688 6.2188 0.10688 9.745 0 3.5262-0.0349 7.0544-0.10688 9.7434-0.03607 1.3445-0.08117 2.4818-0.13279 3.2807-0.01567 0.24237-0.03275 0.37787-0.04859 0.54895-0.14023 0.09922-0.24816 0.17944-0.45017 0.31415-0.6661 0.4442-1.6292 1.0519-2.7755 1.7553-2.2927 1.4069-5.3295 3.2033-8.3832 4.9664-3.0537 1.7632-6.1286 3.4964-8.4933 4.7786-1.1824 0.64108-2.1906 1.1706-2.9083 1.5254-0.21767 0.1076-0.3411 0.15973-0.49713 0.23156-0.15611-0.07187-0.28092-0.12389-0.49875-0.23156-0.71775-0.3548-1.7259-0.8843-2.9083-1.5254-2.3648-1.2822-5.4378-3.0154-8.4917-4.7786-3.0539-1.7632-6.092-3.5595-8.3848-4.9664-1.1464-0.70347-2.1094-1.3111-2.7755-1.7553-0.20201-0.13471-0.30994-0.21493-0.45017-0.31415-0.0158-0.17108-0.03291-0.30657-0.04858-0.54895-0.05162-0.79897-0.09676-1.9362-0.13278-3.2807-0.07203-2.689-0.10688-6.2188-0.10688-9.745 0-3.5262 0.03483-7.0544 0.10688-9.7434 0.03601-1.3445 0.08117-2.4818 0.13278-3.2807 0.01566-0.24237 0.03277-0.37787 0.04858-0.54894 0.14023-0.09921 0.24815-0.17944 0.45017-0.31415 0.66614-0.4442 1.6291-1.0519 2.7755-1.7553 2.2928-1.4069 5.3309-3.2032 8.3848-4.9664 3.0539-1.7632 6.1268-3.4964 8.4917-4.7786 1.1824-0.64108 2.1905-1.1706 2.9083-1.5254 0.21783-0.10768 0.34264-0.1597 0.49875-0.23156z" style="-inkscape-stroke:none;color:#000000;fill:#cdcdcd;stroke-linecap:round;stroke-linejoin:round;stroke-miterlimit:2.4;stroke-width:.82909"/><path d="m50.483 10.026c-0.78205 0-0.94248 0.1259-1.1832 0.20479-0.24076 0.0789-0.44723 0.15971-0.66842 0.25313-0.44237 0.18684-0.93862 0.42145-1.5246 0.71108-1.1718 0.57926-2.6842 1.377-4.4513 2.3352-3.5343 1.9163-8.0608 4.4685-12.563 7.0681-4.5026 2.5996-8.9774 5.2413-12.404 7.344-1.7133 1.0514-3.159 1.9683-4.2466 2.6936-0.54378 0.36262-0.99365 0.6717-1.3766 0.96138-0.1915 0.14484-0.36593 0.28319-0.55464 0.45225-0.18871 0.16903-0.37695 0.24428-0.76796 0.92155-0.39101 0.67725-0.36321 0.88125-0.41527 1.1292-0.05204 0.24795-0.0841 0.46429-0.11379 0.70254-0.05936 0.47652-0.10292 1.0231-0.14506 1.6753-0.084281 1.3044-0.15097 3.0136-0.20479 5.0231-0.10766 4.0188-0.16213 9.2132-0.16213 14.412 0 5.199 0.054478 10.396 0.16213 14.415 0.053815 2.0094 0.12051 3.7186 0.20479 5.0231 0.04214 0.65222 0.08567 1.1988 0.14506 1.6753 0.02973 0.23826 0.0617 0.4546 0.11379 0.70254 0.05204 0.24795 0.02421 0.45194 0.41527 1.1292 0.39102 0.67727 0.57926 0.7525 0.76796 0.92155 0.18871 0.16903 0.36314 0.30742 0.55464 0.45225 0.383 0.28969 0.83286 0.59876 1.3766 0.96138 1.0876 0.72522 2.5332 1.6422 4.2466 2.6936 3.4267 2.1027 7.9015 4.7444 12.404 7.344 4.5026 2.5996 9.029 5.1518 12.563 7.0681 1.7672 0.95813 3.2795 1.7559 4.4513 2.3352 0.58593 0.28961 1.0822 0.52422 1.5246 0.71108 0.22119 0.0934 0.42766 0.17424 0.66842 0.25313 0.24076 0.0788 0.40118 0.20478 1.1832 0.20478 0.78205 0 0.94248-0.1259 1.1832-0.20478 0.24076-0.0789 0.44439-0.15971 0.66557-0.25313 0.44235-0.18688 0.93865-0.42145 1.5246-0.71108 1.1718-0.57927 2.6842-1.377 4.4513-2.3352 3.5342-1.9163 8.061-4.4685 12.563-7.0681 4.5023-2.5996 8.9775-5.2413 12.404-7.344 1.7133-1.0514 3.159-1.9683 4.2466-2.6936 0.54375-0.36262 0.99366-0.6717 1.3766-0.96138 0.1915-0.14484 0.36596-0.28319 0.55464-0.45225 0.18871-0.16903 0.37698-0.24432 0.76796-0.92155 0.39101-0.67725 0.36321-0.88125 0.41527-1.1292 0.05201-0.24795 0.0841-0.46429 0.11379-0.70254 0.05939-0.47652 0.10292-1.0231 0.14507-1.6753 0.08431-1.3044 0.15094-3.0136 0.20479-5.0231 0.10766-4.0188 0.16213-9.2132 0.16213-14.412 0-5.199-0.05446-10.396-0.16213-14.415-0.05386-2.0094-0.12051-3.7186-0.20479-5.0231-0.04211-0.65222-0.08574-1.1988-0.14507-1.6753-0.02973-0.23826-0.06175-0.4546-0.11379-0.70254-0.05201-0.24795-0.02421-0.45194-0.41527-1.1292-0.39099-0.67722-0.57927-0.75251-0.76796-0.92155-0.18871-0.16903-0.36318-0.30742-0.55464-0.45225-0.38298-0.28969-0.83289-0.59876-1.3766-0.96138-1.0875-0.72522-2.5333-1.6422-4.2466-2.6936-3.4265-2.1027-7.9017-4.7444-12.404-7.344-4.5024-2.5996-9.0291-5.1518-12.563-7.0681-1.7671-0.95813-3.2795-1.7559-4.4513-2.3352-0.5859-0.28965-1.0822-0.52422-1.5246-0.71108-0.22119-0.09343-0.42481-0.17425-0.66557-0.25313-0.24076-0.07888-0.40118-0.20479-1.1832-0.20479z" style="-inkscape-stroke:none;color:#000000;fill:#545454;stroke-linecap:round;stroke-linejoin:round;stroke-miterlimit:2.4;stroke-width:.83904"/></svg>
