<svg width="101" height="112" version="1.1" xmlns="http://www.w3.org/2000/svg"><path d="m50.482 1.2227c-0.93208 0-1.1232 0.15011-1.4102 0.24414-0.28694 0.094033-0.53131 0.19139-0.79492 0.30273-0.52723 0.2227-1.1181 0.50246-1.8164 0.84766-1.3967 0.69039-3.2005 1.6413-5.3066 2.7832-4.2124 2.2839-9.6083 5.3255-14.975 8.4238-5.3663 3.0983-10.697 6.2478-14.781 8.7539-2.042 1.2531-3.7663 2.3427-5.0625 3.207-0.6481 0.43218-1.1861 0.80319-1.6426 1.1484-0.22824 0.17262-0.4333 0.33563-0.6582 0.53711-0.2249 0.20148-0.45194 0.29047-0.91797 1.0977-0.46602 0.80718-0.43211 1.0502-0.49414 1.3457-0.062035 0.29551-0.099387 0.55392-0.13477 0.83789-0.070756 0.56793-0.12361 1.2187-0.17383 1.9961-0.10044 1.5547-0.17998 3.5934-0.24414 5.9883-0.12832 4.7898-0.19141 10.981-0.19141 17.178 0 6.1963 0.063088 12.39 0.19141 17.18 0.064159 2.3949 0.1437 4.4336 0.24414 5.9883 0.050221 0.77734 0.10307 1.4282 0.17383 1.9961 0.035378 0.28397 0.07273 0.54238 0.13477 0.83789 0.062035 0.29551 0.028118 0.53853 0.49414 1.3457 0.46603 0.80719 0.69307 0.89618 0.91797 1.0977 0.2249 0.20148 0.42997 0.36448 0.6582 0.53711 0.45647 0.34525 0.99447 0.71626 1.6426 1.1484 1.2962 0.86436 3.0205 1.954 5.0625 3.207 4.0841 2.5061 9.4149 5.6556 14.781 8.7539 5.3663 3.0983 10.762 6.14 14.975 8.4238 2.1062 1.1419 3.91 2.0928 5.3066 2.7832 0.69833 0.34519 1.2892 0.62496 1.8164 0.84766 0.26361 0.11135 0.50798 0.2087 0.79492 0.30273 0.28694 0.094 0.47808 0.24414 1.4102 0.24414s1.1232-0.1501 1.4102-0.24414c0.28694-0.094 0.53131-0.19138 0.79492-0.30273 0.52722-0.2227 1.1181-0.50246 1.8164-0.84766 1.3966-0.69039 3.2005-1.6413 5.3066-2.7832 4.2122-2.2839 9.6066-5.3255 14.973-8.4238s10.697-6.2478 14.781-8.7539c2.0419-1.2531 3.7683-2.3427 5.0645-3.207 0.64808-0.43218 1.1842-0.80319 1.6406-1.1484 0.22823-0.17262 0.43331-0.33563 0.6582-0.53711 0.22489-0.20148 0.45197-0.29052 0.91797-1.0977 0.46602-0.80718 0.43211-1.0502 0.49414-1.3457 0.06203-0.29551 0.09939-0.55392 0.13476-0.83789 0.07076-0.56793 0.12361-1.2187 0.17383-1.9961 0.10044-1.5547 0.17998-3.5934 0.24414-5.9883 0.12832-4.7898 0.19141-10.981 0.19141-17.178 0-6.1963-0.06309-12.39-0.19141-17.18-0.06416-2.3949-0.1437-4.4336-0.24414-5.9883-0.05022-0.77734-0.10307-1.4282-0.17383-1.9961-0.03538-0.28396-0.07273-0.54238-0.13476-0.83789-0.06203-0.29551-0.02812-0.53853-0.49414-1.3457-0.466-0.80714-0.69308-0.89618-0.91797-1.0977-0.22489-0.20148-0.42998-0.36448-0.6582-0.53711-0.45645-0.34525-0.99255-0.71626-1.6406-1.1484-1.2962-0.86436-3.0225-1.954-5.0645-3.207-4.0839-2.5061-9.4152-5.6556-14.781-8.7539-5.3661-3.0983-10.76-6.1399-14.973-8.4238-2.1061-1.1419-3.91-2.0928-5.3066-2.7832-0.6983-0.3452-1.2892-0.62496-1.8164-0.84766-0.26361-0.11135-0.50798-0.2087-0.79492-0.30273s-0.47808-0.24414-1.4102-0.24414zm0 21.951c0.1882 0.08665 0.33708 0.14952 0.59961 0.2793 0.86568 0.42794 2.0817 1.0666 3.5078 1.8398 2.8522 1.5465 6.5609 3.637 10.244 5.7637 3.6832 2.1266 7.346 4.2933 10.111 5.9902 1.3827 0.84849 2.5442 1.5814 3.3477 2.1172 0.24364 0.16248 0.37383 0.25924 0.54297 0.37891 0.01909 0.20634 0.039663 0.36977 0.058593 0.66211 0.06225 0.96367 0.11671 2.3354 0.16016 3.957 0.086889 3.2433 0.12891 7.5008 0.12891 11.754 0 4.2531-0.042052 8.5086-0.12891 11.752-0.043481 1.6217-0.097895 2.9934-0.16016 3.957-0.01885 0.29234-0.039504 0.45577-0.058593 0.66211-0.16914 0.11967-0.29933 0.21643-0.54297 0.37891-0.80342 0.53577-1.965 1.2687-3.3477 2.1172-2.7653 1.697-6.4281 3.8636-10.111 5.9902-3.6832 2.1266-7.3919 4.2172-10.244 5.7637-1.4261 0.77324-2.6421 1.4119-3.5078 1.8398-0.26253 0.12978-0.41141 0.19265-0.59961 0.2793-0.18828-0.08668-0.33883-0.14942-0.60156-0.2793-0.86572-0.42794-2.0816-1.0666-3.5078-1.8398-2.8523-1.5465-6.5588-3.637-10.242-5.7637-3.6834-2.1266-7.3478-4.2933-10.113-5.9902-1.3827-0.84849-2.5442-1.5814-3.3477-2.1172-0.24366-0.16248-0.37383-0.25924-0.54297-0.37891-0.01906-0.20634-0.039704-0.36977-0.058594-0.66211-0.06226-0.96367-0.11671-2.3354-0.16016-3.957-0.08688-3.2433-0.12891-7.5008-0.12891-11.754 0-4.2531 0.042008-8.5086 0.12891-11.752 0.04344-1.6217 0.097901-2.9934 0.16016-3.957 0.01889-0.29234 0.039524-0.45577 0.058594-0.66211 0.16914-0.11967 0.29931-0.21643 0.54297-0.37891 0.80346-0.53577 1.9649-1.2687 3.3477-2.1172 2.7654-1.697 6.4299-3.8636 10.113-5.9902 3.6834-2.1266 7.3899-4.2172 10.242-5.7637 1.4262-0.77324 2.6421-1.4119 3.5078-1.8398 0.26273-0.12987 0.41328-0.19262 0.60156-0.2793z" style="-inkscape-stroke:none;color:#000000;fill:#444;stroke-linecap:round;stroke-linejoin:round;stroke-miterlimit:2.4"/><path d="m50.482 10.57c-0.77277 0-0.93124 0.12445-1.1691 0.20241-0.2379 0.07796-0.4405 0.15868-0.65906 0.25099-0.43712 0.18464-0.92698 0.41658-1.506 0.70278-1.1579 0.57239-2.6534 1.3607-4.3997 2.3075-3.4924 1.8935-7.9661 4.4153-12.415 6.9841-4.4491 2.5688-8.8689 5.1799-12.255 7.2577-1.693 1.0389-3.1226 1.9423-4.1973 2.6589-0.53733 0.35831-0.98338 0.66591-1.3618 0.95215-0.18923 0.14312-0.35925 0.27827-0.54571 0.44531-0.18646 0.16704-0.3747 0.24082-0.76108 0.91005-0.38637 0.66922-0.35825 0.8707-0.40968 1.1157-0.05144 0.245-0.08241 0.45925-0.11173 0.69468-0.05867 0.47086-0.10248 1.0104-0.14412 1.6549-0.08327 1.289-0.14922 2.9792-0.20241 4.9648-0.10639 3.9712-0.15869 9.1045-0.15869 14.242s0.05231 10.272 0.15869 14.243c0.05319 1.9856 0.11914 3.6758 0.20241 4.9648 0.04164 0.64449 0.08545 1.1841 0.14412 1.6549 0.02933 0.23543 0.0603 0.44968 0.11173 0.69468 0.05144 0.245 0.02331 0.44649 0.40968 1.1157 0.38638 0.66923 0.57461 0.74301 0.76108 0.91005 0.18646 0.16704 0.35648 0.30219 0.54571 0.44531 0.37845 0.28624 0.8245 0.59384 1.3618 0.95215 1.0747 0.71662 2.5042 1.62 4.1973 2.6589 3.386 2.0778 7.8058 4.689 12.255 7.2577 4.4492 2.5688 8.9228 5.0906 12.415 6.9841 1.7462 0.94677 3.2417 1.7351 4.3997 2.3075 0.57898 0.28619 1.0688 0.51814 1.506 0.70278 0.21856 0.0923 0.42116 0.17303 0.65906 0.25099 0.2379 0.0779 0.39637 0.20241 1.1691 0.20241 0.77278 0 0.93124-0.12444 1.1691-0.20241 0.2379-0.0779 0.44051-0.15867 0.65906-0.25099 0.43711-0.18464 0.927-0.41658 1.506-0.70278 1.1579-0.5724 2.6535-1.3608 4.3997-2.3075 3.4923-1.8935 7.9647-4.4153 12.414-6.9841 4.4489-2.5688 8.869-5.1799 12.255-7.2577 1.6929-1.0389 3.1242-1.9423 4.1989-2.6589 0.53731-0.35831 0.98178-0.66591 1.3602-0.95215 0.18921-0.14312 0.35925-0.27827 0.5457-0.44531 0.18645-0.16704 0.37472-0.24087 0.76108-0.91005 0.38637-0.66922 0.35825-0.8707 0.40968-1.1157 0.05141-0.245 0.08241-0.45925 0.11173-0.69468 0.0587-0.47086 0.10248-1.0104 0.14412-1.6549 0.08327-1.289 0.14922-2.9792 0.20241-4.9648 0.10638-3.9712 0.1587-9.1045 0.1587-14.242 0-5.1373-0.05232-10.272-0.1587-14.243-0.05322-1.9856-0.11914-3.6758-0.20241-4.9648-0.04162-0.64449-0.08545-1.1841-0.14412-1.6549-0.02935-0.23543-0.06027-0.44968-0.11173-0.69468-0.05141-0.245-0.02329-0.44649-0.40968-1.1157-0.38636-0.66919-0.57462-0.74301-0.76108-0.91005-0.18645-0.16704-0.35649-0.30219-0.5457-0.44531-0.37844-0.28624-0.82291-0.59384-1.3602-0.95215-1.0746-0.71663-2.5059-1.62-4.1989-2.6589-3.3859-2.0778-7.806-4.689-12.255-7.2577-4.449-2.5688-8.9213-5.0905-12.414-6.9841-1.7461-0.94677-3.2418-1.7351-4.3997-2.3075-0.57895-0.2862-1.0688-0.51814-1.506-0.70278-0.21856-0.092318-0.42117-0.17303-0.65906-0.25099-0.2379-0.077961-0.39636-0.20241-1.1691-0.20241zm0 18.199c0.15603 0.07184 0.27946 0.12396 0.49713 0.23156 0.71772 0.3548 1.7259 0.88431 2.9083 1.5254 2.3647 1.2822 5.4396 3.0154 8.4933 4.7786 3.0537 1.7632 6.0905 3.5595 8.3832 4.9664 1.1463 0.70347 2.1094 1.3111 2.7755 1.7553 0.20201 0.13471 0.30994 0.21493 0.45017 0.31415 0.01583 0.17108 0.03291 0.30657 0.04859 0.54894 0.05165 0.79897 0.09676 1.9362 0.13279 3.2807 0.07205 2.689 0.10688 6.2188 0.10688 9.745 0 3.5262-0.0349 7.0544-0.10688 9.7434-0.03607 1.3445-0.08117 2.4818-0.13279 3.2807-0.01567 0.24237-0.03275 0.37787-0.04859 0.54895-0.14023 0.09922-0.24816 0.17944-0.45017 0.31415-0.6661 0.4442-1.6292 1.0519-2.7755 1.7553-2.2927 1.4069-5.3295 3.2033-8.3832 4.9664-3.0537 1.7632-6.1286 3.4964-8.4933 4.7786-1.1824 0.64108-2.1906 1.1706-2.9083 1.5254-0.21767 0.1076-0.3411 0.15973-0.49713 0.23156-0.15611-0.07187-0.28092-0.12389-0.49875-0.23156-0.71775-0.3548-1.7259-0.8843-2.9083-1.5254-2.3648-1.2822-5.4378-3.0154-8.4917-4.7786-3.0539-1.7632-6.092-3.5595-8.3848-4.9664-1.1464-0.70347-2.1094-1.3111-2.7755-1.7553-0.20201-0.13471-0.30994-0.21493-0.45017-0.31415-0.0158-0.17108-0.03291-0.30657-0.04858-0.54895-0.05162-0.79897-0.09676-1.9362-0.13278-3.2807-0.07203-2.689-0.10688-6.2188-0.10688-9.745 0-3.5262 0.03483-7.0544 0.10688-9.7434 0.03601-1.3445 0.08117-2.4818 0.13278-3.2807 0.01566-0.24237 0.03277-0.37787 0.04858-0.54894 0.14023-0.09921 0.24815-0.17944 0.45017-0.31415 0.66614-0.4442 1.6291-1.0519 2.7755-1.7553 2.2928-1.4069 5.3309-3.2032 8.3848-4.9664 3.0539-1.7632 6.1268-3.4964 8.4917-4.7786 1.1824-0.64108 2.1905-1.1706 2.9083-1.5254 0.21783-0.10768 0.34264-0.1597 0.49875-0.23156z" style="-inkscape-stroke:none;color:#000000;fill:#cdcdcd;stroke-linecap:round;stroke-linejoin:round;stroke-miterlimit:2.4;stroke-width:.82909"/><path d="m50.482 26.121c-0.50776 0-0.61191 0.08174-0.76822 0.13296-0.15632 0.05123-0.29037 0.10369-0.43398 0.16435-0.28721 0.1213-0.60941 0.27363-0.98983 0.46168-0.76083 0.37609-1.7427 0.89406-2.8901 1.5161-2.2947 1.2442-5.2335 2.9012-8.1569 4.589-2.9233 1.6878-5.8286 3.4029-8.0534 4.7682-1.1124 0.68261-2.051 1.278-2.7571 1.7488-0.35305 0.23544-0.64513 0.43611-0.8938 0.62418-0.12433 0.09404-0.23758 0.18386-0.36011 0.29363-0.12252 0.10975-0.24474 0.1586-0.49861 0.59833-0.25386 0.43971-0.23582 0.57216-0.26962 0.73314-0.03379 0.16098-0.0546 0.30144-0.07388 0.45613-0.03854 0.30938-0.06682 0.66424-0.09418 1.0877-0.05472 0.84692-0.09802 1.9566-0.13296 3.2613-0.0699 2.6093-0.10527 5.9817-0.10527 9.3572 0 3.3755 0.03537 6.7498 0.10527 9.3591 0.03494 1.3046 0.07824 2.4143 0.13296 3.2613 0.02736 0.42346 0.05562 0.77832 0.09418 1.0877 0.0193 0.15469 0.04006 0.29516 0.07388 0.45613 0.03379 0.16099 0.01572 0.29343 0.26962 0.73314 0.25387 0.43972 0.37609 0.48857 0.49861 0.59833 0.12252 0.10975 0.23577 0.19959 0.36011 0.29363 0.24866 0.18808 0.54074 0.38875 0.8938 0.62418 0.70612 0.47086 1.6447 1.0662 2.7571 1.7488 2.2248 1.3652 5.1301 3.0804 8.0534 4.7682 2.9233 1.6878 5.8622 3.3449 8.1569 4.589 1.1474 0.62208 2.1293 1.14 2.8901 1.5161 0.38042 0.18804 0.70262 0.34036 0.98983 0.46168 0.14361 0.06065 0.27766 0.11313 0.43398 0.16435 0.15631 0.05117 0.26047 0.13296 0.76822 0.13296 0.50775 0 0.61191-0.08174 0.76822-0.13296 0.15632-0.05119 0.28852-0.10369 0.43213-0.16435 0.2872-0.12133 0.60943-0.27363 0.98983-0.46168 0.7608-0.37609 1.7428-0.89406 2.8901-1.5161 2.2946-1.2442 5.2337-2.9012 8.1569-4.589 2.9232-1.6878 5.8287-3.4029 8.0534-4.7682 1.1124-0.68261 2.051-1.278 2.7571-1.7488 0.35304-0.23544 0.64514-0.43611 0.8938-0.62418 0.12433-0.09404 0.23761-0.18386 0.36011-0.29363 0.12252-0.10975 0.24476-0.15862 0.49861-0.59833 0.25386-0.43971 0.23582-0.57216 0.26962-0.73314 0.03377-0.16098 0.0546-0.30144 0.07388-0.45613 0.03856-0.30938 0.06682-0.66424 0.09419-1.0877 0.05474-0.84692 0.098-1.9566 0.13296-3.2613 0.0699-2.6093 0.10527-5.9817 0.10527-9.3572 0-3.3755-0.03536-6.7498-0.10527-9.3591-0.03497-1.3046-0.07824-2.4143-0.13296-3.2613-0.02734-0.42346-0.05567-0.77832-0.09419-1.0877-0.0193-0.15469-0.04009-0.29515-0.07388-0.45613-0.03377-0.16099-0.01572-0.29343-0.26962-0.73314-0.25385-0.43969-0.3761-0.48857-0.49861-0.59833-0.12252-0.10975-0.2358-0.19959-0.36011-0.29363-0.24866-0.18808-0.54076-0.38875-0.8938-0.62418-0.70608-0.47086-1.6448-1.0662-2.7571-1.7488-2.2247-1.3652-5.1302-3.0804-8.0534-4.7682-2.9232-1.6878-5.8622-3.3449-8.1569-4.589-1.1473-0.62208-2.1293-1.14-2.8901-1.5161-0.3804-0.18806-0.70263-0.34036-0.98983-0.46168-0.14361-0.06066-0.27581-0.11313-0.43213-0.16435-0.15631-0.05121-0.26047-0.13296-0.76822-0.13296z" style="-inkscape-stroke:none;color:#000000;fill:#545454;stroke-linecap:round;stroke-linejoin:round;stroke-miterlimit:2.4;stroke-width:.54475"/></svg>
