<svg width="101" height="112" version="1.1" xmlns="http://www.w3.org/2000/svg"><path d="m50.482 1.2227c-0.93208 0-1.1232 0.15011-1.4102 0.24414-0.28694 0.094033-0.53131 0.19139-0.79492 0.30273-0.52723 0.2227-1.1181 0.50246-1.8164 0.84766-1.3967 0.69039-3.2005 1.6413-5.3066 2.7832-4.2124 2.2839-9.6083 5.3255-14.975 8.4238-5.3663 3.0983-10.697 6.2478-14.781 8.7539-2.042 1.2531-3.7663 2.3427-5.0625 3.207-0.6481 0.43218-1.1861 0.80319-1.6426 1.1484-0.22824 0.17262-0.4333 0.33563-0.6582 0.53711-0.2249 0.20148-0.45194 0.29047-0.91797 1.0977-0.46602 0.80718-0.43211 1.0502-0.49414 1.3457-0.062035 0.29551-0.099387 0.55392-0.13477 0.83789-0.070756 0.56793-0.12361 1.2187-0.17383 1.9961-0.10044 1.5547-0.17998 3.5934-0.24414 5.9883-0.12832 4.7898-0.19141 10.981-0.19141 17.178 0 6.1963 0.063088 12.39 0.19141 17.18 0.064159 2.3949 0.1437 4.4336 0.24414 5.9883 0.050221 0.77734 0.10307 1.4282 0.17383 1.9961 0.035378 0.28397 0.07273 0.54238 0.13477 0.83789 0.062035 0.29551 0.028118 0.53853 0.49414 1.3457 0.46603 0.80719 0.69307 0.89618 0.91797 1.0977 0.2249 0.20148 0.42997 0.36448 0.6582 0.53711 0.45647 0.34525 0.99447 0.71626 1.6426 1.1484 1.2962 0.86436 3.0205 1.954 5.0625 3.207 4.0841 2.5061 9.4149 5.6556 14.781 8.7539 5.3663 3.0983 10.762 6.14 14.975 8.4238 2.1062 1.1419 3.91 2.0928 5.3066 2.7832 0.69833 0.34519 1.2892 0.62496 1.8164 0.84766 0.26361 0.11135 0.50798 0.2087 0.79492 0.30273 0.28694 0.094 0.47808 0.24414 1.4102 0.24414s1.1232-0.1501 1.4102-0.24414c0.28694-0.094 0.53131-0.19138 0.79492-0.30273 0.52722-0.2227 1.1181-0.50246 1.8164-0.84766 1.3966-0.69039 3.2005-1.6413 5.3066-2.7832 4.2122-2.2839 9.6066-5.3255 14.973-8.4238s10.697-6.2478 14.781-8.7539c2.0419-1.2531 3.7683-2.3427 5.0645-3.207 0.64808-0.43218 1.1842-0.80319 1.6406-1.1484 0.22823-0.17262 0.43331-0.33563 0.6582-0.53711 0.22489-0.20148 0.45197-0.29052 0.91797-1.0977 0.46602-0.80718 0.43211-1.0502 0.49414-1.3457 0.06203-0.29551 0.09939-0.55392 0.13476-0.83789 0.07076-0.56793 0.12361-1.2187 0.17383-1.9961 0.10044-1.5547 0.17998-3.5934 0.24414-5.9883 0.12832-4.7898 0.19141-10.981 0.19141-17.178 0-6.1963-0.06309-12.39-0.19141-17.18-0.06416-2.3949-0.1437-4.4336-0.24414-5.9883-0.05022-0.77734-0.10307-1.4282-0.17383-1.9961-0.03538-0.28396-0.07273-0.54238-0.13476-0.83789-0.06203-0.29551-0.02812-0.53853-0.49414-1.3457-0.466-0.80714-0.69308-0.89618-0.91797-1.0977-0.22489-0.20148-0.42998-0.36448-0.6582-0.53711-0.45645-0.34525-0.99255-0.71626-1.6406-1.1484-1.2962-0.86436-3.0225-1.954-5.0645-3.207-4.0839-2.5061-9.4152-5.6556-14.781-8.7539-5.3661-3.0983-10.76-6.1399-14.973-8.4238-2.1061-1.1419-3.91-2.0928-5.3066-2.7832-0.6983-0.3452-1.2892-0.62496-1.8164-0.84766-0.26361-0.11135-0.50798-0.2087-0.79492-0.30273s-0.47808-0.24414-1.4102-0.24414zm0 21.951c0.1882 0.08665 0.33708 0.14952 0.59961 0.2793 0.86568 0.42794 2.0817 1.0666 3.5078 1.8398 2.8522 1.5465 6.5609 3.637 10.244 5.7637 3.6832 2.1266 7.346 4.2933 10.111 5.9902 1.3827 0.84849 2.5442 1.5814 3.3477 2.1172 0.24364 0.16248 0.37383 0.25924 0.54297 0.37891 0.01909 0.20634 0.039663 0.36977 0.058593 0.66211 0.06225 0.96367 0.11671 2.3354 0.16016 3.957 0.086889 3.2433 0.12891 7.5008 0.12891 11.754 0 4.2531-0.042052 8.5086-0.12891 11.752-0.043481 1.6217-0.097895 2.9934-0.16016 3.957-0.01885 0.29234-0.039504 0.45577-0.058593 0.66211-0.16914 0.11967-0.29933 0.21643-0.54297 0.37891-0.80342 0.53577-1.965 1.2687-3.3477 2.1172-2.7653 1.697-6.4281 3.8636-10.111 5.9902-3.6832 2.1266-7.3919 4.2172-10.244 5.7637-1.4261 0.77324-2.6421 1.4119-3.5078 1.8398-0.26253 0.12978-0.41141 0.19265-0.59961 0.2793-0.18828-0.08668-0.33883-0.14942-0.60156-0.2793-0.86572-0.42794-2.0816-1.0666-3.5078-1.8398-2.8523-1.5465-6.5588-3.637-10.242-5.7637-3.6834-2.1266-7.3478-4.2933-10.113-5.9902-1.3827-0.84849-2.5442-1.5814-3.3477-2.1172-0.24366-0.16248-0.37383-0.25924-0.54297-0.37891-0.01906-0.20634-0.039704-0.36977-0.058594-0.66211-0.06226-0.96367-0.11671-2.3354-0.16016-3.957-0.08688-3.2433-0.12891-7.5008-0.12891-11.754 0-4.2531 0.042008-8.5086 0.12891-11.752 0.04344-1.6217 0.097901-2.9934 0.16016-3.957 0.01889-0.29234 0.039524-0.45577 0.058594-0.66211 0.16914-0.11967 0.29931-0.21643 0.54297-0.37891 0.80346-0.53577 1.9649-1.2687 3.3477-2.1172 2.7654-1.697 6.4299-3.8636 10.113-5.9902 3.6834-2.1266 7.3899-4.2172 10.242-5.7637 1.4262-0.77324 2.6421-1.4119 3.5078-1.8398 0.26273-0.12987 0.41328-0.19262 0.60156-0.2793z" style="-inkscape-stroke:none;color:#000000;fill:#dcdcdc;stroke-linecap:round;stroke-linejoin:round;stroke-miterlimit:2.4"/></svg>
